<?xml version="1.0" encoding="UTF-8" standalone="no"?>
<!DOCTYPE svg PUBLIC "-//W3C//DTD SVG 1.1//EN"
 "http://www.w3.org/Graphics/SVG/1.1/DTD/svg11.dtd">
<!-- Generated by graphviz version 2.43.0 (0)
 -->
<!-- Title: pastafarianism Pages: 1 -->
<svg width="1685pt" height="719pt"
 viewBox="0.00 0.00 1685.42 718.56" xmlns="http://www.w3.org/2000/svg" xmlns:xlink="http://www.w3.org/1999/xlink">
<g id="graph0" class="graph" transform="scale(1 1) rotate(0) translate(4 714.56)">
<title>pastafarianism</title>
<polygon fill="white" stroke="transparent" points="-4,4 -4,-714.56 1681.42,-714.56 1681.42,4 -4,4"/>
<!-- a9b4b000&#45;7583&#45;4ef8&#45;8f0a&#45;c57e32fb81f0 -->
<g id="node1" class="node">
<title>a9b4b000&#45;7583&#45;4ef8&#45;8f0a&#45;c57e32fb81f0</title>
<polygon fill="#b0ffff" stroke="black" points="1085.42,-710.56 1049.42,-710.56 1049.42,-680.56 1085.42,-680.56 1085.42,-710.56"/>
<text text-anchor="middle" x="1067.42" y="-690.56" font-family="Times,serif" font-size="20.00"> ? </text>
</g>
<!-- c0a73e21&#45;3f35&#45;4c1d&#45;92c5&#45;0b8283b2e6fc -->
<g id="node2" class="node">
<title>c0a73e21&#45;3f35&#45;4c1d&#45;92c5&#45;0b8283b2e6fc</title>
<polygon fill="#ff8080" stroke="black" points="690.92,-644.56 653.92,-644.56 653.92,-614.56 690.92,-614.56 690.92,-644.56"/>
<text text-anchor="middle" x="672.42" y="-624.56" font-family="Times,serif" font-size="20.00">→</text>
</g>
<!-- a9b4b000&#45;7583&#45;4ef8&#45;8f0a&#45;c57e32fb81f0&#45;&gt;c0a73e21&#45;3f35&#45;4c1d&#45;92c5&#45;0b8283b2e6fc -->
<g id="edge1" class="edge">
<title>a9b4b000&#45;7583&#45;4ef8&#45;8f0a&#45;c57e32fb81f0&#45;&gt;c0a73e21&#45;3f35&#45;4c1d&#45;92c5&#45;0b8283b2e6fc</title>
<path fill="none" stroke="black" d="M1049.16,-691.6C986.13,-681.39 777.33,-647.56 700.83,-635.16"/>
<polygon fill="black" stroke="black" points="701.37,-631.7 690.94,-633.56 700.25,-638.61 701.37,-631.7"/>
</g>
<!-- 43e26de1&#45;97f6&#45;40af&#45;9eac&#45;821f9358875d -->
<g id="node6" class="node">
<title>43e26de1&#45;97f6&#45;40af&#45;9eac&#45;821f9358875d</title>
<polygon fill="#ff8080" stroke="black" points="1085.92,-644.56 1048.92,-644.56 1048.92,-614.56 1085.92,-614.56 1085.92,-644.56"/>
<text text-anchor="middle" x="1067.42" y="-624.56" font-family="Times,serif" font-size="20.00">→</text>
</g>
<!-- a9b4b000&#45;7583&#45;4ef8&#45;8f0a&#45;c57e32fb81f0&#45;&gt;43e26de1&#45;97f6&#45;40af&#45;9eac&#45;821f9358875d -->
<g id="edge5" class="edge">
<title>a9b4b000&#45;7583&#45;4ef8&#45;8f0a&#45;c57e32fb81f0&#45;&gt;43e26de1&#45;97f6&#45;40af&#45;9eac&#45;821f9358875d</title>
<path fill="none" stroke="black" d="M1067.42,-680.35C1067.42,-672.9 1067.42,-663.55 1067.42,-654.97"/>
<polygon fill="black" stroke="black" points="1070.92,-654.72 1067.42,-644.72 1063.92,-654.72 1070.92,-654.72"/>
</g>
<!-- ccede42e&#45;b4f8&#45;4c0b&#45;85a1&#45;fcad8151c43c -->
<g id="node33" class="node">
<title>ccede42e&#45;b4f8&#45;4c0b&#45;85a1&#45;fcad8151c43c</title>
<polygon fill="#ff8080" stroke="black" points="1317.92,-644.56 1280.92,-644.56 1280.92,-614.56 1317.92,-614.56 1317.92,-644.56"/>
<text text-anchor="middle" x="1299.42" y="-624.56" font-family="Times,serif" font-size="20.00">→</text>
</g>
<!-- a9b4b000&#45;7583&#45;4ef8&#45;8f0a&#45;c57e32fb81f0&#45;&gt;ccede42e&#45;b4f8&#45;4c0b&#45;85a1&#45;fcad8151c43c -->
<g id="edge32" class="edge">
<title>a9b4b000&#45;7583&#45;4ef8&#45;8f0a&#45;c57e32fb81f0&#45;&gt;ccede42e&#45;b4f8&#45;4c0b&#45;85a1&#45;fcad8151c43c</title>
<path fill="none" stroke="black" d="M1085.63,-689.54C1125.83,-678.45 1222.46,-651.79 1270.83,-638.45"/>
<polygon fill="black" stroke="black" points="1271.95,-641.77 1280.66,-635.73 1270.09,-635.02 1271.95,-641.77"/>
</g>
<!-- d12846a5&#45;d071&#45;478f&#45;ba89&#45;afbf48b8fe41 -->
<g id="node3" class="node">
<title>d12846a5&#45;d071&#45;478f&#45;ba89&#45;afbf48b8fe41</title>
<ellipse fill="#ffff80" stroke="black" cx="284.42" cy="-557.35" rx="101.23" ry="21.43"/>
<text text-anchor="middle" x="284.42" y="-552.35" font-family="Times,serif" font-size="20.00">IsOpen(drawer)</text>
</g>
<!-- c0a73e21&#45;3f35&#45;4c1d&#45;92c5&#45;0b8283b2e6fc&#45;&gt;d12846a5&#45;d071&#45;478f&#45;ba89&#45;afbf48b8fe41 -->
<g id="edge2" class="edge">
<title>c0a73e21&#45;3f35&#45;4c1d&#45;92c5&#45;0b8283b2e6fc&#45;&gt;d12846a5&#45;d071&#45;478f&#45;ba89&#45;afbf48b8fe41</title>
<path fill="none" stroke="black" d="M653.61,-625.17C608.86,-617.12 492.55,-596.17 395.42,-578.56 386.65,-576.97 377.48,-575.3 368.34,-573.64"/>
<polygon fill="black" stroke="black" points="368.92,-570.19 358.46,-571.84 367.67,-577.08 368.92,-570.19"/>
</g>
<!-- 0839334d&#45;ba73&#45;4d1b&#45;9fe1&#45;a78d4aec138d -->
<g id="node4" class="node">
<title>0839334d&#45;ba73&#45;4d1b&#45;9fe1&#45;a78d4aec138d</title>
<ellipse fill="#ffff80" stroke="black" cx="545.42" cy="-557.35" rx="141.34" ry="21.43"/>
<text text-anchor="middle" x="545.42" y="-552.35" font-family="Times,serif" font-size="20.00">On(apple,coffee_table)</text>
</g>
<!-- c0a73e21&#45;3f35&#45;4c1d&#45;92c5&#45;0b8283b2e6fc&#45;&gt;0839334d&#45;ba73&#45;4d1b&#45;9fe1&#45;a78d4aec138d -->
<g id="edge3" class="edge">
<title>c0a73e21&#45;3f35&#45;4c1d&#45;92c5&#45;0b8283b2e6fc&#45;&gt;0839334d&#45;ba73&#45;4d1b&#45;9fe1&#45;a78d4aec138d</title>
<path fill="none" stroke="black" d="M653.68,-618.2C636.88,-608.91 611.58,-594.92 589.66,-582.8"/>
<polygon fill="black" stroke="black" points="591.27,-579.69 580.83,-577.92 587.89,-585.82 591.27,-579.69"/>
</g>
<!-- 9bf155a9&#45;3b1b&#45;4cf6&#45;9f1b&#45;81aeaa56c2a9 -->
<g id="node5" class="node">
<title>9bf155a9&#45;3b1b&#45;4cf6&#45;9f1b&#45;81aeaa56c2a9</title>
<ellipse fill="#ffff80" stroke="black" cx="798.42" cy="-557.35" rx="93.18" ry="21.43"/>
<text text-anchor="middle" x="798.42" y="-552.35" font-family="Times,serif" font-size="20.00">Toggled(oven)</text>
</g>
<!-- c0a73e21&#45;3f35&#45;4c1d&#45;92c5&#45;0b8283b2e6fc&#45;&gt;9bf155a9&#45;3b1b&#45;4cf6&#45;9f1b&#45;81aeaa56c2a9 -->
<g id="edge4" class="edge">
<title>c0a73e21&#45;3f35&#45;4c1d&#45;92c5&#45;0b8283b2e6fc&#45;&gt;9bf155a9&#45;3b1b&#45;4cf6&#45;9f1b&#45;81aeaa56c2a9</title>
<path fill="none" stroke="black" d="M691.01,-618.2C707.98,-608.74 733.69,-594.42 755.7,-582.15"/>
<polygon fill="black" stroke="black" points="757.53,-585.14 764.56,-577.22 754.12,-579.03 757.53,-585.14"/>
</g>
<!-- cde28cb3&#45;3d74&#45;4c9f&#45;b9b9&#45;fbe8628b9265 -->
<g id="node7" class="node">
<title>cde28cb3&#45;3d74&#45;4c9f&#45;b9b9&#45;fbe8628b9265</title>
<ellipse fill="#ffff80" stroke="black" cx="1003.42" cy="-557.35" rx="93.18" ry="21.43"/>
<text text-anchor="middle" x="1003.42" y="-552.35" font-family="Times,serif" font-size="20.00">Toggled(oven)</text>
</g>
<!-- 43e26de1&#45;97f6&#45;40af&#45;9eac&#45;821f9358875d&#45;&gt;cde28cb3&#45;3d74&#45;4c9f&#45;b9b9&#45;fbe8628b9265 -->
<g id="edge6" class="edge">
<title>43e26de1&#45;97f6&#45;40af&#45;9eac&#45;821f9358875d&#45;&gt;cde28cb3&#45;3d74&#45;4c9f&#45;b9b9&#45;fbe8628b9265</title>
<path fill="none" stroke="black" d="M1054.47,-614.35C1047.03,-606.19 1037.44,-595.67 1028.58,-585.95"/>
<polygon fill="black" stroke="black" points="1031.01,-583.42 1021.69,-578.39 1025.84,-588.13 1031.01,-583.42"/>
</g>
<!-- 62f069db&#45;3a74&#45;4606&#45;aeff&#45;7e8a9f3e3b5c -->
<g id="node8" class="node">
<title>62f069db&#45;3a74&#45;4606&#45;aeff&#45;7e8a9f3e3b5c</title>
<polygon fill="#b0ffff" stroke="black" points="1150.42,-572.35 1114.42,-572.35 1114.42,-542.35 1150.42,-542.35 1150.42,-572.35"/>
<text text-anchor="middle" x="1132.42" y="-552.35" font-family="Times,serif" font-size="20.00"> ? </text>
</g>
<!-- 43e26de1&#45;97f6&#45;40af&#45;9eac&#45;821f9358875d&#45;&gt;62f069db&#45;3a74&#45;4606&#45;aeff&#45;7e8a9f3e3b5c -->
<g id="edge7" class="edge">
<title>43e26de1&#45;97f6&#45;40af&#45;9eac&#45;821f9358875d&#45;&gt;62f069db&#45;3a74&#45;4606&#45;aeff&#45;7e8a9f3e3b5c</title>
<path fill="none" stroke="black" d="M1080.58,-614.35C1089.65,-604.55 1101.89,-591.33 1112.2,-580.19"/>
<polygon fill="black" stroke="black" points="1115.06,-582.25 1119.29,-572.53 1109.93,-577.49 1115.06,-582.25"/>
</g>
<!-- 66638757&#45;2db3&#45;4cec&#45;8f4b&#45;08a8d1ade07c -->
<g id="node9" class="node">
<title>66638757&#45;2db3&#45;4cec&#45;8f4b&#45;08a8d1ade07c</title>
<polygon fill="#b0ffff" stroke="black" points="999.42,-497.13 963.42,-497.13 963.42,-467.13 999.42,-467.13 999.42,-497.13"/>
<text text-anchor="middle" x="981.42" y="-477.13" font-family="Times,serif" font-size="20.00"> ? </text>
</g>
<!-- 62f069db&#45;3a74&#45;4606&#45;aeff&#45;7e8a9f3e3b5c&#45;&gt;66638757&#45;2db3&#45;4cec&#45;8f4b&#45;08a8d1ade07c -->
<g id="edge8" class="edge">
<title>62f069db&#45;3a74&#45;4606&#45;aeff&#45;7e8a9f3e3b5c&#45;&gt;66638757&#45;2db3&#45;4cec&#45;8f4b&#45;08a8d1ade07c</title>
<path fill="none" stroke="black" d="M1114.82,-542.24C1111.77,-540.07 1108.57,-537.95 1105.42,-536.13 1073.91,-517.95 1034.97,-502.32 1009.23,-492.83"/>
<polygon fill="black" stroke="black" points="1010.32,-489.51 999.72,-489.39 1007.94,-496.09 1010.32,-489.51"/>
</g>
<!-- 5192498b&#45;d3f5&#45;498b&#45;91ac&#45;57999e897b3e -->
<g id="node30" class="node">
<title>5192498b&#45;d3f5&#45;498b&#45;91ac&#45;57999e897b3e</title>
<polygon fill="#ff8080" stroke="black" points="1150.92,-497.13 1113.92,-497.13 1113.92,-467.13 1150.92,-467.13 1150.92,-497.13"/>
<text text-anchor="middle" x="1132.42" y="-477.13" font-family="Times,serif" font-size="20.00">→</text>
</g>
<!-- 62f069db&#45;3a74&#45;4606&#45;aeff&#45;7e8a9f3e3b5c&#45;&gt;5192498b&#45;d3f5&#45;498b&#45;91ac&#45;57999e897b3e -->
<g id="edge29" class="edge">
<title>62f069db&#45;3a74&#45;4606&#45;aeff&#45;7e8a9f3e3b5c&#45;&gt;5192498b&#45;d3f5&#45;498b&#45;91ac&#45;57999e897b3e</title>
<path fill="none" stroke="black" d="M1132.42,-542.23C1132.42,-532.4 1132.42,-519.05 1132.42,-507.52"/>
<polygon fill="black" stroke="black" points="1135.92,-507.2 1132.42,-497.2 1128.92,-507.2 1135.92,-507.2"/>
</g>
<!-- 96a7ee58&#45;b569&#45;4c65&#45;9263&#45;e3db114e4ae8 -->
<g id="node10" class="node">
<title>96a7ee58&#45;b569&#45;4c65&#45;9263&#45;e3db114e4ae8</title>
<polygon fill="#b0ffff" stroke="black" points="770.42,-421.92 734.42,-421.92 734.42,-391.92 770.42,-391.92 770.42,-421.92"/>
<text text-anchor="middle" x="752.42" y="-401.92" font-family="Times,serif" font-size="20.00"> ? </text>
</g>
<!-- 66638757&#45;2db3&#45;4cec&#45;8f4b&#45;08a8d1ade07c&#45;&gt;96a7ee58&#45;b569&#45;4c65&#45;9263&#45;e3db114e4ae8 -->
<g id="edge9" class="edge">
<title>66638757&#45;2db3&#45;4cec&#45;8f4b&#45;08a8d1ade07c&#45;&gt;96a7ee58&#45;b569&#45;4c65&#45;9263&#45;e3db114e4ae8</title>
<path fill="none" stroke="black" d="M963.07,-475.26C923.02,-462.46 827.6,-431.95 780.17,-416.79"/>
<polygon fill="black" stroke="black" points="781.13,-413.42 770.54,-413.71 779,-420.09 781.13,-413.42"/>
</g>
<!-- ef9846bd&#45;0238&#45;409f&#45;b7f8&#45;458d805d35fb -->
<g id="node26" class="node">
<title>ef9846bd&#45;0238&#45;409f&#45;b7f8&#45;458d805d35fb</title>
<polygon fill="#ff8080" stroke="black" points="999.92,-421.92 962.92,-421.92 962.92,-391.92 999.92,-391.92 999.92,-421.92"/>
<text text-anchor="middle" x="981.42" y="-401.92" font-family="Times,serif" font-size="20.00">→</text>
</g>
<!-- 66638757&#45;2db3&#45;4cec&#45;8f4b&#45;08a8d1ade07c&#45;&gt;ef9846bd&#45;0238&#45;409f&#45;b7f8&#45;458d805d35fb -->
<g id="edge25" class="edge">
<title>66638757&#45;2db3&#45;4cec&#45;8f4b&#45;08a8d1ade07c&#45;&gt;ef9846bd&#45;0238&#45;409f&#45;b7f8&#45;458d805d35fb</title>
<path fill="none" stroke="black" d="M981.42,-467.02C981.42,-457.19 981.42,-443.84 981.42,-432.31"/>
<polygon fill="black" stroke="black" points="984.92,-431.99 981.42,-421.99 977.92,-431.99 984.92,-431.99"/>
</g>
<!-- d624a72b&#45;fa30&#45;45b5&#45;ac73&#45;ba7a41fecc68 -->
<g id="node11" class="node">
<title>d624a72b&#45;fa30&#45;45b5&#45;ac73&#45;ba7a41fecc68</title>
<polygon fill="#b0ffff" stroke="black" points="627.42,-343.49 591.42,-343.49 591.42,-313.49 627.42,-313.49 627.42,-343.49"/>
<text text-anchor="middle" x="609.42" y="-323.49" font-family="Times,serif" font-size="20.00"> ? </text>
</g>
<!-- 96a7ee58&#45;b569&#45;4c65&#45;9263&#45;e3db114e4ae8&#45;&gt;d624a72b&#45;fa30&#45;45b5&#45;ac73&#45;ba7a41fecc68 -->
<g id="edge10" class="edge">
<title>96a7ee58&#45;b569&#45;4c65&#45;9263&#45;e3db114e4ae8&#45;&gt;d624a72b&#45;fa30&#45;45b5&#45;ac73&#45;ba7a41fecc68</title>
<path fill="none" stroke="black" d="M734.31,-396.24C709.73,-383.1 665.6,-359.52 636.92,-344.19"/>
<polygon fill="black" stroke="black" points="638.31,-340.96 627.84,-339.33 635.01,-347.14 638.31,-340.96"/>
</g>
<!-- e1ab008c&#45;9ba5&#45;4e14&#45;8264&#45;14e0b0926480 -->
<g id="node23" class="node">
<title>e1ab008c&#45;9ba5&#45;4e14&#45;8264&#45;14e0b0926480</title>
<polygon fill="#ff8080" stroke="black" points="770.92,-343.49 733.92,-343.49 733.92,-313.49 770.92,-313.49 770.92,-343.49"/>
<text text-anchor="middle" x="752.42" y="-323.49" font-family="Times,serif" font-size="20.00">→</text>
</g>
<!-- 96a7ee58&#45;b569&#45;4c65&#45;9263&#45;e3db114e4ae8&#45;&gt;e1ab008c&#45;9ba5&#45;4e14&#45;8264&#45;14e0b0926480 -->
<g id="edge22" class="edge">
<title>96a7ee58&#45;b569&#45;4c65&#45;9263&#45;e3db114e4ae8&#45;&gt;e1ab008c&#45;9ba5&#45;4e14&#45;8264&#45;14e0b0926480</title>
<path fill="none" stroke="black" d="M752.42,-391.9C752.42,-381.3 752.42,-366.48 752.42,-353.95"/>
<polygon fill="black" stroke="black" points="755.92,-353.68 752.42,-343.68 748.92,-353.68 755.92,-353.68"/>
</g>
<!-- ad3c24e8&#45;9dc9&#45;4b2d&#45;9eb9&#45;23817b9e9fc2 -->
<g id="node12" class="node">
<title>ad3c24e8&#45;9dc9&#45;4b2d&#45;9eb9&#45;23817b9e9fc2</title>
<polygon fill="#ff8080" stroke="black" points="336.92,-265.07 299.92,-265.07 299.92,-235.07 336.92,-235.07 336.92,-265.07"/>
<text text-anchor="middle" x="318.42" y="-245.07" font-family="Times,serif" font-size="20.00">→</text>
</g>
<!-- d624a72b&#45;fa30&#45;45b5&#45;ac73&#45;ba7a41fecc68&#45;&gt;ad3c24e8&#45;9dc9&#45;4b2d&#45;9eb9&#45;23817b9e9fc2 -->
<g id="edge11" class="edge">
<title>d624a72b&#45;fa30&#45;45b5&#45;ac73&#45;ba7a41fecc68&#45;&gt;ad3c24e8&#45;9dc9&#45;4b2d&#45;9eb9&#45;23817b9e9fc2</title>
<path fill="none" stroke="black" d="M591.22,-322.71C542.04,-309.79 406.21,-274.12 346.83,-258.53"/>
<polygon fill="black" stroke="black" points="347.55,-255.1 336.99,-255.94 345.78,-261.87 347.55,-255.1"/>
</g>
<!-- 390fd632&#45;e557&#45;43ea&#45;b8e2&#45;f9e683bfc064 -->
<g id="node19" class="node">
<title>390fd632&#45;e557&#45;43ea&#45;b8e2&#45;f9e683bfc064</title>
<polygon fill="#ff8080" stroke="black" points="627.92,-265.07 590.92,-265.07 590.92,-235.07 627.92,-235.07 627.92,-265.07"/>
<text text-anchor="middle" x="609.42" y="-245.07" font-family="Times,serif" font-size="20.00">→</text>
</g>
<!-- d624a72b&#45;fa30&#45;45b5&#45;ac73&#45;ba7a41fecc68&#45;&gt;390fd632&#45;e557&#45;43ea&#45;b8e2&#45;f9e683bfc064 -->
<g id="edge18" class="edge">
<title>d624a72b&#45;fa30&#45;45b5&#45;ac73&#45;ba7a41fecc68&#45;&gt;390fd632&#45;e557&#45;43ea&#45;b8e2&#45;f9e683bfc064</title>
<path fill="none" stroke="black" d="M609.42,-313.47C609.42,-302.88 609.42,-288.06 609.42,-275.52"/>
<polygon fill="black" stroke="black" points="612.92,-275.25 609.42,-265.25 605.92,-275.25 612.92,-275.25"/>
</g>
<!-- 6591e12c&#45;e927&#45;4353&#45;b064&#45;9828b719ecc3 -->
<g id="node13" class="node">
<title>6591e12c&#45;e927&#45;4353&#45;b064&#45;9828b719ecc3</title>
<ellipse fill="#ffff80" stroke="black" cx="141.42" cy="-171.64" rx="141.34" ry="21.43"/>
<text text-anchor="middle" x="141.42" y="-166.64" font-family="Times,serif" font-size="20.00">On(apple,coffee_table)</text>
</g>
<!-- ad3c24e8&#45;9dc9&#45;4b2d&#45;9eb9&#45;23817b9e9fc2&#45;&gt;6591e12c&#45;e927&#45;4353&#45;b064&#45;9828b719ecc3 -->
<g id="edge12" class="edge">
<title>ad3c24e8&#45;9dc9&#45;4b2d&#45;9eb9&#45;23817b9e9fc2&#45;&gt;6591e12c&#45;e927&#45;4353&#45;b064&#45;9828b719ecc3</title>
<path fill="none" stroke="black" d="M299.81,-241.03C275.21,-230.41 230.81,-211.24 195.27,-195.89"/>
<polygon fill="black" stroke="black" points="196.54,-192.63 185.97,-191.88 193.77,-199.05 196.54,-192.63"/>
</g>
<!-- a7d88a3d&#45;e0d8&#45;44f6&#45;a05f&#45;c2ee33a13833 -->
<g id="node14" class="node">
<title>a7d88a3d&#45;e0d8&#45;44f6&#45;a05f&#45;c2ee33a13833</title>
<polygon fill="#b0ffff" stroke="black" points="336.42,-186.64 300.42,-186.64 300.42,-156.64 336.42,-156.64 336.42,-186.64"/>
<text text-anchor="middle" x="318.42" y="-166.64" font-family="Times,serif" font-size="20.00"> ? </text>
</g>
<!-- ad3c24e8&#45;9dc9&#45;4b2d&#45;9eb9&#45;23817b9e9fc2&#45;&gt;a7d88a3d&#45;e0d8&#45;44f6&#45;a05f&#45;c2ee33a13833 -->
<g id="edge13" class="edge">
<title>ad3c24e8&#45;9dc9&#45;4b2d&#45;9eb9&#45;23817b9e9fc2&#45;&gt;a7d88a3d&#45;e0d8&#45;44f6&#45;a05f&#45;c2ee33a13833</title>
<path fill="none" stroke="black" d="M318.42,-235.05C318.42,-224.45 318.42,-209.63 318.42,-197.09"/>
<polygon fill="black" stroke="black" points="321.92,-196.83 318.42,-186.83 314.92,-196.83 321.92,-196.83"/>
</g>
<!-- 5d7cd908&#45;0b72&#45;450b&#45;a6f8&#45;62174efb7690 -->
<g id="node15" class="node">
<title>5d7cd908&#45;0b72&#45;450b&#45;a6f8&#45;62174efb7690</title>
<polygon fill="#ff8080" stroke="black" points="286.92,-111.43 249.92,-111.43 249.92,-81.43 286.92,-81.43 286.92,-111.43"/>
<text text-anchor="middle" x="268.42" y="-91.43" font-family="Times,serif" font-size="20.00">→</text>
</g>
<!-- a7d88a3d&#45;e0d8&#45;44f6&#45;a05f&#45;c2ee33a13833&#45;&gt;5d7cd908&#45;0b72&#45;450b&#45;a6f8&#45;62174efb7690 -->
<g id="edge14" class="edge">
<title>a7d88a3d&#45;e0d8&#45;44f6&#45;a05f&#45;c2ee33a13833&#45;&gt;5d7cd908&#45;0b72&#45;450b&#45;a6f8&#45;62174efb7690</title>
<path fill="none" stroke="black" d="M308.78,-156.52C301.73,-146.19 292.01,-131.96 283.87,-120.05"/>
<polygon fill="black" stroke="black" points="286.56,-117.78 278.03,-111.5 280.78,-121.73 286.56,-117.78"/>
</g>
<!-- 7c69236e&#45;0a42&#45;4548&#45;978f&#45;a538f178e664 -->
<g id="node18" class="node">
<title>7c69236e&#45;0a42&#45;4548&#45;978f&#45;a538f178e664</title>
<polygon fill="lightgreen" stroke="black" points="431.92,-114.43 304.92,-114.43 304.92,-78.43 431.92,-78.43 431.92,-114.43"/>
<text text-anchor="middle" x="368.42" y="-91.43" font-family="Times,serif" font-size="20.00">Walk(drawer)</text>
</g>
<!-- a7d88a3d&#45;e0d8&#45;44f6&#45;a05f&#45;c2ee33a13833&#45;&gt;7c69236e&#45;0a42&#45;4548&#45;978f&#45;a538f178e664 -->
<g id="edge17" class="edge">
<title>a7d88a3d&#45;e0d8&#45;44f6&#45;a05f&#45;c2ee33a13833&#45;&gt;7c69236e&#45;0a42&#45;4548&#45;978f&#45;a538f178e664</title>
<path fill="none" stroke="black" d="M328.06,-156.52C334.51,-147.08 343.19,-134.38 350.84,-123.17"/>
<polygon fill="black" stroke="black" points="353.95,-124.82 356.7,-114.59 348.17,-120.88 353.95,-124.82"/>
</g>
<!-- a95cc96c&#45;70ac&#45;4e0e&#45;921c&#45;cde4e92e8794 -->
<g id="node16" class="node">
<title>a95cc96c&#45;70ac&#45;4e0e&#45;921c&#45;cde4e92e8794</title>
<ellipse fill="#ffff80" stroke="black" cx="178.42" cy="-21.21" rx="98.08" ry="21.43"/>
<text text-anchor="middle" x="178.42" y="-16.21" font-family="Times,serif" font-size="20.00">IsNear(drawer)</text>
</g>
<!-- 5d7cd908&#45;0b72&#45;450b&#45;a6f8&#45;62174efb7690&#45;&gt;a95cc96c&#45;70ac&#45;4e0e&#45;921c&#45;cde4e92e8794 -->
<g id="edge15" class="edge">
<title>5d7cd908&#45;0b72&#45;450b&#45;a6f8&#45;62174efb7690&#45;&gt;a95cc96c&#45;70ac&#45;4e0e&#45;921c&#45;cde4e92e8794</title>
<path fill="none" stroke="black" d="M251.07,-81.31C239.54,-71.93 224.06,-59.34 210.35,-48.19"/>
<polygon fill="black" stroke="black" points="212.49,-45.42 202.52,-41.82 208.07,-50.85 212.49,-45.42"/>
</g>
<!-- 05d4540a&#45;a6a3&#45;49fd&#45;841c&#45;45629c332aa5 -->
<g id="node17" class="node">
<title>05d4540a&#45;a6a3&#45;49fd&#45;841c&#45;45629c332aa5</title>
<polygon fill="lightgreen" stroke="black" points="422.42,-39.21 294.42,-39.21 294.42,-3.21 422.42,-3.21 422.42,-39.21"/>
<text text-anchor="middle" x="358.42" y="-16.21" font-family="Times,serif" font-size="20.00">Open(drawer)</text>
</g>
<!-- 5d7cd908&#45;0b72&#45;450b&#45;a6f8&#45;62174efb7690&#45;&gt;05d4540a&#45;a6a3&#45;49fd&#45;841c&#45;45629c332aa5 -->
<g id="edge16" class="edge">
<title>5d7cd908&#45;0b72&#45;450b&#45;a6f8&#45;62174efb7690&#45;&gt;05d4540a&#45;a6a3&#45;49fd&#45;841c&#45;45629c332aa5</title>
<path fill="none" stroke="black" d="M285.77,-81.31C298.07,-71.31 314.87,-57.64 329.21,-45.98"/>
<polygon fill="black" stroke="black" points="331.77,-48.4 337.32,-39.38 327.35,-42.97 331.77,-48.4"/>
</g>
<!-- fc15be31&#45;96c8&#45;44eb&#45;a162&#45;08196f4a12ad -->
<g id="node20" class="node">
<title>fc15be31&#45;96c8&#45;44eb&#45;a162&#45;08196f4a12ad</title>
<ellipse fill="#ffff80" stroke="black" cx="483.42" cy="-171.64" rx="128.89" ry="21.43"/>
<text text-anchor="middle" x="483.42" y="-166.64" font-family="Times,serif" font-size="20.00">IsNear(coffee_table)</text>
</g>
<!-- 390fd632&#45;e557&#45;43ea&#45;b8e2&#45;f9e683bfc064&#45;&gt;fc15be31&#45;96c8&#45;44eb&#45;a162&#45;08196f4a12ad -->
<g id="edge19" class="edge">
<title>390fd632&#45;e557&#45;43ea&#45;b8e2&#45;f9e683bfc064&#45;&gt;fc15be31&#45;96c8&#45;44eb&#45;a162&#45;08196f4a12ad</title>
<path fill="none" stroke="black" d="M590.83,-237.79C573.42,-227.23 546.82,-211.09 524.44,-197.52"/>
<polygon fill="black" stroke="black" points="526.15,-194.47 515.79,-192.27 522.52,-200.45 526.15,-194.47"/>
</g>
<!-- 3cea52b4&#45;fc5b&#45;43f7&#45;b2e9&#45;4fc010409cff -->
<g id="node21" class="node">
<title>3cea52b4&#45;fc5b&#45;43f7&#45;b2e9&#45;4fc010409cff</title>
<ellipse fill="#ffff80" stroke="black" cx="736.42" cy="-171.64" rx="106.55" ry="21.43"/>
<text text-anchor="middle" x="736.42" y="-166.64" font-family="Times,serif" font-size="20.00">IsHolding(apple)</text>
</g>
<!-- 390fd632&#45;e557&#45;43ea&#45;b8e2&#45;f9e683bfc064&#45;&gt;3cea52b4&#45;fc5b&#45;43f7&#45;b2e9&#45;4fc010409cff -->
<g id="edge20" class="edge">
<title>390fd632&#45;e557&#45;43ea&#45;b8e2&#45;f9e683bfc064&#45;&gt;3cea52b4&#45;fc5b&#45;43f7&#45;b2e9&#45;4fc010409cff</title>
<path fill="none" stroke="black" d="M627.49,-235.04C630.43,-232.9 633.48,-230.77 636.42,-228.85 653.76,-217.56 673.49,-206.17 690.82,-196.63"/>
<polygon fill="black" stroke="black" points="692.54,-199.68 699.64,-191.82 689.19,-193.54 692.54,-199.68"/>
</g>
<!-- f3bcde0c&#45;7edc&#45;4cdf&#45;ac13&#45;24c03eb8becf -->
<g id="node22" class="node">
<title>f3bcde0c&#45;7edc&#45;4cdf&#45;ac13&#45;24c03eb8becf</title>
<polygon fill="lightgreen" stroke="black" points="1081.42,-189.64 861.42,-189.64 861.42,-153.64 1081.42,-153.64 1081.42,-189.64"/>
<text text-anchor="middle" x="971.42" y="-166.64" font-family="Times,serif" font-size="20.00">Place(apple,coffee_table)</text>
</g>
<!-- 390fd632&#45;e557&#45;43ea&#45;b8e2&#45;f9e683bfc064&#45;&gt;f3bcde0c&#45;7edc&#45;4cdf&#45;ac13&#45;24c03eb8becf -->
<g id="edge21" class="edge">
<title>390fd632&#45;e557&#45;43ea&#45;b8e2&#45;f9e683bfc064&#45;&gt;f3bcde0c&#45;7edc&#45;4cdf&#45;ac13&#45;24c03eb8becf</title>
<path fill="none" stroke="black" d="M625.79,-234.91C629.14,-232.58 632.76,-230.42 636.42,-228.85 725.91,-190.6 756.45,-209 852.42,-192.85 855.42,-192.35 858.47,-191.83 861.54,-191.32"/>
<polygon fill="black" stroke="black" points="862.16,-194.76 871.44,-189.65 860.99,-187.86 862.16,-194.76"/>
</g>
<!-- df8dbd97&#45;2a86&#45;4870&#45;b0ca&#45;613c318fae76 -->
<g id="node24" class="node">
<title>df8dbd97&#45;2a86&#45;4870&#45;b0ca&#45;613c318fae76</title>
<ellipse fill="#ffff80" stroke="black" cx="752.42" cy="-250.07" rx="106.55" ry="21.43"/>
<text text-anchor="middle" x="752.42" y="-245.07" font-family="Times,serif" font-size="20.00">IsHolding(apple)</text>
</g>
<!-- e1ab008c&#45;9ba5&#45;4e14&#45;8264&#45;14e0b0926480&#45;&gt;df8dbd97&#45;2a86&#45;4870&#45;b0ca&#45;613c318fae76 -->
<g id="edge23" class="edge">
<title>e1ab008c&#45;9ba5&#45;4e14&#45;8264&#45;14e0b0926480&#45;&gt;df8dbd97&#45;2a86&#45;4870&#45;b0ca&#45;613c318fae76</title>
<path fill="none" stroke="black" d="M752.42,-313.47C752.42,-304.53 752.42,-292.57 752.42,-281.52"/>
<polygon fill="black" stroke="black" points="755.92,-281.33 752.42,-271.33 748.92,-281.33 755.92,-281.33"/>
</g>
<!-- f7acd74f&#45;9d2b&#45;4b86&#45;8562&#45;10157571cc77 -->
<g id="node25" class="node">
<title>f7acd74f&#45;9d2b&#45;4b86&#45;8562&#45;10157571cc77</title>
<polygon fill="lightgreen" stroke="black" points="1047.42,-268.07 877.42,-268.07 877.42,-232.07 1047.42,-232.07 1047.42,-268.07"/>
<text text-anchor="middle" x="962.42" y="-245.07" font-family="Times,serif" font-size="20.00">Walk(coffee_table)</text>
</g>
<!-- e1ab008c&#45;9ba5&#45;4e14&#45;8264&#45;14e0b0926480&#45;&gt;f7acd74f&#45;9d2b&#45;4b86&#45;8562&#45;10157571cc77 -->
<g id="edge24" class="edge">
<title>e1ab008c&#45;9ba5&#45;4e14&#45;8264&#45;14e0b0926480&#45;&gt;f7acd74f&#45;9d2b&#45;4b86&#45;8562&#45;10157571cc77</title>
<path fill="none" stroke="black" d="M770.25,-313.33C773.52,-311.11 776.99,-308.99 780.42,-307.28 811.13,-291.97 846.85,-279.84 878.47,-270.82"/>
<polygon fill="black" stroke="black" points="879.45,-274.18 888.14,-268.12 877.57,-267.44 879.45,-274.18"/>
</g>
<!-- d10f630c&#45;f843&#45;4630&#45;825b&#45;0325d0f3cad6 -->
<g id="node27" class="node">
<title>d10f630c&#45;f843&#45;4630&#45;825b&#45;0325d0f3cad6</title>
<ellipse fill="#ffff80" stroke="black" cx="878.42" cy="-328.49" rx="89.19" ry="21.43"/>
<text text-anchor="middle" x="878.42" y="-323.49" font-family="Times,serif" font-size="20.00">IsNear(apple)</text>
</g>
<!-- ef9846bd&#45;0238&#45;409f&#45;b7f8&#45;458d805d35fb&#45;&gt;d10f630c&#45;f843&#45;4630&#45;825b&#45;0325d0f3cad6 -->
<g id="edge26" class="edge">
<title>ef9846bd&#45;0238&#45;409f&#45;b7f8&#45;458d805d35fb&#45;&gt;d10f630c&#45;f843&#45;4630&#45;825b&#45;0325d0f3cad6</title>
<path fill="none" stroke="black" d="M962.53,-391.9C948.68,-381.63 929.49,-367.39 912.94,-355.1"/>
<polygon fill="black" stroke="black" points="914.68,-352.04 904.56,-348.89 910.51,-357.66 914.68,-352.04"/>
</g>
<!-- 5573cfdf&#45;da7f&#45;4afa&#45;b0ce&#45;d1633bfc438e -->
<g id="node28" class="node">
<title>5573cfdf&#45;da7f&#45;4afa&#45;b0ce&#45;d1633bfc438e</title>
<ellipse fill="#ffff80" stroke="black" cx="1084.42" cy="-328.49" rx="98.99" ry="21.43"/>
<text text-anchor="middle" x="1084.42" y="-323.49" font-family="Times,serif" font-size="20.00">IsHandEmpty()</text>
</g>
<!-- ef9846bd&#45;0238&#45;409f&#45;b7f8&#45;458d805d35fb&#45;&gt;5573cfdf&#45;da7f&#45;4afa&#45;b0ce&#45;d1633bfc438e -->
<g id="edge27" class="edge">
<title>ef9846bd&#45;0238&#45;409f&#45;b7f8&#45;458d805d35fb&#45;&gt;5573cfdf&#45;da7f&#45;4afa&#45;b0ce&#45;d1633bfc438e</title>
<path fill="none" stroke="black" d="M1000,-391.99C1002.82,-389.88 1005.7,-387.73 1008.42,-385.71 1021.92,-375.66 1036.8,-364.64 1049.79,-355.04"/>
<polygon fill="black" stroke="black" points="1052.05,-357.72 1058.01,-348.97 1047.89,-352.09 1052.05,-357.72"/>
</g>
<!-- 0b08a29a&#45;f1bb&#45;4c2a&#45;b133&#45;ec8f342643b1 -->
<g id="node29" class="node">
<title>0b08a29a&#45;f1bb&#45;4c2a&#45;b133&#45;ec8f342643b1</title>
<polygon fill="lightgreen" stroke="black" points="1321.42,-346.49 1201.42,-346.49 1201.42,-310.49 1321.42,-310.49 1321.42,-346.49"/>
<text text-anchor="middle" x="1261.42" y="-323.49" font-family="Times,serif" font-size="20.00">Grasp(apple)</text>
</g>
<!-- ef9846bd&#45;0238&#45;409f&#45;b7f8&#45;458d805d35fb&#45;&gt;0b08a29a&#45;f1bb&#45;4c2a&#45;b133&#45;ec8f342643b1 -->
<g id="edge28" class="edge">
<title>ef9846bd&#45;0238&#45;409f&#45;b7f8&#45;458d805d35fb&#45;&gt;0b08a29a&#45;f1bb&#45;4c2a&#45;b133&#45;ec8f342643b1</title>
<path fill="none" stroke="black" d="M997.83,-391.84C1001.17,-389.51 1004.78,-387.32 1008.42,-385.71 1084.58,-351.89 1111.46,-369.44 1192.42,-349.71 1193.17,-349.52 1193.93,-349.34 1194.68,-349.15"/>
<polygon fill="black" stroke="black" points="1195.87,-352.46 1204.68,-346.56 1194.12,-345.68 1195.87,-352.46"/>
</g>
<!-- a4b87792&#45;f59f&#45;4ac4&#45;8a6c&#45;6198e12237de -->
<g id="node31" class="node">
<title>a4b87792&#45;f59f&#45;4ac4&#45;8a6c&#45;6198e12237de</title>
<ellipse fill="#ffff80" stroke="black" cx="1116.42" cy="-406.92" rx="98.99" ry="21.43"/>
<text text-anchor="middle" x="1116.42" y="-401.92" font-family="Times,serif" font-size="20.00">IsHandEmpty()</text>
</g>
<!-- 5192498b&#45;d3f5&#45;498b&#45;91ac&#45;57999e897b3e&#45;&gt;a4b87792&#45;f59f&#45;4ac4&#45;8a6c&#45;6198e12237de -->
<g id="edge30" class="edge">
<title>5192498b&#45;d3f5&#45;498b&#45;91ac&#45;57999e897b3e&#45;&gt;a4b87792&#45;f59f&#45;4ac4&#45;8a6c&#45;6198e12237de</title>
<path fill="none" stroke="black" d="M1129.34,-467.02C1127.56,-458.87 1125.25,-448.31 1123.08,-438.37"/>
<polygon fill="black" stroke="black" points="1126.44,-437.38 1120.89,-428.36 1119.6,-438.88 1126.44,-437.38"/>
</g>
<!-- 008b0dc2&#45;71f2&#45;43a6&#45;95a7&#45;6e0612d05b15 -->
<g id="node32" class="node">
<title>008b0dc2&#45;71f2&#45;43a6&#45;95a7&#45;6e0612d05b15</title>
<polygon fill="lightgreen" stroke="black" points="1347.42,-424.92 1233.42,-424.92 1233.42,-388.92 1347.42,-388.92 1347.42,-424.92"/>
<text text-anchor="middle" x="1290.42" y="-401.92" font-family="Times,serif" font-size="20.00">Walk(apple)</text>
</g>
<!-- 5192498b&#45;d3f5&#45;498b&#45;91ac&#45;57999e897b3e&#45;&gt;008b0dc2&#45;71f2&#45;43a6&#45;95a7&#45;6e0612d05b15 -->
<g id="edge31" class="edge">
<title>5192498b&#45;d3f5&#45;498b&#45;91ac&#45;57999e897b3e&#45;&gt;008b0dc2&#45;71f2&#45;43a6&#45;95a7&#45;6e0612d05b15</title>
<path fill="none" stroke="black" d="M1151.17,-472.45C1173.98,-461.87 1213.31,-443.65 1244.36,-429.26"/>
<polygon fill="black" stroke="black" points="1246.11,-432.31 1253.71,-424.93 1243.16,-425.96 1246.11,-432.31"/>
</g>
<!-- 22dceb84&#45;65eb&#45;4657&#45;99df&#45;c7f39d759d00 -->
<g id="node34" class="node">
<title>22dceb84&#45;65eb&#45;4657&#45;99df&#45;c7f39d759d00</title>
<ellipse fill="#ffff80" stroke="black" cx="1299.42" cy="-557.35" rx="98.99" ry="21.43"/>
<text text-anchor="middle" x="1299.42" y="-552.35" font-family="Times,serif" font-size="20.00">IsHandEmpty()</text>
</g>
<!-- ccede42e&#45;b4f8&#45;4c0b&#45;85a1&#45;fcad8151c43c&#45;&gt;22dceb84&#45;65eb&#45;4657&#45;99df&#45;c7f39d759d00 -->
<g id="edge33" class="edge">
<title>ccede42e&#45;b4f8&#45;4c0b&#45;85a1&#45;fcad8151c43c&#45;&gt;22dceb84&#45;65eb&#45;4657&#45;99df&#45;c7f39d759d00</title>
<path fill="none" stroke="black" d="M1299.42,-614.35C1299.42,-606.98 1299.42,-597.67 1299.42,-588.77"/>
<polygon fill="black" stroke="black" points="1302.92,-588.65 1299.42,-578.65 1295.92,-588.65 1302.92,-588.65"/>
</g>
<!-- d44dfd68&#45;6518&#45;4830&#45;99a2&#45;ad7678ee73f6 -->
<g id="node35" class="node">
<title>d44dfd68&#45;6518&#45;4830&#45;99a2&#45;ad7678ee73f6</title>
<polygon fill="#b0ffff" stroke="black" points="1469.42,-572.35 1433.42,-572.35 1433.42,-542.35 1469.42,-542.35 1469.42,-572.35"/>
<text text-anchor="middle" x="1451.42" y="-552.35" font-family="Times,serif" font-size="20.00"> ? </text>
</g>
<!-- ccede42e&#45;b4f8&#45;4c0b&#45;85a1&#45;fcad8151c43c&#45;&gt;d44dfd68&#45;6518&#45;4830&#45;99a2&#45;ad7678ee73f6 -->
<g id="edge34" class="edge">
<title>ccede42e&#45;b4f8&#45;4c0b&#45;85a1&#45;fcad8151c43c&#45;&gt;d44dfd68&#45;6518&#45;4830&#45;99a2&#45;ad7678ee73f6</title>
<path fill="none" stroke="black" d="M1318.06,-619.95C1344.53,-607.72 1393.18,-585.25 1423.84,-571.09"/>
<polygon fill="black" stroke="black" points="1425.49,-574.18 1433.11,-566.81 1422.56,-567.82 1425.49,-574.18"/>
</g>
<!-- f7f8445b&#45;6edc&#45;4f41&#45;b8b7&#45;b204e19ee939 -->
<g id="node36" class="node">
<title>f7f8445b&#45;6edc&#45;4f41&#45;b8b7&#45;b204e19ee939</title>
<polygon fill="#ff8080" stroke="black" points="1469.92,-497.13 1432.92,-497.13 1432.92,-467.13 1469.92,-467.13 1469.92,-497.13"/>
<text text-anchor="middle" x="1451.42" y="-477.13" font-family="Times,serif" font-size="20.00">→</text>
</g>
<!-- d44dfd68&#45;6518&#45;4830&#45;99a2&#45;ad7678ee73f6&#45;&gt;f7f8445b&#45;6edc&#45;4f41&#45;b8b7&#45;b204e19ee939 -->
<g id="edge35" class="edge">
<title>d44dfd68&#45;6518&#45;4830&#45;99a2&#45;ad7678ee73f6&#45;&gt;f7f8445b&#45;6edc&#45;4f41&#45;b8b7&#45;b204e19ee939</title>
<path fill="none" stroke="black" d="M1451.42,-542.23C1451.42,-532.4 1451.42,-519.05 1451.42,-507.52"/>
<polygon fill="black" stroke="black" points="1454.92,-507.2 1451.42,-497.2 1447.92,-507.2 1454.92,-507.2"/>
</g>
<!-- c695a4bc&#45;2f2d&#45;4df9&#45;bfdf&#45;4524f0cb0265 -->
<g id="node39" class="node">
<title>c695a4bc&#45;2f2d&#45;4df9&#45;bfdf&#45;4524f0cb0265</title>
<polygon fill="lightgreen" stroke="black" points="1598.42,-500.13 1488.42,-500.13 1488.42,-464.13 1598.42,-464.13 1598.42,-500.13"/>
<text text-anchor="middle" x="1543.42" y="-477.13" font-family="Times,serif" font-size="20.00">Walk(oven)</text>
</g>
<!-- d44dfd68&#45;6518&#45;4830&#45;99a2&#45;ad7678ee73f6&#45;&gt;c695a4bc&#45;2f2d&#45;4df9&#45;bfdf&#45;4524f0cb0265 -->
<g id="edge38" class="edge">
<title>d44dfd68&#45;6518&#45;4830&#45;99a2&#45;ad7678ee73f6&#45;&gt;c695a4bc&#45;2f2d&#45;4df9&#45;bfdf&#45;4524f0cb0265</title>
<path fill="none" stroke="black" d="M1469.16,-542.23C1481.85,-532.13 1499.22,-518.31 1513.97,-506.57"/>
<polygon fill="black" stroke="black" points="1516.21,-509.26 1521.85,-500.3 1511.85,-503.79 1516.21,-509.26"/>
</g>
<!-- 66fa64f2&#45;26d0&#45;4839&#45;88fc&#45;c7f82398713f -->
<g id="node37" class="node">
<title>66fa64f2&#45;26d0&#45;4839&#45;88fc&#45;c7f82398713f</title>
<ellipse fill="#ffff80" stroke="black" cx="1451.42" cy="-406.92" rx="86.03" ry="21.43"/>
<text text-anchor="middle" x="1451.42" y="-401.92" font-family="Times,serif" font-size="20.00">IsNear(oven)</text>
</g>
<!-- f7f8445b&#45;6edc&#45;4f41&#45;b8b7&#45;b204e19ee939&#45;&gt;66fa64f2&#45;26d0&#45;4839&#45;88fc&#45;c7f82398713f -->
<g id="edge36" class="edge">
<title>f7f8445b&#45;6edc&#45;4f41&#45;b8b7&#45;b204e19ee939&#45;&gt;66fa64f2&#45;26d0&#45;4839&#45;88fc&#45;c7f82398713f</title>
<path fill="none" stroke="black" d="M1451.42,-467.02C1451.42,-458.87 1451.42,-448.31 1451.42,-438.37"/>
<polygon fill="black" stroke="black" points="1454.92,-438.36 1451.42,-428.36 1447.92,-438.36 1454.92,-438.36"/>
</g>
<!-- c8d2dedf&#45;9f99&#45;4cad&#45;b75e&#45;66ae72f483da -->
<g id="node38" class="node">
<title>c8d2dedf&#45;9f99&#45;4cad&#45;b75e&#45;66ae72f483da</title>
<polygon fill="lightgreen" stroke="black" points="1677.42,-424.92 1555.42,-424.92 1555.42,-388.92 1677.42,-388.92 1677.42,-424.92"/>
<text text-anchor="middle" x="1616.42" y="-401.92" font-family="Times,serif" font-size="20.00">Toggle(oven)</text>
</g>
<!-- f7f8445b&#45;6edc&#45;4f41&#45;b8b7&#45;b204e19ee939&#45;&gt;c8d2dedf&#45;9f99&#45;4cad&#45;b75e&#45;66ae72f483da -->
<g id="edge37" class="edge">
<title>f7f8445b&#45;6edc&#45;4f41&#45;b8b7&#45;b204e19ee939&#45;&gt;c8d2dedf&#45;9f99&#45;4cad&#45;b75e&#45;66ae72f483da</title>
<path fill="none" stroke="black" d="M1470.17,-469.2C1473.22,-467.42 1476.38,-465.67 1479.42,-464.13 1505.37,-451.03 1535.12,-438.54 1560.25,-428.67"/>
<polygon fill="black" stroke="black" points="1561.59,-431.91 1569.64,-425.02 1559.05,-425.38 1561.59,-431.91"/>
</g>
</g>
</svg>
