<?xml version="1.0" encoding="UTF-8" standalone="no"?>
<!DOCTYPE svg PUBLIC "-//W3C//DTD SVG 1.1//EN"
 "http://www.w3.org/Graphics/SVG/1.1/DTD/svg11.dtd">
<!-- Generated by graphviz version 2.43.0 (0)
 -->
<!-- Title: pastafarianism Pages: 1 -->
<svg width="1336pt" height="333pt"
 viewBox="0.00 0.00 1336.09 332.85" xmlns="http://www.w3.org/2000/svg" xmlns:xlink="http://www.w3.org/1999/xlink">
<g id="graph0" class="graph" transform="scale(1 1) rotate(0) translate(4 328.85)">
<title>pastafarianism</title>
<polygon fill="white" stroke="transparent" points="-4,4 -4,-328.85 1332.09,-328.85 1332.09,4 -4,4"/>
<!-- 01c9b171&#45;2ca4&#45;4008&#45;bdfb&#45;d8bede9dc69b -->
<g id="node1" class="node">
<title>01c9b171&#45;2ca4&#45;4008&#45;bdfb&#45;d8bede9dc69b</title>
<polygon fill="#b0ffff" stroke="black" points="850.09,-324.85 814.09,-324.85 814.09,-294.85 850.09,-294.85 850.09,-324.85"/>
<text text-anchor="middle" x="832.09" y="-304.85" font-family="Times,serif" font-size="20.00"> ? </text>
</g>
<!-- b44cfc84&#45;655f&#45;481e&#45;afe9&#45;15a5411aed5f -->
<g id="node2" class="node">
<title>b44cfc84&#45;655f&#45;481e&#45;afe9&#45;15a5411aed5f</title>
<polygon fill="#ff8080" stroke="black" points="387.59,-258.85 350.59,-258.85 350.59,-228.85 387.59,-228.85 387.59,-258.85"/>
<text text-anchor="middle" x="369.09" y="-238.85" font-family="Times,serif" font-size="20.00">→</text>
</g>
<!-- 01c9b171&#45;2ca4&#45;4008&#45;bdfb&#45;d8bede9dc69b&#45;&gt;b44cfc84&#45;655f&#45;481e&#45;afe9&#45;15a5411aed5f -->
<g id="edge1" class="edge">
<title>01c9b171&#45;2ca4&#45;4008&#45;bdfb&#45;d8bede9dc69b&#45;&gt;b44cfc84&#45;655f&#45;481e&#45;afe9&#45;15a5411aed5f</title>
<path fill="none" stroke="black" d="M813.94,-306.34C743,-296.54 484.13,-260.75 397.53,-248.78"/>
<polygon fill="black" stroke="black" points="398,-245.32 387.61,-247.41 397.04,-252.25 398,-245.32"/>
</g>
<!-- f6e44741&#45;0548&#45;40cb&#45;867a&#45;704bd119d2f5 -->
<g id="node5" class="node">
<title>f6e44741&#45;0548&#45;40cb&#45;867a&#45;704bd119d2f5</title>
<polygon fill="#ff8080" stroke="black" points="787.59,-258.85 750.59,-258.85 750.59,-228.85 787.59,-228.85 787.59,-258.85"/>
<text text-anchor="middle" x="769.09" y="-238.85" font-family="Times,serif" font-size="20.00">→</text>
</g>
<!-- 01c9b171&#45;2ca4&#45;4008&#45;bdfb&#45;d8bede9dc69b&#45;&gt;f6e44741&#45;0548&#45;40cb&#45;867a&#45;704bd119d2f5 -->
<g id="edge4" class="edge">
<title>01c9b171&#45;2ca4&#45;4008&#45;bdfb&#45;d8bede9dc69b&#45;&gt;f6e44741&#45;0548&#45;40cb&#45;867a&#45;704bd119d2f5</title>
<path fill="none" stroke="black" d="M818.11,-294.65C809.87,-286.28 799.29,-275.53 790.06,-266.16"/>
<polygon fill="black" stroke="black" points="792.54,-263.69 783.03,-259.02 787.55,-268.6 792.54,-263.69"/>
</g>
<!-- 2ae9c90c&#45;31d1&#45;4751&#45;b912&#45;3e3cac9d1c53 -->
<g id="node12" class="node">
<title>2ae9c90c&#45;31d1&#45;4751&#45;b912&#45;3e3cac9d1c53</title>
<polygon fill="#ff8080" stroke="black" points="914.59,-258.85 877.59,-258.85 877.59,-228.85 914.59,-228.85 914.59,-258.85"/>
<text text-anchor="middle" x="896.09" y="-238.85" font-family="Times,serif" font-size="20.00">→</text>
</g>
<!-- 01c9b171&#45;2ca4&#45;4008&#45;bdfb&#45;d8bede9dc69b&#45;&gt;2ae9c90c&#45;31d1&#45;4751&#45;b912&#45;3e3cac9d1c53 -->
<g id="edge11" class="edge">
<title>01c9b171&#45;2ca4&#45;4008&#45;bdfb&#45;d8bede9dc69b&#45;&gt;2ae9c90c&#45;31d1&#45;4751&#45;b912&#45;3e3cac9d1c53</title>
<path fill="none" stroke="black" d="M846.29,-294.65C854.66,-286.28 865.41,-275.53 874.78,-266.16"/>
<polygon fill="black" stroke="black" points="877.33,-268.56 881.92,-259.02 872.38,-263.61 877.33,-268.56"/>
</g>
<!-- ce779040&#45;0022&#45;4e4d&#45;b5d6&#45;179b76c4bf29 -->
<g id="node15" class="node">
<title>ce779040&#45;0022&#45;4e4d&#45;b5d6&#45;179b76c4bf29</title>
<polygon fill="#ff8080" stroke="black" points="1122.59,-258.85 1085.59,-258.85 1085.59,-228.85 1122.59,-228.85 1122.59,-258.85"/>
<text text-anchor="middle" x="1104.09" y="-238.85" font-family="Times,serif" font-size="20.00">→</text>
</g>
<!-- 01c9b171&#45;2ca4&#45;4008&#45;bdfb&#45;d8bede9dc69b&#45;&gt;ce779040&#45;0022&#45;4e4d&#45;b5d6&#45;179b76c4bf29 -->
<g id="edge14" class="edge">
<title>01c9b171&#45;2ca4&#45;4008&#45;bdfb&#45;d8bede9dc69b&#45;&gt;ce779040&#45;0022&#45;4e4d&#45;b5d6&#45;179b76c4bf29</title>
<path fill="none" stroke="black" d="M850.36,-304.55C896.79,-293.63 1019.63,-264.72 1075.59,-251.56"/>
<polygon fill="black" stroke="black" points="1076.61,-254.91 1085.54,-249.22 1075,-248.1 1076.61,-254.91"/>
</g>
<!-- 2fa63b5d&#45;444d&#45;497c&#45;ba5b&#45;8d56687f8f1c -->
<g id="node3" class="node">
<title>2fa63b5d&#45;444d&#45;497c&#45;ba5b&#45;8d56687f8f1c</title>
<ellipse fill="#ffff80" stroke="black" cx="118.09" cy="-171.64" rx="118.17" ry="21.43"/>
<text text-anchor="middle" x="118.09" y="-166.64" font-family="Times,serif" font-size="20.00">ToggledOff(light2)</text>
</g>
<!-- b44cfc84&#45;655f&#45;481e&#45;afe9&#45;15a5411aed5f&#45;&gt;2fa63b5d&#45;444d&#45;497c&#45;ba5b&#45;8d56687f8f1c -->
<g id="edge2" class="edge">
<title>b44cfc84&#45;655f&#45;481e&#45;afe9&#45;15a5411aed5f&#45;&gt;2fa63b5d&#45;444d&#45;497c&#45;ba5b&#45;8d56687f8f1c</title>
<path fill="none" stroke="black" d="M350.22,-237.58C316.5,-228.14 244.29,-207.94 189.3,-192.56"/>
<polygon fill="black" stroke="black" points="190.16,-189.17 179.59,-189.84 188.28,-195.91 190.16,-189.17"/>
</g>
<!-- fbc02049&#45;d1bb&#45;40a1&#45;a501&#45;d85664d78e63 -->
<g id="node4" class="node">
<title>fbc02049&#45;d1bb&#45;40a1&#45;a501&#45;d85664d78e63</title>
<ellipse fill="#ffff80" stroke="black" cx="369.09" cy="-171.64" rx="115.02" ry="21.43"/>
<text text-anchor="middle" x="369.09" y="-166.64" font-family="Times,serif" font-size="20.00">ToggledOn(light1)</text>
</g>
<!-- b44cfc84&#45;655f&#45;481e&#45;afe9&#45;15a5411aed5f&#45;&gt;fbc02049&#45;d1bb&#45;40a1&#45;a501&#45;d85664d78e63 -->
<g id="edge3" class="edge">
<title>b44cfc84&#45;655f&#45;481e&#45;afe9&#45;15a5411aed5f&#45;&gt;fbc02049&#45;d1bb&#45;40a1&#45;a501&#45;d85664d78e63</title>
<path fill="none" stroke="black" d="M369.09,-228.64C369.09,-221.27 369.09,-211.96 369.09,-203.07"/>
<polygon fill="black" stroke="black" points="372.59,-202.95 369.09,-192.95 365.59,-202.95 372.59,-202.95"/>
</g>
<!-- 4653bf05&#45;a6f8&#45;40cc&#45;8457&#45;f12c88460004 -->
<g id="node6" class="node">
<title>4653bf05&#45;a6f8&#45;40cc&#45;8457&#45;f12c88460004</title>
<ellipse fill="#ffff80" stroke="black" cx="618.09" cy="-171.64" rx="115.02" ry="21.43"/>
<text text-anchor="middle" x="618.09" y="-166.64" font-family="Times,serif" font-size="20.00">ToggledOn(light1)</text>
</g>
<!-- f6e44741&#45;0548&#45;40cb&#45;867a&#45;704bd119d2f5&#45;&gt;4653bf05&#45;a6f8&#45;40cc&#45;8457&#45;f12c88460004 -->
<g id="edge5" class="edge">
<title>f6e44741&#45;0548&#45;40cb&#45;867a&#45;704bd119d2f5&#45;&gt;4653bf05&#45;a6f8&#45;40cc&#45;8457&#45;f12c88460004</title>
<path fill="none" stroke="black" d="M750.57,-234.24C730.19,-224.77 696.58,-209.14 668.31,-195.99"/>
<polygon fill="black" stroke="black" points="669.49,-192.68 658.95,-191.64 666.54,-199.03 669.49,-192.68"/>
</g>
<!-- b0139b81&#45;b23a&#45;4978&#45;ad69&#45;b22ca8a821d4 -->
<g id="node7" class="node">
<title>b0139b81&#45;b23a&#45;4978&#45;ad69&#45;b22ca8a821d4</title>
<polygon fill="#b0ffff" stroke="black" points="787.09,-186.64 751.09,-186.64 751.09,-156.64 787.09,-156.64 787.09,-186.64"/>
<text text-anchor="middle" x="769.09" y="-166.64" font-family="Times,serif" font-size="20.00"> ? </text>
</g>
<!-- f6e44741&#45;0548&#45;40cb&#45;867a&#45;704bd119d2f5&#45;&gt;b0139b81&#45;b23a&#45;4978&#45;ad69&#45;b22ca8a821d4 -->
<g id="edge6" class="edge">
<title>f6e44741&#45;0548&#45;40cb&#45;867a&#45;704bd119d2f5&#45;&gt;b0139b81&#45;b23a&#45;4978&#45;ad69&#45;b22ca8a821d4</title>
<path fill="none" stroke="black" d="M769.09,-228.64C769.09,-219.6 769.09,-207.65 769.09,-197.12"/>
<polygon fill="black" stroke="black" points="772.59,-196.83 769.09,-186.83 765.59,-196.83 772.59,-196.83"/>
</g>
<!-- 5dd631ee&#45;ceeb&#45;40e6&#45;a717&#45;3d77c5e9a75f -->
<g id="node8" class="node">
<title>5dd631ee&#45;ceeb&#45;40e6&#45;a717&#45;3d77c5e9a75f</title>
<polygon fill="#ff8080" stroke="black" points="733.59,-111.43 696.59,-111.43 696.59,-81.43 733.59,-81.43 733.59,-111.43"/>
<text text-anchor="middle" x="715.09" y="-91.43" font-family="Times,serif" font-size="20.00">→</text>
</g>
<!-- b0139b81&#45;b23a&#45;4978&#45;ad69&#45;b22ca8a821d4&#45;&gt;5dd631ee&#45;ceeb&#45;40e6&#45;a717&#45;3d77c5e9a75f -->
<g id="edge7" class="edge">
<title>b0139b81&#45;b23a&#45;4978&#45;ad69&#45;b22ca8a821d4&#45;&gt;5dd631ee&#45;ceeb&#45;40e6&#45;a717&#45;3d77c5e9a75f</title>
<path fill="none" stroke="black" d="M758.68,-156.52C750.98,-146.09 740.35,-131.68 731.52,-119.7"/>
<polygon fill="black" stroke="black" points="734.22,-117.47 725.47,-111.5 728.59,-121.62 734.22,-117.47"/>
</g>
<!-- 01104fed&#45;0be1&#45;45ca&#45;832d&#45;7e7ad64d9d5c -->
<g id="node11" class="node">
<title>01104fed&#45;0be1&#45;45ca&#45;832d&#45;7e7ad64d9d5c</title>
<polygon fill="lightgreen" stroke="black" points="894.09,-114.43 752.09,-114.43 752.09,-78.43 894.09,-78.43 894.09,-114.43"/>
<text text-anchor="middle" x="823.09" y="-91.43" font-family="Times,serif" font-size="20.00">MoveTo(light2)</text>
</g>
<!-- b0139b81&#45;b23a&#45;4978&#45;ad69&#45;b22ca8a821d4&#45;&gt;01104fed&#45;0be1&#45;45ca&#45;832d&#45;7e7ad64d9d5c -->
<g id="edge10" class="edge">
<title>b0139b81&#45;b23a&#45;4978&#45;ad69&#45;b22ca8a821d4&#45;&gt;01104fed&#45;0be1&#45;45ca&#45;832d&#45;7e7ad64d9d5c</title>
<path fill="none" stroke="black" d="M779.5,-156.52C786.53,-146.99 796.02,-134.13 804.34,-122.84"/>
<polygon fill="black" stroke="black" points="807.31,-124.72 810.43,-114.59 801.67,-120.56 807.31,-124.72"/>
</g>
<!-- b1de8eb5&#45;07c0&#45;4be7&#45;880c&#45;ca9fb906681e -->
<g id="node9" class="node">
<title>b1de8eb5&#45;07c0&#45;4be7&#45;880c&#45;ca9fb906681e</title>
<ellipse fill="#ffff80" stroke="black" cx="619.09" cy="-21.21" rx="90.52" ry="21.43"/>
<text text-anchor="middle" x="619.09" y="-16.21" font-family="Times,serif" font-size="20.00">IsNear(light2)</text>
</g>
<!-- 5dd631ee&#45;ceeb&#45;40e6&#45;a717&#45;3d77c5e9a75f&#45;&gt;b1de8eb5&#45;07c0&#45;4be7&#45;880c&#45;ca9fb906681e -->
<g id="edge8" class="edge">
<title>5dd631ee&#45;ceeb&#45;40e6&#45;a717&#45;3d77c5e9a75f&#45;&gt;b1de8eb5&#45;07c0&#45;4be7&#45;880c&#45;ca9fb906681e</title>
<path fill="none" stroke="black" d="M696.58,-81.31C684.28,-71.93 667.77,-59.34 653.14,-48.19"/>
<polygon fill="black" stroke="black" points="654.87,-45.1 644.8,-41.82 650.63,-50.67 654.87,-45.1"/>
</g>
<!-- 77510088&#45;6323&#45;4793&#45;8ef3&#45;16c03e291f5f -->
<g id="node10" class="node">
<title>77510088&#45;6323&#45;4793&#45;8ef3&#45;16c03e291f5f</title>
<polygon fill="lightgreen" stroke="black" points="894.59,-39.21 727.59,-39.21 727.59,-3.21 894.59,-3.21 894.59,-39.21"/>
<text text-anchor="middle" x="811.09" y="-16.21" font-family="Times,serif" font-size="20.00">ToggledOff(light2)</text>
</g>
<!-- 5dd631ee&#45;ceeb&#45;40e6&#45;a717&#45;3d77c5e9a75f&#45;&gt;77510088&#45;6323&#45;4793&#45;8ef3&#45;16c03e291f5f -->
<g id="edge9" class="edge">
<title>5dd631ee&#45;ceeb&#45;40e6&#45;a717&#45;3d77c5e9a75f&#45;&gt;77510088&#45;6323&#45;4793&#45;8ef3&#45;16c03e291f5f</title>
<path fill="none" stroke="black" d="M733.6,-81.31C746.84,-71.21 764.96,-57.39 780.36,-45.65"/>
<polygon fill="black" stroke="black" points="782.75,-48.23 788.58,-39.38 778.51,-42.66 782.75,-48.23"/>
</g>
<!-- c645e1c4&#45;6def&#45;44fd&#45;86f3&#45;ee7eb9fb0dd7 -->
<g id="node13" class="node">
<title>c645e1c4&#45;6def&#45;44fd&#45;86f3&#45;ee7eb9fb0dd7</title>
<ellipse fill="#ffff80" stroke="black" cx="896.09" cy="-171.64" rx="90.52" ry="21.43"/>
<text text-anchor="middle" x="896.09" y="-166.64" font-family="Times,serif" font-size="20.00">IsNear(light1)</text>
</g>
<!-- 2ae9c90c&#45;31d1&#45;4751&#45;b912&#45;3e3cac9d1c53&#45;&gt;c645e1c4&#45;6def&#45;44fd&#45;86f3&#45;ee7eb9fb0dd7 -->
<g id="edge12" class="edge">
<title>2ae9c90c&#45;31d1&#45;4751&#45;b912&#45;3e3cac9d1c53&#45;&gt;c645e1c4&#45;6def&#45;44fd&#45;86f3&#45;ee7eb9fb0dd7</title>
<path fill="none" stroke="black" d="M896.09,-228.64C896.09,-221.27 896.09,-211.96 896.09,-203.07"/>
<polygon fill="black" stroke="black" points="899.59,-202.95 896.09,-192.95 892.59,-202.95 899.59,-202.95"/>
</g>
<!-- c1ba91cf&#45;470e&#45;4f97&#45;af74&#45;12603f0442e0 -->
<g id="node14" class="node">
<title>c1ba91cf&#45;470e&#45;4f97&#45;af74&#45;12603f0442e0</title>
<polygon fill="lightgreen" stroke="black" points="1167.59,-189.64 1004.59,-189.64 1004.59,-153.64 1167.59,-153.64 1167.59,-189.64"/>
<text text-anchor="middle" x="1086.09" y="-166.64" font-family="Times,serif" font-size="20.00">ToggledOn(light1)</text>
</g>
<!-- 2ae9c90c&#45;31d1&#45;4751&#45;b912&#45;3e3cac9d1c53&#45;&gt;c1ba91cf&#45;470e&#45;4f97&#45;af74&#45;12603f0442e0 -->
<g id="edge13" class="edge">
<title>2ae9c90c&#45;31d1&#45;4751&#45;b912&#45;3e3cac9d1c53&#45;&gt;c1ba91cf&#45;470e&#45;4f97&#45;af74&#45;12603f0442e0</title>
<path fill="none" stroke="black" d="M914.65,-235.99C941.16,-226.19 990.99,-207.78 1030.13,-193.32"/>
<polygon fill="black" stroke="black" points="1031.66,-196.49 1039.82,-189.74 1029.23,-189.92 1031.66,-196.49"/>
</g>
<!-- 2df8a2bb&#45;8752&#45;4525&#45;8f85&#45;dd5d15183c9a -->
<g id="node16" class="node">
<title>2df8a2bb&#45;8752&#45;4525&#45;8f85&#45;dd5d15183c9a</title>
<polygon fill="lightgreen" stroke="black" points="1328.09,-189.64 1186.09,-189.64 1186.09,-153.64 1328.09,-153.64 1328.09,-189.64"/>
<text text-anchor="middle" x="1257.09" y="-166.64" font-family="Times,serif" font-size="20.00">MoveTo(light1)</text>
</g>
<!-- ce779040&#45;0022&#45;4e4d&#45;b5d6&#45;179b76c4bf29&#45;&gt;2df8a2bb&#45;8752&#45;4525&#45;8f85&#45;dd5d15183c9a -->
<g id="edge15" class="edge">
<title>ce779040&#45;0022&#45;4e4d&#45;b5d6&#45;179b76c4bf29&#45;&gt;2df8a2bb&#45;8752&#45;4525&#45;8f85&#45;dd5d15183c9a</title>
<path fill="none" stroke="black" d="M1122.85,-234.24C1144.59,-224.26 1181.22,-207.46 1210.72,-193.92"/>
<polygon fill="black" stroke="black" points="1212.4,-197 1220.03,-189.65 1209.48,-190.64 1212.4,-197"/>
</g>
</g>
</svg>
