<?xml version="1.0" encoding="UTF-8" standalone="no"?>
<!DOCTYPE svg PUBLIC "-//W3C//DTD SVG 1.1//EN"
 "http://www.w3.org/Graphics/SVG/1.1/DTD/svg11.dtd">
<!-- Generated by graphviz version 2.43.0 (0)
 -->
<!-- Title: pastafarianism Pages: 1 -->
<svg width="740pt" height="345pt"
 viewBox="0.00 0.00 739.99 345.28" xmlns="http://www.w3.org/2000/svg" xmlns:xlink="http://www.w3.org/1999/xlink">
<g id="graph0" class="graph" transform="scale(1 1) rotate(0) translate(4 341.28)">
<title>pastafarianism</title>
<polygon fill="white" stroke="transparent" points="-4,4 -4,-341.28 735.99,-341.28 735.99,4 -4,4"/>
<!-- 2ac17520&#45;0367&#45;4a85&#45;90e6&#45;904aabc291a7 -->
<g id="node1" class="node">
<title>2ac17520&#45;0367&#45;4a85&#45;90e6&#45;904aabc291a7</title>
<polygon fill="#b0ffff" stroke="black" points="333.99,-337.28 297.99,-337.28 297.99,-307.28 333.99,-307.28 333.99,-337.28"/>
<text text-anchor="middle" x="315.99" y="-317.28" font-family="Times,serif" font-size="20.00"> ? </text>
</g>
<!-- 11e3888a&#45;6268&#45;49ee&#45;8f9c&#45;15364a181356 -->
<g id="node2" class="node">
<title>11e3888a&#45;6268&#45;49ee&#45;8f9c&#45;15364a181356</title>
<ellipse fill="#ffff80" stroke="black" cx="182.99" cy="-250.07" rx="96.75" ry="21.43"/>
<text text-anchor="middle" x="182.99" y="-245.07" font-family="Times,serif" font-size="20.00">In(pen,cabinet)</text>
</g>
<!-- 2ac17520&#45;0367&#45;4a85&#45;90e6&#45;904aabc291a7&#45;&gt;11e3888a&#45;6268&#45;49ee&#45;8f9c&#45;15364a181356 -->
<g id="edge1" class="edge">
<title>2ac17520&#45;0367&#45;4a85&#45;90e6&#45;904aabc291a7&#45;&gt;11e3888a&#45;6268&#45;49ee&#45;8f9c&#45;15364a181356</title>
<path fill="none" stroke="black" d="M297.78,-311.66C279.8,-302.17 251.61,-287.29 227.66,-274.65"/>
<polygon fill="black" stroke="black" points="229.2,-271.5 218.72,-269.93 225.93,-277.69 229.2,-271.5"/>
</g>
<!-- 21f1f704&#45;5787&#45;4872&#45;a811&#45;a95b789b658f -->
<g id="node3" class="node">
<title>21f1f704&#45;5787&#45;4872&#45;a811&#45;a95b789b658f</title>
<polygon fill="#ff8080" stroke="black" points="334.49,-265.07 297.49,-265.07 297.49,-235.07 334.49,-235.07 334.49,-265.07"/>
<text text-anchor="middle" x="315.99" y="-245.07" font-family="Times,serif" font-size="20.00">→</text>
</g>
<!-- 2ac17520&#45;0367&#45;4a85&#45;90e6&#45;904aabc291a7&#45;&gt;21f1f704&#45;5787&#45;4872&#45;a811&#45;a95b789b658f -->
<g id="edge2" class="edge">
<title>2ac17520&#45;0367&#45;4a85&#45;90e6&#45;904aabc291a7&#45;&gt;21f1f704&#45;5787&#45;4872&#45;a811&#45;a95b789b658f</title>
<path fill="none" stroke="black" d="M315.99,-307.07C315.99,-298.03 315.99,-286.08 315.99,-275.54"/>
<polygon fill="black" stroke="black" points="319.5,-275.25 315.99,-265.25 312.5,-275.25 319.5,-275.25"/>
</g>
<!-- 1acbb4d4&#45;e8b3&#45;4ca2&#45;beb7&#45;86a89c130cff -->
<g id="node10" class="node">
<title>1acbb4d4&#45;e8b3&#45;4ca2&#45;beb7&#45;86a89c130cff</title>
<polygon fill="#ff8080" stroke="black" points="469.49,-265.07 432.49,-265.07 432.49,-235.07 469.49,-235.07 469.49,-265.07"/>
<text text-anchor="middle" x="450.99" y="-245.07" font-family="Times,serif" font-size="20.00">→</text>
</g>
<!-- 2ac17520&#45;0367&#45;4a85&#45;90e6&#45;904aabc291a7&#45;&gt;1acbb4d4&#45;e8b3&#45;4ca2&#45;beb7&#45;86a89c130cff -->
<g id="edge9" class="edge">
<title>2ac17520&#45;0367&#45;4a85&#45;90e6&#45;904aabc291a7&#45;&gt;1acbb4d4&#45;e8b3&#45;4ca2&#45;beb7&#45;86a89c130cff</title>
<path fill="none" stroke="black" d="M334.2,-311.81C357.02,-299.94 396.37,-279.48 423.02,-265.62"/>
<polygon fill="black" stroke="black" points="424.95,-268.56 432.21,-260.84 421.72,-262.34 424.95,-268.56"/>
</g>
<!-- 7da348b3&#45;4a29&#45;4713&#45;ab10&#45;8bfc2c3a3991 -->
<g id="node4" class="node">
<title>7da348b3&#45;4a29&#45;4713&#45;ab10&#45;8bfc2c3a3991</title>
<ellipse fill="#ffff80" stroke="black" cx="182.99" cy="-171.64" rx="96.75" ry="21.43"/>
<text text-anchor="middle" x="182.99" y="-166.64" font-family="Times,serif" font-size="20.00">IsHolding(pen)</text>
</g>
<!-- 21f1f704&#45;5787&#45;4872&#45;a811&#45;a95b789b658f&#45;&gt;7da348b3&#45;4a29&#45;4713&#45;ab10&#45;8bfc2c3a3991 -->
<g id="edge3" class="edge">
<title>21f1f704&#45;5787&#45;4872&#45;a811&#45;a95b789b658f&#45;&gt;7da348b3&#45;4a29&#45;4713&#45;ab10&#45;8bfc2c3a3991</title>
<path fill="none" stroke="black" d="M297.97,-234.97C295.02,-232.84 291.96,-230.73 288.99,-228.85 270.32,-217.01 248.92,-205.33 230.25,-195.71"/>
<polygon fill="black" stroke="black" points="231.83,-192.58 221.33,-191.16 228.65,-198.82 231.83,-192.58"/>
</g>
<!-- df3de5d5&#45;57b0&#45;4337&#45;88d9&#45;2cc4ca6d3c53 -->
<g id="node5" class="node">
<title>df3de5d5&#45;57b0&#45;4337&#45;88d9&#45;2cc4ca6d3c53</title>
<polygon fill="#b0ffff" stroke="black" points="333.99,-186.64 297.99,-186.64 297.99,-156.64 333.99,-156.64 333.99,-186.64"/>
<text text-anchor="middle" x="315.99" y="-166.64" font-family="Times,serif" font-size="20.00"> ? </text>
</g>
<!-- 21f1f704&#45;5787&#45;4872&#45;a811&#45;a95b789b658f&#45;&gt;df3de5d5&#45;57b0&#45;4337&#45;88d9&#45;2cc4ca6d3c53 -->
<g id="edge4" class="edge">
<title>21f1f704&#45;5787&#45;4872&#45;a811&#45;a95b789b658f&#45;&gt;df3de5d5&#45;57b0&#45;4337&#45;88d9&#45;2cc4ca6d3c53</title>
<path fill="none" stroke="black" d="M315.99,-235.05C315.99,-224.45 315.99,-209.63 315.99,-197.09"/>
<polygon fill="black" stroke="black" points="319.5,-196.83 315.99,-186.83 312.5,-196.83 319.5,-196.83"/>
</g>
<!-- e5959c8c&#45;d456&#45;4cee&#45;b2db&#45;a83e1a429cca -->
<g id="node6" class="node">
<title>e5959c8c&#45;d456&#45;4cee&#45;b2db&#45;a83e1a429cca</title>
<polygon fill="#ff8080" stroke="black" points="259.49,-111.43 222.49,-111.43 222.49,-81.43 259.49,-81.43 259.49,-111.43"/>
<text text-anchor="middle" x="240.99" y="-91.43" font-family="Times,serif" font-size="20.00">→</text>
</g>
<!-- df3de5d5&#45;57b0&#45;4337&#45;88d9&#45;2cc4ca6d3c53&#45;&gt;e5959c8c&#45;d456&#45;4cee&#45;b2db&#45;a83e1a429cca -->
<g id="edge5" class="edge">
<title>df3de5d5&#45;57b0&#45;4337&#45;88d9&#45;2cc4ca6d3c53&#45;&gt;e5959c8c&#45;d456&#45;4cee&#45;b2db&#45;a83e1a429cca</title>
<path fill="none" stroke="black" d="M301.53,-156.52C290.54,-145.79 275.22,-130.84 262.75,-118.66"/>
<polygon fill="black" stroke="black" points="265.01,-115.98 255.41,-111.5 260.12,-120.99 265.01,-115.98"/>
</g>
<!-- dbea1a64&#45;18c7&#45;4ba2&#45;bc1c&#45;89124e3ed5b6 -->
<g id="node9" class="node">
<title>dbea1a64&#45;18c7&#45;4ba2&#45;bc1c&#45;89124e3ed5b6</title>
<polygon fill="lightgreen" stroke="black" points="405.99,-114.43 277.99,-114.43 277.99,-78.43 405.99,-78.43 405.99,-114.43"/>
<text text-anchor="middle" x="341.99" y="-91.43" font-family="Times,serif" font-size="20.00">Walk(cabinet)</text>
</g>
<!-- df3de5d5&#45;57b0&#45;4337&#45;88d9&#45;2cc4ca6d3c53&#45;&gt;dbea1a64&#45;18c7&#45;4ba2&#45;bc1c&#45;89124e3ed5b6 -->
<g id="edge8" class="edge">
<title>df3de5d5&#45;57b0&#45;4337&#45;88d9&#45;2cc4ca6d3c53&#45;&gt;dbea1a64&#45;18c7&#45;4ba2&#45;bc1c&#45;89124e3ed5b6</title>
<path fill="none" stroke="black" d="M321.01,-156.52C324.26,-147.36 328.61,-135.13 332.5,-124.17"/>
<polygon fill="black" stroke="black" points="335.85,-125.19 335.9,-114.59 329.25,-122.84 335.85,-125.19"/>
</g>
<!-- 9e4b1594&#45;97ea&#45;4ead&#45;9959&#45;5e09a45121aa -->
<g id="node7" class="node">
<title>9e4b1594&#45;97ea&#45;4ead&#45;9959&#45;5e09a45121aa</title>
<ellipse fill="#ffff80" stroke="black" cx="98.99" cy="-21.21" rx="98.99" ry="21.43"/>
<text text-anchor="middle" x="98.99" y="-16.21" font-family="Times,serif" font-size="20.00">IsNear(cabinet)</text>
</g>
<!-- e5959c8c&#45;d456&#45;4cee&#45;b2db&#45;a83e1a429cca&#45;&gt;9e4b1594&#45;97ea&#45;4ead&#45;9959&#45;5e09a45121aa -->
<g id="edge6" class="edge">
<title>e5959c8c&#45;d456&#45;4cee&#45;b2db&#45;a83e1a429cca&#45;&gt;9e4b1594&#45;97ea&#45;4ead&#45;9959&#45;5e09a45121aa</title>
<path fill="none" stroke="black" d="M222.43,-85.86C202.73,-75.7 170.85,-59.26 144.43,-45.64"/>
<polygon fill="black" stroke="black" points="145.83,-42.42 135.34,-40.95 142.62,-48.64 145.83,-42.42"/>
</g>
<!-- 4e96fb69&#45;315b&#45;412a&#45;92b9&#45;829399acb261 -->
<g id="node8" class="node">
<title>4e96fb69&#45;315b&#45;412a&#45;92b9&#45;829399acb261</title>
<polygon fill="lightgreen" stroke="black" points="379.99,-39.21 215.99,-39.21 215.99,-3.21 379.99,-3.21 379.99,-39.21"/>
<text text-anchor="middle" x="297.99" y="-16.21" font-family="Times,serif" font-size="20.00">PutIn(pen,cabinet)</text>
</g>
<!-- e5959c8c&#45;d456&#45;4cee&#45;b2db&#45;a83e1a429cca&#45;&gt;4e96fb69&#45;315b&#45;412a&#45;92b9&#45;829399acb261 -->
<g id="edge7" class="edge">
<title>e5959c8c&#45;d456&#45;4cee&#45;b2db&#45;a83e1a429cca&#45;&gt;4e96fb69&#45;315b&#45;412a&#45;92b9&#45;829399acb261</title>
<path fill="none" stroke="black" d="M251.99,-81.31C259.48,-71.68 269.62,-58.66 278.47,-47.29"/>
<polygon fill="black" stroke="black" points="281.25,-49.42 284.63,-39.38 275.73,-45.12 281.25,-49.42"/>
</g>
<!-- ef2e3851&#45;d318&#45;4711&#45;99ed&#45;04847fdcf341 -->
<g id="node11" class="node">
<title>ef2e3851&#45;d318&#45;4711&#45;99ed&#45;04847fdcf341</title>
<ellipse fill="#ffff80" stroke="black" cx="450.99" cy="-171.64" rx="98.99" ry="21.43"/>
<text text-anchor="middle" x="450.99" y="-166.64" font-family="Times,serif" font-size="20.00">IsHandEmpty()</text>
</g>
<!-- 1acbb4d4&#45;e8b3&#45;4ca2&#45;beb7&#45;86a89c130cff&#45;&gt;ef2e3851&#45;d318&#45;4711&#45;99ed&#45;04847fdcf341 -->
<g id="edge10" class="edge">
<title>1acbb4d4&#45;e8b3&#45;4ca2&#45;beb7&#45;86a89c130cff&#45;&gt;ef2e3851&#45;d318&#45;4711&#45;99ed&#45;04847fdcf341</title>
<path fill="none" stroke="black" d="M450.99,-235.05C450.99,-226.1 450.99,-214.15 450.99,-203.09"/>
<polygon fill="black" stroke="black" points="454.5,-202.9 450.99,-192.9 447.5,-202.9 454.5,-202.9"/>
</g>
<!-- 5f8a06c5&#45;b62e&#45;44ee&#45;9afb&#45;b28b2e0f1301 -->
<g id="node12" class="node">
<title>5f8a06c5&#45;b62e&#45;44ee&#45;9afb&#45;b28b2e0f1301</title>
<polygon fill="#b0ffff" stroke="black" points="603.99,-186.64 567.99,-186.64 567.99,-156.64 603.99,-156.64 603.99,-186.64"/>
<text text-anchor="middle" x="585.99" y="-166.64" font-family="Times,serif" font-size="20.00"> ? </text>
</g>
<!-- 1acbb4d4&#45;e8b3&#45;4ca2&#45;beb7&#45;86a89c130cff&#45;&gt;5f8a06c5&#45;b62e&#45;44ee&#45;9afb&#45;b28b2e0f1301 -->
<g id="edge11" class="edge">
<title>1acbb4d4&#45;e8b3&#45;4ca2&#45;beb7&#45;86a89c130cff&#45;&gt;5f8a06c5&#45;b62e&#45;44ee&#45;9afb&#45;b28b2e0f1301</title>
<path fill="none" stroke="black" d="M469.85,-240.41C491.81,-230.06 528.93,-211.75 558.99,-192.85 559.18,-192.74 559.37,-192.62 559.55,-192.5"/>
<polygon fill="black" stroke="black" points="561.69,-195.28 567.98,-186.75 557.75,-189.5 561.69,-195.28"/>
</g>
<!-- fd7b59fa&#45;1243&#45;448c&#45;8fa1&#45;9d671315eaf2 -->
<g id="node13" class="node">
<title>fd7b59fa&#45;1243&#45;448c&#45;8fa1&#45;9d671315eaf2</title>
<polygon fill="#ff8080" stroke="black" points="560.49,-111.43 523.49,-111.43 523.49,-81.43 560.49,-81.43 560.49,-111.43"/>
<text text-anchor="middle" x="541.99" y="-91.43" font-family="Times,serif" font-size="20.00">→</text>
</g>
<!-- 5f8a06c5&#45;b62e&#45;44ee&#45;9afb&#45;b28b2e0f1301&#45;&gt;fd7b59fa&#45;1243&#45;448c&#45;8fa1&#45;9d671315eaf2 -->
<g id="edge12" class="edge">
<title>5f8a06c5&#45;b62e&#45;44ee&#45;9afb&#45;b28b2e0f1301&#45;&gt;fd7b59fa&#45;1243&#45;448c&#45;8fa1&#45;9d671315eaf2</title>
<path fill="none" stroke="black" d="M577.51,-156.52C571.36,-146.29 562.92,-132.24 555.8,-120.4"/>
<polygon fill="black" stroke="black" points="558.6,-118.27 550.45,-111.5 552.6,-121.87 558.6,-118.27"/>
</g>
<!-- 5d184d5b&#45;894c&#45;4af5&#45;8319&#45;809ea992833c -->
<g id="node16" class="node">
<title>5d184d5b&#45;894c&#45;4af5&#45;8319&#45;809ea992833c</title>
<polygon fill="lightgreen" stroke="black" points="678.99,-114.43 578.99,-114.43 578.99,-78.43 678.99,-78.43 678.99,-114.43"/>
<text text-anchor="middle" x="628.99" y="-91.43" font-family="Times,serif" font-size="20.00">Walk(pen)</text>
</g>
<!-- 5f8a06c5&#45;b62e&#45;44ee&#45;9afb&#45;b28b2e0f1301&#45;&gt;5d184d5b&#45;894c&#45;4af5&#45;8319&#45;809ea992833c -->
<g id="edge15" class="edge">
<title>5f8a06c5&#45;b62e&#45;44ee&#45;9afb&#45;b28b2e0f1301&#45;&gt;5d184d5b&#45;894c&#45;4af5&#45;8319&#45;809ea992833c</title>
<path fill="none" stroke="black" d="M594.29,-156.52C599.78,-147.17 607.14,-134.63 613.68,-123.5"/>
<polygon fill="black" stroke="black" points="616.87,-124.99 618.91,-114.59 610.83,-121.44 616.87,-124.99"/>
</g>
<!-- c7776d61&#45;e05e&#45;4841&#45;8b57&#45;cf16e78c7bf9 -->
<g id="node14" class="node">
<title>c7776d61&#45;e05e&#45;4841&#45;8b57&#45;cf16e78c7bf9</title>
<ellipse fill="#ffff80" stroke="black" cx="528.99" cy="-21.21" rx="79.39" ry="21.43"/>
<text text-anchor="middle" x="528.99" y="-16.21" font-family="Times,serif" font-size="20.00">IsNear(pen)</text>
</g>
<!-- fd7b59fa&#45;1243&#45;448c&#45;8fa1&#45;9d671315eaf2&#45;&gt;c7776d61&#45;e05e&#45;4841&#45;8b57&#45;cf16e78c7bf9 -->
<g id="edge13" class="edge">
<title>fd7b59fa&#45;1243&#45;448c&#45;8fa1&#45;9d671315eaf2&#45;&gt;c7776d61&#45;e05e&#45;4841&#45;8b57&#45;cf16e78c7bf9</title>
<path fill="none" stroke="black" d="M539.49,-81.31C538.04,-73.17 536.17,-62.6 534.4,-52.66"/>
<polygon fill="black" stroke="black" points="537.82,-51.89 532.62,-42.66 530.93,-53.11 537.82,-51.89"/>
</g>
<!-- 045d7d24&#45;c0f4&#45;4ce6&#45;992d&#45;778a4a542fc0 -->
<g id="node15" class="node">
<title>045d7d24&#45;c0f4&#45;4ce6&#45;992d&#45;778a4a542fc0</title>
<polygon fill="lightgreen" stroke="black" points="731.99,-39.21 625.99,-39.21 625.99,-3.21 731.99,-3.21 731.99,-39.21"/>
<text text-anchor="middle" x="678.99" y="-16.21" font-family="Times,serif" font-size="20.00">Grasp(pen)</text>
</g>
<!-- fd7b59fa&#45;1243&#45;448c&#45;8fa1&#45;9d671315eaf2&#45;&gt;045d7d24&#45;c0f4&#45;4ce6&#45;992d&#45;778a4a542fc0 -->
<g id="edge14" class="edge">
<title>fd7b59fa&#45;1243&#45;448c&#45;8fa1&#45;9d671315eaf2&#45;&gt;045d7d24&#45;c0f4&#45;4ce6&#45;992d&#45;778a4a542fc0</title>
<path fill="none" stroke="black" d="M560.56,-83.91C563.69,-82.04 566.92,-80.15 569.99,-78.43 591.16,-66.56 615.08,-54.12 635.11,-43.97"/>
<polygon fill="black" stroke="black" points="636.95,-46.96 644.3,-39.33 633.8,-40.71 636.95,-46.96"/>
</g>
</g>
</svg>
