<?xml version="1.0" encoding="UTF-8" standalone="no"?>
<!DOCTYPE svg PUBLIC "-//W3C//DTD SVG 1.1//EN"
 "http://www.w3.org/Graphics/SVG/1.1/DTD/svg11.dtd">
<!-- Generated by graphviz version 2.43.0 (0)
 -->
<!-- Title: pastafarianism Pages: 1 -->
<svg width="1300pt" height="333pt"
 viewBox="0.00 0.00 1300.09 332.85" xmlns="http://www.w3.org/2000/svg" xmlns:xlink="http://www.w3.org/1999/xlink">
<g id="graph0" class="graph" transform="scale(1 1) rotate(0) translate(4 328.85)">
<title>pastafarianism</title>
<polygon fill="white" stroke="transparent" points="-4,4 -4,-328.85 1296.09,-328.85 1296.09,4 -4,4"/>
<!-- 0e58811e&#45;5bd1&#45;4ab6&#45;bd93&#45;a4e6f74ff982 -->
<g id="node1" class="node">
<title>0e58811e&#45;5bd1&#45;4ab6&#45;bd93&#45;a4e6f74ff982</title>
<polygon fill="#b0ffff" stroke="black" points="850.09,-324.85 814.09,-324.85 814.09,-294.85 850.09,-294.85 850.09,-324.85"/>
<text text-anchor="middle" x="832.09" y="-304.85" font-family="Times,serif" font-size="20.00"> ? </text>
</g>
<!-- 36df5c00&#45;6302&#45;4d2a&#45;84be&#45;8b2905d80339 -->
<g id="node2" class="node">
<title>36df5c00&#45;6302&#45;4d2a&#45;84be&#45;8b2905d80339</title>
<polygon fill="#ff8080" stroke="black" points="387.59,-258.85 350.59,-258.85 350.59,-228.85 387.59,-228.85 387.59,-258.85"/>
<text text-anchor="middle" x="369.09" y="-238.85" font-family="Times,serif" font-size="20.00">→</text>
</g>
<!-- 0e58811e&#45;5bd1&#45;4ab6&#45;bd93&#45;a4e6f74ff982&#45;&gt;36df5c00&#45;6302&#45;4d2a&#45;84be&#45;8b2905d80339 -->
<g id="edge1" class="edge">
<title>0e58811e&#45;5bd1&#45;4ab6&#45;bd93&#45;a4e6f74ff982&#45;&gt;36df5c00&#45;6302&#45;4d2a&#45;84be&#45;8b2905d80339</title>
<path fill="none" stroke="black" d="M813.94,-306.34C743,-296.54 484.13,-260.75 397.53,-248.78"/>
<polygon fill="black" stroke="black" points="398,-245.32 387.61,-247.41 397.04,-252.25 398,-245.32"/>
</g>
<!-- cc1d3226&#45;8cc7&#45;4289&#45;ac10&#45;a35bba3b8b28 -->
<g id="node5" class="node">
<title>cc1d3226&#45;8cc7&#45;4289&#45;ac10&#45;a35bba3b8b28</title>
<polygon fill="#ff8080" stroke="black" points="787.59,-258.85 750.59,-258.85 750.59,-228.85 787.59,-228.85 787.59,-258.85"/>
<text text-anchor="middle" x="769.09" y="-238.85" font-family="Times,serif" font-size="20.00">→</text>
</g>
<!-- 0e58811e&#45;5bd1&#45;4ab6&#45;bd93&#45;a4e6f74ff982&#45;&gt;cc1d3226&#45;8cc7&#45;4289&#45;ac10&#45;a35bba3b8b28 -->
<g id="edge4" class="edge">
<title>0e58811e&#45;5bd1&#45;4ab6&#45;bd93&#45;a4e6f74ff982&#45;&gt;cc1d3226&#45;8cc7&#45;4289&#45;ac10&#45;a35bba3b8b28</title>
<path fill="none" stroke="black" d="M818.11,-294.65C809.87,-286.28 799.29,-275.53 790.06,-266.16"/>
<polygon fill="black" stroke="black" points="792.54,-263.69 783.03,-259.02 787.55,-268.6 792.54,-263.69"/>
</g>
<!-- f36b2c63&#45;7fb2&#45;499b&#45;bb99&#45;e6152c9241a4 -->
<g id="node12" class="node">
<title>f36b2c63&#45;7fb2&#45;499b&#45;bb99&#45;e6152c9241a4</title>
<polygon fill="#ff8080" stroke="black" points="914.59,-258.85 877.59,-258.85 877.59,-228.85 914.59,-228.85 914.59,-258.85"/>
<text text-anchor="middle" x="896.09" y="-238.85" font-family="Times,serif" font-size="20.00">→</text>
</g>
<!-- 0e58811e&#45;5bd1&#45;4ab6&#45;bd93&#45;a4e6f74ff982&#45;&gt;f36b2c63&#45;7fb2&#45;499b&#45;bb99&#45;e6152c9241a4 -->
<g id="edge11" class="edge">
<title>0e58811e&#45;5bd1&#45;4ab6&#45;bd93&#45;a4e6f74ff982&#45;&gt;f36b2c63&#45;7fb2&#45;499b&#45;bb99&#45;e6152c9241a4</title>
<path fill="none" stroke="black" d="M846.29,-294.65C854.66,-286.28 865.41,-275.53 874.78,-266.16"/>
<polygon fill="black" stroke="black" points="877.33,-268.56 881.92,-259.02 872.38,-263.61 877.33,-268.56"/>
</g>
<!-- 5a161941&#45;bf10&#45;42db&#45;b03d&#45;8a00cb76ed64 -->
<g id="node15" class="node">
<title>5a161941&#45;bf10&#45;42db&#45;b03d&#45;8a00cb76ed64</title>
<polygon fill="#ff8080" stroke="black" points="1110.59,-258.85 1073.59,-258.85 1073.59,-228.85 1110.59,-228.85 1110.59,-258.85"/>
<text text-anchor="middle" x="1092.09" y="-238.85" font-family="Times,serif" font-size="20.00">→</text>
</g>
<!-- 0e58811e&#45;5bd1&#45;4ab6&#45;bd93&#45;a4e6f74ff982&#45;&gt;5a161941&#45;bf10&#45;42db&#45;b03d&#45;8a00cb76ed64 -->
<g id="edge14" class="edge">
<title>0e58811e&#45;5bd1&#45;4ab6&#45;bd93&#45;a4e6f74ff982&#45;&gt;5a161941&#45;bf10&#45;42db&#45;b03d&#45;8a00cb76ed64</title>
<path fill="none" stroke="black" d="M850.37,-304.35C895.02,-293.36 1009.86,-265.09 1063.59,-251.87"/>
<polygon fill="black" stroke="black" points="1064.6,-255.22 1073.48,-249.43 1062.93,-248.43 1064.6,-255.22"/>
</g>
<!-- e047a42d&#45;b62a&#45;4631&#45;8a92&#45;aa4328d256c1 -->
<g id="node3" class="node">
<title>e047a42d&#45;b62a&#45;4631&#45;8a92&#45;aa4328d256c1</title>
<ellipse fill="#ffff80" stroke="black" cx="118.09" cy="-171.64" rx="118.17" ry="21.43"/>
<text text-anchor="middle" x="118.09" y="-166.64" font-family="Times,serif" font-size="20.00">ToggledOff(light2)</text>
</g>
<!-- 36df5c00&#45;6302&#45;4d2a&#45;84be&#45;8b2905d80339&#45;&gt;e047a42d&#45;b62a&#45;4631&#45;8a92&#45;aa4328d256c1 -->
<g id="edge2" class="edge">
<title>36df5c00&#45;6302&#45;4d2a&#45;84be&#45;8b2905d80339&#45;&gt;e047a42d&#45;b62a&#45;4631&#45;8a92&#45;aa4328d256c1</title>
<path fill="none" stroke="black" d="M350.22,-237.58C316.5,-228.14 244.29,-207.94 189.3,-192.56"/>
<polygon fill="black" stroke="black" points="190.16,-189.17 179.59,-189.84 188.28,-195.91 190.16,-189.17"/>
</g>
<!-- 27cc9559&#45;2e8a&#45;4f76&#45;9c86&#45;b6e45796599b -->
<g id="node4" class="node">
<title>27cc9559&#45;2e8a&#45;4f76&#45;9c86&#45;b6e45796599b</title>
<ellipse fill="#ffff80" stroke="black" cx="369.09" cy="-171.64" rx="115.02" ry="21.43"/>
<text text-anchor="middle" x="369.09" y="-166.64" font-family="Times,serif" font-size="20.00">ToggledOn(light1)</text>
</g>
<!-- 36df5c00&#45;6302&#45;4d2a&#45;84be&#45;8b2905d80339&#45;&gt;27cc9559&#45;2e8a&#45;4f76&#45;9c86&#45;b6e45796599b -->
<g id="edge3" class="edge">
<title>36df5c00&#45;6302&#45;4d2a&#45;84be&#45;8b2905d80339&#45;&gt;27cc9559&#45;2e8a&#45;4f76&#45;9c86&#45;b6e45796599b</title>
<path fill="none" stroke="black" d="M369.09,-228.64C369.09,-221.27 369.09,-211.96 369.09,-203.07"/>
<polygon fill="black" stroke="black" points="372.59,-202.95 369.09,-192.95 365.59,-202.95 372.59,-202.95"/>
</g>
<!-- 1efaa4fb&#45;2cfc&#45;4941&#45;8f0e&#45;ee53165a0db9 -->
<g id="node6" class="node">
<title>1efaa4fb&#45;2cfc&#45;4941&#45;8f0e&#45;ee53165a0db9</title>
<ellipse fill="#ffff80" stroke="black" cx="618.09" cy="-171.64" rx="115.02" ry="21.43"/>
<text text-anchor="middle" x="618.09" y="-166.64" font-family="Times,serif" font-size="20.00">ToggledOn(light1)</text>
</g>
<!-- cc1d3226&#45;8cc7&#45;4289&#45;ac10&#45;a35bba3b8b28&#45;&gt;1efaa4fb&#45;2cfc&#45;4941&#45;8f0e&#45;ee53165a0db9 -->
<g id="edge5" class="edge">
<title>cc1d3226&#45;8cc7&#45;4289&#45;ac10&#45;a35bba3b8b28&#45;&gt;1efaa4fb&#45;2cfc&#45;4941&#45;8f0e&#45;ee53165a0db9</title>
<path fill="none" stroke="black" d="M750.57,-234.24C730.19,-224.77 696.58,-209.14 668.31,-195.99"/>
<polygon fill="black" stroke="black" points="669.49,-192.68 658.95,-191.64 666.54,-199.03 669.49,-192.68"/>
</g>
<!-- f29c7f9d&#45;ae47&#45;4657&#45;b671&#45;d8d596110f67 -->
<g id="node7" class="node">
<title>f29c7f9d&#45;ae47&#45;4657&#45;b671&#45;d8d596110f67</title>
<polygon fill="#b0ffff" stroke="black" points="787.09,-186.64 751.09,-186.64 751.09,-156.64 787.09,-156.64 787.09,-186.64"/>
<text text-anchor="middle" x="769.09" y="-166.64" font-family="Times,serif" font-size="20.00"> ? </text>
</g>
<!-- cc1d3226&#45;8cc7&#45;4289&#45;ac10&#45;a35bba3b8b28&#45;&gt;f29c7f9d&#45;ae47&#45;4657&#45;b671&#45;d8d596110f67 -->
<g id="edge6" class="edge">
<title>cc1d3226&#45;8cc7&#45;4289&#45;ac10&#45;a35bba3b8b28&#45;&gt;f29c7f9d&#45;ae47&#45;4657&#45;b671&#45;d8d596110f67</title>
<path fill="none" stroke="black" d="M769.09,-228.64C769.09,-219.6 769.09,-207.65 769.09,-197.12"/>
<polygon fill="black" stroke="black" points="772.59,-196.83 769.09,-186.83 765.59,-196.83 772.59,-196.83"/>
</g>
<!-- 92a12021&#45;a9cd&#45;4da0&#45;b90a&#45;b542879fc1d3 -->
<g id="node8" class="node">
<title>92a12021&#45;a9cd&#45;4da0&#45;b90a&#45;b542879fc1d3</title>
<polygon fill="#ff8080" stroke="black" points="739.59,-111.43 702.59,-111.43 702.59,-81.43 739.59,-81.43 739.59,-111.43"/>
<text text-anchor="middle" x="721.09" y="-91.43" font-family="Times,serif" font-size="20.00">→</text>
</g>
<!-- f29c7f9d&#45;ae47&#45;4657&#45;b671&#45;d8d596110f67&#45;&gt;92a12021&#45;a9cd&#45;4da0&#45;b90a&#45;b542879fc1d3 -->
<g id="edge7" class="edge">
<title>f29c7f9d&#45;ae47&#45;4657&#45;b671&#45;d8d596110f67&#45;&gt;92a12021&#45;a9cd&#45;4da0&#45;b90a&#45;b542879fc1d3</title>
<path fill="none" stroke="black" d="M759.83,-156.52C753.06,-146.19 743.73,-131.96 735.92,-120.05"/>
<polygon fill="black" stroke="black" points="738.72,-117.94 730.31,-111.5 732.87,-121.78 738.72,-117.94"/>
</g>
<!-- 2aed20fd&#45;d543&#45;4bbb&#45;94f6&#45;07a4bbb1e32f -->
<g id="node11" class="node">
<title>2aed20fd&#45;d543&#45;4bbb&#45;94f6&#45;07a4bbb1e32f</title>
<polygon fill="lightgreen" stroke="black" points="874.09,-114.43 758.09,-114.43 758.09,-78.43 874.09,-78.43 874.09,-114.43"/>
<text text-anchor="middle" x="816.09" y="-91.43" font-family="Times,serif" font-size="20.00">Walk(light2)</text>
</g>
<!-- f29c7f9d&#45;ae47&#45;4657&#45;b671&#45;d8d596110f67&#45;&gt;2aed20fd&#45;d543&#45;4bbb&#45;94f6&#45;07a4bbb1e32f -->
<g id="edge10" class="edge">
<title>f29c7f9d&#45;ae47&#45;4657&#45;b671&#45;d8d596110f67&#45;&gt;2aed20fd&#45;d543&#45;4bbb&#45;94f6&#45;07a4bbb1e32f</title>
<path fill="none" stroke="black" d="M778.15,-156.52C784.21,-147.08 792.37,-134.38 799.56,-123.17"/>
<polygon fill="black" stroke="black" points="802.61,-124.9 805.07,-114.59 796.72,-121.12 802.61,-124.9"/>
</g>
<!-- d3c1d6ee&#45;5190&#45;4672&#45;ba45&#45;114319a48b69 -->
<g id="node9" class="node">
<title>d3c1d6ee&#45;5190&#45;4672&#45;ba45&#45;114319a48b69</title>
<ellipse fill="#ffff80" stroke="black" cx="628.09" cy="-21.21" rx="90.52" ry="21.43"/>
<text text-anchor="middle" x="628.09" y="-16.21" font-family="Times,serif" font-size="20.00">IsNear(light2)</text>
</g>
<!-- 92a12021&#45;a9cd&#45;4da0&#45;b90a&#45;b542879fc1d3&#45;&gt;d3c1d6ee&#45;5190&#45;4672&#45;ba45&#45;114319a48b69 -->
<g id="edge8" class="edge">
<title>92a12021&#45;a9cd&#45;4da0&#45;b90a&#45;b542879fc1d3&#45;&gt;d3c1d6ee&#45;5190&#45;4672&#45;ba45&#45;114319a48b69</title>
<path fill="none" stroke="black" d="M703.16,-81.31C691.24,-71.93 675.24,-59.34 661.08,-48.19"/>
<polygon fill="black" stroke="black" points="663.02,-45.26 652.99,-41.82 658.69,-50.76 663.02,-45.26"/>
</g>
<!-- f4abac75&#45;663c&#45;479a&#45;99a0&#45;efaa351c0728 -->
<g id="node10" class="node">
<title>f4abac75&#45;663c&#45;479a&#45;99a0&#45;efaa351c0728</title>
<polygon fill="lightgreen" stroke="black" points="893.59,-39.21 736.59,-39.21 736.59,-3.21 893.59,-3.21 893.59,-39.21"/>
<text text-anchor="middle" x="815.09" y="-16.21" font-family="Times,serif" font-size="20.00">ToggleOff(light2)</text>
</g>
<!-- 92a12021&#45;a9cd&#45;4da0&#45;b90a&#45;b542879fc1d3&#45;&gt;f4abac75&#45;663c&#45;479a&#45;99a0&#45;efaa351c0728 -->
<g id="edge9" class="edge">
<title>92a12021&#45;a9cd&#45;4da0&#45;b90a&#45;b542879fc1d3&#45;&gt;f4abac75&#45;663c&#45;479a&#45;99a0&#45;efaa351c0728</title>
<path fill="none" stroke="black" d="M739.21,-81.31C752.18,-71.21 769.92,-57.39 785,-45.65"/>
<polygon fill="black" stroke="black" points="787.31,-48.28 793.05,-39.38 783.01,-42.76 787.31,-48.28"/>
</g>
<!-- c01c2ae7&#45;a1f8&#45;4d8e&#45;8637&#45;0db2e7bba4aa -->
<g id="node13" class="node">
<title>c01c2ae7&#45;a1f8&#45;4d8e&#45;8637&#45;0db2e7bba4aa</title>
<ellipse fill="#ffff80" stroke="black" cx="896.09" cy="-171.64" rx="90.52" ry="21.43"/>
<text text-anchor="middle" x="896.09" y="-166.64" font-family="Times,serif" font-size="20.00">IsNear(light1)</text>
</g>
<!-- f36b2c63&#45;7fb2&#45;499b&#45;bb99&#45;e6152c9241a4&#45;&gt;c01c2ae7&#45;a1f8&#45;4d8e&#45;8637&#45;0db2e7bba4aa -->
<g id="edge12" class="edge">
<title>f36b2c63&#45;7fb2&#45;499b&#45;bb99&#45;e6152c9241a4&#45;&gt;c01c2ae7&#45;a1f8&#45;4d8e&#45;8637&#45;0db2e7bba4aa</title>
<path fill="none" stroke="black" d="M896.09,-228.64C896.09,-221.27 896.09,-211.96 896.09,-203.07"/>
<polygon fill="black" stroke="black" points="899.59,-202.95 896.09,-192.95 892.59,-202.95 899.59,-202.95"/>
</g>
<!-- 2b3e49a0&#45;3ac5&#45;414c&#45;8701&#45;e62a64032981 -->
<g id="node14" class="node">
<title>2b3e49a0&#45;3ac5&#45;414c&#45;8701&#45;e62a64032981</title>
<polygon fill="lightgreen" stroke="black" points="1157.59,-189.64 1004.59,-189.64 1004.59,-153.64 1157.59,-153.64 1157.59,-189.64"/>
<text text-anchor="middle" x="1081.09" y="-166.64" font-family="Times,serif" font-size="20.00">ToggleOn(light1)</text>
</g>
<!-- f36b2c63&#45;7fb2&#45;499b&#45;bb99&#45;e6152c9241a4&#45;&gt;2b3e49a0&#45;3ac5&#45;414c&#45;8701&#45;e62a64032981 -->
<g id="edge13" class="edge">
<title>f36b2c63&#45;7fb2&#45;499b&#45;bb99&#45;e6152c9241a4&#45;&gt;2b3e49a0&#45;3ac5&#45;414c&#45;8701&#45;e62a64032981</title>
<path fill="none" stroke="black" d="M914.84,-235.73C940.84,-225.87 988.89,-207.63 1026.67,-193.29"/>
<polygon fill="black" stroke="black" points="1027.93,-196.56 1036.04,-189.74 1025.45,-190.01 1027.93,-196.56"/>
</g>
<!-- 0af5608e&#45;a977&#45;4108&#45;973a&#45;3e6cc3139ae0 -->
<g id="node16" class="node">
<title>0af5608e&#45;a977&#45;4108&#45;973a&#45;3e6cc3139ae0</title>
<polygon fill="lightgreen" stroke="black" points="1292.09,-189.64 1176.09,-189.64 1176.09,-153.64 1292.09,-153.64 1292.09,-189.64"/>
<text text-anchor="middle" x="1234.09" y="-166.64" font-family="Times,serif" font-size="20.00">Walk(light1)</text>
</g>
<!-- 5a161941&#45;bf10&#45;42db&#45;b03d&#45;8a00cb76ed64&#45;&gt;0af5608e&#45;a977&#45;4108&#45;973a&#45;3e6cc3139ae0 -->
<g id="edge15" class="edge">
<title>5a161941&#45;bf10&#45;42db&#45;b03d&#45;8a00cb76ed64&#45;&gt;0af5608e&#45;a977&#45;4108&#45;973a&#45;3e6cc3139ae0</title>
<path fill="none" stroke="black" d="M1110.65,-233.67C1130.76,-223.73 1163.54,-207.52 1190.27,-194.3"/>
<polygon fill="black" stroke="black" points="1192.03,-197.34 1199.44,-189.77 1188.93,-191.06 1192.03,-197.34"/>
</g>
</g>
</svg>
