<?xml version="1.0" encoding="UTF-8" standalone="no"?>
<!DOCTYPE svg PUBLIC "-//W3C//DTD SVG 1.1//EN"
 "http://www.w3.org/Graphics/SVG/1.1/DTD/svg11.dtd">
<!-- Generated by graphviz version 2.43.0 (0)
 -->
<!-- Title: pastafarianism Pages: 1 -->
<svg width="492pt" height="182pt"
 viewBox="0.00 0.00 492.35 182.43" xmlns="http://www.w3.org/2000/svg" xmlns:xlink="http://www.w3.org/1999/xlink">
<g id="graph0" class="graph" transform="scale(1 1) rotate(0) translate(4 178.43)">
<title>pastafarianism</title>
<polygon fill="white" stroke="transparent" points="-4,4 -4,-178.43 488.35,-178.43 488.35,4 -4,4"/>
<!-- e063a286&#45;35cf&#45;4d3d&#45;9448&#45;f2dda6377863 -->
<g id="node1" class="node">
<title>e063a286&#45;35cf&#45;4d3d&#45;9448&#45;f2dda6377863</title>
<polygon fill="#b0ffff" stroke="black" points="261.09,-174.43 225.09,-174.43 225.09,-144.43 261.09,-144.43 261.09,-174.43"/>
<text text-anchor="middle" x="243.09" y="-154.43" font-family="Times,serif" font-size="20.00"> ? </text>
</g>
<!-- b2f7445c&#45;bfb8&#45;4428&#45;a5a8&#45;17789089c830 -->
<g id="node2" class="node">
<title>b2f7445c&#45;bfb8&#45;4428&#45;a5a8&#45;17789089c830</title>
<polygon fill="#ff8080" stroke="black" points="261.59,-108.43 224.59,-108.43 224.59,-78.43 261.59,-78.43 261.59,-108.43"/>
<text text-anchor="middle" x="243.09" y="-88.43" font-family="Times,serif" font-size="20.00">→</text>
</g>
<!-- e063a286&#45;35cf&#45;4d3d&#45;9448&#45;f2dda6377863&#45;&gt;b2f7445c&#45;bfb8&#45;4428&#45;a5a8&#45;17789089c830 -->
<g id="edge1" class="edge">
<title>e063a286&#45;35cf&#45;4d3d&#45;9448&#45;f2dda6377863&#45;&gt;b2f7445c&#45;bfb8&#45;4428&#45;a5a8&#45;17789089c830</title>
<path fill="none" stroke="black" d="M243.09,-144.22C243.09,-136.77 243.09,-127.42 243.09,-118.84"/>
<polygon fill="black" stroke="black" points="246.59,-118.59 243.09,-108.59 239.59,-118.59 246.59,-118.59"/>
</g>
<!-- 75cf3ad9&#45;8d99&#45;4da3&#45;adb6&#45;65830f113aee -->
<g id="node3" class="node">
<title>75cf3ad9&#45;8d99&#45;4da3&#45;adb6&#45;65830f113aee</title>
<ellipse fill="#ffff80" stroke="black" cx="118.09" cy="-21.21" rx="118.17" ry="21.43"/>
<text text-anchor="middle" x="118.09" y="-16.21" font-family="Times,serif" font-size="20.00">ToggledOff(light2)</text>
</g>
<!-- b2f7445c&#45;bfb8&#45;4428&#45;a5a8&#45;17789089c830&#45;&gt;75cf3ad9&#45;8d99&#45;4da3&#45;adb6&#45;65830f113aee -->
<g id="edge2" class="edge">
<title>b2f7445c&#45;bfb8&#45;4428&#45;a5a8&#45;17789089c830&#45;&gt;75cf3ad9&#45;8d99&#45;4da3&#45;adb6&#45;65830f113aee</title>
<path fill="none" stroke="black" d="M224.37,-81.91C207.81,-72.61 182.99,-58.67 161.5,-46.6"/>
<polygon fill="black" stroke="black" points="162.96,-43.41 152.53,-41.56 159.54,-49.51 162.96,-43.41"/>
</g>
<!-- 5537dab3&#45;f423&#45;474c&#45;bac9&#45;b363059ebf86 -->
<g id="node4" class="node">
<title>5537dab3&#45;f423&#45;474c&#45;bac9&#45;b363059ebf86</title>
<ellipse fill="#ffff80" stroke="black" cx="369.09" cy="-21.21" rx="115.02" ry="21.43"/>
<text text-anchor="middle" x="369.09" y="-16.21" font-family="Times,serif" font-size="20.00">ToggledOn(light1)</text>
</g>
<!-- b2f7445c&#45;bfb8&#45;4428&#45;a5a8&#45;17789089c830&#45;&gt;5537dab3&#45;f423&#45;474c&#45;bac9&#45;b363059ebf86 -->
<g id="edge3" class="edge">
<title>b2f7445c&#45;bfb8&#45;4428&#45;a5a8&#45;17789089c830&#45;&gt;5537dab3&#45;f423&#45;474c&#45;bac9&#45;b363059ebf86</title>
<path fill="none" stroke="black" d="M261.68,-82.07C278.46,-72.71 303.81,-58.59 325.66,-46.41"/>
<polygon fill="black" stroke="black" points="327.44,-49.43 334.47,-41.51 324.03,-43.32 327.44,-49.43"/>
</g>
</g>
</svg>
