<?xml version="1.0" encoding="UTF-8" standalone="no"?>
<!DOCTYPE svg PUBLIC "-//W3C//DTD SVG 1.1//EN"
 "http://www.w3.org/Graphics/SVG/1.1/DTD/svg11.dtd">
<!-- Generated by graphviz version 2.43.0 (0)
 -->
<!-- Title: pastafarianism Pages: 1 -->
<svg width="740pt" height="345pt"
 viewBox="0.00 0.00 739.99 345.28" xmlns="http://www.w3.org/2000/svg" xmlns:xlink="http://www.w3.org/1999/xlink">
<g id="graph0" class="graph" transform="scale(1 1) rotate(0) translate(4 341.28)">
<title>pastafarianism</title>
<polygon fill="white" stroke="transparent" points="-4,4 -4,-341.28 735.99,-341.28 735.99,4 -4,4"/>
<!-- 229c5524&#45;6abd&#45;4e78&#45;9e86&#45;c79b431e2e7d -->
<g id="node1" class="node">
<title>229c5524&#45;6abd&#45;4e78&#45;9e86&#45;c79b431e2e7d</title>
<polygon fill="#b0ffff" stroke="black" points="333.99,-337.28 297.99,-337.28 297.99,-307.28 333.99,-307.28 333.99,-337.28"/>
<text text-anchor="middle" x="315.99" y="-317.28" font-family="Times,serif" font-size="20.00"> ? </text>
</g>
<!-- f9587ca8&#45;be46&#45;44e4&#45;b33a&#45;6b059806da80 -->
<g id="node2" class="node">
<title>f9587ca8&#45;be46&#45;44e4&#45;b33a&#45;6b059806da80</title>
<ellipse fill="#ffff80" stroke="black" cx="182.99" cy="-250.07" rx="96.75" ry="21.43"/>
<text text-anchor="middle" x="182.99" y="-245.07" font-family="Times,serif" font-size="20.00">In(pen,cabinet)</text>
</g>
<!-- 229c5524&#45;6abd&#45;4e78&#45;9e86&#45;c79b431e2e7d&#45;&gt;f9587ca8&#45;be46&#45;44e4&#45;b33a&#45;6b059806da80 -->
<g id="edge1" class="edge">
<title>229c5524&#45;6abd&#45;4e78&#45;9e86&#45;c79b431e2e7d&#45;&gt;f9587ca8&#45;be46&#45;44e4&#45;b33a&#45;6b059806da80</title>
<path fill="none" stroke="black" d="M297.78,-311.66C279.8,-302.17 251.61,-287.29 227.66,-274.65"/>
<polygon fill="black" stroke="black" points="229.2,-271.5 218.72,-269.93 225.93,-277.69 229.2,-271.5"/>
</g>
<!-- 665fada1&#45;d5c7&#45;47a0&#45;862e&#45;805a0f5fda5e -->
<g id="node3" class="node">
<title>665fada1&#45;d5c7&#45;47a0&#45;862e&#45;805a0f5fda5e</title>
<polygon fill="#ff8080" stroke="black" points="334.49,-265.07 297.49,-265.07 297.49,-235.07 334.49,-235.07 334.49,-265.07"/>
<text text-anchor="middle" x="315.99" y="-245.07" font-family="Times,serif" font-size="20.00">→</text>
</g>
<!-- 229c5524&#45;6abd&#45;4e78&#45;9e86&#45;c79b431e2e7d&#45;&gt;665fada1&#45;d5c7&#45;47a0&#45;862e&#45;805a0f5fda5e -->
<g id="edge2" class="edge">
<title>229c5524&#45;6abd&#45;4e78&#45;9e86&#45;c79b431e2e7d&#45;&gt;665fada1&#45;d5c7&#45;47a0&#45;862e&#45;805a0f5fda5e</title>
<path fill="none" stroke="black" d="M315.99,-307.07C315.99,-298.03 315.99,-286.08 315.99,-275.54"/>
<polygon fill="black" stroke="black" points="319.5,-275.25 315.99,-265.25 312.5,-275.25 319.5,-275.25"/>
</g>
<!-- fa1fc72e&#45;2877&#45;4b31&#45;bf0e&#45;f51247493488 -->
<g id="node10" class="node">
<title>fa1fc72e&#45;2877&#45;4b31&#45;bf0e&#45;f51247493488</title>
<polygon fill="#ff8080" stroke="black" points="469.49,-265.07 432.49,-265.07 432.49,-235.07 469.49,-235.07 469.49,-265.07"/>
<text text-anchor="middle" x="450.99" y="-245.07" font-family="Times,serif" font-size="20.00">→</text>
</g>
<!-- 229c5524&#45;6abd&#45;4e78&#45;9e86&#45;c79b431e2e7d&#45;&gt;fa1fc72e&#45;2877&#45;4b31&#45;bf0e&#45;f51247493488 -->
<g id="edge9" class="edge">
<title>229c5524&#45;6abd&#45;4e78&#45;9e86&#45;c79b431e2e7d&#45;&gt;fa1fc72e&#45;2877&#45;4b31&#45;bf0e&#45;f51247493488</title>
<path fill="none" stroke="black" d="M334.2,-311.81C357.02,-299.94 396.37,-279.48 423.02,-265.62"/>
<polygon fill="black" stroke="black" points="424.95,-268.56 432.21,-260.84 421.72,-262.34 424.95,-268.56"/>
</g>
<!-- 9df48d08&#45;f779&#45;479e&#45;8a19&#45;20cbe7d0632f -->
<g id="node4" class="node">
<title>9df48d08&#45;f779&#45;479e&#45;8a19&#45;20cbe7d0632f</title>
<ellipse fill="#ffff80" stroke="black" cx="182.99" cy="-171.64" rx="96.75" ry="21.43"/>
<text text-anchor="middle" x="182.99" y="-166.64" font-family="Times,serif" font-size="20.00">IsHolding(pen)</text>
</g>
<!-- 665fada1&#45;d5c7&#45;47a0&#45;862e&#45;805a0f5fda5e&#45;&gt;9df48d08&#45;f779&#45;479e&#45;8a19&#45;20cbe7d0632f -->
<g id="edge3" class="edge">
<title>665fada1&#45;d5c7&#45;47a0&#45;862e&#45;805a0f5fda5e&#45;&gt;9df48d08&#45;f779&#45;479e&#45;8a19&#45;20cbe7d0632f</title>
<path fill="none" stroke="black" d="M297.97,-234.97C295.02,-232.84 291.96,-230.73 288.99,-228.85 270.32,-217.01 248.92,-205.33 230.25,-195.71"/>
<polygon fill="black" stroke="black" points="231.83,-192.58 221.33,-191.16 228.65,-198.82 231.83,-192.58"/>
</g>
<!-- eaa29d21&#45;abe4&#45;40cb&#45;8b63&#45;1dcd27f50923 -->
<g id="node5" class="node">
<title>eaa29d21&#45;abe4&#45;40cb&#45;8b63&#45;1dcd27f50923</title>
<polygon fill="#b0ffff" stroke="black" points="333.99,-186.64 297.99,-186.64 297.99,-156.64 333.99,-156.64 333.99,-186.64"/>
<text text-anchor="middle" x="315.99" y="-166.64" font-family="Times,serif" font-size="20.00"> ? </text>
</g>
<!-- 665fada1&#45;d5c7&#45;47a0&#45;862e&#45;805a0f5fda5e&#45;&gt;eaa29d21&#45;abe4&#45;40cb&#45;8b63&#45;1dcd27f50923 -->
<g id="edge4" class="edge">
<title>665fada1&#45;d5c7&#45;47a0&#45;862e&#45;805a0f5fda5e&#45;&gt;eaa29d21&#45;abe4&#45;40cb&#45;8b63&#45;1dcd27f50923</title>
<path fill="none" stroke="black" d="M315.99,-235.05C315.99,-224.45 315.99,-209.63 315.99,-197.09"/>
<polygon fill="black" stroke="black" points="319.5,-196.83 315.99,-186.83 312.5,-196.83 319.5,-196.83"/>
</g>
<!-- 9e8c876e&#45;0cd2&#45;4b76&#45;9fbb&#45;6903b16197cc -->
<g id="node6" class="node">
<title>9e8c876e&#45;0cd2&#45;4b76&#45;9fbb&#45;6903b16197cc</title>
<polygon fill="#ff8080" stroke="black" points="259.49,-111.43 222.49,-111.43 222.49,-81.43 259.49,-81.43 259.49,-111.43"/>
<text text-anchor="middle" x="240.99" y="-91.43" font-family="Times,serif" font-size="20.00">→</text>
</g>
<!-- eaa29d21&#45;abe4&#45;40cb&#45;8b63&#45;1dcd27f50923&#45;&gt;9e8c876e&#45;0cd2&#45;4b76&#45;9fbb&#45;6903b16197cc -->
<g id="edge5" class="edge">
<title>eaa29d21&#45;abe4&#45;40cb&#45;8b63&#45;1dcd27f50923&#45;&gt;9e8c876e&#45;0cd2&#45;4b76&#45;9fbb&#45;6903b16197cc</title>
<path fill="none" stroke="black" d="M301.53,-156.52C290.54,-145.79 275.22,-130.84 262.75,-118.66"/>
<polygon fill="black" stroke="black" points="265.01,-115.98 255.41,-111.5 260.12,-120.99 265.01,-115.98"/>
</g>
<!-- a2bd5213&#45;09c0&#45;4479&#45;a072&#45;11d9685f556d -->
<g id="node9" class="node">
<title>a2bd5213&#45;09c0&#45;4479&#45;a072&#45;11d9685f556d</title>
<polygon fill="lightgreen" stroke="black" points="405.99,-114.43 277.99,-114.43 277.99,-78.43 405.99,-78.43 405.99,-114.43"/>
<text text-anchor="middle" x="341.99" y="-91.43" font-family="Times,serif" font-size="20.00">Walk(cabinet)</text>
</g>
<!-- eaa29d21&#45;abe4&#45;40cb&#45;8b63&#45;1dcd27f50923&#45;&gt;a2bd5213&#45;09c0&#45;4479&#45;a072&#45;11d9685f556d -->
<g id="edge8" class="edge">
<title>eaa29d21&#45;abe4&#45;40cb&#45;8b63&#45;1dcd27f50923&#45;&gt;a2bd5213&#45;09c0&#45;4479&#45;a072&#45;11d9685f556d</title>
<path fill="none" stroke="black" d="M321.01,-156.52C324.26,-147.36 328.61,-135.13 332.5,-124.17"/>
<polygon fill="black" stroke="black" points="335.85,-125.19 335.9,-114.59 329.25,-122.84 335.85,-125.19"/>
</g>
<!-- 1330b281&#45;0ada&#45;4335&#45;b301&#45;bc53a44bbeb8 -->
<g id="node7" class="node">
<title>1330b281&#45;0ada&#45;4335&#45;b301&#45;bc53a44bbeb8</title>
<ellipse fill="#ffff80" stroke="black" cx="98.99" cy="-21.21" rx="98.99" ry="21.43"/>
<text text-anchor="middle" x="98.99" y="-16.21" font-family="Times,serif" font-size="20.00">IsNear(cabinet)</text>
</g>
<!-- 9e8c876e&#45;0cd2&#45;4b76&#45;9fbb&#45;6903b16197cc&#45;&gt;1330b281&#45;0ada&#45;4335&#45;b301&#45;bc53a44bbeb8 -->
<g id="edge6" class="edge">
<title>9e8c876e&#45;0cd2&#45;4b76&#45;9fbb&#45;6903b16197cc&#45;&gt;1330b281&#45;0ada&#45;4335&#45;b301&#45;bc53a44bbeb8</title>
<path fill="none" stroke="black" d="M222.43,-85.86C202.73,-75.7 170.85,-59.26 144.43,-45.64"/>
<polygon fill="black" stroke="black" points="145.83,-42.42 135.34,-40.95 142.62,-48.64 145.83,-42.42"/>
</g>
<!-- 14fc4bed&#45;66a2&#45;4b0d&#45;bac5&#45;60a8b7143e00 -->
<g id="node8" class="node">
<title>14fc4bed&#45;66a2&#45;4b0d&#45;bac5&#45;60a8b7143e00</title>
<polygon fill="lightgreen" stroke="black" points="379.99,-39.21 215.99,-39.21 215.99,-3.21 379.99,-3.21 379.99,-39.21"/>
<text text-anchor="middle" x="297.99" y="-16.21" font-family="Times,serif" font-size="20.00">Place(pen,cabinet)</text>
</g>
<!-- 9e8c876e&#45;0cd2&#45;4b76&#45;9fbb&#45;6903b16197cc&#45;&gt;14fc4bed&#45;66a2&#45;4b0d&#45;bac5&#45;60a8b7143e00 -->
<g id="edge7" class="edge">
<title>9e8c876e&#45;0cd2&#45;4b76&#45;9fbb&#45;6903b16197cc&#45;&gt;14fc4bed&#45;66a2&#45;4b0d&#45;bac5&#45;60a8b7143e00</title>
<path fill="none" stroke="black" d="M251.99,-81.31C259.48,-71.68 269.62,-58.66 278.47,-47.29"/>
<polygon fill="black" stroke="black" points="281.25,-49.42 284.63,-39.38 275.73,-45.12 281.25,-49.42"/>
</g>
<!-- ac9d605f&#45;f61e&#45;473a&#45;91da&#45;3eaf76ac7b60 -->
<g id="node11" class="node">
<title>ac9d605f&#45;f61e&#45;473a&#45;91da&#45;3eaf76ac7b60</title>
<ellipse fill="#ffff80" stroke="black" cx="450.99" cy="-171.64" rx="98.99" ry="21.43"/>
<text text-anchor="middle" x="450.99" y="-166.64" font-family="Times,serif" font-size="20.00">IsHandEmpty()</text>
</g>
<!-- fa1fc72e&#45;2877&#45;4b31&#45;bf0e&#45;f51247493488&#45;&gt;ac9d605f&#45;f61e&#45;473a&#45;91da&#45;3eaf76ac7b60 -->
<g id="edge10" class="edge">
<title>fa1fc72e&#45;2877&#45;4b31&#45;bf0e&#45;f51247493488&#45;&gt;ac9d605f&#45;f61e&#45;473a&#45;91da&#45;3eaf76ac7b60</title>
<path fill="none" stroke="black" d="M450.99,-235.05C450.99,-226.1 450.99,-214.15 450.99,-203.09"/>
<polygon fill="black" stroke="black" points="454.5,-202.9 450.99,-192.9 447.5,-202.9 454.5,-202.9"/>
</g>
<!-- f8ae4f2b&#45;aa11&#45;4632&#45;a2a4&#45;fa8b21ef03b8 -->
<g id="node12" class="node">
<title>f8ae4f2b&#45;aa11&#45;4632&#45;a2a4&#45;fa8b21ef03b8</title>
<polygon fill="#b0ffff" stroke="black" points="603.99,-186.64 567.99,-186.64 567.99,-156.64 603.99,-156.64 603.99,-186.64"/>
<text text-anchor="middle" x="585.99" y="-166.64" font-family="Times,serif" font-size="20.00"> ? </text>
</g>
<!-- fa1fc72e&#45;2877&#45;4b31&#45;bf0e&#45;f51247493488&#45;&gt;f8ae4f2b&#45;aa11&#45;4632&#45;a2a4&#45;fa8b21ef03b8 -->
<g id="edge11" class="edge">
<title>fa1fc72e&#45;2877&#45;4b31&#45;bf0e&#45;f51247493488&#45;&gt;f8ae4f2b&#45;aa11&#45;4632&#45;a2a4&#45;fa8b21ef03b8</title>
<path fill="none" stroke="black" d="M469.85,-240.41C491.81,-230.06 528.93,-211.75 558.99,-192.85 559.18,-192.74 559.37,-192.62 559.55,-192.5"/>
<polygon fill="black" stroke="black" points="561.69,-195.28 567.98,-186.75 557.75,-189.5 561.69,-195.28"/>
</g>
<!-- b61f2130&#45;3f74&#45;4db6&#45;9ad9&#45;e77aa840896a -->
<g id="node13" class="node">
<title>b61f2130&#45;3f74&#45;4db6&#45;9ad9&#45;e77aa840896a</title>
<polygon fill="#ff8080" stroke="black" points="560.49,-111.43 523.49,-111.43 523.49,-81.43 560.49,-81.43 560.49,-111.43"/>
<text text-anchor="middle" x="541.99" y="-91.43" font-family="Times,serif" font-size="20.00">→</text>
</g>
<!-- f8ae4f2b&#45;aa11&#45;4632&#45;a2a4&#45;fa8b21ef03b8&#45;&gt;b61f2130&#45;3f74&#45;4db6&#45;9ad9&#45;e77aa840896a -->
<g id="edge12" class="edge">
<title>f8ae4f2b&#45;aa11&#45;4632&#45;a2a4&#45;fa8b21ef03b8&#45;&gt;b61f2130&#45;3f74&#45;4db6&#45;9ad9&#45;e77aa840896a</title>
<path fill="none" stroke="black" d="M577.51,-156.52C571.36,-146.29 562.92,-132.24 555.8,-120.4"/>
<polygon fill="black" stroke="black" points="558.6,-118.27 550.45,-111.5 552.6,-121.87 558.6,-118.27"/>
</g>
<!-- a48ae11b&#45;4bb1&#45;4ee1&#45;b96e&#45;be013acbd3f3 -->
<g id="node16" class="node">
<title>a48ae11b&#45;4bb1&#45;4ee1&#45;b96e&#45;be013acbd3f3</title>
<polygon fill="lightgreen" stroke="black" points="678.99,-114.43 578.99,-114.43 578.99,-78.43 678.99,-78.43 678.99,-114.43"/>
<text text-anchor="middle" x="628.99" y="-91.43" font-family="Times,serif" font-size="20.00">Walk(pen)</text>
</g>
<!-- f8ae4f2b&#45;aa11&#45;4632&#45;a2a4&#45;fa8b21ef03b8&#45;&gt;a48ae11b&#45;4bb1&#45;4ee1&#45;b96e&#45;be013acbd3f3 -->
<g id="edge15" class="edge">
<title>f8ae4f2b&#45;aa11&#45;4632&#45;a2a4&#45;fa8b21ef03b8&#45;&gt;a48ae11b&#45;4bb1&#45;4ee1&#45;b96e&#45;be013acbd3f3</title>
<path fill="none" stroke="black" d="M594.29,-156.52C599.78,-147.17 607.14,-134.63 613.68,-123.5"/>
<polygon fill="black" stroke="black" points="616.87,-124.99 618.91,-114.59 610.83,-121.44 616.87,-124.99"/>
</g>
<!-- 01920cef&#45;8542&#45;4a2a&#45;8e6d&#45;30bd6253c54e -->
<g id="node14" class="node">
<title>01920cef&#45;8542&#45;4a2a&#45;8e6d&#45;30bd6253c54e</title>
<ellipse fill="#ffff80" stroke="black" cx="528.99" cy="-21.21" rx="79.39" ry="21.43"/>
<text text-anchor="middle" x="528.99" y="-16.21" font-family="Times,serif" font-size="20.00">IsNear(pen)</text>
</g>
<!-- b61f2130&#45;3f74&#45;4db6&#45;9ad9&#45;e77aa840896a&#45;&gt;01920cef&#45;8542&#45;4a2a&#45;8e6d&#45;30bd6253c54e -->
<g id="edge13" class="edge">
<title>b61f2130&#45;3f74&#45;4db6&#45;9ad9&#45;e77aa840896a&#45;&gt;01920cef&#45;8542&#45;4a2a&#45;8e6d&#45;30bd6253c54e</title>
<path fill="none" stroke="black" d="M539.49,-81.31C538.04,-73.17 536.17,-62.6 534.4,-52.66"/>
<polygon fill="black" stroke="black" points="537.82,-51.89 532.62,-42.66 530.93,-53.11 537.82,-51.89"/>
</g>
<!-- 30eb998e&#45;2aba&#45;4e33&#45;a14e&#45;697ee5052471 -->
<g id="node15" class="node">
<title>30eb998e&#45;2aba&#45;4e33&#45;a14e&#45;697ee5052471</title>
<polygon fill="lightgreen" stroke="black" points="731.99,-39.21 625.99,-39.21 625.99,-3.21 731.99,-3.21 731.99,-39.21"/>
<text text-anchor="middle" x="678.99" y="-16.21" font-family="Times,serif" font-size="20.00">Grasp(pen)</text>
</g>
<!-- b61f2130&#45;3f74&#45;4db6&#45;9ad9&#45;e77aa840896a&#45;&gt;30eb998e&#45;2aba&#45;4e33&#45;a14e&#45;697ee5052471 -->
<g id="edge14" class="edge">
<title>b61f2130&#45;3f74&#45;4db6&#45;9ad9&#45;e77aa840896a&#45;&gt;30eb998e&#45;2aba&#45;4e33&#45;a14e&#45;697ee5052471</title>
<path fill="none" stroke="black" d="M560.56,-83.91C563.69,-82.04 566.92,-80.15 569.99,-78.43 591.16,-66.56 615.08,-54.12 635.11,-43.97"/>
<polygon fill="black" stroke="black" points="636.95,-46.96 644.3,-39.33 633.8,-40.71 636.95,-46.96"/>
</g>
</g>
</svg>
