<?xml version="1.0" encoding="UTF-8" standalone="no"?>
<!DOCTYPE svg PUBLIC "-//W3C//DTD SVG 1.1//EN"
 "http://www.w3.org/Graphics/SVG/1.1/DTD/svg11.dtd">
<!-- Generated by graphviz version 2.43.0 (0)
 -->
<!-- Title: pastafarianism Pages: 1 -->
<svg width="878pt" height="345pt"
 viewBox="0.00 0.00 877.69 345.28" xmlns="http://www.w3.org/2000/svg" xmlns:xlink="http://www.w3.org/1999/xlink">
<g id="graph0" class="graph" transform="scale(1 1) rotate(0) translate(4 341.28)">
<title>pastafarianism</title>
<polygon fill="white" stroke="transparent" points="-4,4 -4,-341.28 873.69,-341.28 873.69,4 -4,4"/>
<!-- 6ba7df46&#45;8617&#45;46cb&#45;867f&#45;aecb7dc91a60 -->
<g id="node1" class="node">
<title>6ba7df46&#45;8617&#45;46cb&#45;867f&#45;aecb7dc91a60</title>
<polygon fill="#b0ffff" stroke="black" points="447.69,-337.28 411.69,-337.28 411.69,-307.28 447.69,-307.28 447.69,-337.28"/>
<text text-anchor="middle" x="429.69" y="-317.28" font-family="Times,serif" font-size="20.00"> ? </text>
</g>
<!-- 6cbd1989&#45;1af1&#45;4079&#45;9c71&#45;bc33accf9ce9 -->
<g id="node2" class="node">
<title>6cbd1989&#45;1af1&#45;4079&#45;9c71&#45;bc33accf9ce9</title>
<ellipse fill="#ffff80" stroke="black" cx="251.69" cy="-250.07" rx="141.34" ry="21.43"/>
<text text-anchor="middle" x="251.69" y="-245.07" font-family="Times,serif" font-size="20.00">On(apple,coffee_table)</text>
</g>
<!-- 6ba7df46&#45;8617&#45;46cb&#45;867f&#45;aecb7dc91a60&#45;&gt;6cbd1989&#45;1af1&#45;4079&#45;9c71&#45;bc33accf9ce9 -->
<g id="edge1" class="edge">
<title>6ba7df46&#45;8617&#45;46cb&#45;867f&#45;aecb7dc91a60&#45;&gt;6cbd1989&#45;1af1&#45;4079&#45;9c71&#45;bc33accf9ce9</title>
<path fill="none" stroke="black" d="M411.65,-314.16C387.79,-304.75 344.64,-287.73 309.17,-273.74"/>
<polygon fill="black" stroke="black" points="310.45,-270.48 299.86,-270.07 307.88,-276.99 310.45,-270.48"/>
</g>
<!-- 7d499c45&#45;8fa0&#45;4ba7&#45;aff5&#45;8661dc7c24ea -->
<g id="node3" class="node">
<title>7d499c45&#45;8fa0&#45;4ba7&#45;aff5&#45;8661dc7c24ea</title>
<polygon fill="#ff8080" stroke="black" points="448.19,-265.07 411.19,-265.07 411.19,-235.07 448.19,-235.07 448.19,-265.07"/>
<text text-anchor="middle" x="429.69" y="-245.07" font-family="Times,serif" font-size="20.00">→</text>
</g>
<!-- 6ba7df46&#45;8617&#45;46cb&#45;867f&#45;aecb7dc91a60&#45;&gt;7d499c45&#45;8fa0&#45;4ba7&#45;aff5&#45;8661dc7c24ea -->
<g id="edge2" class="edge">
<title>6ba7df46&#45;8617&#45;46cb&#45;867f&#45;aecb7dc91a60&#45;&gt;7d499c45&#45;8fa0&#45;4ba7&#45;aff5&#45;8661dc7c24ea</title>
<path fill="none" stroke="black" d="M429.69,-307.07C429.69,-298.03 429.69,-286.08 429.69,-275.54"/>
<polygon fill="black" stroke="black" points="433.19,-275.25 429.69,-265.25 426.19,-275.25 433.19,-275.25"/>
</g>
<!-- 51164697&#45;7a6e&#45;4cfe&#45;8270&#45;3755653e6183 -->
<g id="node10" class="node">
<title>51164697&#45;7a6e&#45;4cfe&#45;8270&#45;3755653e6183</title>
<polygon fill="#ff8080" stroke="black" points="583.19,-265.07 546.19,-265.07 546.19,-235.07 583.19,-235.07 583.19,-265.07"/>
<text text-anchor="middle" x="564.69" y="-245.07" font-family="Times,serif" font-size="20.00">→</text>
</g>
<!-- 6ba7df46&#45;8617&#45;46cb&#45;867f&#45;aecb7dc91a60&#45;&gt;51164697&#45;7a6e&#45;4cfe&#45;8270&#45;3755653e6183 -->
<g id="edge9" class="edge">
<title>6ba7df46&#45;8617&#45;46cb&#45;867f&#45;aecb7dc91a60&#45;&gt;51164697&#45;7a6e&#45;4cfe&#45;8270&#45;3755653e6183</title>
<path fill="none" stroke="black" d="M447.9,-311.81C470.72,-299.94 510.07,-279.48 536.72,-265.62"/>
<polygon fill="black" stroke="black" points="538.65,-268.56 545.91,-260.84 535.42,-262.34 538.65,-268.56"/>
</g>
<!-- 79c1b7e3&#45;afba&#45;4193&#45;a895&#45;44fd67b573f4 -->
<g id="node4" class="node">
<title>79c1b7e3&#45;afba&#45;4193&#45;a895&#45;44fd67b573f4</title>
<ellipse fill="#ffff80" stroke="black" cx="286.69" cy="-171.64" rx="106.55" ry="21.43"/>
<text text-anchor="middle" x="286.69" y="-166.64" font-family="Times,serif" font-size="20.00">IsHolding(apple)</text>
</g>
<!-- 7d499c45&#45;8fa0&#45;4ba7&#45;aff5&#45;8661dc7c24ea&#45;&gt;79c1b7e3&#45;afba&#45;4193&#45;a895&#45;44fd67b573f4 -->
<g id="edge3" class="edge">
<title>7d499c45&#45;8fa0&#45;4ba7&#45;aff5&#45;8661dc7c24ea&#45;&gt;79c1b7e3&#45;afba&#45;4193&#45;a895&#45;44fd67b573f4</title>
<path fill="none" stroke="black" d="M411.01,-234.92C407.96,-232.8 404.78,-230.7 401.69,-228.85 381.44,-216.72 358.2,-204.97 337.93,-195.39"/>
<polygon fill="black" stroke="black" points="339.39,-192.2 328.85,-191.14 336.42,-198.54 339.39,-192.2"/>
</g>
<!-- 033c1da5&#45;30fd&#45;4947&#45;abe5&#45;b20364063ed2 -->
<g id="node5" class="node">
<title>033c1da5&#45;30fd&#45;4947&#45;abe5&#45;b20364063ed2</title>
<polygon fill="#b0ffff" stroke="black" points="447.69,-186.64 411.69,-186.64 411.69,-156.64 447.69,-156.64 447.69,-186.64"/>
<text text-anchor="middle" x="429.69" y="-166.64" font-family="Times,serif" font-size="20.00"> ? </text>
</g>
<!-- 7d499c45&#45;8fa0&#45;4ba7&#45;aff5&#45;8661dc7c24ea&#45;&gt;033c1da5&#45;30fd&#45;4947&#45;abe5&#45;b20364063ed2 -->
<g id="edge4" class="edge">
<title>7d499c45&#45;8fa0&#45;4ba7&#45;aff5&#45;8661dc7c24ea&#45;&gt;033c1da5&#45;30fd&#45;4947&#45;abe5&#45;b20364063ed2</title>
<path fill="none" stroke="black" d="M429.69,-235.05C429.69,-224.45 429.69,-209.63 429.69,-197.09"/>
<polygon fill="black" stroke="black" points="433.19,-196.83 429.69,-186.83 426.19,-196.83 433.19,-196.83"/>
</g>
<!-- 045be129&#45;acab&#45;442c&#45;a91d&#45;5d201a7ce60f -->
<g id="node6" class="node">
<title>045be129&#45;acab&#45;442c&#45;a91d&#45;5d201a7ce60f</title>
<polygon fill="#ff8080" stroke="black" points="346.19,-111.43 309.19,-111.43 309.19,-81.43 346.19,-81.43 346.19,-111.43"/>
<text text-anchor="middle" x="327.69" y="-91.43" font-family="Times,serif" font-size="20.00">→</text>
</g>
<!-- 033c1da5&#45;30fd&#45;4947&#45;abe5&#45;b20364063ed2&#45;&gt;045be129&#45;acab&#45;442c&#45;a91d&#45;5d201a7ce60f -->
<g id="edge5" class="edge">
<title>033c1da5&#45;30fd&#45;4947&#45;abe5&#45;b20364063ed2&#45;&gt;045be129&#45;acab&#45;442c&#45;a91d&#45;5d201a7ce60f</title>
<path fill="none" stroke="black" d="M411.44,-156.87C408.53,-154.7 405.53,-152.49 402.69,-150.43 386.89,-138.93 369.03,-126.29 354.7,-116.24"/>
<polygon fill="black" stroke="black" points="356.49,-113.22 346.29,-110.35 352.47,-118.96 356.49,-113.22"/>
</g>
<!-- dbfb2193&#45;bfb2&#45;404a&#45;9dc6&#45;b44974e47668 -->
<g id="node9" class="node">
<title>dbfb2193&#45;bfb2&#45;404a&#45;9dc6&#45;b44974e47668</title>
<polygon fill="lightgreen" stroke="black" points="534.69,-114.43 364.69,-114.43 364.69,-78.43 534.69,-78.43 534.69,-114.43"/>
<text text-anchor="middle" x="449.69" y="-91.43" font-family="Times,serif" font-size="20.00">Walk(coffee_table)</text>
</g>
<!-- 033c1da5&#45;30fd&#45;4947&#45;abe5&#45;b20364063ed2&#45;&gt;dbfb2193&#45;bfb2&#45;404a&#45;9dc6&#45;b44974e47668 -->
<g id="edge8" class="edge">
<title>033c1da5&#45;30fd&#45;4947&#45;abe5&#45;b20364063ed2&#45;&gt;dbfb2193&#45;bfb2&#45;404a&#45;9dc6&#45;b44974e47668</title>
<path fill="none" stroke="black" d="M433.55,-156.52C436.03,-147.45 439.33,-135.38 442.3,-124.51"/>
<polygon fill="black" stroke="black" points="445.75,-125.16 445,-114.59 438.99,-123.32 445.75,-125.16"/>
</g>
<!-- f0c92fc3&#45;6bb0&#45;4a33&#45;b5a2&#45;8f0c2a2a8249 -->
<g id="node7" class="node">
<title>f0c92fc3&#45;6bb0&#45;4a33&#45;b5a2&#45;8f0c2a2a8249</title>
<ellipse fill="#ffff80" stroke="black" cx="128.69" cy="-21.21" rx="128.89" ry="21.43"/>
<text text-anchor="middle" x="128.69" y="-16.21" font-family="Times,serif" font-size="20.00">IsNear(coffee_table)</text>
</g>
<!-- 045be129&#45;acab&#45;442c&#45;a91d&#45;5d201a7ce60f&#45;&gt;f0c92fc3&#45;6bb0&#45;4a33&#45;b5a2&#45;8f0c2a2a8249 -->
<g id="edge6" class="edge">
<title>045be129&#45;acab&#45;442c&#45;a91d&#45;5d201a7ce60f&#45;&gt;f0c92fc3&#45;6bb0&#45;4a33&#45;b5a2&#45;8f0c2a2a8249</title>
<path fill="none" stroke="black" d="M308.97,-88.54C281.68,-78.5 229.76,-59.4 188.62,-44.26"/>
<polygon fill="black" stroke="black" points="189.81,-40.97 179.22,-40.8 187.39,-47.54 189.81,-40.97"/>
</g>
<!-- 11a6ac1b&#45;cadb&#45;4b2f&#45;97f3&#45;e68ce46c2119 -->
<g id="node8" class="node">
<title>11a6ac1b&#45;cadb&#45;4b2f&#45;97f3&#45;e68ce46c2119</title>
<polygon fill="lightgreen" stroke="black" points="495.69,-39.21 275.69,-39.21 275.69,-3.21 495.69,-3.21 495.69,-39.21"/>
<text text-anchor="middle" x="385.69" y="-16.21" font-family="Times,serif" font-size="20.00">Place(apple,coffee_table)</text>
</g>
<!-- 045be129&#45;acab&#45;442c&#45;a91d&#45;5d201a7ce60f&#45;&gt;11a6ac1b&#45;cadb&#45;4b2f&#45;97f3&#45;e68ce46c2119 -->
<g id="edge7" class="edge">
<title>045be129&#45;acab&#45;442c&#45;a91d&#45;5d201a7ce60f&#45;&gt;11a6ac1b&#45;cadb&#45;4b2f&#45;97f3&#45;e68ce46c2119</title>
<path fill="none" stroke="black" d="M338.88,-81.31C346.51,-71.68 356.82,-58.66 365.83,-47.29"/>
<polygon fill="black" stroke="black" points="368.63,-49.39 372.1,-39.38 363.14,-45.04 368.63,-49.39"/>
</g>
<!-- b40752d2&#45;4f28&#45;40a2&#45;b92b&#45;742357d9cec2 -->
<g id="node11" class="node">
<title>b40752d2&#45;4f28&#45;40a2&#45;b92b&#45;742357d9cec2</title>
<ellipse fill="#ffff80" stroke="black" cx="564.69" cy="-171.64" rx="98.99" ry="21.43"/>
<text text-anchor="middle" x="564.69" y="-166.64" font-family="Times,serif" font-size="20.00">IsHandEmpty()</text>
</g>
<!-- 51164697&#45;7a6e&#45;4cfe&#45;8270&#45;3755653e6183&#45;&gt;b40752d2&#45;4f28&#45;40a2&#45;b92b&#45;742357d9cec2 -->
<g id="edge10" class="edge">
<title>51164697&#45;7a6e&#45;4cfe&#45;8270&#45;3755653e6183&#45;&gt;b40752d2&#45;4f28&#45;40a2&#45;b92b&#45;742357d9cec2</title>
<path fill="none" stroke="black" d="M564.69,-235.05C564.69,-226.1 564.69,-214.15 564.69,-203.09"/>
<polygon fill="black" stroke="black" points="568.19,-202.9 564.69,-192.9 561.19,-202.9 568.19,-202.9"/>
</g>
<!-- 30f2ca53&#45;8573&#45;46d5&#45;952a&#45;914e20909e01 -->
<g id="node12" class="node">
<title>30f2ca53&#45;8573&#45;46d5&#45;952a&#45;914e20909e01</title>
<polygon fill="#b0ffff" stroke="black" points="717.69,-186.64 681.69,-186.64 681.69,-156.64 717.69,-156.64 717.69,-186.64"/>
<text text-anchor="middle" x="699.69" y="-166.64" font-family="Times,serif" font-size="20.00"> ? </text>
</g>
<!-- 51164697&#45;7a6e&#45;4cfe&#45;8270&#45;3755653e6183&#45;&gt;30f2ca53&#45;8573&#45;46d5&#45;952a&#45;914e20909e01 -->
<g id="edge11" class="edge">
<title>51164697&#45;7a6e&#45;4cfe&#45;8270&#45;3755653e6183&#45;&gt;30f2ca53&#45;8573&#45;46d5&#45;952a&#45;914e20909e01</title>
<path fill="none" stroke="black" d="M583.55,-240.41C605.51,-230.06 642.63,-211.75 672.69,-192.85 672.88,-192.74 673.07,-192.62 673.25,-192.5"/>
<polygon fill="black" stroke="black" points="675.39,-195.28 681.68,-186.75 671.44,-189.5 675.39,-195.28"/>
</g>
<!-- aefb0543&#45;3e52&#45;4cf2&#45;89b2&#45;511aa7d585d5 -->
<g id="node13" class="node">
<title>aefb0543&#45;3e52&#45;4cf2&#45;89b2&#45;511aa7d585d5</title>
<polygon fill="#ff8080" stroke="black" points="671.19,-111.43 634.19,-111.43 634.19,-81.43 671.19,-81.43 671.19,-111.43"/>
<text text-anchor="middle" x="652.69" y="-91.43" font-family="Times,serif" font-size="20.00">→</text>
</g>
<!-- 30f2ca53&#45;8573&#45;46d5&#45;952a&#45;914e20909e01&#45;&gt;aefb0543&#45;3e52&#45;4cf2&#45;89b2&#45;511aa7d585d5 -->
<g id="edge12" class="edge">
<title>30f2ca53&#45;8573&#45;46d5&#45;952a&#45;914e20909e01&#45;&gt;aefb0543&#45;3e52&#45;4cf2&#45;89b2&#45;511aa7d585d5</title>
<path fill="none" stroke="black" d="M690.63,-156.52C684,-146.19 674.86,-131.96 667.22,-120.05"/>
<polygon fill="black" stroke="black" points="670.08,-118.02 661.73,-111.5 664.18,-121.81 670.08,-118.02"/>
</g>
<!-- 06438380&#45;76ee&#45;400a&#45;b7b2&#45;1f3a26aae71a -->
<g id="node16" class="node">
<title>06438380&#45;76ee&#45;400a&#45;b7b2&#45;1f3a26aae71a</title>
<polygon fill="lightgreen" stroke="black" points="803.69,-114.43 689.69,-114.43 689.69,-78.43 803.69,-78.43 803.69,-114.43"/>
<text text-anchor="middle" x="746.69" y="-91.43" font-family="Times,serif" font-size="20.00">Walk(apple)</text>
</g>
<!-- 30f2ca53&#45;8573&#45;46d5&#45;952a&#45;914e20909e01&#45;&gt;06438380&#45;76ee&#45;400a&#45;b7b2&#45;1f3a26aae71a -->
<g id="edge15" class="edge">
<title>30f2ca53&#45;8573&#45;46d5&#45;952a&#45;914e20909e01&#45;&gt;06438380&#45;76ee&#45;400a&#45;b7b2&#45;1f3a26aae71a</title>
<path fill="none" stroke="black" d="M708.76,-156.52C714.82,-147.08 722.97,-134.38 730.17,-123.17"/>
<polygon fill="black" stroke="black" points="733.22,-124.9 735.67,-114.59 727.33,-121.12 733.22,-124.9"/>
</g>
<!-- 272d0d4e&#45;13ec&#45;47b0&#45;aea7&#45;a1e35eca2b21 -->
<g id="node14" class="node">
<title>272d0d4e&#45;13ec&#45;47b0&#45;aea7&#45;a1e35eca2b21</title>
<ellipse fill="#ffff80" stroke="black" cx="642.69" cy="-21.21" rx="89.19" ry="21.43"/>
<text text-anchor="middle" x="642.69" y="-16.21" font-family="Times,serif" font-size="20.00">IsNear(apple)</text>
</g>
<!-- aefb0543&#45;3e52&#45;4cf2&#45;89b2&#45;511aa7d585d5&#45;&gt;272d0d4e&#45;13ec&#45;47b0&#45;aea7&#45;a1e35eca2b21 -->
<g id="edge13" class="edge">
<title>aefb0543&#45;3e52&#45;4cf2&#45;89b2&#45;511aa7d585d5&#45;&gt;272d0d4e&#45;13ec&#45;47b0&#45;aea7&#45;a1e35eca2b21</title>
<path fill="none" stroke="black" d="M650.77,-81.31C649.65,-73.17 648.21,-62.6 646.85,-52.66"/>
<polygon fill="black" stroke="black" points="650.31,-52.09 645.49,-42.66 643.37,-53.04 650.31,-52.09"/>
</g>
<!-- 8d3eb372&#45;2d48&#45;400d&#45;826f&#45;d9e96194bdc5 -->
<g id="node15" class="node">
<title>8d3eb372&#45;2d48&#45;400d&#45;826f&#45;d9e96194bdc5</title>
<polygon fill="lightgreen" stroke="black" points="869.69,-39.21 749.69,-39.21 749.69,-3.21 869.69,-3.21 869.69,-39.21"/>
<text text-anchor="middle" x="809.69" y="-16.21" font-family="Times,serif" font-size="20.00">Grasp(apple)</text>
</g>
<!-- aefb0543&#45;3e52&#45;4cf2&#45;89b2&#45;511aa7d585d5&#45;&gt;8d3eb372&#45;2d48&#45;400d&#45;826f&#45;d9e96194bdc5 -->
<g id="edge14" class="edge">
<title>aefb0543&#45;3e52&#45;4cf2&#45;89b2&#45;511aa7d585d5&#45;&gt;8d3eb372&#45;2d48&#45;400d&#45;826f&#45;d9e96194bdc5</title>
<path fill="none" stroke="black" d="M671.47,-83.55C674.52,-81.77 677.66,-80 680.69,-78.43 705.28,-65.68 733.4,-53.2 757.09,-43.24"/>
<polygon fill="black" stroke="black" points="758.72,-46.36 766.61,-39.28 756.03,-39.89 758.72,-46.36"/>
</g>
</g>
</svg>
