<?xml version="1.0" encoding="UTF-8" standalone="no"?>
<!DOCTYPE svg PUBLIC "-//W3C//DTD SVG 1.1//EN"
 "http://www.w3.org/Graphics/SVG/1.1/DTD/svg11.dtd">
<!-- Generated by graphviz version 2.43.0 (0)
 -->
<!-- Title: pastafarianism Pages: 1 -->
<svg width="872pt" height="345pt"
 viewBox="0.00 0.00 871.62 345.28" xmlns="http://www.w3.org/2000/svg" xmlns:xlink="http://www.w3.org/1999/xlink">
<g id="graph0" class="graph" transform="scale(1 1) rotate(0) translate(4 341.28)">
<title>pastafarianism</title>
<polygon fill="white" stroke="transparent" points="-4,4 -4,-341.28 867.62,-341.28 867.62,4 -4,4"/>
<!-- aa7d191a&#45;f4c5&#45;416f&#45;9431&#45;40b5d5ae1f8a -->
<g id="node1" class="node">
<title>aa7d191a&#45;f4c5&#45;416f&#45;9431&#45;40b5d5ae1f8a</title>
<polygon fill="#b0ffff" stroke="black" points="446.62,-337.28 410.62,-337.28 410.62,-307.28 446.62,-307.28 446.62,-337.28"/>
<text text-anchor="middle" x="428.62" y="-317.28" font-family="Times,serif" font-size="20.00"> ? </text>
</g>
<!-- 46672b6a&#45;4671&#45;4ce3&#45;a236&#45;a7ba57961d60 -->
<g id="node2" class="node">
<title>46672b6a&#45;4671&#45;4ce3&#45;a236&#45;a7ba57961d60</title>
<ellipse fill="#ffff80" stroke="black" cx="256.62" cy="-250.07" rx="135.11" ry="21.43"/>
<text text-anchor="middle" x="256.62" y="-245.07" font-family="Times,serif" font-size="20.00">On(apple,coffeetable)</text>
</g>
<!-- aa7d191a&#45;f4c5&#45;416f&#45;9431&#45;40b5d5ae1f8a&#45;&gt;46672b6a&#45;4671&#45;4ce3&#45;a236&#45;a7ba57961d60 -->
<g id="edge1" class="edge">
<title>aa7d191a&#45;f4c5&#45;416f&#45;9431&#45;40b5d5ae1f8a&#45;&gt;46672b6a&#45;4671&#45;4ce3&#45;a236&#45;a7ba57961d60</title>
<path fill="none" stroke="black" d="M410.54,-313.9C387.44,-304.47 346.39,-287.71 312.49,-273.87"/>
<polygon fill="black" stroke="black" points="313.72,-270.6 303.14,-270.06 311.08,-277.08 313.72,-270.6"/>
</g>
<!-- 1f033025&#45;681f&#45;4e12&#45;90d4&#45;0133061dce5f -->
<g id="node3" class="node">
<title>1f033025&#45;681f&#45;4e12&#45;90d4&#45;0133061dce5f</title>
<polygon fill="#ff8080" stroke="black" points="447.12,-265.07 410.12,-265.07 410.12,-235.07 447.12,-235.07 447.12,-265.07"/>
<text text-anchor="middle" x="428.62" y="-245.07" font-family="Times,serif" font-size="20.00">→</text>
</g>
<!-- aa7d191a&#45;f4c5&#45;416f&#45;9431&#45;40b5d5ae1f8a&#45;&gt;1f033025&#45;681f&#45;4e12&#45;90d4&#45;0133061dce5f -->
<g id="edge2" class="edge">
<title>aa7d191a&#45;f4c5&#45;416f&#45;9431&#45;40b5d5ae1f8a&#45;&gt;1f033025&#45;681f&#45;4e12&#45;90d4&#45;0133061dce5f</title>
<path fill="none" stroke="black" d="M428.62,-307.07C428.62,-298.03 428.62,-286.08 428.62,-275.54"/>
<polygon fill="black" stroke="black" points="432.12,-275.25 428.62,-265.25 425.12,-275.25 432.12,-275.25"/>
</g>
<!-- ad4bf38d&#45;ec1d&#45;457b&#45;b194&#45;f195e3219a5f -->
<g id="node10" class="node">
<title>ad4bf38d&#45;ec1d&#45;457b&#45;b194&#45;f195e3219a5f</title>
<polygon fill="#ff8080" stroke="black" points="582.12,-265.07 545.12,-265.07 545.12,-235.07 582.12,-235.07 582.12,-265.07"/>
<text text-anchor="middle" x="563.62" y="-245.07" font-family="Times,serif" font-size="20.00">→</text>
</g>
<!-- aa7d191a&#45;f4c5&#45;416f&#45;9431&#45;40b5d5ae1f8a&#45;&gt;ad4bf38d&#45;ec1d&#45;457b&#45;b194&#45;f195e3219a5f -->
<g id="edge9" class="edge">
<title>aa7d191a&#45;f4c5&#45;416f&#45;9431&#45;40b5d5ae1f8a&#45;&gt;ad4bf38d&#45;ec1d&#45;457b&#45;b194&#45;f195e3219a5f</title>
<path fill="none" stroke="black" d="M446.83,-311.81C469.65,-299.94 508.99,-279.48 535.65,-265.62"/>
<polygon fill="black" stroke="black" points="537.58,-268.56 544.84,-260.84 534.35,-262.34 537.58,-268.56"/>
</g>
<!-- 785e4588&#45;a042&#45;43a9&#45;875b&#45;45c0077d07b1 -->
<g id="node4" class="node">
<title>785e4588&#45;a042&#45;43a9&#45;875b&#45;45c0077d07b1</title>
<ellipse fill="#ffff80" stroke="black" cx="285.62" cy="-171.64" rx="106.55" ry="21.43"/>
<text text-anchor="middle" x="285.62" y="-166.64" font-family="Times,serif" font-size="20.00">IsHolding(apple)</text>
</g>
<!-- 1f033025&#45;681f&#45;4e12&#45;90d4&#45;0133061dce5f&#45;&gt;785e4588&#45;a042&#45;43a9&#45;875b&#45;45c0077d07b1 -->
<g id="edge3" class="edge">
<title>1f033025&#45;681f&#45;4e12&#45;90d4&#45;0133061dce5f&#45;&gt;785e4588&#45;a042&#45;43a9&#45;875b&#45;45c0077d07b1</title>
<path fill="none" stroke="black" d="M409.94,-234.92C406.89,-232.8 403.71,-230.7 400.62,-228.85 380.37,-216.72 357.13,-204.97 336.86,-195.39"/>
<polygon fill="black" stroke="black" points="338.32,-192.2 327.78,-191.14 335.35,-198.54 338.32,-192.2"/>
</g>
<!-- 4080e522&#45;6763&#45;4031&#45;9d26&#45;3eab9eda9169 -->
<g id="node5" class="node">
<title>4080e522&#45;6763&#45;4031&#45;9d26&#45;3eab9eda9169</title>
<polygon fill="#b0ffff" stroke="black" points="446.62,-186.64 410.62,-186.64 410.62,-156.64 446.62,-156.64 446.62,-186.64"/>
<text text-anchor="middle" x="428.62" y="-166.64" font-family="Times,serif" font-size="20.00"> ? </text>
</g>
<!-- 1f033025&#45;681f&#45;4e12&#45;90d4&#45;0133061dce5f&#45;&gt;4080e522&#45;6763&#45;4031&#45;9d26&#45;3eab9eda9169 -->
<g id="edge4" class="edge">
<title>1f033025&#45;681f&#45;4e12&#45;90d4&#45;0133061dce5f&#45;&gt;4080e522&#45;6763&#45;4031&#45;9d26&#45;3eab9eda9169</title>
<path fill="none" stroke="black" d="M428.62,-235.05C428.62,-224.45 428.62,-209.63 428.62,-197.09"/>
<polygon fill="black" stroke="black" points="432.12,-196.83 428.62,-186.83 425.12,-196.83 432.12,-196.83"/>
</g>
<!-- 8bf3c4e6&#45;deda&#45;478a&#45;b16f&#45;23bd5da62240 -->
<g id="node6" class="node">
<title>8bf3c4e6&#45;deda&#45;478a&#45;b16f&#45;23bd5da62240</title>
<polygon fill="#ff8080" stroke="black" points="335.12,-111.43 298.12,-111.43 298.12,-81.43 335.12,-81.43 335.12,-111.43"/>
<text text-anchor="middle" x="316.62" y="-91.43" font-family="Times,serif" font-size="20.00">→</text>
</g>
<!-- 4080e522&#45;6763&#45;4031&#45;9d26&#45;3eab9eda9169&#45;&gt;8bf3c4e6&#45;deda&#45;478a&#45;b16f&#45;23bd5da62240 -->
<g id="edge5" class="edge">
<title>4080e522&#45;6763&#45;4031&#45;9d26&#45;3eab9eda9169&#45;&gt;8bf3c4e6&#45;deda&#45;478a&#45;b16f&#45;23bd5da62240</title>
<path fill="none" stroke="black" d="M410.48,-156.72C407.55,-154.57 404.52,-152.41 401.62,-150.43 378.82,-134.86 370.79,-131.13 343.79,-114.48"/>
<polygon fill="black" stroke="black" points="345.54,-111.45 335.2,-109.15 341.85,-117.4 345.54,-111.45"/>
</g>
<!-- 928b049a&#45;8975&#45;4cc6&#45;a031&#45;2c238641a310 -->
<g id="node9" class="node">
<title>928b049a&#45;8975&#45;4cc6&#45;a031&#45;2c238641a310</title>
<polygon fill="lightgreen" stroke="black" points="538.12,-114.43 353.12,-114.43 353.12,-78.43 538.12,-78.43 538.12,-114.43"/>
<text text-anchor="middle" x="445.62" y="-91.43" font-family="Times,serif" font-size="20.00">MoveTo(coffeetable)</text>
</g>
<!-- 4080e522&#45;6763&#45;4031&#45;9d26&#45;3eab9eda9169&#45;&gt;928b049a&#45;8975&#45;4cc6&#45;a031&#45;2c238641a310 -->
<g id="edge8" class="edge">
<title>4080e522&#45;6763&#45;4031&#45;9d26&#45;3eab9eda9169&#45;&gt;928b049a&#45;8975&#45;4cc6&#45;a031&#45;2c238641a310</title>
<path fill="none" stroke="black" d="M431.9,-156.52C434.01,-147.45 436.81,-135.38 439.33,-124.51"/>
<polygon fill="black" stroke="black" points="442.78,-125.12 441.64,-114.59 435.97,-123.54 442.78,-125.12"/>
</g>
<!-- 0f2a33cb&#45;6e66&#45;42c0&#45;b22f&#45;094b72b9a729 -->
<g id="node7" class="node">
<title>0f2a33cb&#45;6e66&#45;42c0&#45;b22f&#45;094b72b9a729</title>
<ellipse fill="#ffff80" stroke="black" cx="121.62" cy="-21.21" rx="121.74" ry="21.43"/>
<text text-anchor="middle" x="121.62" y="-16.21" font-family="Times,serif" font-size="20.00">IsNear(coffeetable)</text>
</g>
<!-- 8bf3c4e6&#45;deda&#45;478a&#45;b16f&#45;23bd5da62240&#45;&gt;0f2a33cb&#45;6e66&#45;42c0&#45;b22f&#45;094b72b9a729 -->
<g id="edge6" class="edge">
<title>8bf3c4e6&#45;deda&#45;478a&#45;b16f&#45;23bd5da62240&#45;&gt;0f2a33cb&#45;6e66&#45;42c0&#45;b22f&#45;094b72b9a729</title>
<path fill="none" stroke="black" d="M297.92,-88.41C271.1,-78.33 220.49,-59.33 180.36,-44.27"/>
<polygon fill="black" stroke="black" points="181.52,-40.96 170.92,-40.72 179.06,-47.52 181.52,-40.96"/>
</g>
<!-- 5c2862c1&#45;48a6&#45;4bec&#45;aa82&#45;85e8c46b7f3e -->
<g id="node8" class="node">
<title>5c2862c1&#45;48a6&#45;4bec&#45;aa82&#45;85e8c46b7f3e</title>
<polygon fill="lightgreen" stroke="black" points="495.62,-39.21 261.62,-39.21 261.62,-3.21 495.62,-3.21 495.62,-39.21"/>
<text text-anchor="middle" x="378.62" y="-16.21" font-family="Times,serif" font-size="20.00">PlaceOn(apple,coffeetable)</text>
</g>
<!-- 8bf3c4e6&#45;deda&#45;478a&#45;b16f&#45;23bd5da62240&#45;&gt;5c2862c1&#45;48a6&#45;4bec&#45;aa82&#45;85e8c46b7f3e -->
<g id="edge7" class="edge">
<title>8bf3c4e6&#45;deda&#45;478a&#45;b16f&#45;23bd5da62240&#45;&gt;5c2862c1&#45;48a6&#45;4bec&#45;aa82&#45;85e8c46b7f3e</title>
<path fill="none" stroke="black" d="M328.58,-81.31C336.73,-71.68 347.76,-58.66 357.38,-47.29"/>
<polygon fill="black" stroke="black" points="360.29,-49.27 364.09,-39.38 354.95,-44.75 360.29,-49.27"/>
</g>
<!-- 350b8d96&#45;9da6&#45;4a42&#45;8e8c&#45;a7c935ec1de6 -->
<g id="node11" class="node">
<title>350b8d96&#45;9da6&#45;4a42&#45;8e8c&#45;a7c935ec1de6</title>
<ellipse fill="#ffff80" stroke="black" cx="563.62" cy="-171.64" rx="98.99" ry="21.43"/>
<text text-anchor="middle" x="563.62" y="-166.64" font-family="Times,serif" font-size="20.00">IsHandEmpty()</text>
</g>
<!-- ad4bf38d&#45;ec1d&#45;457b&#45;b194&#45;f195e3219a5f&#45;&gt;350b8d96&#45;9da6&#45;4a42&#45;8e8c&#45;a7c935ec1de6 -->
<g id="edge10" class="edge">
<title>ad4bf38d&#45;ec1d&#45;457b&#45;b194&#45;f195e3219a5f&#45;&gt;350b8d96&#45;9da6&#45;4a42&#45;8e8c&#45;a7c935ec1de6</title>
<path fill="none" stroke="black" d="M563.62,-235.05C563.62,-226.1 563.62,-214.15 563.62,-203.09"/>
<polygon fill="black" stroke="black" points="567.12,-202.9 563.62,-192.9 560.12,-202.9 567.12,-202.9"/>
</g>
<!-- 35b7918d&#45;3c9c&#45;4106&#45;b463&#45;78436904e63e -->
<g id="node12" class="node">
<title>35b7918d&#45;3c9c&#45;4106&#45;b463&#45;78436904e63e</title>
<polygon fill="#b0ffff" stroke="black" points="716.62,-186.64 680.62,-186.64 680.62,-156.64 716.62,-156.64 716.62,-186.64"/>
<text text-anchor="middle" x="698.62" y="-166.64" font-family="Times,serif" font-size="20.00"> ? </text>
</g>
<!-- ad4bf38d&#45;ec1d&#45;457b&#45;b194&#45;f195e3219a5f&#45;&gt;35b7918d&#45;3c9c&#45;4106&#45;b463&#45;78436904e63e -->
<g id="edge11" class="edge">
<title>ad4bf38d&#45;ec1d&#45;457b&#45;b194&#45;f195e3219a5f&#45;&gt;35b7918d&#45;3c9c&#45;4106&#45;b463&#45;78436904e63e</title>
<path fill="none" stroke="black" d="M582.48,-240.41C604.44,-230.06 641.56,-211.75 671.62,-192.85 671.81,-192.74 671.99,-192.62 672.18,-192.5"/>
<polygon fill="black" stroke="black" points="674.32,-195.28 680.61,-186.75 670.37,-189.5 674.32,-195.28"/>
</g>
<!-- c1b556e3&#45;80fd&#45;4241&#45;a039&#45;fe6b4b237233 -->
<g id="node13" class="node">
<title>c1b556e3&#45;80fd&#45;4241&#45;a039&#45;fe6b4b237233</title>
<polygon fill="#ff8080" stroke="black" points="663.12,-111.43 626.12,-111.43 626.12,-81.43 663.12,-81.43 663.12,-111.43"/>
<text text-anchor="middle" x="644.62" y="-91.43" font-family="Times,serif" font-size="20.00">→</text>
</g>
<!-- 35b7918d&#45;3c9c&#45;4106&#45;b463&#45;78436904e63e&#45;&gt;c1b556e3&#45;80fd&#45;4241&#45;a039&#45;fe6b4b237233 -->
<g id="edge12" class="edge">
<title>35b7918d&#45;3c9c&#45;4106&#45;b463&#45;78436904e63e&#45;&gt;c1b556e3&#45;80fd&#45;4241&#45;a039&#45;fe6b4b237233</title>
<path fill="none" stroke="black" d="M688.21,-156.52C680.52,-146.09 669.89,-131.68 661.05,-119.7"/>
<polygon fill="black" stroke="black" points="663.75,-117.47 655,-111.5 658.12,-121.62 663.75,-117.47"/>
</g>
<!-- ba3936fa&#45;30cb&#45;4569&#45;9747&#45;0253253e694f -->
<g id="node16" class="node">
<title>ba3936fa&#45;30cb&#45;4569&#45;9747&#45;0253253e694f</title>
<polygon fill="lightgreen" stroke="black" points="821.62,-114.43 681.62,-114.43 681.62,-78.43 821.62,-78.43 821.62,-114.43"/>
<text text-anchor="middle" x="751.62" y="-91.43" font-family="Times,serif" font-size="20.00">MoveTo(apple)</text>
</g>
<!-- 35b7918d&#45;3c9c&#45;4106&#45;b463&#45;78436904e63e&#45;&gt;ba3936fa&#45;30cb&#45;4569&#45;9747&#45;0253253e694f -->
<g id="edge15" class="edge">
<title>35b7918d&#45;3c9c&#45;4106&#45;b463&#45;78436904e63e&#45;&gt;ba3936fa&#45;30cb&#45;4569&#45;9747&#45;0253253e694f</title>
<path fill="none" stroke="black" d="M708.84,-156.52C715.74,-146.99 725.05,-134.13 733.23,-122.84"/>
<polygon fill="black" stroke="black" points="736.17,-124.74 739.2,-114.59 730.5,-120.64 736.17,-124.74"/>
</g>
<!-- 129cfc91&#45;eba9&#45;4b9e&#45;a0c0&#45;7a01e3bd2204 -->
<g id="node14" class="node">
<title>129cfc91&#45;eba9&#45;4b9e&#45;a0c0&#45;7a01e3bd2204</title>
<ellipse fill="#ffff80" stroke="black" cx="636.62" cy="-21.21" rx="89.19" ry="21.43"/>
<text text-anchor="middle" x="636.62" y="-16.21" font-family="Times,serif" font-size="20.00">IsNear(apple)</text>
</g>
<!-- c1b556e3&#45;80fd&#45;4241&#45;a039&#45;fe6b4b237233&#45;&gt;129cfc91&#45;eba9&#45;4b9e&#45;a0c0&#45;7a01e3bd2204 -->
<g id="edge13" class="edge">
<title>c1b556e3&#45;80fd&#45;4241&#45;a039&#45;fe6b4b237233&#45;&gt;129cfc91&#45;eba9&#45;4b9e&#45;a0c0&#45;7a01e3bd2204</title>
<path fill="none" stroke="black" d="M643.08,-81.31C642.19,-73.17 641.04,-62.6 639.95,-52.66"/>
<polygon fill="black" stroke="black" points="643.42,-52.22 638.86,-42.66 636.46,-52.98 643.42,-52.22"/>
</g>
<!-- 2d525f17&#45;271e&#45;4f9a&#45;81e2&#45;4602e07efe5b -->
<g id="node15" class="node">
<title>2d525f17&#45;271e&#45;4f9a&#45;81e2&#45;4602e07efe5b</title>
<polygon fill="lightgreen" stroke="black" points="863.62,-39.21 743.62,-39.21 743.62,-3.21 863.62,-3.21 863.62,-39.21"/>
<text text-anchor="middle" x="803.62" y="-16.21" font-family="Times,serif" font-size="20.00">Grasp(apple)</text>
</g>
<!-- c1b556e3&#45;80fd&#45;4241&#45;a039&#45;fe6b4b237233&#45;&gt;2d525f17&#45;271e&#45;4f9a&#45;81e2&#45;4602e07efe5b -->
<g id="edge14" class="edge">
<title>c1b556e3&#45;80fd&#45;4241&#45;a039&#45;fe6b4b237233&#45;&gt;2d525f17&#45;271e&#45;4f9a&#45;81e2&#45;4602e07efe5b</title>
<path fill="none" stroke="black" d="M663.39,-83.54C666.44,-81.75 669.59,-79.99 672.62,-78.43 697.58,-65.57 726.15,-53.07 750.22,-43.14"/>
<polygon fill="black" stroke="black" points="751.62,-46.35 759.55,-39.32 748.97,-39.87 751.62,-46.35"/>
</g>
</g>
</svg>
