<?xml version="1.0" encoding="UTF-8" standalone="no"?>
<!DOCTYPE svg PUBLIC "-//W3C//DTD SVG 1.1//EN"
 "http://www.w3.org/Graphics/SVG/1.1/DTD/svg11.dtd">
<!-- Generated by graphviz version 2.43.0 (0)
 -->
<!-- Title: pastafarianism Pages: 1 -->
<svg width="1265pt" height="549pt"
 viewBox="0.00 0.00 1265.48 549.28" xmlns="http://www.w3.org/2000/svg" xmlns:xlink="http://www.w3.org/1999/xlink">
<g id="graph0" class="graph" transform="scale(1 1) rotate(0) translate(4 545.28)">
<title>pastafarianism</title>
<polygon fill="white" stroke="transparent" points="-4,4 -4,-545.28 1261.48,-545.28 1261.48,4 -4,4"/>
<!-- 9425c2b8&#45;fabe&#45;4af8&#45;a647&#45;264952e4ed07 -->
<g id="node1" class="node">
<title>9425c2b8&#45;fabe&#45;4af8&#45;a647&#45;264952e4ed07</title>
<polygon fill="#b0ffff" stroke="black" points="758.48,-541.28 722.48,-541.28 722.48,-511.28 758.48,-511.28 758.48,-541.28"/>
<text text-anchor="middle" x="740.48" y="-521.28" font-family="Times,serif" font-size="20.00"> ? </text>
</g>
<!-- 987c8204&#45;11eb&#45;4693&#45;b082&#45;cb766951ffbc -->
<g id="node2" class="node">
<title>987c8204&#45;11eb&#45;4693&#45;b082&#45;cb766951ffbc</title>
<polygon fill="#ff8080" stroke="black" points="358.98,-475.28 321.98,-475.28 321.98,-445.28 358.98,-445.28 358.98,-475.28"/>
<text text-anchor="middle" x="340.48" y="-455.28" font-family="Times,serif" font-size="20.00">→</text>
</g>
<!-- 9425c2b8&#45;fabe&#45;4af8&#45;a647&#45;264952e4ed07&#45;&gt;987c8204&#45;11eb&#45;4693&#45;b082&#45;cb766951ffbc -->
<g id="edge1" class="edge">
<title>9425c2b8&#45;fabe&#45;4af8&#45;a647&#45;264952e4ed07&#45;&gt;987c8204&#45;11eb&#45;4693&#45;b082&#45;cb766951ffbc</title>
<path fill="none" stroke="black" d="M722.25,-522.36C658.76,-512.2 446.93,-478.31 369.31,-465.89"/>
<polygon fill="black" stroke="black" points="369.7,-462.41 359.28,-464.29 368.6,-469.32 369.7,-462.41"/>
</g>
<!-- 558602ff&#45;dc06&#45;4ec4&#45;b8e9&#45;44b904aa4cef -->
<g id="node5" class="node">
<title>558602ff&#45;dc06&#45;4ec4&#45;b8e9&#45;44b904aa4cef</title>
<polygon fill="#ff8080" stroke="black" points="693.98,-475.28 656.98,-475.28 656.98,-445.28 693.98,-445.28 693.98,-475.28"/>
<text text-anchor="middle" x="675.48" y="-455.28" font-family="Times,serif" font-size="20.00">→</text>
</g>
<!-- 9425c2b8&#45;fabe&#45;4af8&#45;a647&#45;264952e4ed07&#45;&gt;558602ff&#45;dc06&#45;4ec4&#45;b8e9&#45;44b904aa4cef -->
<g id="edge4" class="edge">
<title>9425c2b8&#45;fabe&#45;4af8&#45;a647&#45;264952e4ed07&#45;&gt;558602ff&#45;dc06&#45;4ec4&#45;b8e9&#45;44b904aa4cef</title>
<path fill="none" stroke="black" d="M726.05,-511.08C717.56,-502.71 706.64,-491.96 697.12,-482.59"/>
<polygon fill="black" stroke="black" points="699.45,-479.97 689.87,-475.44 694.54,-484.95 699.45,-479.97"/>
</g>
<!-- 33e43f47&#45;b480&#45;46b0&#45;b697&#45;38de1fc029f1 -->
<g id="node20" class="node">
<title>33e43f47&#45;b480&#45;46b0&#45;b697&#45;38de1fc029f1</title>
<polygon fill="#ff8080" stroke="black" points="824.98,-475.28 787.98,-475.28 787.98,-445.28 824.98,-445.28 824.98,-475.28"/>
<text text-anchor="middle" x="806.48" y="-455.28" font-family="Times,serif" font-size="20.00">→</text>
</g>
<!-- 9425c2b8&#45;fabe&#45;4af8&#45;a647&#45;264952e4ed07&#45;&gt;33e43f47&#45;b480&#45;46b0&#45;b697&#45;38de1fc029f1 -->
<g id="edge19" class="edge">
<title>9425c2b8&#45;fabe&#45;4af8&#45;a647&#45;264952e4ed07&#45;&gt;33e43f47&#45;b480&#45;46b0&#45;b697&#45;38de1fc029f1</title>
<path fill="none" stroke="black" d="M755.13,-511.08C763.76,-502.71 774.84,-491.96 784.5,-482.59"/>
<polygon fill="black" stroke="black" points="787.13,-484.92 791.87,-475.44 782.26,-479.89 787.13,-484.92"/>
</g>
<!-- 5dec5ae7&#45;e91c&#45;43a1&#45;87b2&#45;536d00ad31a0 -->
<g id="node23" class="node">
<title>5dec5ae7&#45;e91c&#45;43a1&#45;87b2&#45;536d00ad31a0</title>
<polygon fill="#ff8080" stroke="black" points="1046.98,-475.28 1009.98,-475.28 1009.98,-445.28 1046.98,-445.28 1046.98,-475.28"/>
<text text-anchor="middle" x="1028.48" y="-455.28" font-family="Times,serif" font-size="20.00">→</text>
</g>
<!-- 9425c2b8&#45;fabe&#45;4af8&#45;a647&#45;264952e4ed07&#45;&gt;5dec5ae7&#45;e91c&#45;43a1&#45;87b2&#45;536d00ad31a0 -->
<g id="edge22" class="edge">
<title>9425c2b8&#45;fabe&#45;4af8&#45;a647&#45;264952e4ed07&#45;&gt;5dec5ae7&#45;e91c&#45;43a1&#45;87b2&#45;536d00ad31a0</title>
<path fill="none" stroke="black" d="M758.5,-521.28C807.05,-510.48 940.96,-480.73 999.95,-467.62"/>
<polygon fill="black" stroke="black" points="1000.72,-471.03 1009.73,-465.45 999.2,-464.2 1000.72,-471.03"/>
</g>
<!-- 238a496a&#45;6710&#45;4ee7&#45;952f&#45;c7da0e18c845 -->
<g id="node3" class="node">
<title>238a496a&#45;6710&#45;4ee7&#45;952f&#45;c7da0e18c845</title>
<ellipse fill="#ffff80" stroke="black" cx="107.48" cy="-388.07" rx="107.46" ry="21.43"/>
<text text-anchor="middle" x="107.48" y="-383.07" font-family="Times,serif" font-size="20.00">Activated(light1)</text>
</g>
<!-- 987c8204&#45;11eb&#45;4693&#45;b082&#45;cb766951ffbc&#45;&gt;238a496a&#45;6710&#45;4ee7&#45;952f&#45;c7da0e18c845 -->
<g id="edge2" class="edge">
<title>987c8204&#45;11eb&#45;4693&#45;b082&#45;cb766951ffbc&#45;&gt;238a496a&#45;6710&#45;4ee7&#45;952f&#45;c7da0e18c845</title>
<path fill="none" stroke="black" d="M321.81,-453.65C290.12,-444.1 224.35,-424.29 173.98,-409.11"/>
<polygon fill="black" stroke="black" points="174.71,-405.67 164.13,-406.14 172.69,-412.37 174.71,-405.67"/>
</g>
<!-- c6bd7bd5&#45;482d&#45;4bcc&#45;bc8b&#45;22361987a6c2 -->
<g id="node4" class="node">
<title>c6bd7bd5&#45;482d&#45;4bcc&#45;bc8b&#45;22361987a6c2</title>
<ellipse fill="#ffff80" stroke="black" cx="340.48" cy="-388.07" rx="107.46" ry="21.43"/>
<text text-anchor="middle" x="340.48" y="-383.07" font-family="Times,serif" font-size="20.00">Activated(light2)</text>
</g>
<!-- 987c8204&#45;11eb&#45;4693&#45;b082&#45;cb766951ffbc&#45;&gt;c6bd7bd5&#45;482d&#45;4bcc&#45;bc8b&#45;22361987a6c2 -->
<g id="edge3" class="edge">
<title>987c8204&#45;11eb&#45;4693&#45;b082&#45;cb766951ffbc&#45;&gt;c6bd7bd5&#45;482d&#45;4bcc&#45;bc8b&#45;22361987a6c2</title>
<path fill="none" stroke="black" d="M340.48,-445.07C340.48,-437.7 340.48,-428.39 340.48,-419.49"/>
<polygon fill="black" stroke="black" points="343.98,-419.37 340.48,-409.37 336.98,-419.37 343.98,-419.37"/>
</g>
<!-- f7b19654&#45;9960&#45;4426&#45;b99d&#45;98961b6ac82f -->
<g id="node6" class="node">
<title>f7b19654&#45;9960&#45;4426&#45;b99d&#45;98961b6ac82f</title>
<ellipse fill="#ffff80" stroke="black" cx="552.48" cy="-388.07" rx="86.95" ry="21.43"/>
<text text-anchor="middle" x="552.48" y="-383.07" font-family="Times,serif" font-size="20.00">IsSwitchOn()</text>
</g>
<!-- 558602ff&#45;dc06&#45;4ec4&#45;b8e9&#45;44b904aa4cef&#45;&gt;f7b19654&#45;9960&#45;4426&#45;b99d&#45;98961b6ac82f -->
<g id="edge5" class="edge">
<title>558602ff&#45;dc06&#45;4ec4&#45;b8e9&#45;44b904aa4cef&#45;&gt;f7b19654&#45;9960&#45;4426&#45;b99d&#45;98961b6ac82f</title>
<path fill="none" stroke="black" d="M656.8,-448.62C640.22,-439.15 615.39,-424.98 594.11,-412.83"/>
<polygon fill="black" stroke="black" points="595.67,-409.69 585.25,-407.77 592.2,-415.77 595.67,-409.69"/>
</g>
<!-- 5cbe5dcf&#45;f7dc&#45;4304&#45;808f&#45;56e13270ee1b -->
<g id="node7" class="node">
<title>5cbe5dcf&#45;f7dc&#45;4304&#45;808f&#45;56e13270ee1b</title>
<polygon fill="#b0ffff" stroke="black" points="693.48,-403.07 657.48,-403.07 657.48,-373.07 693.48,-373.07 693.48,-403.07"/>
<text text-anchor="middle" x="675.48" y="-383.07" font-family="Times,serif" font-size="20.00"> ? </text>
</g>
<!-- 558602ff&#45;dc06&#45;4ec4&#45;b8e9&#45;44b904aa4cef&#45;&gt;5cbe5dcf&#45;f7dc&#45;4304&#45;808f&#45;56e13270ee1b -->
<g id="edge6" class="edge">
<title>558602ff&#45;dc06&#45;4ec4&#45;b8e9&#45;44b904aa4cef&#45;&gt;5cbe5dcf&#45;f7dc&#45;4304&#45;808f&#45;56e13270ee1b</title>
<path fill="none" stroke="black" d="M675.48,-445.07C675.48,-436.03 675.48,-424.08 675.48,-413.54"/>
<polygon fill="black" stroke="black" points="678.98,-413.25 675.48,-403.25 671.98,-413.25 678.98,-413.25"/>
</g>
<!-- 6b7be7fd&#45;21d8&#45;417f&#45;a880&#45;0bd30fa4d7a6 -->
<g id="node8" class="node">
<title>6b7be7fd&#45;21d8&#45;417f&#45;a880&#45;0bd30fa4d7a6</title>
<polygon fill="#b0ffff" stroke="black" points="646.48,-327.85 610.48,-327.85 610.48,-297.85 646.48,-297.85 646.48,-327.85"/>
<text text-anchor="middle" x="628.48" y="-307.85" font-family="Times,serif" font-size="20.00"> ? </text>
</g>
<!-- 5cbe5dcf&#45;f7dc&#45;4304&#45;808f&#45;56e13270ee1b&#45;&gt;6b7be7fd&#45;21d8&#45;417f&#45;a880&#45;0bd30fa4d7a6 -->
<g id="edge7" class="edge">
<title>5cbe5dcf&#45;f7dc&#45;4304&#45;808f&#45;56e13270ee1b&#45;&gt;6b7be7fd&#45;21d8&#45;417f&#45;a880&#45;0bd30fa4d7a6</title>
<path fill="none" stroke="black" d="M666.42,-372.95C659.79,-362.62 650.65,-348.39 643,-336.48"/>
<polygon fill="black" stroke="black" points="645.86,-334.45 637.51,-327.93 639.97,-338.23 645.86,-334.45"/>
</g>
<!-- 5eb351b0&#45;00c6&#45;4aa1&#45;ba39&#45;270ea34608b3 -->
<g id="node19" class="node">
<title>5eb351b0&#45;00c6&#45;4aa1&#45;ba39&#45;270ea34608b3</title>
<polygon fill="lightgreen" stroke="black" points="780.48,-330.85 664.48,-330.85 664.48,-294.85 780.48,-294.85 780.48,-330.85"/>
<text text-anchor="middle" x="722.48" y="-307.85" font-family="Times,serif" font-size="20.00">Walk(light2)</text>
</g>
<!-- 5cbe5dcf&#45;f7dc&#45;4304&#45;808f&#45;56e13270ee1b&#45;&gt;5eb351b0&#45;00c6&#45;4aa1&#45;ba39&#45;270ea34608b3 -->
<g id="edge18" class="edge">
<title>5cbe5dcf&#45;f7dc&#45;4304&#45;808f&#45;56e13270ee1b&#45;&gt;5eb351b0&#45;00c6&#45;4aa1&#45;ba39&#45;270ea34608b3</title>
<path fill="none" stroke="black" d="M684.54,-372.95C690.6,-363.51 698.76,-350.8 705.95,-339.6"/>
<polygon fill="black" stroke="black" points="709,-341.32 711.46,-331.02 703.11,-337.54 709,-341.32"/>
</g>
<!-- df5fc656&#45;0af8&#45;4cc9&#45;8caf&#45;34e3b2047ab5 -->
<g id="node9" class="node">
<title>df5fc656&#45;0af8&#45;4cc9&#45;8caf&#45;34e3b2047ab5</title>
<polygon fill="#ff8080" stroke="black" points="583.98,-258.85 546.98,-258.85 546.98,-228.85 583.98,-228.85 583.98,-258.85"/>
<text text-anchor="middle" x="565.48" y="-238.85" font-family="Times,serif" font-size="20.00">→</text>
</g>
<!-- 6b7be7fd&#45;21d8&#45;417f&#45;a880&#45;0bd30fa4d7a6&#45;&gt;df5fc656&#45;0af8&#45;4cc9&#45;8caf&#45;34e3b2047ab5 -->
<g id="edge8" class="edge">
<title>6b7be7fd&#45;21d8&#45;417f&#45;a880&#45;0bd30fa4d7a6&#45;&gt;df5fc656&#45;0af8&#45;4cc9&#45;8caf&#45;34e3b2047ab5</title>
<path fill="none" stroke="black" d="M615.12,-297.64C606.6,-288.58 595.39,-276.67 585.79,-266.45"/>
<polygon fill="black" stroke="black" points="588.22,-263.93 578.82,-259.04 583.12,-268.72 588.22,-263.93"/>
</g>
<!-- 8693a681&#45;31e5&#45;4133&#45;a840&#45;abe1b5db3643 -->
<g id="node16" class="node">
<title>8693a681&#45;31e5&#45;4133&#45;a840&#45;abe1b5db3643</title>
<polygon fill="#ff8080" stroke="black" points="710.98,-258.85 673.98,-258.85 673.98,-228.85 710.98,-228.85 710.98,-258.85"/>
<text text-anchor="middle" x="692.48" y="-238.85" font-family="Times,serif" font-size="20.00">→</text>
</g>
<!-- 6b7be7fd&#45;21d8&#45;417f&#45;a880&#45;0bd30fa4d7a6&#45;&gt;8693a681&#45;31e5&#45;4133&#45;a840&#45;abe1b5db3643 -->
<g id="edge15" class="edge">
<title>6b7be7fd&#45;21d8&#45;417f&#45;a880&#45;0bd30fa4d7a6&#45;&gt;8693a681&#45;31e5&#45;4133&#45;a840&#45;abe1b5db3643</title>
<path fill="none" stroke="black" d="M642.05,-297.64C650.71,-288.58 662.09,-276.67 671.85,-266.45"/>
<polygon fill="black" stroke="black" points="674.55,-268.69 678.93,-259.04 669.49,-263.85 674.55,-268.69"/>
</g>
<!-- 83b449dc&#45;8441&#45;4893&#45;82c7&#45;7267acea0da4 -->
<g id="node10" class="node">
<title>83b449dc&#45;8441&#45;4893&#45;82c7&#45;7267acea0da4</title>
<ellipse fill="#ffff80" stroke="black" cx="422.48" cy="-171.64" rx="107.46" ry="21.43"/>
<text text-anchor="middle" x="422.48" y="-166.64" font-family="Times,serif" font-size="20.00">Activated(light2)</text>
</g>
<!-- df5fc656&#45;0af8&#45;4cc9&#45;8caf&#45;34e3b2047ab5&#45;&gt;83b449dc&#45;8441&#45;4893&#45;82c7&#45;7267acea0da4 -->
<g id="edge9" class="edge">
<title>df5fc656&#45;0af8&#45;4cc9&#45;8caf&#45;34e3b2047ab5&#45;&gt;83b449dc&#45;8441&#45;4893&#45;82c7&#45;7267acea0da4</title>
<path fill="none" stroke="black" d="M546.79,-233.67C527.35,-224.13 496.15,-208.81 469.87,-195.91"/>
<polygon fill="black" stroke="black" points="471.33,-192.73 460.81,-191.46 468.24,-199.01 471.33,-192.73"/>
</g>
<!-- 1e605443&#45;24fa&#45;455a&#45;89ca&#45;61d9c77cf232 -->
<g id="node11" class="node">
<title>1e605443&#45;24fa&#45;455a&#45;89ca&#45;61d9c77cf232</title>
<polygon fill="#b0ffff" stroke="black" points="583.48,-186.64 547.48,-186.64 547.48,-156.64 583.48,-156.64 583.48,-186.64"/>
<text text-anchor="middle" x="565.48" y="-166.64" font-family="Times,serif" font-size="20.00"> ? </text>
</g>
<!-- df5fc656&#45;0af8&#45;4cc9&#45;8caf&#45;34e3b2047ab5&#45;&gt;1e605443&#45;24fa&#45;455a&#45;89ca&#45;61d9c77cf232 -->
<g id="edge10" class="edge">
<title>df5fc656&#45;0af8&#45;4cc9&#45;8caf&#45;34e3b2047ab5&#45;&gt;1e605443&#45;24fa&#45;455a&#45;89ca&#45;61d9c77cf232</title>
<path fill="none" stroke="black" d="M565.48,-228.64C565.48,-219.6 565.48,-207.65 565.48,-197.12"/>
<polygon fill="black" stroke="black" points="568.98,-196.83 565.48,-186.83 561.98,-196.83 568.98,-196.83"/>
</g>
<!-- 433f169c&#45;e8e8&#45;4cca&#45;be4a&#45;f66dbbca0ffb -->
<g id="node12" class="node">
<title>433f169c&#45;e8e8&#45;4cca&#45;be4a&#45;f66dbbca0ffb</title>
<polygon fill="#ff8080" stroke="black" points="536.98,-111.43 499.98,-111.43 499.98,-81.43 536.98,-81.43 536.98,-111.43"/>
<text text-anchor="middle" x="518.48" y="-91.43" font-family="Times,serif" font-size="20.00">→</text>
</g>
<!-- 1e605443&#45;24fa&#45;455a&#45;89ca&#45;61d9c77cf232&#45;&gt;433f169c&#45;e8e8&#45;4cca&#45;be4a&#45;f66dbbca0ffb -->
<g id="edge11" class="edge">
<title>1e605443&#45;24fa&#45;455a&#45;89ca&#45;61d9c77cf232&#45;&gt;433f169c&#45;e8e8&#45;4cca&#45;be4a&#45;f66dbbca0ffb</title>
<path fill="none" stroke="black" d="M556.42,-156.52C549.79,-146.19 540.65,-131.96 533,-120.05"/>
<polygon fill="black" stroke="black" points="535.86,-118.02 527.51,-111.5 529.97,-121.81 535.86,-118.02"/>
</g>
<!-- dfb48632&#45;ae7e&#45;4a96&#45;99ed&#45;f35153896c88 -->
<g id="node15" class="node">
<title>dfb48632&#45;ae7e&#45;4a96&#45;99ed&#45;f35153896c88</title>
<polygon fill="lightgreen" stroke="black" points="671.48,-114.43 555.48,-114.43 555.48,-78.43 671.48,-78.43 671.48,-114.43"/>
<text text-anchor="middle" x="613.48" y="-91.43" font-family="Times,serif" font-size="20.00">Walk(light1)</text>
</g>
<!-- 1e605443&#45;24fa&#45;455a&#45;89ca&#45;61d9c77cf232&#45;&gt;dfb48632&#45;ae7e&#45;4a96&#45;99ed&#45;f35153896c88 -->
<g id="edge14" class="edge">
<title>1e605443&#45;24fa&#45;455a&#45;89ca&#45;61d9c77cf232&#45;&gt;dfb48632&#45;ae7e&#45;4a96&#45;99ed&#45;f35153896c88</title>
<path fill="none" stroke="black" d="M574.74,-156.52C580.93,-147.08 589.25,-134.38 596.6,-123.17"/>
<polygon fill="black" stroke="black" points="599.67,-124.87 602.23,-114.59 593.82,-121.04 599.67,-124.87"/>
</g>
<!-- 5a5aa0ef&#45;ff07&#45;4f0b&#45;86da&#45;f73a746d7cab -->
<g id="node13" class="node">
<title>5a5aa0ef&#45;ff07&#45;4f0b&#45;86da&#45;f73a746d7cab</title>
<ellipse fill="#ffff80" stroke="black" cx="418.48" cy="-21.21" rx="90.52" ry="21.43"/>
<text text-anchor="middle" x="418.48" y="-16.21" font-family="Times,serif" font-size="20.00">IsNear(light1)</text>
</g>
<!-- 433f169c&#45;e8e8&#45;4cca&#45;be4a&#45;f66dbbca0ffb&#45;&gt;5a5aa0ef&#45;ff07&#45;4f0b&#45;86da&#45;f73a746d7cab -->
<g id="edge12" class="edge">
<title>433f169c&#45;e8e8&#45;4cca&#45;be4a&#45;f66dbbca0ffb&#45;&gt;5a5aa0ef&#45;ff07&#45;4f0b&#45;86da&#45;f73a746d7cab</title>
<path fill="none" stroke="black" d="M499.67,-81.66C486.69,-72.15 469.03,-59.22 453.5,-47.85"/>
<polygon fill="black" stroke="black" points="455.27,-44.81 445.13,-41.72 451.13,-50.46 455.27,-44.81"/>
</g>
<!-- 26b52c15&#45;a869&#45;4451&#45;b327&#45;ee4730026d5c -->
<g id="node14" class="node">
<title>26b52c15&#45;a869&#45;4451&#45;b327&#45;ee4730026d5c</title>
<polygon fill="lightgreen" stroke="black" points="711.48,-39.21 527.48,-39.21 527.48,-3.21 711.48,-3.21 711.48,-39.21"/>
<text text-anchor="middle" x="619.48" y="-16.21" font-family="Times,serif" font-size="20.00">ActivateLight(light1)</text>
</g>
<!-- 433f169c&#45;e8e8&#45;4cca&#45;be4a&#45;f66dbbca0ffb&#45;&gt;26b52c15&#45;a869&#45;4451&#45;b327&#45;ee4730026d5c -->
<g id="edge13" class="edge">
<title>433f169c&#45;e8e8&#45;4cca&#45;be4a&#45;f66dbbca0ffb&#45;&gt;26b52c15&#45;a869&#45;4451&#45;b327&#45;ee4730026d5c</title>
<path fill="none" stroke="black" d="M537.01,-82C551.07,-71.8 570.75,-57.53 587.36,-45.49"/>
<polygon fill="black" stroke="black" points="589.68,-48.14 595.72,-39.43 585.57,-42.47 589.68,-48.14"/>
</g>
<!-- b0a982db&#45;7384&#45;470e&#45;9577&#45;9b95e2c6b22b -->
<g id="node17" class="node">
<title>b0a982db&#45;7384&#45;470e&#45;9577&#45;9b95e2c6b22b</title>
<ellipse fill="#ffff80" stroke="black" cx="692.48" cy="-171.64" rx="90.52" ry="21.43"/>
<text text-anchor="middle" x="692.48" y="-166.64" font-family="Times,serif" font-size="20.00">IsNear(light2)</text>
</g>
<!-- 8693a681&#45;31e5&#45;4133&#45;a840&#45;abe1b5db3643&#45;&gt;b0a982db&#45;7384&#45;470e&#45;9577&#45;9b95e2c6b22b -->
<g id="edge16" class="edge">
<title>8693a681&#45;31e5&#45;4133&#45;a840&#45;abe1b5db3643&#45;&gt;b0a982db&#45;7384&#45;470e&#45;9577&#45;9b95e2c6b22b</title>
<path fill="none" stroke="black" d="M692.48,-228.64C692.48,-221.27 692.48,-211.96 692.48,-203.07"/>
<polygon fill="black" stroke="black" points="695.98,-202.95 692.48,-192.95 688.98,-202.95 695.98,-202.95"/>
</g>
<!-- 003977c9&#45;5b44&#45;4bba&#45;81b9&#45;0bb010a6956b -->
<g id="node18" class="node">
<title>003977c9&#45;5b44&#45;4bba&#45;81b9&#45;0bb010a6956b</title>
<polygon fill="lightgreen" stroke="black" points="985.48,-189.64 801.48,-189.64 801.48,-153.64 985.48,-153.64 985.48,-189.64"/>
<text text-anchor="middle" x="893.48" y="-166.64" font-family="Times,serif" font-size="20.00">ActivateLight(light2)</text>
</g>
<!-- 8693a681&#45;31e5&#45;4133&#45;a840&#45;abe1b5db3643&#45;&gt;003977c9&#45;5b44&#45;4bba&#45;81b9&#45;0bb010a6956b -->
<g id="edge17" class="edge">
<title>8693a681&#45;31e5&#45;4133&#45;a840&#45;abe1b5db3643&#45;&gt;003977c9&#45;5b44&#45;4bba&#45;81b9&#45;0bb010a6956b</title>
<path fill="none" stroke="black" d="M711.03,-236.37C738.98,-226.61 793.1,-207.71 835.17,-193.01"/>
<polygon fill="black" stroke="black" points="836.47,-196.26 844.76,-189.66 834.16,-189.65 836.47,-196.26"/>
</g>
<!-- 4f3394cd&#45;0bb1&#45;4f85&#45;8f98&#45;be76df80301b -->
<g id="node21" class="node">
<title>4f3394cd&#45;0bb1&#45;4f85&#45;8f98&#45;be76df80301b</title>
<ellipse fill="#ffff80" stroke="black" cx="806.48" cy="-388.07" rx="94.51" ry="21.43"/>
<text text-anchor="middle" x="806.48" y="-383.07" font-family="Times,serif" font-size="20.00">IsNear(switch)</text>
</g>
<!-- 33e43f47&#45;b480&#45;46b0&#45;b697&#45;38de1fc029f1&#45;&gt;4f3394cd&#45;0bb1&#45;4f85&#45;8f98&#45;be76df80301b -->
<g id="edge20" class="edge">
<title>33e43f47&#45;b480&#45;46b0&#45;b697&#45;38de1fc029f1&#45;&gt;4f3394cd&#45;0bb1&#45;4f85&#45;8f98&#45;be76df80301b</title>
<path fill="none" stroke="black" d="M806.48,-445.07C806.48,-437.7 806.48,-428.39 806.48,-419.49"/>
<polygon fill="black" stroke="black" points="809.98,-419.37 806.48,-409.37 802.98,-419.37 809.98,-419.37"/>
</g>
<!-- 1764085c&#45;e074&#45;4367&#45;8074&#45;e4bb9ad89769 -->
<g id="node22" class="node">
<title>1764085c&#45;e074&#45;4367&#45;8074&#45;e4bb9ad89769</title>
<polygon fill="lightgreen" stroke="black" points="1117.48,-406.07 919.48,-406.07 919.48,-370.07 1117.48,-370.07 1117.48,-406.07"/>
<text text-anchor="middle" x="1018.48" y="-383.07" font-family="Times,serif" font-size="20.00">TurnOnSwitch(switch)</text>
</g>
<!-- 33e43f47&#45;b480&#45;46b0&#45;b697&#45;38de1fc029f1&#45;&gt;1764085c&#45;e074&#45;4367&#45;8074&#45;e4bb9ad89769 -->
<g id="edge21" class="edge">
<title>33e43f47&#45;b480&#45;46b0&#45;b697&#45;38de1fc029f1&#45;&gt;1764085c&#45;e074&#45;4367&#45;8074&#45;e4bb9ad89769</title>
<path fill="none" stroke="black" d="M825.29,-453.05C854.66,-443.32 912.65,-424.12 957.47,-409.27"/>
<polygon fill="black" stroke="black" points="958.72,-412.55 967.11,-406.08 956.51,-405.9 958.72,-412.55"/>
</g>
<!-- a7fa704a&#45;61f4&#45;430b&#45;99db&#45;efd33c542591 -->
<g id="node24" class="node">
<title>a7fa704a&#45;61f4&#45;430b&#45;99db&#45;efd33c542591</title>
<polygon fill="lightgreen" stroke="black" points="1257.48,-406.07 1135.48,-406.07 1135.48,-370.07 1257.48,-370.07 1257.48,-406.07"/>
<text text-anchor="middle" x="1196.48" y="-383.07" font-family="Times,serif" font-size="20.00">Walk(switch)</text>
</g>
<!-- 5dec5ae7&#45;e91c&#45;43a1&#45;87b2&#45;536d00ad31a0&#45;&gt;a7fa704a&#45;61f4&#45;430b&#45;99db&#45;efd33c542591 -->
<g id="edge23" class="edge">
<title>5dec5ae7&#45;e91c&#45;43a1&#45;87b2&#45;536d00ad31a0&#45;&gt;a7fa704a&#45;61f4&#45;430b&#45;99db&#45;efd33c542591</title>
<path fill="none" stroke="black" d="M1047.1,-451.5C1070.82,-441.59 1112.73,-424.07 1146.13,-410.11"/>
<polygon fill="black" stroke="black" points="1147.87,-413.17 1155.75,-406.09 1145.17,-406.72 1147.87,-413.17"/>
</g>
</g>
</svg>
