<?xml version="1.0" encoding="UTF-8" standalone="no"?>
<!DOCTYPE svg PUBLIC "-//W3C//DTD SVG 1.1//EN"
 "http://www.w3.org/Graphics/SVG/1.1/DTD/svg11.dtd">
<!-- Generated by graphviz version 2.43.0 (0)
 -->
<!-- Title: pastafarianism Pages: 1 -->
<svg width="740pt" height="345pt"
 viewBox="0.00 0.00 739.99 345.28" xmlns="http://www.w3.org/2000/svg" xmlns:xlink="http://www.w3.org/1999/xlink">
<g id="graph0" class="graph" transform="scale(1 1) rotate(0) translate(4 341.28)">
<title>pastafarianism</title>
<polygon fill="white" stroke="transparent" points="-4,4 -4,-341.28 735.99,-341.28 735.99,4 -4,4"/>
<!-- af1a961a&#45;c25a&#45;4c8d&#45;81f8&#45;408c1ccb2d5d -->
<g id="node1" class="node">
<title>af1a961a&#45;c25a&#45;4c8d&#45;81f8&#45;408c1ccb2d5d</title>
<polygon fill="#b0ffff" stroke="black" points="333.99,-337.28 297.99,-337.28 297.99,-307.28 333.99,-307.28 333.99,-337.28"/>
<text text-anchor="middle" x="315.99" y="-317.28" font-family="Times,serif" font-size="20.00"> ? </text>
</g>
<!-- 763c7cd7&#45;5fb9&#45;43f4&#45;82ab&#45;4ec5c2321090 -->
<g id="node2" class="node">
<title>763c7cd7&#45;5fb9&#45;43f4&#45;82ab&#45;4ec5c2321090</title>
<ellipse fill="#ffff80" stroke="black" cx="182.99" cy="-250.07" rx="96.75" ry="21.43"/>
<text text-anchor="middle" x="182.99" y="-245.07" font-family="Times,serif" font-size="20.00">In(pen,cabinet)</text>
</g>
<!-- af1a961a&#45;c25a&#45;4c8d&#45;81f8&#45;408c1ccb2d5d&#45;&gt;763c7cd7&#45;5fb9&#45;43f4&#45;82ab&#45;4ec5c2321090 -->
<g id="edge1" class="edge">
<title>af1a961a&#45;c25a&#45;4c8d&#45;81f8&#45;408c1ccb2d5d&#45;&gt;763c7cd7&#45;5fb9&#45;43f4&#45;82ab&#45;4ec5c2321090</title>
<path fill="none" stroke="black" d="M297.78,-311.66C279.8,-302.17 251.61,-287.29 227.66,-274.65"/>
<polygon fill="black" stroke="black" points="229.2,-271.5 218.72,-269.93 225.93,-277.69 229.2,-271.5"/>
</g>
<!-- 88741950&#45;9666&#45;4387&#45;8e79&#45;55d7b5b93a60 -->
<g id="node3" class="node">
<title>88741950&#45;9666&#45;4387&#45;8e79&#45;55d7b5b93a60</title>
<polygon fill="#ff8080" stroke="black" points="334.49,-265.07 297.49,-265.07 297.49,-235.07 334.49,-235.07 334.49,-265.07"/>
<text text-anchor="middle" x="315.99" y="-245.07" font-family="Times,serif" font-size="20.00">→</text>
</g>
<!-- af1a961a&#45;c25a&#45;4c8d&#45;81f8&#45;408c1ccb2d5d&#45;&gt;88741950&#45;9666&#45;4387&#45;8e79&#45;55d7b5b93a60 -->
<g id="edge2" class="edge">
<title>af1a961a&#45;c25a&#45;4c8d&#45;81f8&#45;408c1ccb2d5d&#45;&gt;88741950&#45;9666&#45;4387&#45;8e79&#45;55d7b5b93a60</title>
<path fill="none" stroke="black" d="M315.99,-307.07C315.99,-298.03 315.99,-286.08 315.99,-275.54"/>
<polygon fill="black" stroke="black" points="319.5,-275.25 315.99,-265.25 312.5,-275.25 319.5,-275.25"/>
</g>
<!-- 2020e03f&#45;7861&#45;4ee1&#45;9bda&#45;f11b2eb08564 -->
<g id="node10" class="node">
<title>2020e03f&#45;7861&#45;4ee1&#45;9bda&#45;f11b2eb08564</title>
<polygon fill="#ff8080" stroke="black" points="469.49,-265.07 432.49,-265.07 432.49,-235.07 469.49,-235.07 469.49,-265.07"/>
<text text-anchor="middle" x="450.99" y="-245.07" font-family="Times,serif" font-size="20.00">→</text>
</g>
<!-- af1a961a&#45;c25a&#45;4c8d&#45;81f8&#45;408c1ccb2d5d&#45;&gt;2020e03f&#45;7861&#45;4ee1&#45;9bda&#45;f11b2eb08564 -->
<g id="edge9" class="edge">
<title>af1a961a&#45;c25a&#45;4c8d&#45;81f8&#45;408c1ccb2d5d&#45;&gt;2020e03f&#45;7861&#45;4ee1&#45;9bda&#45;f11b2eb08564</title>
<path fill="none" stroke="black" d="M334.2,-311.81C357.02,-299.94 396.37,-279.48 423.02,-265.62"/>
<polygon fill="black" stroke="black" points="424.95,-268.56 432.21,-260.84 421.72,-262.34 424.95,-268.56"/>
</g>
<!-- be776f49&#45;7594&#45;4f7a&#45;b453&#45;3886d2c08b28 -->
<g id="node4" class="node">
<title>be776f49&#45;7594&#45;4f7a&#45;b453&#45;3886d2c08b28</title>
<ellipse fill="#ffff80" stroke="black" cx="182.99" cy="-171.64" rx="96.75" ry="21.43"/>
<text text-anchor="middle" x="182.99" y="-166.64" font-family="Times,serif" font-size="20.00">IsHolding(pen)</text>
</g>
<!-- 88741950&#45;9666&#45;4387&#45;8e79&#45;55d7b5b93a60&#45;&gt;be776f49&#45;7594&#45;4f7a&#45;b453&#45;3886d2c08b28 -->
<g id="edge3" class="edge">
<title>88741950&#45;9666&#45;4387&#45;8e79&#45;55d7b5b93a60&#45;&gt;be776f49&#45;7594&#45;4f7a&#45;b453&#45;3886d2c08b28</title>
<path fill="none" stroke="black" d="M297.97,-234.97C295.02,-232.84 291.96,-230.73 288.99,-228.85 270.32,-217.01 248.92,-205.33 230.25,-195.71"/>
<polygon fill="black" stroke="black" points="231.83,-192.58 221.33,-191.16 228.65,-198.82 231.83,-192.58"/>
</g>
<!-- eb3849e7&#45;230f&#45;4167&#45;b5a1&#45;97090a2ebf75 -->
<g id="node5" class="node">
<title>eb3849e7&#45;230f&#45;4167&#45;b5a1&#45;97090a2ebf75</title>
<polygon fill="#b0ffff" stroke="black" points="333.99,-186.64 297.99,-186.64 297.99,-156.64 333.99,-156.64 333.99,-186.64"/>
<text text-anchor="middle" x="315.99" y="-166.64" font-family="Times,serif" font-size="20.00"> ? </text>
</g>
<!-- 88741950&#45;9666&#45;4387&#45;8e79&#45;55d7b5b93a60&#45;&gt;eb3849e7&#45;230f&#45;4167&#45;b5a1&#45;97090a2ebf75 -->
<g id="edge4" class="edge">
<title>88741950&#45;9666&#45;4387&#45;8e79&#45;55d7b5b93a60&#45;&gt;eb3849e7&#45;230f&#45;4167&#45;b5a1&#45;97090a2ebf75</title>
<path fill="none" stroke="black" d="M315.99,-235.05C315.99,-224.45 315.99,-209.63 315.99,-197.09"/>
<polygon fill="black" stroke="black" points="319.5,-196.83 315.99,-186.83 312.5,-196.83 319.5,-196.83"/>
</g>
<!-- 29b9ac7d&#45;3c3d&#45;4e63&#45;b381&#45;7619194ed5fc -->
<g id="node6" class="node">
<title>29b9ac7d&#45;3c3d&#45;4e63&#45;b381&#45;7619194ed5fc</title>
<polygon fill="#ff8080" stroke="black" points="259.49,-111.43 222.49,-111.43 222.49,-81.43 259.49,-81.43 259.49,-111.43"/>
<text text-anchor="middle" x="240.99" y="-91.43" font-family="Times,serif" font-size="20.00">→</text>
</g>
<!-- eb3849e7&#45;230f&#45;4167&#45;b5a1&#45;97090a2ebf75&#45;&gt;29b9ac7d&#45;3c3d&#45;4e63&#45;b381&#45;7619194ed5fc -->
<g id="edge5" class="edge">
<title>eb3849e7&#45;230f&#45;4167&#45;b5a1&#45;97090a2ebf75&#45;&gt;29b9ac7d&#45;3c3d&#45;4e63&#45;b381&#45;7619194ed5fc</title>
<path fill="none" stroke="black" d="M301.53,-156.52C290.54,-145.79 275.22,-130.84 262.75,-118.66"/>
<polygon fill="black" stroke="black" points="265.01,-115.98 255.41,-111.5 260.12,-120.99 265.01,-115.98"/>
</g>
<!-- f7251264&#45;fb73&#45;4ed5&#45;8f0a&#45;8377cec08ea6 -->
<g id="node9" class="node">
<title>f7251264&#45;fb73&#45;4ed5&#45;8f0a&#45;8377cec08ea6</title>
<polygon fill="lightgreen" stroke="black" points="405.99,-114.43 277.99,-114.43 277.99,-78.43 405.99,-78.43 405.99,-114.43"/>
<text text-anchor="middle" x="341.99" y="-91.43" font-family="Times,serif" font-size="20.00">Walk(cabinet)</text>
</g>
<!-- eb3849e7&#45;230f&#45;4167&#45;b5a1&#45;97090a2ebf75&#45;&gt;f7251264&#45;fb73&#45;4ed5&#45;8f0a&#45;8377cec08ea6 -->
<g id="edge8" class="edge">
<title>eb3849e7&#45;230f&#45;4167&#45;b5a1&#45;97090a2ebf75&#45;&gt;f7251264&#45;fb73&#45;4ed5&#45;8f0a&#45;8377cec08ea6</title>
<path fill="none" stroke="black" d="M321.01,-156.52C324.26,-147.36 328.61,-135.13 332.5,-124.17"/>
<polygon fill="black" stroke="black" points="335.85,-125.19 335.9,-114.59 329.25,-122.84 335.85,-125.19"/>
</g>
<!-- ab3fd452&#45;99a4&#45;4e25&#45;885f&#45;1200fb3b8eb9 -->
<g id="node7" class="node">
<title>ab3fd452&#45;99a4&#45;4e25&#45;885f&#45;1200fb3b8eb9</title>
<ellipse fill="#ffff80" stroke="black" cx="98.99" cy="-21.21" rx="98.99" ry="21.43"/>
<text text-anchor="middle" x="98.99" y="-16.21" font-family="Times,serif" font-size="20.00">IsNear(cabinet)</text>
</g>
<!-- 29b9ac7d&#45;3c3d&#45;4e63&#45;b381&#45;7619194ed5fc&#45;&gt;ab3fd452&#45;99a4&#45;4e25&#45;885f&#45;1200fb3b8eb9 -->
<g id="edge6" class="edge">
<title>29b9ac7d&#45;3c3d&#45;4e63&#45;b381&#45;7619194ed5fc&#45;&gt;ab3fd452&#45;99a4&#45;4e25&#45;885f&#45;1200fb3b8eb9</title>
<path fill="none" stroke="black" d="M222.43,-85.86C202.73,-75.7 170.85,-59.26 144.43,-45.64"/>
<polygon fill="black" stroke="black" points="145.83,-42.42 135.34,-40.95 142.62,-48.64 145.83,-42.42"/>
</g>
<!-- d4ce3e4a&#45;960e&#45;4945&#45;a1cd&#45;03109fea436e -->
<g id="node8" class="node">
<title>d4ce3e4a&#45;960e&#45;4945&#45;a1cd&#45;03109fea436e</title>
<polygon fill="lightgreen" stroke="black" points="379.99,-39.21 215.99,-39.21 215.99,-3.21 379.99,-3.21 379.99,-39.21"/>
<text text-anchor="middle" x="297.99" y="-16.21" font-family="Times,serif" font-size="20.00">Place(pen,cabinet)</text>
</g>
<!-- 29b9ac7d&#45;3c3d&#45;4e63&#45;b381&#45;7619194ed5fc&#45;&gt;d4ce3e4a&#45;960e&#45;4945&#45;a1cd&#45;03109fea436e -->
<g id="edge7" class="edge">
<title>29b9ac7d&#45;3c3d&#45;4e63&#45;b381&#45;7619194ed5fc&#45;&gt;d4ce3e4a&#45;960e&#45;4945&#45;a1cd&#45;03109fea436e</title>
<path fill="none" stroke="black" d="M251.99,-81.31C259.48,-71.68 269.62,-58.66 278.47,-47.29"/>
<polygon fill="black" stroke="black" points="281.25,-49.42 284.63,-39.38 275.73,-45.12 281.25,-49.42"/>
</g>
<!-- c5c72b11&#45;9b20&#45;4de6&#45;a5bf&#45;a3150835ea74 -->
<g id="node11" class="node">
<title>c5c72b11&#45;9b20&#45;4de6&#45;a5bf&#45;a3150835ea74</title>
<ellipse fill="#ffff80" stroke="black" cx="450.99" cy="-171.64" rx="98.99" ry="21.43"/>
<text text-anchor="middle" x="450.99" y="-166.64" font-family="Times,serif" font-size="20.00">IsHandEmpty()</text>
</g>
<!-- 2020e03f&#45;7861&#45;4ee1&#45;9bda&#45;f11b2eb08564&#45;&gt;c5c72b11&#45;9b20&#45;4de6&#45;a5bf&#45;a3150835ea74 -->
<g id="edge10" class="edge">
<title>2020e03f&#45;7861&#45;4ee1&#45;9bda&#45;f11b2eb08564&#45;&gt;c5c72b11&#45;9b20&#45;4de6&#45;a5bf&#45;a3150835ea74</title>
<path fill="none" stroke="black" d="M450.99,-235.05C450.99,-226.1 450.99,-214.15 450.99,-203.09"/>
<polygon fill="black" stroke="black" points="454.5,-202.9 450.99,-192.9 447.5,-202.9 454.5,-202.9"/>
</g>
<!-- eda71cd8&#45;d008&#45;4194&#45;9a53&#45;4dd2cfe6ebb5 -->
<g id="node12" class="node">
<title>eda71cd8&#45;d008&#45;4194&#45;9a53&#45;4dd2cfe6ebb5</title>
<polygon fill="#b0ffff" stroke="black" points="603.99,-186.64 567.99,-186.64 567.99,-156.64 603.99,-156.64 603.99,-186.64"/>
<text text-anchor="middle" x="585.99" y="-166.64" font-family="Times,serif" font-size="20.00"> ? </text>
</g>
<!-- 2020e03f&#45;7861&#45;4ee1&#45;9bda&#45;f11b2eb08564&#45;&gt;eda71cd8&#45;d008&#45;4194&#45;9a53&#45;4dd2cfe6ebb5 -->
<g id="edge11" class="edge">
<title>2020e03f&#45;7861&#45;4ee1&#45;9bda&#45;f11b2eb08564&#45;&gt;eda71cd8&#45;d008&#45;4194&#45;9a53&#45;4dd2cfe6ebb5</title>
<path fill="none" stroke="black" d="M469.85,-240.41C491.81,-230.06 528.93,-211.75 558.99,-192.85 559.18,-192.74 559.37,-192.62 559.55,-192.5"/>
<polygon fill="black" stroke="black" points="561.69,-195.28 567.98,-186.75 557.75,-189.5 561.69,-195.28"/>
</g>
<!-- 6ace9395&#45;11c5&#45;4180&#45;aa36&#45;588eae1278f5 -->
<g id="node13" class="node">
<title>6ace9395&#45;11c5&#45;4180&#45;aa36&#45;588eae1278f5</title>
<polygon fill="#ff8080" stroke="black" points="560.49,-111.43 523.49,-111.43 523.49,-81.43 560.49,-81.43 560.49,-111.43"/>
<text text-anchor="middle" x="541.99" y="-91.43" font-family="Times,serif" font-size="20.00">→</text>
</g>
<!-- eda71cd8&#45;d008&#45;4194&#45;9a53&#45;4dd2cfe6ebb5&#45;&gt;6ace9395&#45;11c5&#45;4180&#45;aa36&#45;588eae1278f5 -->
<g id="edge12" class="edge">
<title>eda71cd8&#45;d008&#45;4194&#45;9a53&#45;4dd2cfe6ebb5&#45;&gt;6ace9395&#45;11c5&#45;4180&#45;aa36&#45;588eae1278f5</title>
<path fill="none" stroke="black" d="M577.51,-156.52C571.36,-146.29 562.92,-132.24 555.8,-120.4"/>
<polygon fill="black" stroke="black" points="558.6,-118.27 550.45,-111.5 552.6,-121.87 558.6,-118.27"/>
</g>
<!-- 70ce39f2&#45;6b9b&#45;4294&#45;b7ae&#45;bbcaea618f0f -->
<g id="node16" class="node">
<title>70ce39f2&#45;6b9b&#45;4294&#45;b7ae&#45;bbcaea618f0f</title>
<polygon fill="lightgreen" stroke="black" points="678.99,-114.43 578.99,-114.43 578.99,-78.43 678.99,-78.43 678.99,-114.43"/>
<text text-anchor="middle" x="628.99" y="-91.43" font-family="Times,serif" font-size="20.00">Walk(pen)</text>
</g>
<!-- eda71cd8&#45;d008&#45;4194&#45;9a53&#45;4dd2cfe6ebb5&#45;&gt;70ce39f2&#45;6b9b&#45;4294&#45;b7ae&#45;bbcaea618f0f -->
<g id="edge15" class="edge">
<title>eda71cd8&#45;d008&#45;4194&#45;9a53&#45;4dd2cfe6ebb5&#45;&gt;70ce39f2&#45;6b9b&#45;4294&#45;b7ae&#45;bbcaea618f0f</title>
<path fill="none" stroke="black" d="M594.29,-156.52C599.78,-147.17 607.14,-134.63 613.68,-123.5"/>
<polygon fill="black" stroke="black" points="616.87,-124.99 618.91,-114.59 610.83,-121.44 616.87,-124.99"/>
</g>
<!-- 698f6fd9&#45;26c5&#45;4304&#45;8e1e&#45;6fcfb537c279 -->
<g id="node14" class="node">
<title>698f6fd9&#45;26c5&#45;4304&#45;8e1e&#45;6fcfb537c279</title>
<ellipse fill="#ffff80" stroke="black" cx="528.99" cy="-21.21" rx="79.39" ry="21.43"/>
<text text-anchor="middle" x="528.99" y="-16.21" font-family="Times,serif" font-size="20.00">IsNear(pen)</text>
</g>
<!-- 6ace9395&#45;11c5&#45;4180&#45;aa36&#45;588eae1278f5&#45;&gt;698f6fd9&#45;26c5&#45;4304&#45;8e1e&#45;6fcfb537c279 -->
<g id="edge13" class="edge">
<title>6ace9395&#45;11c5&#45;4180&#45;aa36&#45;588eae1278f5&#45;&gt;698f6fd9&#45;26c5&#45;4304&#45;8e1e&#45;6fcfb537c279</title>
<path fill="none" stroke="black" d="M539.49,-81.31C538.04,-73.17 536.17,-62.6 534.4,-52.66"/>
<polygon fill="black" stroke="black" points="537.82,-51.89 532.62,-42.66 530.93,-53.11 537.82,-51.89"/>
</g>
<!-- cdef91e2&#45;3cb9&#45;4912&#45;8d7d&#45;0a62b72ecc03 -->
<g id="node15" class="node">
<title>cdef91e2&#45;3cb9&#45;4912&#45;8d7d&#45;0a62b72ecc03</title>
<polygon fill="lightgreen" stroke="black" points="731.99,-39.21 625.99,-39.21 625.99,-3.21 731.99,-3.21 731.99,-39.21"/>
<text text-anchor="middle" x="678.99" y="-16.21" font-family="Times,serif" font-size="20.00">Grasp(pen)</text>
</g>
<!-- 6ace9395&#45;11c5&#45;4180&#45;aa36&#45;588eae1278f5&#45;&gt;cdef91e2&#45;3cb9&#45;4912&#45;8d7d&#45;0a62b72ecc03 -->
<g id="edge14" class="edge">
<title>6ace9395&#45;11c5&#45;4180&#45;aa36&#45;588eae1278f5&#45;&gt;cdef91e2&#45;3cb9&#45;4912&#45;8d7d&#45;0a62b72ecc03</title>
<path fill="none" stroke="black" d="M560.56,-83.91C563.69,-82.04 566.92,-80.15 569.99,-78.43 591.16,-66.56 615.08,-54.12 635.11,-43.97"/>
<polygon fill="black" stroke="black" points="636.95,-46.96 644.3,-39.33 633.8,-40.71 636.95,-46.96"/>
</g>
</g>
</svg>
