<?xml version="1.0" encoding="UTF-8" standalone="no"?>
<!DOCTYPE svg PUBLIC "-//W3C//DTD SVG 1.1//EN"
 "http://www.w3.org/Graphics/SVG/1.1/DTD/svg11.dtd">
<!-- Generated by graphviz version 2.43.0 (0)
 -->
<!-- Title: pastafarianism Pages: 1 -->
<svg width="1257pt" height="568pt"
 viewBox="0.00 0.00 1257.49 568.13" xmlns="http://www.w3.org/2000/svg" xmlns:xlink="http://www.w3.org/1999/xlink">
<g id="graph0" class="graph" transform="scale(1 1) rotate(0) translate(4 564.13)">
<title>pastafarianism</title>
<polygon fill="white" stroke="transparent" points="-4,4 -4,-564.13 1253.49,-564.13 1253.49,4 -4,4"/>
<!-- 0859604b&#45;2884&#45;449f&#45;bbeb&#45;b6966d9d0df1 -->
<g id="node1" class="node">
<title>0859604b&#45;2884&#45;449f&#45;bbeb&#45;b6966d9d0df1</title>
<polygon fill="#b0ffff" stroke="black" points="600.99,-560.13 564.99,-560.13 564.99,-530.13 600.99,-530.13 600.99,-560.13"/>
<text text-anchor="middle" x="582.99" y="-540.13" font-family="Times,serif" font-size="20.00"> ? </text>
</g>
<!-- 8b79b3d8&#45;4c83&#45;43f1&#45;b60b&#45;335c6a7c8a80 -->
<g id="node2" class="node">
<title>8b79b3d8&#45;4c83&#45;43f1&#45;b60b&#45;335c6a7c8a80</title>
<ellipse fill="#ffff80" stroke="black" cx="449.99" cy="-472.92" rx="96.75" ry="21.43"/>
<text text-anchor="middle" x="449.99" y="-467.92" font-family="Times,serif" font-size="20.00">In(pen,cabinet)</text>
</g>
<!-- 0859604b&#45;2884&#45;449f&#45;bbeb&#45;b6966d9d0df1&#45;&gt;8b79b3d8&#45;4c83&#45;43f1&#45;b60b&#45;335c6a7c8a80 -->
<g id="edge1" class="edge">
<title>0859604b&#45;2884&#45;449f&#45;bbeb&#45;b6966d9d0df1&#45;&gt;8b79b3d8&#45;4c83&#45;43f1&#45;b60b&#45;335c6a7c8a80</title>
<path fill="none" stroke="black" d="M564.78,-534.52C546.8,-525.02 518.61,-510.14 494.66,-497.5"/>
<polygon fill="black" stroke="black" points="496.2,-494.35 485.72,-492.78 492.93,-500.54 496.2,-494.35"/>
</g>
<!-- 28519046&#45;ae83&#45;4346&#45;95ea&#45;58a075c9f5a4 -->
<g id="node3" class="node">
<title>28519046&#45;ae83&#45;4346&#45;95ea&#45;58a075c9f5a4</title>
<polygon fill="#ff8080" stroke="black" points="601.49,-487.92 564.49,-487.92 564.49,-457.92 601.49,-457.92 601.49,-487.92"/>
<text text-anchor="middle" x="582.99" y="-467.92" font-family="Times,serif" font-size="20.00">→</text>
</g>
<!-- 0859604b&#45;2884&#45;449f&#45;bbeb&#45;b6966d9d0df1&#45;&gt;28519046&#45;ae83&#45;4346&#45;95ea&#45;58a075c9f5a4 -->
<g id="edge2" class="edge">
<title>0859604b&#45;2884&#45;449f&#45;bbeb&#45;b6966d9d0df1&#45;&gt;28519046&#45;ae83&#45;4346&#45;95ea&#45;58a075c9f5a4</title>
<path fill="none" stroke="black" d="M582.99,-529.92C582.99,-520.88 582.99,-508.93 582.99,-498.4"/>
<polygon fill="black" stroke="black" points="586.5,-498.11 582.99,-488.11 579.5,-498.11 586.5,-498.11"/>
</g>
<!-- 78b0589c&#45;66b8&#45;4c84&#45;a879&#45;6e18d4b10bf4 -->
<g id="node21" class="node">
<title>78b0589c&#45;66b8&#45;4c84&#45;a879&#45;6e18d4b10bf4</title>
<polygon fill="#ff8080" stroke="black" points="850.49,-487.92 813.49,-487.92 813.49,-457.92 850.49,-457.92 850.49,-487.92"/>
<text text-anchor="middle" x="831.99" y="-467.92" font-family="Times,serif" font-size="20.00">→</text>
</g>
<!-- 0859604b&#45;2884&#45;449f&#45;bbeb&#45;b6966d9d0df1&#45;&gt;78b0589c&#45;66b8&#45;4c84&#45;a879&#45;6e18d4b10bf4 -->
<g id="edge20" class="edge">
<title>0859604b&#45;2884&#45;449f&#45;bbeb&#45;b6966d9d0df1&#45;&gt;78b0589c&#45;66b8&#45;4c84&#45;a879&#45;6e18d4b10bf4</title>
<path fill="none" stroke="black" d="M601.3,-538.97C644.28,-526.85 751.87,-496.51 803.49,-481.96"/>
<polygon fill="black" stroke="black" points="804.65,-485.27 813.32,-479.18 802.75,-478.53 804.65,-485.27"/>
</g>
<!-- e610dc5f&#45;c908&#45;4b09&#45;a90b&#45;be35433be89c -->
<g id="node4" class="node">
<title>e610dc5f&#45;c908&#45;4b09&#45;a90b&#45;be35433be89c</title>
<ellipse fill="#ffff80" stroke="black" cx="444.99" cy="-394.49" rx="101.65" ry="21.43"/>
<text text-anchor="middle" x="444.99" y="-389.49" font-family="Times,serif" font-size="20.00">IsOpen(cabinet)</text>
</g>
<!-- 28519046&#45;ae83&#45;4346&#45;95ea&#45;58a075c9f5a4&#45;&gt;e610dc5f&#45;c908&#45;4b09&#45;a90b&#45;be35433be89c -->
<g id="edge3" class="edge">
<title>28519046&#45;ae83&#45;4346&#45;95ea&#45;58a075c9f5a4&#45;&gt;e610dc5f&#45;c908&#45;4b09&#45;a90b&#45;be35433be89c</title>
<path fill="none" stroke="black" d="M565,-457.78C562.05,-455.65 558.98,-453.56 555.99,-451.71 536.59,-439.65 514.27,-427.97 494.77,-418.4"/>
<polygon fill="black" stroke="black" points="496.26,-415.23 485.73,-414.02 493.2,-421.53 496.26,-415.23"/>
</g>
<!-- 86807754&#45;5fe1&#45;440a&#45;8693&#45;caa942e44a05 -->
<g id="node5" class="node">
<title>86807754&#45;5fe1&#45;440a&#45;8693&#45;caa942e44a05</title>
<polygon fill="#b0ffff" stroke="black" points="600.99,-409.49 564.99,-409.49 564.99,-379.49 600.99,-379.49 600.99,-409.49"/>
<text text-anchor="middle" x="582.99" y="-389.49" font-family="Times,serif" font-size="20.00"> ? </text>
</g>
<!-- 28519046&#45;ae83&#45;4346&#45;95ea&#45;58a075c9f5a4&#45;&gt;86807754&#45;5fe1&#45;440a&#45;8693&#45;caa942e44a05 -->
<g id="edge4" class="edge">
<title>28519046&#45;ae83&#45;4346&#45;95ea&#45;58a075c9f5a4&#45;&gt;86807754&#45;5fe1&#45;440a&#45;8693&#45;caa942e44a05</title>
<path fill="none" stroke="black" d="M582.99,-457.9C582.99,-447.3 582.99,-432.48 582.99,-419.95"/>
<polygon fill="black" stroke="black" points="586.5,-419.68 582.99,-409.68 579.5,-419.68 586.5,-419.68"/>
</g>
<!-- ede9b3f1&#45;e54b&#45;444b&#45;9471&#45;b0a741ac3897 -->
<g id="node6" class="node">
<title>ede9b3f1&#45;e54b&#45;444b&#45;9471&#45;b0a741ac3897</title>
<polygon fill="#b0ffff" stroke="black" points="532.99,-337.28 496.99,-337.28 496.99,-307.28 532.99,-307.28 532.99,-337.28"/>
<text text-anchor="middle" x="514.99" y="-317.28" font-family="Times,serif" font-size="20.00"> ? </text>
</g>
<!-- 86807754&#45;5fe1&#45;440a&#45;8693&#45;caa942e44a05&#45;&gt;ede9b3f1&#45;e54b&#45;444b&#45;9471&#45;b0a741ac3897 -->
<g id="edge5" class="edge">
<title>86807754&#45;5fe1&#45;440a&#45;8693&#45;caa942e44a05&#45;&gt;ede9b3f1&#45;e54b&#45;444b&#45;9471&#45;b0a741ac3897</title>
<path fill="none" stroke="black" d="M569.23,-379.28C559.65,-369.39 546.69,-356 535.84,-344.8"/>
<polygon fill="black" stroke="black" points="538.21,-342.22 528.74,-337.47 533.18,-347.09 538.21,-342.22"/>
</g>
<!-- 419ce889&#45;931d&#45;451e&#45;b855&#45;0b280ef0eeb3 -->
<g id="node18" class="node">
<title>419ce889&#45;931d&#45;451e&#45;b855&#45;0b280ef0eeb3</title>
<polygon fill="#ff8080" stroke="black" points="668.49,-337.28 631.49,-337.28 631.49,-307.28 668.49,-307.28 668.49,-337.28"/>
<text text-anchor="middle" x="649.99" y="-317.28" font-family="Times,serif" font-size="20.00">→</text>
</g>
<!-- 86807754&#45;5fe1&#45;440a&#45;8693&#45;caa942e44a05&#45;&gt;419ce889&#45;931d&#45;451e&#45;b855&#45;0b280ef0eeb3 -->
<g id="edge17" class="edge">
<title>86807754&#45;5fe1&#45;440a&#45;8693&#45;caa942e44a05&#45;&gt;419ce889&#45;931d&#45;451e&#45;b855&#45;0b280ef0eeb3</title>
<path fill="none" stroke="black" d="M596.55,-379.28C606,-369.39 618.77,-356 629.46,-344.8"/>
<polygon fill="black" stroke="black" points="632.09,-347.12 636.46,-337.47 627.02,-342.29 632.09,-347.12"/>
</g>
<!-- a3eb8f0e&#45;3014&#45;4720&#45;a601&#45;fe4d4228afcb -->
<g id="node7" class="node">
<title>a3eb8f0e&#45;3014&#45;4720&#45;a601&#45;fe4d4228afcb</title>
<polygon fill="#ff8080" stroke="black" points="300.49,-265.07 263.49,-265.07 263.49,-235.07 300.49,-235.07 300.49,-265.07"/>
<text text-anchor="middle" x="281.99" y="-245.07" font-family="Times,serif" font-size="20.00">→</text>
</g>
<!-- ede9b3f1&#45;e54b&#45;444b&#45;9471&#45;b0a741ac3897&#45;&gt;a3eb8f0e&#45;3014&#45;4720&#45;a601&#45;fe4d4228afcb -->
<g id="edge6" class="edge">
<title>ede9b3f1&#45;e54b&#45;444b&#45;9471&#45;b0a741ac3897&#45;&gt;a3eb8f0e&#45;3014&#45;4720&#45;a601&#45;fe4d4228afcb</title>
<path fill="none" stroke="black" d="M496.71,-315.77C456.23,-303.57 358.81,-274.21 310.35,-259.61"/>
<polygon fill="black" stroke="black" points="311.1,-256.18 300.52,-256.65 309.08,-262.88 311.1,-256.18"/>
</g>
<!-- cdd142e3&#45;3ef1&#45;4512&#45;b40f&#45;103ba7294b1c -->
<g id="node14" class="node">
<title>cdd142e3&#45;3ef1&#45;4512&#45;b40f&#45;103ba7294b1c</title>
<polygon fill="#ff8080" stroke="black" points="533.49,-265.07 496.49,-265.07 496.49,-235.07 533.49,-235.07 533.49,-265.07"/>
<text text-anchor="middle" x="514.99" y="-245.07" font-family="Times,serif" font-size="20.00">→</text>
</g>
<!-- ede9b3f1&#45;e54b&#45;444b&#45;9471&#45;b0a741ac3897&#45;&gt;cdd142e3&#45;3ef1&#45;4512&#45;b40f&#45;103ba7294b1c -->
<g id="edge13" class="edge">
<title>ede9b3f1&#45;e54b&#45;444b&#45;9471&#45;b0a741ac3897&#45;&gt;cdd142e3&#45;3ef1&#45;4512&#45;b40f&#45;103ba7294b1c</title>
<path fill="none" stroke="black" d="M514.99,-307.07C514.99,-298.03 514.99,-286.08 514.99,-275.54"/>
<polygon fill="black" stroke="black" points="518.5,-275.25 514.99,-265.25 511.5,-275.25 518.5,-275.25"/>
</g>
<!-- 42132f1d&#45;dacf&#45;41d4&#45;b05c&#45;526aaf64bbd4 -->
<g id="node8" class="node">
<title>42132f1d&#45;dacf&#45;41d4&#45;b05c&#45;526aaf64bbd4</title>
<ellipse fill="#ffff80" stroke="black" cx="148.99" cy="-171.64" rx="96.75" ry="21.43"/>
<text text-anchor="middle" x="148.99" y="-166.64" font-family="Times,serif" font-size="20.00">IsHolding(pen)</text>
</g>
<!-- a3eb8f0e&#45;3014&#45;4720&#45;a601&#45;fe4d4228afcb&#45;&gt;42132f1d&#45;dacf&#45;41d4&#45;b05c&#45;526aaf64bbd4 -->
<g id="edge7" class="edge">
<title>a3eb8f0e&#45;3014&#45;4720&#45;a601&#45;fe4d4228afcb&#45;&gt;42132f1d&#45;dacf&#45;41d4&#45;b05c&#45;526aaf64bbd4</title>
<path fill="none" stroke="black" d="M263.22,-238.28C244.47,-227.5 215.02,-210.58 190.73,-196.62"/>
<polygon fill="black" stroke="black" points="192.45,-193.57 182.04,-191.63 188.96,-199.64 192.45,-193.57"/>
</g>
<!-- 18ae3cbd&#45;98ba&#45;4ba5&#45;a0dd&#45;03da958381a6 -->
<g id="node9" class="node">
<title>18ae3cbd&#45;98ba&#45;4ba5&#45;a0dd&#45;03da958381a6</title>
<polygon fill="#b0ffff" stroke="black" points="299.99,-186.64 263.99,-186.64 263.99,-156.64 299.99,-156.64 299.99,-186.64"/>
<text text-anchor="middle" x="281.99" y="-166.64" font-family="Times,serif" font-size="20.00"> ? </text>
</g>
<!-- a3eb8f0e&#45;3014&#45;4720&#45;a601&#45;fe4d4228afcb&#45;&gt;18ae3cbd&#45;98ba&#45;4ba5&#45;a0dd&#45;03da958381a6 -->
<g id="edge8" class="edge">
<title>a3eb8f0e&#45;3014&#45;4720&#45;a601&#45;fe4d4228afcb&#45;&gt;18ae3cbd&#45;98ba&#45;4ba5&#45;a0dd&#45;03da958381a6</title>
<path fill="none" stroke="black" d="M281.99,-235.05C281.99,-224.45 281.99,-209.63 281.99,-197.09"/>
<polygon fill="black" stroke="black" points="285.5,-196.83 281.99,-186.83 278.5,-196.83 285.5,-196.83"/>
</g>
<!-- 1b1af02a&#45;3a2b&#45;4a78&#45;9240&#45;89d3665f9f2c -->
<g id="node10" class="node">
<title>1b1af02a&#45;3a2b&#45;4a78&#45;9240&#45;89d3665f9f2c</title>
<polygon fill="#ff8080" stroke="black" points="243.49,-111.43 206.49,-111.43 206.49,-81.43 243.49,-81.43 243.49,-111.43"/>
<text text-anchor="middle" x="224.99" y="-91.43" font-family="Times,serif" font-size="20.00">→</text>
</g>
<!-- 18ae3cbd&#45;98ba&#45;4ba5&#45;a0dd&#45;03da958381a6&#45;&gt;1b1af02a&#45;3a2b&#45;4a78&#45;9240&#45;89d3665f9f2c -->
<g id="edge9" class="edge">
<title>18ae3cbd&#45;98ba&#45;4ba5&#45;a0dd&#45;03da958381a6&#45;&gt;1b1af02a&#45;3a2b&#45;4a78&#45;9240&#45;89d3665f9f2c</title>
<path fill="none" stroke="black" d="M271,-156.52C262.88,-146.09 251.66,-131.68 242.34,-119.7"/>
<polygon fill="black" stroke="black" points="244.86,-117.24 235.95,-111.5 239.33,-121.54 244.86,-117.24"/>
</g>
<!-- cbd5b1f3&#45;3033&#45;478b&#45;8978&#45;8de1103ee744 -->
<g id="node13" class="node">
<title>cbd5b1f3&#45;3033&#45;478b&#45;8978&#45;8de1103ee744</title>
<polygon fill="lightgreen" stroke="black" points="415.99,-114.43 261.99,-114.43 261.99,-78.43 415.99,-78.43 415.99,-114.43"/>
<text text-anchor="middle" x="338.99" y="-91.43" font-family="Times,serif" font-size="20.00">MoveTo(cabinet)</text>
</g>
<!-- 18ae3cbd&#45;98ba&#45;4ba5&#45;a0dd&#45;03da958381a6&#45;&gt;cbd5b1f3&#45;3033&#45;478b&#45;8978&#45;8de1103ee744 -->
<g id="edge12" class="edge">
<title>18ae3cbd&#45;98ba&#45;4ba5&#45;a0dd&#45;03da958381a6&#45;&gt;cbd5b1f3&#45;3033&#45;478b&#45;8978&#45;8de1103ee744</title>
<path fill="none" stroke="black" d="M292.99,-156.52C300.48,-146.89 310.62,-133.87 319.47,-122.51"/>
<polygon fill="black" stroke="black" points="322.25,-124.63 325.63,-114.59 316.73,-120.33 322.25,-124.63"/>
</g>
<!-- 809d0309&#45;dcf8&#45;4bef&#45;aea8&#45;dd3a31e84430 -->
<g id="node11" class="node">
<title>809d0309&#45;dcf8&#45;4bef&#45;aea8&#45;dd3a31e84430</title>
<ellipse fill="#ffff80" stroke="black" cx="98.99" cy="-21.21" rx="98.99" ry="21.43"/>
<text text-anchor="middle" x="98.99" y="-16.21" font-family="Times,serif" font-size="20.00">IsNear(cabinet)</text>
</g>
<!-- 1b1af02a&#45;3a2b&#45;4a78&#45;9240&#45;89d3665f9f2c&#45;&gt;809d0309&#45;dcf8&#45;4bef&#45;aea8&#45;dd3a31e84430 -->
<g id="edge10" class="edge">
<title>1b1af02a&#45;3a2b&#45;4a78&#45;9240&#45;89d3665f9f2c&#45;&gt;809d0309&#45;dcf8&#45;4bef&#45;aea8&#45;dd3a31e84430</title>
<path fill="none" stroke="black" d="M206.4,-84.62C189.2,-74.63 163,-59.4 140.78,-46.49"/>
<polygon fill="black" stroke="black" points="142.26,-43.31 131.86,-41.31 138.75,-49.36 142.26,-43.31"/>
</g>
<!-- 058e5936&#45;dba5&#45;454a&#45;b27d&#45;4ebfb35367d7 -->
<g id="node12" class="node">
<title>058e5936&#45;dba5&#45;454a&#45;b27d&#45;4ebfb35367d7</title>
<polygon fill="lightgreen" stroke="black" points="487.99,-39.21 215.99,-39.21 215.99,-3.21 487.99,-3.21 487.99,-39.21"/>
<text text-anchor="middle" x="351.99" y="-16.21" font-family="Times,serif" font-size="20.00">PlacePenInCabinet(pen,cabinet)</text>
</g>
<!-- 1b1af02a&#45;3a2b&#45;4a78&#45;9240&#45;89d3665f9f2c&#45;&gt;058e5936&#45;dba5&#45;454a&#45;b27d&#45;4ebfb35367d7 -->
<g id="edge11" class="edge">
<title>1b1af02a&#45;3a2b&#45;4a78&#45;9240&#45;89d3665f9f2c&#45;&gt;058e5936&#45;dba5&#45;454a&#45;b27d&#45;4ebfb35367d7</title>
<path fill="none" stroke="black" d="M243.63,-84.01C246.74,-82.13 249.95,-80.21 252.99,-78.43 272.3,-67.09 293.9,-54.78 311.98,-44.58"/>
<polygon fill="black" stroke="black" points="314.09,-47.41 321.09,-39.45 310.66,-41.31 314.09,-47.41"/>
</g>
<!-- cb0f9c0d&#45;f3d9&#45;4b4e&#45;a699&#45;8d93678d673c -->
<g id="node15" class="node">
<title>cb0f9c0d&#45;f3d9&#45;4b4e&#45;a699&#45;8d93678d673c</title>
<ellipse fill="#ffff80" stroke="black" cx="416.99" cy="-171.64" rx="98.99" ry="21.43"/>
<text text-anchor="middle" x="416.99" y="-166.64" font-family="Times,serif" font-size="20.00">IsHandEmpty()</text>
</g>
<!-- cdd142e3&#45;3ef1&#45;4512&#45;b40f&#45;103ba7294b1c&#45;&gt;cb0f9c0d&#45;f3d9&#45;4b4e&#45;a699&#45;8d93678d673c -->
<g id="edge14" class="edge">
<title>cdd142e3&#45;3ef1&#45;4512&#45;b40f&#45;103ba7294b1c&#45;&gt;cb0f9c0d&#45;f3d9&#45;4b4e&#45;a699&#45;8d93678d673c</title>
<path fill="none" stroke="black" d="M497.02,-235.05C483.94,-224.85 465.85,-210.74 450.17,-198.51"/>
<polygon fill="black" stroke="black" points="452.27,-195.71 442.24,-192.32 447.97,-201.23 452.27,-195.71"/>
</g>
<!-- 202dbc56&#45;d8fc&#45;4350&#45;985b&#45;8d04e977d46e -->
<g id="node16" class="node">
<title>202dbc56&#45;d8fc&#45;4350&#45;985b&#45;8d04e977d46e</title>
<ellipse fill="#ffff80" stroke="black" cx="612.99" cy="-171.64" rx="79.39" ry="21.43"/>
<text text-anchor="middle" x="612.99" y="-166.64" font-family="Times,serif" font-size="20.00">IsNear(pen)</text>
</g>
<!-- cdd142e3&#45;3ef1&#45;4512&#45;b40f&#45;103ba7294b1c&#45;&gt;202dbc56&#45;d8fc&#45;4350&#45;985b&#45;8d04e977d46e -->
<g id="edge15" class="edge">
<title>cdd142e3&#45;3ef1&#45;4512&#45;b40f&#45;103ba7294b1c&#45;&gt;202dbc56&#45;d8fc&#45;4350&#45;985b&#45;8d04e977d46e</title>
<path fill="none" stroke="black" d="M532.97,-235.05C546.15,-224.77 564.4,-210.53 580.16,-198.25"/>
<polygon fill="black" stroke="black" points="582.39,-200.95 588.12,-192.04 578.08,-195.43 582.39,-200.95"/>
</g>
<!-- 56405b1d&#45;e51e&#45;434a&#45;b8b7&#45;c0ed5c4695eb -->
<g id="node17" class="node">
<title>56405b1d&#45;e51e&#45;434a&#45;b8b7&#45;c0ed5c4695eb</title>
<polygon fill="lightgreen" stroke="black" points="857.99,-189.64 709.99,-189.64 709.99,-153.64 857.99,-153.64 857.99,-189.64"/>
<text text-anchor="middle" x="783.99" y="-166.64" font-family="Times,serif" font-size="20.00">PickUpPen(pen)</text>
</g>
<!-- cdd142e3&#45;3ef1&#45;4512&#45;b40f&#45;103ba7294b1c&#45;&gt;56405b1d&#45;e51e&#45;434a&#45;b8b7&#45;c0ed5c4695eb -->
<g id="edge16" class="edge">
<title>cdd142e3&#45;3ef1&#45;4512&#45;b40f&#45;103ba7294b1c&#45;&gt;56405b1d&#45;e51e&#45;434a&#45;b8b7&#45;c0ed5c4695eb</title>
<path fill="none" stroke="black" d="M531.74,-234.87C534.99,-232.6 538.49,-230.47 541.99,-228.85 607.77,-198.47 630.46,-209.43 700.99,-192.85 702.08,-192.6 703.17,-192.34 704.27,-192.08"/>
<polygon fill="black" stroke="black" points="705.35,-195.42 714.27,-189.71 703.74,-188.61 705.35,-195.42"/>
</g>
<!-- 41343ba6&#45;d2e5&#45;4225&#45;b615&#45;14fec438d701 -->
<g id="node19" class="node">
<title>41343ba6&#45;d2e5&#45;4225&#45;b615&#45;14fec438d701</title>
<ellipse fill="#ffff80" stroke="black" cx="649.99" cy="-250.07" rx="98.99" ry="21.43"/>
<text text-anchor="middle" x="649.99" y="-245.07" font-family="Times,serif" font-size="20.00">IsHandEmpty()</text>
</g>
<!-- 419ce889&#45;931d&#45;451e&#45;b855&#45;0b280ef0eeb3&#45;&gt;41343ba6&#45;d2e5&#45;4225&#45;b615&#45;14fec438d701 -->
<g id="edge18" class="edge">
<title>419ce889&#45;931d&#45;451e&#45;b855&#45;0b280ef0eeb3&#45;&gt;41343ba6&#45;d2e5&#45;4225&#45;b615&#45;14fec438d701</title>
<path fill="none" stroke="black" d="M649.99,-307.07C649.99,-299.7 649.99,-290.39 649.99,-281.49"/>
<polygon fill="black" stroke="black" points="653.5,-281.37 649.99,-271.37 646.5,-281.37 653.5,-281.37"/>
</g>
<!-- 35555738&#45;c8de&#45;4211&#45;ac54&#45;8de8d4ef05a4 -->
<g id="node20" class="node">
<title>35555738&#45;c8de&#45;4211&#45;ac54&#45;8de8d4ef05a4</title>
<polygon fill="lightgreen" stroke="black" points="891.49,-268.07 766.49,-268.07 766.49,-232.07 891.49,-232.07 891.49,-268.07"/>
<text text-anchor="middle" x="828.99" y="-245.07" font-family="Times,serif" font-size="20.00">MoveTo(pen)</text>
</g>
<!-- 419ce889&#45;931d&#45;451e&#45;b855&#45;0b280ef0eeb3&#45;&gt;35555738&#45;c8de&#45;4211&#45;ac54&#45;8de8d4ef05a4 -->
<g id="edge19" class="edge">
<title>419ce889&#45;931d&#45;451e&#45;b855&#45;0b280ef0eeb3&#45;&gt;35555738&#45;c8de&#45;4211&#45;ac54&#45;8de8d4ef05a4</title>
<path fill="none" stroke="black" d="M668.81,-313.9C694.03,-304.01 739.79,-286.06 775.96,-271.87"/>
<polygon fill="black" stroke="black" points="777.38,-275.07 785.41,-268.16 774.82,-268.56 777.38,-275.07"/>
</g>
<!-- c261b349&#45;4eb6&#45;4492&#45;96aa&#45;9cd8fc90e297 -->
<g id="node22" class="node">
<title>c261b349&#45;4eb6&#45;4492&#45;96aa&#45;9cd8fc90e297</title>
<ellipse fill="#ffff80" stroke="black" cx="721.99" cy="-394.49" rx="103.48" ry="21.43"/>
<text text-anchor="middle" x="721.99" y="-389.49" font-family="Times,serif" font-size="20.00">IsClose(cabinet)</text>
</g>
<!-- 78b0589c&#45;66b8&#45;4c84&#45;a879&#45;6e18d4b10bf4&#45;&gt;c261b349&#45;4eb6&#45;4492&#45;96aa&#45;9cd8fc90e297 -->
<g id="edge21" class="edge">
<title>78b0589c&#45;66b8&#45;4c84&#45;a879&#45;6e18d4b10bf4&#45;&gt;c261b349&#45;4eb6&#45;4492&#45;96aa&#45;9cd8fc90e297</title>
<path fill="none" stroke="black" d="M813.33,-458.95C798.48,-448.63 777.22,-433.86 758.95,-421.17"/>
<polygon fill="black" stroke="black" points="760.48,-417.97 750.27,-415.14 756.48,-423.72 760.48,-417.97"/>
</g>
<!-- 10d928e1&#45;02e2&#45;4fb8&#45;bfbf&#45;580c18c76302 -->
<g id="node23" class="node">
<title>10d928e1&#45;02e2&#45;4fb8&#45;bfbf&#45;580c18c76302</title>
<ellipse fill="#ffff80" stroke="black" cx="941.99" cy="-394.49" rx="98.99" ry="21.43"/>
<text text-anchor="middle" x="941.99" y="-389.49" font-family="Times,serif" font-size="20.00">IsHandEmpty()</text>
</g>
<!-- 78b0589c&#45;66b8&#45;4c84&#45;a879&#45;6e18d4b10bf4&#45;&gt;10d928e1&#45;02e2&#45;4fb8&#45;bfbf&#45;580c18c76302 -->
<g id="edge22" class="edge">
<title>78b0589c&#45;66b8&#45;4c84&#45;a879&#45;6e18d4b10bf4&#45;&gt;10d928e1&#45;02e2&#45;4fb8&#45;bfbf&#45;580c18c76302</title>
<path fill="none" stroke="black" d="M850.65,-458.95C865.51,-448.63 886.77,-433.86 905.04,-421.17"/>
<polygon fill="black" stroke="black" points="907.51,-423.72 913.72,-415.14 903.51,-417.97 907.51,-423.72"/>
</g>
<!-- fe757144&#45;2c73&#45;44f6&#45;a98e&#45;d08e4e289e8e -->
<g id="node24" class="node">
<title>fe757144&#45;2c73&#45;44f6&#45;a98e&#45;d08e4e289e8e</title>
<polygon fill="lightgreen" stroke="black" points="1249.49,-412.49 1058.49,-412.49 1058.49,-376.49 1249.49,-376.49 1249.49,-412.49"/>
<text text-anchor="middle" x="1153.99" y="-389.49" font-family="Times,serif" font-size="20.00">OpenCabinet(cabinet)</text>
</g>
<!-- 78b0589c&#45;66b8&#45;4c84&#45;a879&#45;6e18d4b10bf4&#45;&gt;fe757144&#45;2c73&#45;44f6&#45;a98e&#45;d08e4e289e8e -->
<g id="edge23" class="edge">
<title>78b0589c&#45;66b8&#45;4c84&#45;a879&#45;6e18d4b10bf4&#45;&gt;fe757144&#45;2c73&#45;44f6&#45;a98e&#45;d08e4e289e8e</title>
<path fill="none" stroke="black" d="M850.7,-467.48C892.9,-457.46 997.63,-432.61 1072.18,-414.91"/>
<polygon fill="black" stroke="black" points="1073.12,-418.29 1082.04,-412.57 1071.5,-411.48 1073.12,-418.29"/>
</g>
</g>
</svg>
