<?xml version="1.0" encoding="UTF-8" standalone="no"?>
<!DOCTYPE svg PUBLIC "-//W3C//DTD SVG 1.1//EN"
 "http://www.w3.org/Graphics/SVG/1.1/DTD/svg11.dtd">
<!-- Generated by graphviz version 2.43.0 (0)
 -->
<!-- Title: pastafarianism Pages: 1 -->
<svg width="1118pt" height="182pt"
 viewBox="0.00 0.00 1117.76 182.43" xmlns="http://www.w3.org/2000/svg" xmlns:xlink="http://www.w3.org/1999/xlink">
<g id="graph0" class="graph" transform="scale(1 1) rotate(0) translate(4 178.43)">
<title>pastafarianism</title>
<polygon fill="white" stroke="transparent" points="-4,4 -4,-178.43 1113.76,-178.43 1113.76,4 -4,4"/>
<!-- 17fa8024&#45;2d09&#45;4137&#45;b1ed&#45;7749fc9b83b8 -->
<g id="node1" class="node">
<title>17fa8024&#45;2d09&#45;4137&#45;b1ed&#45;7749fc9b83b8</title>
<polygon fill="#b0ffff" stroke="black" points="497.26,-174.43 461.26,-174.43 461.26,-144.43 497.26,-144.43 497.26,-174.43"/>
<text text-anchor="middle" x="479.26" y="-154.43" font-family="Times,serif" font-size="20.00"> ? </text>
</g>
<!-- a70c8798&#45;0579&#45;46ad&#45;8342&#45;714de8076c66 -->
<g id="node2" class="node">
<title>a70c8798&#45;0579&#45;46ad&#45;8342&#45;714de8076c66</title>
<polygon fill="#ff8080" stroke="black" points="384.76,-108.43 347.76,-108.43 347.76,-78.43 384.76,-78.43 384.76,-108.43"/>
<text text-anchor="middle" x="366.26" y="-88.43" font-family="Times,serif" font-size="20.00">→</text>
</g>
<!-- 17fa8024&#45;2d09&#45;4137&#45;b1ed&#45;7749fc9b83b8&#45;&gt;a70c8798&#45;0579&#45;46ad&#45;8342&#45;714de8076c66 -->
<g id="edge1" class="edge">
<title>17fa8024&#45;2d09&#45;4137&#45;b1ed&#45;7749fc9b83b8&#45;&gt;a70c8798&#45;0579&#45;46ad&#45;8342&#45;714de8076c66</title>
<path fill="none" stroke="black" d="M461.1,-148.14C442.95,-137.86 414.8,-121.92 393.88,-110.07"/>
<polygon fill="black" stroke="black" points="395.55,-106.99 385.12,-105.11 392.1,-113.08 395.55,-106.99"/>
</g>
<!-- bdf69afd&#45;d3b4&#45;4bf0&#45;9832&#45;f752c751b9d4 -->
<g id="node5" class="node">
<title>bdf69afd&#45;d3b4&#45;4bf0&#45;9832&#45;f752c751b9d4</title>
<polygon fill="#ff8080" stroke="black" points="724.76,-108.43 687.76,-108.43 687.76,-78.43 724.76,-78.43 724.76,-108.43"/>
<text text-anchor="middle" x="706.26" y="-88.43" font-family="Times,serif" font-size="20.00">→</text>
</g>
<!-- 17fa8024&#45;2d09&#45;4137&#45;b1ed&#45;7749fc9b83b8&#45;&gt;bdf69afd&#45;d3b4&#45;4bf0&#45;9832&#45;f752c751b9d4 -->
<g id="edge4" class="edge">
<title>17fa8024&#45;2d09&#45;4137&#45;b1ed&#45;7749fc9b83b8&#45;&gt;bdf69afd&#45;d3b4&#45;4bf0&#45;9832&#45;f752c751b9d4</title>
<path fill="none" stroke="black" d="M497.45,-153.3C536.87,-142.18 630.41,-115.81 677.76,-102.46"/>
<polygon fill="black" stroke="black" points="678.99,-105.75 687.66,-99.67 677.09,-99.01 678.99,-105.75"/>
</g>
<!-- dc3c5489&#45;2aa3&#45;4b8d&#45;ad20&#45;e349b871cce4 -->
<g id="node3" class="node">
<title>dc3c5489&#45;2aa3&#45;4b8d&#45;ad20&#45;e349b871cce4</title>
<ellipse fill="#ffff80" stroke="black" cx="115.26" cy="-21.21" rx="115.02" ry="21.43"/>
<text text-anchor="middle" x="115.26" y="-16.21" font-family="Times,serif" font-size="20.00">ToggledOn(light1)</text>
</g>
<!-- a70c8798&#45;0579&#45;46ad&#45;8342&#45;714de8076c66&#45;&gt;dc3c5489&#45;2aa3&#45;4b8d&#45;ad20&#45;e349b871cce4 -->
<g id="edge2" class="edge">
<title>a70c8798&#45;0579&#45;46ad&#45;8342&#45;714de8076c66&#45;&gt;dc3c5489&#45;2aa3&#45;4b8d&#45;ad20&#45;e349b871cce4</title>
<path fill="none" stroke="black" d="M347.39,-87.15C313.57,-77.69 241,-57.39 185.94,-41.99"/>
<polygon fill="black" stroke="black" points="186.8,-38.59 176.23,-39.27 184.91,-45.33 186.8,-38.59"/>
</g>
<!-- fffb51d9&#45;1c36&#45;49d4&#45;b212&#45;8eb33731d9df -->
<g id="node4" class="node">
<title>fffb51d9&#45;1c36&#45;49d4&#45;b212&#45;8eb33731d9df</title>
<ellipse fill="#ffff80" stroke="black" cx="366.26" cy="-21.21" rx="118.17" ry="21.43"/>
<text text-anchor="middle" x="366.26" y="-16.21" font-family="Times,serif" font-size="20.00">ToggledOff(light2)</text>
</g>
<!-- a70c8798&#45;0579&#45;46ad&#45;8342&#45;714de8076c66&#45;&gt;fffb51d9&#45;1c36&#45;49d4&#45;b212&#45;8eb33731d9df -->
<g id="edge3" class="edge">
<title>a70c8798&#45;0579&#45;46ad&#45;8342&#45;714de8076c66&#45;&gt;fffb51d9&#45;1c36&#45;49d4&#45;b212&#45;8eb33731d9df</title>
<path fill="none" stroke="black" d="M366.26,-78.22C366.26,-70.84 366.26,-61.54 366.26,-52.64"/>
<polygon fill="black" stroke="black" points="369.76,-52.52 366.26,-42.52 362.76,-52.52 369.76,-52.52"/>
</g>
<!-- 3d25b044&#45;082a&#45;4b39&#45;996c&#45;e34402084305 -->
<g id="node6" class="node">
<title>3d25b044&#45;082a&#45;4b39&#45;996c&#45;e34402084305</title>
<ellipse fill="#ffff80" stroke="black" cx="593.26" cy="-21.21" rx="90.52" ry="21.43"/>
<text text-anchor="middle" x="593.26" y="-16.21" font-family="Times,serif" font-size="20.00">IsNear(light1)</text>
</g>
<!-- bdf69afd&#45;d3b4&#45;4bf0&#45;9832&#45;f752c751b9d4&#45;&gt;3d25b044&#45;082a&#45;4b39&#45;996c&#45;e34402084305 -->
<g id="edge5" class="edge">
<title>bdf69afd&#45;d3b4&#45;4bf0&#45;9832&#45;f752c751b9d4&#45;&gt;3d25b044&#45;082a&#45;4b39&#45;996c&#45;e34402084305</title>
<path fill="none" stroke="black" d="M687.6,-80.83C672.66,-71.55 651.2,-58.21 632.51,-46.61"/>
<polygon fill="black" stroke="black" points="634.23,-43.55 623.88,-41.24 630.53,-49.49 634.23,-43.55"/>
</g>
<!-- 34ff2f0d&#45;715f&#45;4470&#45;ad06&#45;4eefdce857f7 -->
<g id="node7" class="node">
<title>34ff2f0d&#45;715f&#45;4470&#45;ad06&#45;4eefdce857f7</title>
<ellipse fill="#ffff80" stroke="black" cx="820.26" cy="-21.21" rx="118.17" ry="21.43"/>
<text text-anchor="middle" x="820.26" y="-16.21" font-family="Times,serif" font-size="20.00">ToggledOff(light2)</text>
</g>
<!-- bdf69afd&#45;d3b4&#45;4bf0&#45;9832&#45;f752c751b9d4&#45;&gt;34ff2f0d&#45;715f&#45;4470&#45;ad06&#45;4eefdce857f7 -->
<g id="edge6" class="edge">
<title>bdf69afd&#45;d3b4&#45;4bf0&#45;9832&#45;f752c751b9d4&#45;&gt;34ff2f0d&#45;715f&#45;4470&#45;ad06&#45;4eefdce857f7</title>
<path fill="none" stroke="black" d="M724.83,-80.99C739.64,-71.86 760.94,-58.75 779.66,-47.22"/>
<polygon fill="black" stroke="black" points="781.64,-50.11 788.32,-41.88 777.97,-44.15 781.64,-50.11"/>
</g>
<!-- d5fffe2b&#45;be26&#45;4420&#45;bed8&#45;5899b5ce439b -->
<g id="node8" class="node">
<title>d5fffe2b&#45;be26&#45;4420&#45;bed8&#45;5899b5ce439b</title>
<polygon fill="lightgreen" stroke="black" points="1109.76,-39.21 956.76,-39.21 956.76,-3.21 1109.76,-3.21 1109.76,-39.21"/>
<text text-anchor="middle" x="1033.26" y="-16.21" font-family="Times,serif" font-size="20.00">ToggleOn(light1)</text>
</g>
<!-- bdf69afd&#45;d3b4&#45;4bf0&#45;9832&#45;f752c751b9d4&#45;&gt;d5fffe2b&#45;be26&#45;4420&#45;bed8&#45;5899b5ce439b -->
<g id="edge7" class="edge">
<title>bdf69afd&#45;d3b4&#45;4bf0&#45;9832&#45;f752c751b9d4&#45;&gt;d5fffe2b&#45;be26&#45;4420&#45;bed8&#45;5899b5ce439b</title>
<path fill="none" stroke="black" d="M725.04,-88.7C765.66,-80.62 864.65,-60.7 947.26,-42.43 948.71,-42.11 950.17,-41.78 951.65,-41.45"/>
<polygon fill="black" stroke="black" points="952.51,-44.84 961.49,-39.23 950.97,-38.02 952.51,-44.84"/>
</g>
</g>
</svg>
