<?xml version="1.0" encoding="UTF-8" standalone="no"?>
<!DOCTYPE svg PUBLIC "-//W3C//DTD SVG 1.1//EN"
 "http://www.w3.org/Graphics/SVG/1.1/DTD/svg11.dtd">
<!-- Generated by graphviz version 2.43.0 (0)
 -->
<!-- Title: pastafarianism Pages: 1 -->
<svg width="1854pt" height="562pt"
 viewBox="0.00 0.00 1854.33 561.71" xmlns="http://www.w3.org/2000/svg" xmlns:xlink="http://www.w3.org/1999/xlink">
<g id="graph0" class="graph" transform="scale(1 1) rotate(0) translate(4 557.71)">
<title>pastafarianism</title>
<polygon fill="white" stroke="transparent" points="-4,4 -4,-557.71 1850.33,-557.71 1850.33,4 -4,4"/>
<!-- 3c0d6e03&#45;6426&#45;4dad&#45;b112&#45;6ced411d81f1 -->
<g id="node1" class="node">
<title>3c0d6e03&#45;6426&#45;4dad&#45;b112&#45;6ced411d81f1</title>
<polygon fill="#b0ffff" stroke="black" points="1116.33,-553.71 1080.33,-553.71 1080.33,-523.71 1116.33,-523.71 1116.33,-553.71"/>
<text text-anchor="middle" x="1098.33" y="-533.71" font-family="Times,serif" font-size="20.00"> ? </text>
</g>
<!-- 76ce2bca&#45;4e34&#45;4bd9&#45;8d4e&#45;8f35785407d5 -->
<g id="node2" class="node">
<title>76ce2bca&#45;4e34&#45;4bd9&#45;8d4e&#45;8f35785407d5</title>
<polygon fill="#ff8080" stroke="black" points="519.83,-487.71 482.83,-487.71 482.83,-457.71 519.83,-457.71 519.83,-487.71"/>
<text text-anchor="middle" x="501.33" y="-467.71" font-family="Times,serif" font-size="20.00">→</text>
</g>
<!-- 3c0d6e03&#45;6426&#45;4dad&#45;b112&#45;6ced411d81f1&#45;&gt;76ce2bca&#45;4e34&#45;4bd9&#45;8d4e&#45;8f35785407d5 -->
<g id="edge1" class="edge">
<title>3c0d6e03&#45;6426&#45;4dad&#45;b112&#45;6ced411d81f1&#45;&gt;76ce2bca&#45;4e34&#45;4bd9&#45;8d4e&#45;8f35785407d5</title>
<path fill="none" stroke="black" d="M1080.14,-535.76C994.92,-526.62 635,-488.04 530.12,-476.79"/>
<polygon fill="black" stroke="black" points="530.29,-473.29 519.97,-475.7 529.54,-480.25 530.29,-473.29"/>
</g>
<!-- bde9a5fd&#45;881d&#45;418c&#45;9d7e&#45;c90a9a4ab20c -->
<g id="node6" class="node">
<title>bde9a5fd&#45;881d&#45;418c&#45;9d7e&#45;c90a9a4ab20c</title>
<polygon fill="#ff8080" stroke="black" points="1047.83,-487.71 1010.83,-487.71 1010.83,-457.71 1047.83,-457.71 1047.83,-487.71"/>
<text text-anchor="middle" x="1029.33" y="-467.71" font-family="Times,serif" font-size="20.00">→</text>
</g>
<!-- 3c0d6e03&#45;6426&#45;4dad&#45;b112&#45;6ced411d81f1&#45;&gt;bde9a5fd&#45;881d&#45;418c&#45;9d7e&#45;c90a9a4ab20c -->
<g id="edge5" class="edge">
<title>3c0d6e03&#45;6426&#45;4dad&#45;b112&#45;6ced411d81f1&#45;&gt;bde9a5fd&#45;881d&#45;418c&#45;9d7e&#45;c90a9a4ab20c</title>
<path fill="none" stroke="black" d="M1083.02,-523.5C1073.9,-515.05 1062.17,-504.17 1052,-494.74"/>
<polygon fill="black" stroke="black" points="1054.31,-492.1 1044.6,-487.87 1049.55,-497.24 1054.31,-492.1"/>
</g>
<!-- 45f1c7e6&#45;7264&#45;444c&#45;b4aa&#45;5da0b371befe -->
<g id="node24" class="node">
<title>45f1c7e6&#45;7264&#45;444c&#45;b4aa&#45;5da0b371befe</title>
<polygon fill="#ff8080" stroke="black" points="1186.83,-487.71 1149.83,-487.71 1149.83,-457.71 1186.83,-457.71 1186.83,-487.71"/>
<text text-anchor="middle" x="1168.33" y="-467.71" font-family="Times,serif" font-size="20.00">→</text>
</g>
<!-- 3c0d6e03&#45;6426&#45;4dad&#45;b112&#45;6ced411d81f1&#45;&gt;45f1c7e6&#45;7264&#45;444c&#45;b4aa&#45;5da0b371befe -->
<g id="edge23" class="edge">
<title>3c0d6e03&#45;6426&#45;4dad&#45;b112&#45;6ced411d81f1&#45;&gt;45f1c7e6&#45;7264&#45;444c&#45;b4aa&#45;5da0b371befe</title>
<path fill="none" stroke="black" d="M1113.86,-523.5C1123.11,-515.05 1135.01,-504.17 1145.33,-494.74"/>
<polygon fill="black" stroke="black" points="1147.82,-497.2 1152.84,-487.87 1143.1,-492.03 1147.82,-497.2"/>
</g>
<!-- 2963e7a9&#45;e6df&#45;4f4d&#45;9d16&#45;66b717b49bd4 -->
<g id="node31" class="node">
<title>2963e7a9&#45;e6df&#45;4f4d&#45;9d16&#45;66b717b49bd4</title>
<polygon fill="#ff8080" stroke="black" points="1501.83,-487.71 1464.83,-487.71 1464.83,-457.71 1501.83,-457.71 1501.83,-487.71"/>
<text text-anchor="middle" x="1483.33" y="-467.71" font-family="Times,serif" font-size="20.00">→</text>
</g>
<!-- 3c0d6e03&#45;6426&#45;4dad&#45;b112&#45;6ced411d81f1&#45;&gt;2963e7a9&#45;e6df&#45;4f4d&#45;9d16&#45;66b717b49bd4 -->
<g id="edge30" class="edge">
<title>3c0d6e03&#45;6426&#45;4dad&#45;b112&#45;6ced411d81f1&#45;&gt;2963e7a9&#45;e6df&#45;4f4d&#45;9d16&#45;66b717b49bd4</title>
<path fill="none" stroke="black" d="M1116.38,-534.7C1177.74,-524.51 1378.6,-491.12 1454.2,-478.55"/>
<polygon fill="black" stroke="black" points="1455.12,-481.94 1464.41,-476.85 1453.98,-475.04 1455.12,-481.94"/>
</g>
<!-- 7887f180&#45;2d7d&#45;4208&#45;b16e&#45;32508da5ddd7 -->
<g id="node3" class="node">
<title>7887f180&#45;2d7d&#45;4208&#45;b16e&#45;32508da5ddd7</title>
<ellipse fill="#ffff80" stroke="black" cx="122.33" cy="-400.49" rx="122.16" ry="21.43"/>
<text text-anchor="middle" x="122.33" y="-395.49" font-family="Times,serif" font-size="20.00">Closed(microwave)</text>
</g>
<!-- 76ce2bca&#45;4e34&#45;4bd9&#45;8d4e&#45;8f35785407d5&#45;&gt;7887f180&#45;2d7d&#45;4208&#45;b16e&#45;32508da5ddd7 -->
<g id="edge2" class="edge">
<title>76ce2bca&#45;4e34&#45;4bd9&#45;8d4e&#45;8f35785407d5&#45;&gt;7887f180&#45;2d7d&#45;4208&#45;b16e&#45;32508da5ddd7</title>
<path fill="none" stroke="black" d="M482.79,-468.27C434.66,-459.35 303.2,-435 213.08,-418.3"/>
<polygon fill="black" stroke="black" points="213.6,-414.84 203.13,-416.46 212.32,-421.72 213.6,-414.84"/>
</g>
<!-- 885488c4&#45;959f&#45;4281&#45;b1e2&#45;55034011cb22 -->
<g id="node4" class="node">
<title>885488c4&#45;959f&#45;4281&#45;b1e2&#45;55034011cb22</title>
<ellipse fill="#ffff80" stroke="black" cx="373.33" cy="-400.49" rx="110.12" ry="21.43"/>
<text text-anchor="middle" x="373.33" y="-395.49" font-family="Times,serif" font-size="20.00">ToggledOn(oven)</text>
</g>
<!-- 76ce2bca&#45;4e34&#45;4bd9&#45;8d4e&#45;8f35785407d5&#45;&gt;885488c4&#45;959f&#45;4281&#45;b1e2&#45;55034011cb22 -->
<g id="edge3" class="edge">
<title>76ce2bca&#45;4e34&#45;4bd9&#45;8d4e&#45;8f35785407d5&#45;&gt;885488c4&#45;959f&#45;4281&#45;b1e2&#45;55034011cb22</title>
<path fill="none" stroke="black" d="M482.72,-461.5C465.65,-452.14 439.72,-437.91 417.39,-425.66"/>
<polygon fill="black" stroke="black" points="418.85,-422.47 408.4,-420.73 415.48,-428.61 418.85,-422.47"/>
</g>
<!-- 500058d9&#45;1c40&#45;440e&#45;aec1&#45;d9f737607f2f -->
<g id="node5" class="node">
<title>500058d9&#45;1c40&#45;440e&#45;aec1&#45;d9f737607f2f</title>
<ellipse fill="#ffff80" stroke="black" cx="628.33" cy="-400.49" rx="126.64" ry="21.43"/>
<text text-anchor="middle" x="628.33" y="-395.49" font-family="Times,serif" font-size="20.00">On(cake,yard_table)</text>
</g>
<!-- 76ce2bca&#45;4e34&#45;4bd9&#45;8d4e&#45;8f35785407d5&#45;&gt;500058d9&#45;1c40&#45;440e&#45;aec1&#45;d9f737607f2f -->
<g id="edge4" class="edge">
<title>76ce2bca&#45;4e34&#45;4bd9&#45;8d4e&#45;8f35785407d5&#45;&gt;500058d9&#45;1c40&#45;440e&#45;aec1&#45;d9f737607f2f</title>
<path fill="none" stroke="black" d="M520.07,-461.35C536.93,-452.02 562.35,-437.97 584.32,-425.82"/>
<polygon fill="black" stroke="black" points="586.12,-428.83 593.18,-420.93 582.73,-422.7 586.12,-428.83"/>
</g>
<!-- 2aa1baf3&#45;1dcd&#45;448b&#45;8c7c&#45;c9d3e92111b8 -->
<g id="node7" class="node">
<title>2aa1baf3&#45;1dcd&#45;448b&#45;8c7c&#45;c9d3e92111b8</title>
<ellipse fill="#ffff80" stroke="black" cx="883.33" cy="-400.49" rx="110.12" ry="21.43"/>
<text text-anchor="middle" x="883.33" y="-395.49" font-family="Times,serif" font-size="20.00">ToggledOn(oven)</text>
</g>
<!-- bde9a5fd&#45;881d&#45;418c&#45;9d7e&#45;c90a9a4ab20c&#45;&gt;2aa1baf3&#45;1dcd&#45;448b&#45;8c7c&#45;c9d3e92111b8 -->
<g id="edge6" class="edge">
<title>bde9a5fd&#45;881d&#45;418c&#45;9d7e&#45;c90a9a4ab20c&#45;&gt;2aa1baf3&#45;1dcd&#45;448b&#45;8c7c&#45;c9d3e92111b8</title>
<path fill="none" stroke="black" d="M1010.54,-462.67C990.77,-453.16 958.84,-437.81 931.92,-424.86"/>
<polygon fill="black" stroke="black" points="933.16,-421.57 922.63,-420.39 930.13,-427.88 933.16,-421.57"/>
</g>
<!-- c549226f&#45;d231&#45;4cc2&#45;8e47&#45;f96b8ae421f6 -->
<g id="node8" class="node">
<title>c549226f&#45;d231&#45;4cc2&#45;8e47&#45;f96b8ae421f6</title>
<polygon fill="#b0ffff" stroke="black" points="1047.33,-415.49 1011.33,-415.49 1011.33,-385.49 1047.33,-385.49 1047.33,-415.49"/>
<text text-anchor="middle" x="1029.33" y="-395.49" font-family="Times,serif" font-size="20.00"> ? </text>
</g>
<!-- bde9a5fd&#45;881d&#45;418c&#45;9d7e&#45;c90a9a4ab20c&#45;&gt;c549226f&#45;d231&#45;4cc2&#45;8e47&#45;f96b8ae421f6 -->
<g id="edge7" class="edge">
<title>bde9a5fd&#45;881d&#45;418c&#45;9d7e&#45;c90a9a4ab20c&#45;&gt;c549226f&#45;d231&#45;4cc2&#45;8e47&#45;f96b8ae421f6</title>
<path fill="none" stroke="black" d="M1029.33,-457.5C1029.33,-448.46 1029.33,-436.51 1029.33,-425.97"/>
<polygon fill="black" stroke="black" points="1032.83,-425.68 1029.33,-415.68 1025.83,-425.68 1032.83,-425.68"/>
</g>
<!-- 938675ce&#45;ed48&#45;4af5&#45;a59d&#45;85f4d220847d -->
<g id="node9" class="node">
<title>938675ce&#45;ed48&#45;4af5&#45;a59d&#45;85f4d220847d</title>
<polygon fill="#b0ffff" stroke="black" points="775.33,-340.28 739.33,-340.28 739.33,-310.28 775.33,-310.28 775.33,-340.28"/>
<text text-anchor="middle" x="757.33" y="-320.28" font-family="Times,serif" font-size="20.00"> ? </text>
</g>
<!-- c549226f&#45;d231&#45;4cc2&#45;8e47&#45;f96b8ae421f6&#45;&gt;938675ce&#45;ed48&#45;4af5&#45;a59d&#45;85f4d220847d -->
<g id="edge8" class="edge">
<title>c549226f&#45;d231&#45;4cc2&#45;8e47&#45;f96b8ae421f6&#45;&gt;938675ce&#45;ed48&#45;4af5&#45;a59d&#45;85f4d220847d</title>
<path fill="none" stroke="black" d="M1012.89,-385.47C1009.56,-383.13 1005.95,-380.93 1002.33,-379.28 928.49,-345.61 832.23,-332.87 785.39,-328.43"/>
<polygon fill="black" stroke="black" points="785.65,-324.94 775.38,-327.54 785.03,-331.91 785.65,-324.94"/>
</g>
<!-- 85c8baa6&#45;c417&#45;4fbc&#45;bc46&#45;c9c497f8794c -->
<g id="node21" class="node">
<title>85c8baa6&#45;c417&#45;4fbc&#45;bc46&#45;c9c497f8794c</title>
<polygon fill="#ff8080" stroke="black" points="1047.83,-340.28 1010.83,-340.28 1010.83,-310.28 1047.83,-310.28 1047.83,-340.28"/>
<text text-anchor="middle" x="1029.33" y="-320.28" font-family="Times,serif" font-size="20.00">→</text>
</g>
<!-- c549226f&#45;d231&#45;4cc2&#45;8e47&#45;f96b8ae421f6&#45;&gt;85c8baa6&#45;c417&#45;4fbc&#45;bc46&#45;c9c497f8794c -->
<g id="edge20" class="edge">
<title>c549226f&#45;d231&#45;4cc2&#45;8e47&#45;f96b8ae421f6&#45;&gt;85c8baa6&#45;c417&#45;4fbc&#45;bc46&#45;c9c497f8794c</title>
<path fill="none" stroke="black" d="M1029.33,-385.38C1029.33,-375.55 1029.33,-362.2 1029.33,-350.67"/>
<polygon fill="black" stroke="black" points="1032.83,-350.35 1029.33,-340.35 1025.83,-350.35 1032.83,-350.35"/>
</g>
<!-- 2c42979e&#45;24d7&#45;4530&#45;86bc&#45;ead671071596 -->
<g id="node10" class="node">
<title>2c42979e&#45;24d7&#45;4530&#45;86bc&#45;ead671071596</title>
<polygon fill="#ff8080" stroke="black" points="502.83,-265.07 465.83,-265.07 465.83,-235.07 502.83,-235.07 502.83,-265.07"/>
<text text-anchor="middle" x="484.33" y="-245.07" font-family="Times,serif" font-size="20.00">→</text>
</g>
<!-- 938675ce&#45;ed48&#45;4af5&#45;a59d&#45;85f4d220847d&#45;&gt;2c42979e&#45;24d7&#45;4530&#45;86bc&#45;ead671071596 -->
<g id="edge9" class="edge">
<title>938675ce&#45;ed48&#45;4af5&#45;a59d&#45;85f4d220847d&#45;&gt;2c42979e&#45;24d7&#45;4530&#45;86bc&#45;ead671071596</title>
<path fill="none" stroke="black" d="M738.99,-319.36C692.38,-306.86 569.09,-273.8 512.93,-258.74"/>
<polygon fill="black" stroke="black" points="513.51,-255.27 502.95,-256.06 511.7,-262.03 513.51,-255.27"/>
</g>
<!-- 5766b1e8&#45;ae98&#45;47e4&#45;9c7a&#45;9e3dac542b2f -->
<g id="node17" class="node">
<title>5766b1e8&#45;ae98&#45;47e4&#45;9c7a&#45;9e3dac542b2f</title>
<polygon fill="#ff8080" stroke="black" points="775.83,-265.07 738.83,-265.07 738.83,-235.07 775.83,-235.07 775.83,-265.07"/>
<text text-anchor="middle" x="757.33" y="-245.07" font-family="Times,serif" font-size="20.00">→</text>
</g>
<!-- 938675ce&#45;ed48&#45;4af5&#45;a59d&#45;85f4d220847d&#45;&gt;5766b1e8&#45;ae98&#45;47e4&#45;9c7a&#45;9e3dac542b2f -->
<g id="edge16" class="edge">
<title>938675ce&#45;ed48&#45;4af5&#45;a59d&#45;85f4d220847d&#45;&gt;5766b1e8&#45;ae98&#45;47e4&#45;9c7a&#45;9e3dac542b2f</title>
<path fill="none" stroke="black" d="M757.33,-310.16C757.33,-300.34 757.33,-286.99 757.33,-275.46"/>
<polygon fill="black" stroke="black" points="760.83,-275.14 757.33,-265.14 753.83,-275.14 760.83,-275.14"/>
</g>
<!-- 4578e1cd&#45;8868&#45;44cd&#45;8646&#45;a9d3f0687dbf -->
<g id="node11" class="node">
<title>4578e1cd&#45;8868&#45;44cd&#45;8646&#45;a9d3f0687dbf</title>
<ellipse fill="#ffff80" stroke="black" cx="321.33" cy="-171.64" rx="126.64" ry="21.43"/>
<text text-anchor="middle" x="321.33" y="-166.64" font-family="Times,serif" font-size="20.00">On(cake,yard_table)</text>
</g>
<!-- 2c42979e&#45;24d7&#45;4530&#45;86bc&#45;ead671071596&#45;&gt;4578e1cd&#45;8868&#45;44cd&#45;8646&#45;a9d3f0687dbf -->
<g id="edge10" class="edge">
<title>2c42979e&#45;24d7&#45;4530&#45;86bc&#45;ead671071596&#45;&gt;4578e1cd&#45;8868&#45;44cd&#45;8646&#45;a9d3f0687dbf</title>
<path fill="none" stroke="black" d="M465.63,-240.3C442.8,-229.59 403.28,-211.06 371.36,-196.1"/>
<polygon fill="black" stroke="black" points="372.7,-192.86 362.16,-191.78 369.73,-199.2 372.7,-192.86"/>
</g>
<!-- de8a49d5&#45;c492&#45;4d52&#45;87bf&#45;0893a0bf5f42 -->
<g id="node12" class="node">
<title>de8a49d5&#45;c492&#45;4d52&#45;87bf&#45;0893a0bf5f42</title>
<polygon fill="#b0ffff" stroke="black" points="502.33,-186.64 466.33,-186.64 466.33,-156.64 502.33,-156.64 502.33,-186.64"/>
<text text-anchor="middle" x="484.33" y="-166.64" font-family="Times,serif" font-size="20.00"> ? </text>
</g>
<!-- 2c42979e&#45;24d7&#45;4530&#45;86bc&#45;ead671071596&#45;&gt;de8a49d5&#45;c492&#45;4d52&#45;87bf&#45;0893a0bf5f42 -->
<g id="edge11" class="edge">
<title>2c42979e&#45;24d7&#45;4530&#45;86bc&#45;ead671071596&#45;&gt;de8a49d5&#45;c492&#45;4d52&#45;87bf&#45;0893a0bf5f42</title>
<path fill="none" stroke="black" d="M484.33,-235.05C484.33,-224.45 484.33,-209.63 484.33,-197.09"/>
<polygon fill="black" stroke="black" points="487.83,-196.83 484.33,-186.83 480.83,-196.83 487.83,-196.83"/>
</g>
<!-- 7f12c932&#45;b02a&#45;4e82&#45;9510&#45;09c1e034d1f9 -->
<g id="node13" class="node">
<title>7f12c932&#45;b02a&#45;4e82&#45;9510&#45;09c1e034d1f9</title>
<polygon fill="#ff8080" stroke="black" points="443.83,-111.43 406.83,-111.43 406.83,-81.43 443.83,-81.43 443.83,-111.43"/>
<text text-anchor="middle" x="425.33" y="-91.43" font-family="Times,serif" font-size="20.00">→</text>
</g>
<!-- de8a49d5&#45;c492&#45;4d52&#45;87bf&#45;0893a0bf5f42&#45;&gt;7f12c932&#45;b02a&#45;4e82&#45;9510&#45;09c1e034d1f9 -->
<g id="edge12" class="edge">
<title>de8a49d5&#45;c492&#45;4d52&#45;87bf&#45;0893a0bf5f42&#45;&gt;7f12c932&#45;b02a&#45;4e82&#45;9510&#45;09c1e034d1f9</title>
<path fill="none" stroke="black" d="M472.95,-156.52C464.47,-145.99 452.71,-131.4 443,-119.35"/>
<polygon fill="black" stroke="black" points="445.67,-117.09 436.67,-111.5 440.22,-121.48 445.67,-117.09"/>
</g>
<!-- d56253e4&#45;9a88&#45;409c&#45;b125&#45;9876792d0df4 -->
<g id="node16" class="node">
<title>d56253e4&#45;9a88&#45;409c&#45;b125&#45;9876792d0df4</title>
<polygon fill="lightgreen" stroke="black" points="622.33,-114.43 462.33,-114.43 462.33,-78.43 622.33,-78.43 622.33,-114.43"/>
<text text-anchor="middle" x="542.33" y="-91.43" font-family="Times,serif" font-size="20.00">Walk(microwave)</text>
</g>
<!-- de8a49d5&#45;c492&#45;4d52&#45;87bf&#45;0893a0bf5f42&#45;&gt;d56253e4&#45;9a88&#45;409c&#45;b125&#45;9876792d0df4 -->
<g id="edge15" class="edge">
<title>de8a49d5&#45;c492&#45;4d52&#45;87bf&#45;0893a0bf5f42&#45;&gt;d56253e4&#45;9a88&#45;409c&#45;b125&#45;9876792d0df4</title>
<path fill="none" stroke="black" d="M495.51,-156.52C503.14,-146.89 513.46,-133.87 522.46,-122.51"/>
<polygon fill="black" stroke="black" points="525.26,-124.6 528.73,-114.59 519.78,-120.26 525.26,-124.6"/>
</g>
<!-- 7c6f6618&#45;1f58&#45;4537&#45;9028&#45;34fd90626d1a -->
<g id="node14" class="node">
<title>7c6f6618&#45;1f58&#45;4537&#45;9028&#45;34fd90626d1a</title>
<ellipse fill="#ffff80" stroke="black" cx="314.33" cy="-21.21" rx="121.74" ry="21.43"/>
<text text-anchor="middle" x="314.33" y="-16.21" font-family="Times,serif" font-size="20.00">IsNear(microwave)</text>
</g>
<!-- 7f12c932&#45;b02a&#45;4e82&#45;9510&#45;09c1e034d1f9&#45;&gt;7c6f6618&#45;1f58&#45;4537&#45;9028&#45;34fd90626d1a -->
<g id="edge13" class="edge">
<title>7f12c932&#45;b02a&#45;4e82&#45;9510&#45;09c1e034d1f9&#45;&gt;7c6f6618&#45;1f58&#45;4537&#45;9028&#45;34fd90626d1a</title>
<path fill="none" stroke="black" d="M406.75,-83.17C392.11,-73.52 371.2,-59.73 352.97,-47.7"/>
<polygon fill="black" stroke="black" points="354.55,-44.55 344.28,-41.97 350.7,-50.39 354.55,-44.55"/>
</g>
<!-- f46f7841&#45;1784&#45;4c11&#45;882c&#45;d6556ed4cb2a -->
<g id="node15" class="node">
<title>f46f7841&#45;1784&#45;4c11&#45;882c&#45;d6556ed4cb2a</title>
<polygon fill="lightgreen" stroke="black" points="618.33,-39.21 454.33,-39.21 454.33,-3.21 618.33,-3.21 618.33,-39.21"/>
<text text-anchor="middle" x="536.33" y="-16.21" font-family="Times,serif" font-size="20.00">Close(microwave)</text>
</g>
<!-- 7f12c932&#45;b02a&#45;4e82&#45;9510&#45;09c1e034d1f9&#45;&gt;f46f7841&#45;1784&#45;4c11&#45;882c&#45;d6556ed4cb2a -->
<g id="edge14" class="edge">
<title>7f12c932&#45;b02a&#45;4e82&#45;9510&#45;09c1e034d1f9&#45;&gt;f46f7841&#45;1784&#45;4c11&#45;882c&#45;d6556ed4cb2a</title>
<path fill="none" stroke="black" d="M443.91,-83.17C459.64,-72.79 482.62,-57.64 501.73,-45.03"/>
<polygon fill="black" stroke="black" points="503.78,-47.87 510.2,-39.45 499.93,-42.03 503.78,-47.87"/>
</g>
<!-- 0dceab2b&#45;a9ed&#45;4746&#45;8abd&#45;b438f2e2a234 -->
<g id="node18" class="node">
<title>0dceab2b&#45;a9ed&#45;4746&#45;8abd&#45;b438f2e2a234</title>
<ellipse fill="#ffff80" stroke="black" cx="638.33" cy="-171.64" rx="118.17" ry="21.43"/>
<text text-anchor="middle" x="638.33" y="-166.64" font-family="Times,serif" font-size="20.00">IsNear(yard_table)</text>
</g>
<!-- 5766b1e8&#45;ae98&#45;47e4&#45;9c7a&#45;9e3dac542b2f&#45;&gt;0dceab2b&#45;a9ed&#45;4746&#45;8abd&#45;b438f2e2a234 -->
<g id="edge17" class="edge">
<title>5766b1e8&#45;ae98&#45;47e4&#45;9c7a&#45;9e3dac542b2f&#45;&gt;0dceab2b&#45;a9ed&#45;4746&#45;8abd&#45;b438f2e2a234</title>
<path fill="none" stroke="black" d="M738.74,-237.12C722.38,-226.62 698.02,-210.98 677.4,-197.73"/>
<polygon fill="black" stroke="black" points="679.13,-194.68 668.82,-192.22 675.34,-200.57 679.13,-194.68"/>
</g>
<!-- 34ee04d2&#45;5e97&#45;41cc&#45;8810&#45;08aedb03a3ba -->
<g id="node19" class="node">
<title>34ee04d2&#45;5e97&#45;41cc&#45;8810&#45;08aedb03a3ba</title>
<ellipse fill="#ffff80" stroke="black" cx="877.33" cy="-171.64" rx="102.56" ry="21.43"/>
<text text-anchor="middle" x="877.33" y="-166.64" font-family="Times,serif" font-size="20.00">IsHolding(cake)</text>
</g>
<!-- 5766b1e8&#45;ae98&#45;47e4&#45;9c7a&#45;9e3dac542b2f&#45;&gt;34ee04d2&#45;5e97&#45;41cc&#45;8810&#45;08aedb03a3ba -->
<g id="edge18" class="edge">
<title>5766b1e8&#45;ae98&#45;47e4&#45;9c7a&#45;9e3dac542b2f&#45;&gt;34ee04d2&#45;5e97&#45;41cc&#45;8810&#45;08aedb03a3ba</title>
<path fill="none" stroke="black" d="M775.75,-234.9C778.59,-232.83 781.51,-230.75 784.33,-228.85 800.56,-217.91 818.92,-206.6 835.01,-197.02"/>
<polygon fill="black" stroke="black" points="836.86,-199.99 843.69,-191.89 833.3,-193.97 836.86,-199.99"/>
</g>
<!-- 36d7c87f&#45;af3c&#45;4a6c&#45;b768&#45;0f13ee4d0e53 -->
<g id="node20" class="node">
<title>36d7c87f&#45;af3c&#45;4a6c&#45;b768&#45;0f13ee4d0e53</title>
<polygon fill="lightgreen" stroke="black" points="1196.83,-189.64 997.83,-189.64 997.83,-153.64 1196.83,-153.64 1196.83,-189.64"/>
<text text-anchor="middle" x="1097.33" y="-166.64" font-family="Times,serif" font-size="20.00">Place(cake,yard_table)</text>
</g>
<!-- 5766b1e8&#45;ae98&#45;47e4&#45;9c7a&#45;9e3dac542b2f&#45;&gt;36d7c87f&#45;af3c&#45;4a6c&#45;b768&#45;0f13ee4d0e53 -->
<g id="edge19" class="edge">
<title>5766b1e8&#45;ae98&#45;47e4&#45;9c7a&#45;9e3dac542b2f&#45;&gt;36d7c87f&#45;af3c&#45;4a6c&#45;b768&#45;0f13ee4d0e53</title>
<path fill="none" stroke="black" d="M773.71,-234.93C777.06,-232.6 780.67,-230.43 784.33,-228.85 869.23,-192.13 898.31,-209.36 989.33,-192.85 991.83,-192.4 994.37,-191.94 996.93,-191.47"/>
<polygon fill="black" stroke="black" points="997.68,-194.89 1006.89,-189.64 996.42,-188 997.68,-194.89"/>
</g>
<!-- 4a6e6f0a&#45;33ca&#45;46f2&#45;b88a&#45;14141442e556 -->
<g id="node22" class="node">
<title>4a6e6f0a&#45;33ca&#45;46f2&#45;b88a&#45;14141442e556</title>
<ellipse fill="#ffff80" stroke="black" cx="896.33" cy="-250.07" rx="102.56" ry="21.43"/>
<text text-anchor="middle" x="896.33" y="-245.07" font-family="Times,serif" font-size="20.00">IsHolding(cake)</text>
</g>
<!-- 85c8baa6&#45;c417&#45;4fbc&#45;bc46&#45;c9c497f8794c&#45;&gt;4a6e6f0a&#45;33ca&#45;46f2&#45;b88a&#45;14141442e556 -->
<g id="edge21" class="edge">
<title>85c8baa6&#45;c417&#45;4fbc&#45;bc46&#45;c9c497f8794c&#45;&gt;4a6e6f0a&#45;33ca&#45;46f2&#45;b88a&#45;14141442e556</title>
<path fill="none" stroke="black" d="M1010.56,-313.94C992.27,-303.88 963.81,-288.21 939.87,-275.03"/>
<polygon fill="black" stroke="black" points="941.4,-271.88 930.95,-270.12 938.02,-278.01 941.4,-271.88"/>
</g>
<!-- 2615f1c9&#45;c64b&#45;4415&#45;9cdf&#45;72ae0f8b316c -->
<g id="node23" class="node">
<title>2615f1c9&#45;c64b&#45;4415&#45;9cdf&#45;72ae0f8b316c</title>
<polygon fill="lightgreen" stroke="black" points="1171.83,-268.07 1016.83,-268.07 1016.83,-232.07 1171.83,-232.07 1171.83,-268.07"/>
<text text-anchor="middle" x="1094.33" y="-245.07" font-family="Times,serif" font-size="20.00">Walk(yard_table)</text>
</g>
<!-- 85c8baa6&#45;c417&#45;4fbc&#45;bc46&#45;c9c497f8794c&#45;&gt;2615f1c9&#45;c64b&#45;4415&#45;9cdf&#45;72ae0f8b316c -->
<g id="edge22" class="edge">
<title>85c8baa6&#45;c417&#45;4fbc&#45;bc46&#45;c9c497f8794c&#45;&gt;2615f1c9&#45;c64b&#45;4415&#45;9cdf&#45;72ae0f8b316c</title>
<path fill="none" stroke="black" d="M1041.86,-310.16C1050.49,-300.44 1062.2,-287.26 1072.36,-275.81"/>
<polygon fill="black" stroke="black" points="1075.07,-278.03 1079.09,-268.23 1069.83,-273.39 1075.07,-278.03"/>
</g>
<!-- 0a8b1726&#45;38a7&#45;47cc&#45;bef7&#45;f30430e929e5 -->
<g id="node25" class="node">
<title>0a8b1726&#45;38a7&#45;47cc&#45;bef7&#45;f30430e929e5</title>
<ellipse fill="#ffff80" stroke="black" cx="1168.33" cy="-400.49" rx="102.56" ry="21.43"/>
<text text-anchor="middle" x="1168.33" y="-395.49" font-family="Times,serif" font-size="20.00">IsHolding(cake)</text>
</g>
<!-- 45f1c7e6&#45;7264&#45;444c&#45;b4aa&#45;5da0b371befe&#45;&gt;0a8b1726&#45;38a7&#45;47cc&#45;bef7&#45;f30430e929e5 -->
<g id="edge24" class="edge">
<title>45f1c7e6&#45;7264&#45;444c&#45;b4aa&#45;5da0b371befe&#45;&gt;0a8b1726&#45;38a7&#45;47cc&#45;bef7&#45;f30430e929e5</title>
<path fill="none" stroke="black" d="M1168.33,-457.5C1168.33,-450.12 1168.33,-440.82 1168.33,-431.92"/>
<polygon fill="black" stroke="black" points="1171.83,-431.8 1168.33,-421.8 1164.83,-431.8 1171.83,-431.8"/>
</g>
<!-- 42d1b85d&#45;f17c&#45;4f0b&#45;a5f0&#45;4f7092edfeab -->
<g id="node26" class="node">
<title>42d1b85d&#45;f17c&#45;4f0b&#45;a5f0&#45;4f7092edfeab</title>
<polygon fill="#b0ffff" stroke="black" points="1325.33,-415.49 1289.33,-415.49 1289.33,-385.49 1325.33,-385.49 1325.33,-415.49"/>
<text text-anchor="middle" x="1307.33" y="-395.49" font-family="Times,serif" font-size="20.00"> ? </text>
</g>
<!-- 45f1c7e6&#45;7264&#45;444c&#45;b4aa&#45;5da0b371befe&#45;&gt;42d1b85d&#45;f17c&#45;4f0b&#45;a5f0&#45;4f7092edfeab -->
<g id="edge25" class="edge">
<title>45f1c7e6&#45;7264&#45;444c&#45;b4aa&#45;5da0b371befe&#45;&gt;42d1b85d&#45;f17c&#45;4f0b&#45;a5f0&#45;4f7092edfeab</title>
<path fill="none" stroke="black" d="M1187.19,-464.78C1209.97,-456.08 1249.12,-440.05 1280.33,-421.71 1280.62,-421.53 1280.92,-421.36 1281.21,-421.18"/>
<polygon fill="black" stroke="black" points="1283.3,-423.99 1289.71,-415.55 1279.44,-418.16 1283.3,-423.99"/>
</g>
<!-- 443ca1a3&#45;27f6&#45;4e6b&#45;b9cc&#45;fc18033500e1 -->
<g id="node27" class="node">
<title>443ca1a3&#45;27f6&#45;4e6b&#45;b9cc&#45;fc18033500e1</title>
<polygon fill="#ff8080" stroke="black" points="1315.83,-340.28 1278.83,-340.28 1278.83,-310.28 1315.83,-310.28 1315.83,-340.28"/>
<text text-anchor="middle" x="1297.33" y="-320.28" font-family="Times,serif" font-size="20.00">→</text>
</g>
<!-- 42d1b85d&#45;f17c&#45;4f0b&#45;a5f0&#45;4f7092edfeab&#45;&gt;443ca1a3&#45;27f6&#45;4e6b&#45;b9cc&#45;fc18033500e1 -->
<g id="edge26" class="edge">
<title>42d1b85d&#45;f17c&#45;4f0b&#45;a5f0&#45;4f7092edfeab&#45;&gt;443ca1a3&#45;27f6&#45;4e6b&#45;b9cc&#45;fc18033500e1</title>
<path fill="none" stroke="black" d="M1305.4,-385.38C1304.05,-375.45 1302.2,-361.92 1300.61,-350.31"/>
<polygon fill="black" stroke="black" points="1304.07,-349.79 1299.25,-340.35 1297.14,-350.73 1304.07,-349.79"/>
</g>
<!-- daf86361&#45;67ab&#45;434a&#45;88bb&#45;4a7f8592e377 -->
<g id="node30" class="node">
<title>daf86361&#45;67ab&#45;434a&#45;88bb&#45;4a7f8592e377</title>
<polygon fill="lightgreen" stroke="black" points="1444.33,-343.28 1334.33,-343.28 1334.33,-307.28 1444.33,-307.28 1444.33,-343.28"/>
<text text-anchor="middle" x="1389.33" y="-320.28" font-family="Times,serif" font-size="20.00">Walk(oven)</text>
</g>
<!-- 42d1b85d&#45;f17c&#45;4f0b&#45;a5f0&#45;4f7092edfeab&#45;&gt;daf86361&#45;67ab&#45;434a&#45;88bb&#45;4a7f8592e377 -->
<g id="edge29" class="edge">
<title>42d1b85d&#45;f17c&#45;4f0b&#45;a5f0&#45;4f7092edfeab&#45;&gt;daf86361&#45;67ab&#45;434a&#45;88bb&#45;4a7f8592e377</title>
<path fill="none" stroke="black" d="M1323.14,-385.38C1334.24,-375.47 1349.36,-361.97 1362.35,-350.37"/>
<polygon fill="black" stroke="black" points="1364.98,-352.72 1370.1,-343.44 1360.31,-347.49 1364.98,-352.72"/>
</g>
<!-- dd5a747b&#45;7eef&#45;437b&#45;8a6b&#45;dab7a610a7f6 -->
<g id="node28" class="node">
<title>dd5a747b&#45;7eef&#45;437b&#45;8a6b&#45;dab7a610a7f6</title>
<ellipse fill="#ffff80" stroke="black" cx="1276.33" cy="-250.07" rx="86.03" ry="21.43"/>
<text text-anchor="middle" x="1276.33" y="-245.07" font-family="Times,serif" font-size="20.00">IsNear(oven)</text>
</g>
<!-- 443ca1a3&#45;27f6&#45;4e6b&#45;b9cc&#45;fc18033500e1&#45;&gt;dd5a747b&#45;7eef&#45;437b&#45;8a6b&#45;dab7a610a7f6 -->
<g id="edge27" class="edge">
<title>443ca1a3&#45;27f6&#45;4e6b&#45;b9cc&#45;fc18033500e1&#45;&gt;dd5a747b&#45;7eef&#45;437b&#45;8a6b&#45;dab7a610a7f6</title>
<path fill="none" stroke="black" d="M1293.28,-310.16C1290.92,-301.94 1287.85,-291.23 1284.97,-281.2"/>
<polygon fill="black" stroke="black" points="1288.31,-280.16 1282.19,-271.51 1281.59,-282.09 1288.31,-280.16"/>
</g>
<!-- 95afa2b5&#45;c124&#45;4a50&#45;8128&#45;bea8f2ffeb54 -->
<g id="node29" class="node">
<title>95afa2b5&#45;c124&#45;4a50&#45;8128&#45;bea8f2ffeb54</title>
<polygon fill="lightgreen" stroke="black" points="1526.33,-268.07 1380.33,-268.07 1380.33,-232.07 1526.33,-232.07 1526.33,-268.07"/>
<text text-anchor="middle" x="1453.33" y="-245.07" font-family="Times,serif" font-size="20.00">ToggleOn(oven)</text>
</g>
<!-- 443ca1a3&#45;27f6&#45;4e6b&#45;b9cc&#45;fc18033500e1&#45;&gt;95afa2b5&#45;c124&#45;4a50&#45;8128&#45;bea8f2ffeb54 -->
<g id="edge28" class="edge">
<title>443ca1a3&#45;27f6&#45;4e6b&#45;b9cc&#45;fc18033500e1&#45;&gt;95afa2b5&#45;c124&#45;4a50&#45;8128&#45;bea8f2ffeb54</title>
<path fill="none" stroke="black" d="M1316.11,-312.41C1319.16,-310.62 1322.3,-308.85 1325.33,-307.28 1349.74,-294.58 1377.64,-282.1 1401.14,-272.14"/>
<polygon fill="black" stroke="black" points="1402.72,-275.27 1410.59,-268.17 1400.01,-268.82 1402.72,-275.27"/>
</g>
<!-- 611c48a6&#45;5977&#45;4157&#45;80a1&#45;59c617ce91ff -->
<g id="node32" class="node">
<title>611c48a6&#45;5977&#45;4157&#45;80a1&#45;59c617ce91ff</title>
<ellipse fill="#ffff80" stroke="black" cx="1483.33" cy="-400.49" rx="98.99" ry="21.43"/>
<text text-anchor="middle" x="1483.33" y="-395.49" font-family="Times,serif" font-size="20.00">IsHandEmpty()</text>
</g>
<!-- 2963e7a9&#45;e6df&#45;4f4d&#45;9d16&#45;66b717b49bd4&#45;&gt;611c48a6&#45;5977&#45;4157&#45;80a1&#45;59c617ce91ff -->
<g id="edge31" class="edge">
<title>2963e7a9&#45;e6df&#45;4f4d&#45;9d16&#45;66b717b49bd4&#45;&gt;611c48a6&#45;5977&#45;4157&#45;80a1&#45;59c617ce91ff</title>
<path fill="none" stroke="black" d="M1483.33,-457.5C1483.33,-450.12 1483.33,-440.82 1483.33,-431.92"/>
<polygon fill="black" stroke="black" points="1486.83,-431.8 1483.33,-421.8 1479.83,-431.8 1486.83,-431.8"/>
</g>
<!-- 36837052&#45;59ae&#45;44a4&#45;aad7&#45;eef0377ce504 -->
<g id="node33" class="node">
<title>36837052&#45;59ae&#45;44a4&#45;aad7&#45;eef0377ce504</title>
<polygon fill="#b0ffff" stroke="black" points="1647.33,-415.49 1611.33,-415.49 1611.33,-385.49 1647.33,-385.49 1647.33,-415.49"/>
<text text-anchor="middle" x="1629.33" y="-395.49" font-family="Times,serif" font-size="20.00"> ? </text>
</g>
<!-- 2963e7a9&#45;e6df&#45;4f4d&#45;9d16&#45;66b717b49bd4&#45;&gt;36837052&#45;59ae&#45;44a4&#45;aad7&#45;eef0377ce504 -->
<g id="edge32" class="edge">
<title>2963e7a9&#45;e6df&#45;4f4d&#45;9d16&#45;66b717b49bd4&#45;&gt;36837052&#45;59ae&#45;44a4&#45;aad7&#45;eef0377ce504</title>
<path fill="none" stroke="black" d="M1502.21,-463.35C1523.88,-453.66 1560.43,-437.06 1591.33,-421.71 1594.92,-419.92 1598.67,-418 1602.35,-416.08"/>
<polygon fill="black" stroke="black" points="1604.06,-419.13 1611.27,-411.36 1600.79,-412.94 1604.06,-419.13"/>
</g>
<!-- 41abdf0f&#45;83d9&#45;4183&#45;92d6&#45;b9f56e9aad22 -->
<g id="node34" class="node">
<title>41abdf0f&#45;83d9&#45;4183&#45;92d6&#45;b9f56e9aad22</title>
<polygon fill="#ff8080" stroke="black" points="1647.83,-340.28 1610.83,-340.28 1610.83,-310.28 1647.83,-310.28 1647.83,-340.28"/>
<text text-anchor="middle" x="1629.33" y="-320.28" font-family="Times,serif" font-size="20.00">→</text>
</g>
<!-- 36837052&#45;59ae&#45;44a4&#45;aad7&#45;eef0377ce504&#45;&gt;41abdf0f&#45;83d9&#45;4183&#45;92d6&#45;b9f56e9aad22 -->
<g id="edge33" class="edge">
<title>36837052&#45;59ae&#45;44a4&#45;aad7&#45;eef0377ce504&#45;&gt;41abdf0f&#45;83d9&#45;4183&#45;92d6&#45;b9f56e9aad22</title>
<path fill="none" stroke="black" d="M1629.33,-385.38C1629.33,-375.55 1629.33,-362.2 1629.33,-350.67"/>
<polygon fill="black" stroke="black" points="1632.83,-350.35 1629.33,-340.35 1625.83,-350.35 1632.83,-350.35"/>
</g>
<!-- a31ce14d&#45;6718&#45;46a7&#45;ae15&#45;0940d9bd3f5e -->
<g id="node37" class="node">
<title>a31ce14d&#45;6718&#45;46a7&#45;ae15&#45;0940d9bd3f5e</title>
<polygon fill="lightgreen" stroke="black" points="1774.33,-343.28 1666.33,-343.28 1666.33,-307.28 1774.33,-307.28 1774.33,-343.28"/>
<text text-anchor="middle" x="1720.33" y="-320.28" font-family="Times,serif" font-size="20.00">Walk(cake)</text>
</g>
<!-- 36837052&#45;59ae&#45;44a4&#45;aad7&#45;eef0377ce504&#45;&gt;a31ce14d&#45;6718&#45;46a7&#45;ae15&#45;0940d9bd3f5e -->
<g id="edge36" class="edge">
<title>36837052&#45;59ae&#45;44a4&#45;aad7&#45;eef0377ce504&#45;&gt;a31ce14d&#45;6718&#45;46a7&#45;ae15&#45;0940d9bd3f5e</title>
<path fill="none" stroke="black" d="M1646.88,-385.38C1659.43,-375.28 1676.61,-361.45 1691.2,-349.71"/>
<polygon fill="black" stroke="black" points="1693.4,-352.44 1698.99,-343.44 1689.01,-346.99 1693.4,-352.44"/>
</g>
<!-- beced827&#45;d2a3&#45;4eb8&#45;a0dd&#45;88d1d41afefe -->
<g id="node35" class="node">
<title>beced827&#45;d2a3&#45;4eb8&#45;a0dd&#45;88d1d41afefe</title>
<ellipse fill="#ffff80" stroke="black" cx="1629.33" cy="-250.07" rx="84.71" ry="21.43"/>
<text text-anchor="middle" x="1629.33" y="-245.07" font-family="Times,serif" font-size="20.00">IsNear(cake)</text>
</g>
<!-- 41abdf0f&#45;83d9&#45;4183&#45;92d6&#45;b9f56e9aad22&#45;&gt;beced827&#45;d2a3&#45;4eb8&#45;a0dd&#45;88d1d41afefe -->
<g id="edge34" class="edge">
<title>41abdf0f&#45;83d9&#45;4183&#45;92d6&#45;b9f56e9aad22&#45;&gt;beced827&#45;d2a3&#45;4eb8&#45;a0dd&#45;88d1d41afefe</title>
<path fill="none" stroke="black" d="M1629.33,-310.16C1629.33,-302.02 1629.33,-291.46 1629.33,-281.51"/>
<polygon fill="black" stroke="black" points="1632.83,-281.51 1629.33,-271.51 1625.83,-281.51 1632.83,-281.51"/>
</g>
<!-- e17891de&#45;c836&#45;4b14&#45;83f9&#45;5ea2a55b07ad -->
<g id="node36" class="node">
<title>e17891de&#45;c836&#45;4b14&#45;83f9&#45;5ea2a55b07ad</title>
<polygon fill="lightgreen" stroke="black" points="1846.33,-268.07 1732.33,-268.07 1732.33,-232.07 1846.33,-232.07 1846.33,-268.07"/>
<text text-anchor="middle" x="1789.33" y="-245.07" font-family="Times,serif" font-size="20.00">Grasp(cake)</text>
</g>
<!-- 41abdf0f&#45;83d9&#45;4183&#45;92d6&#45;b9f56e9aad22&#45;&gt;e17891de&#45;c836&#45;4b14&#45;83f9&#45;5ea2a55b07ad -->
<g id="edge35" class="edge">
<title>41abdf0f&#45;83d9&#45;4183&#45;92d6&#45;b9f56e9aad22&#45;&gt;e17891de&#45;c836&#45;4b14&#45;83f9&#45;5ea2a55b07ad</title>
<path fill="none" stroke="black" d="M1648.1,-312.38C1651.14,-310.6 1654.29,-308.84 1657.33,-307.28 1682.47,-294.38 1711.25,-281.87 1735.51,-271.95"/>
<polygon fill="black" stroke="black" points="1736.95,-275.13 1744.91,-268.13 1734.32,-268.65 1736.95,-275.13"/>
</g>
</g>
</svg>
