<?xml version="1.0" encoding="UTF-8" standalone="no"?>
<!DOCTYPE svg PUBLIC "-//W3C//DTD SVG 1.1//EN"
 "http://www.w3.org/Graphics/SVG/1.1/DTD/svg11.dtd">
<!-- Generated by graphviz version 2.43.0 (0)
 -->
<!-- Title: pastafarianism Pages: 1 -->
<svg width="2050pt" height="1014pt"
 viewBox="0.00 0.00 2050.12 1013.84" xmlns="http://www.w3.org/2000/svg" xmlns:xlink="http://www.w3.org/1999/xlink">
<g id="graph0" class="graph" transform="scale(1 1) rotate(0) translate(4 1009.84)">
<title>pastafarianism</title>
<polygon fill="white" stroke="transparent" points="-4,4 -4,-1009.84 2046.12,-1009.84 2046.12,4 -4,4"/>
<!-- a2bab5eb&#45;3023&#45;418d&#45;a969&#45;94f37f1a3384 -->
<g id="node1" class="node">
<title>a2bab5eb&#45;3023&#45;418d&#45;a969&#45;94f37f1a3384</title>
<polygon fill="#b0ffff" stroke="black" points="1250.62,-1005.84 1214.62,-1005.84 1214.62,-975.84 1250.62,-975.84 1250.62,-1005.84"/>
<text text-anchor="middle" x="1232.62" y="-985.84" font-family="Times,serif" font-size="20.00"> ? </text>
</g>
<!-- 713636f4&#45;ff2a&#45;43ae&#45;85d9&#45;1f7183fae48c -->
<g id="node2" class="node">
<title>713636f4&#45;ff2a&#45;43ae&#45;85d9&#45;1f7183fae48c</title>
<polygon fill="#ff8080" stroke="black" points="1107.12,-939.84 1070.12,-939.84 1070.12,-909.84 1107.12,-909.84 1107.12,-939.84"/>
<text text-anchor="middle" x="1088.62" y="-919.84" font-family="Times,serif" font-size="20.00">→</text>
</g>
<!-- a2bab5eb&#45;3023&#45;418d&#45;a969&#45;94f37f1a3384&#45;&gt;713636f4&#45;ff2a&#45;43ae&#45;85d9&#45;1f7183fae48c -->
<g id="edge1" class="edge">
<title>a2bab5eb&#45;3023&#45;418d&#45;a969&#45;94f37f1a3384&#45;&gt;713636f4&#45;ff2a&#45;43ae&#45;85d9&#45;1f7183fae48c</title>
<path fill="none" stroke="black" d="M1214.38,-981.73C1189.63,-970.73 1145.19,-950.98 1116.31,-938.14"/>
<polygon fill="black" stroke="black" points="1117.73,-934.94 1107.17,-934.08 1114.88,-941.34 1117.73,-934.94"/>
</g>
<!-- 1b252770&#45;267d&#45;4b94&#45;bf85&#45;15c9a2eebea0 -->
<g id="node6" class="node">
<title>1b252770&#45;267d&#45;4b94&#45;bf85&#45;15c9a2eebea0</title>
<polygon fill="#ff8080" stroke="black" points="1523.12,-939.84 1486.12,-939.84 1486.12,-909.84 1523.12,-909.84 1523.12,-939.84"/>
<text text-anchor="middle" x="1504.62" y="-919.84" font-family="Times,serif" font-size="20.00">→</text>
</g>
<!-- a2bab5eb&#45;3023&#45;418d&#45;a969&#45;94f37f1a3384&#45;&gt;1b252770&#45;267d&#45;4b94&#45;bf85&#45;15c9a2eebea0 -->
<g id="edge5" class="edge">
<title>a2bab5eb&#45;3023&#45;418d&#45;a969&#45;94f37f1a3384&#45;&gt;1b252770&#45;267d&#45;4b94&#45;bf85&#45;15c9a2eebea0</title>
<path fill="none" stroke="black" d="M1250.89,-985.54C1297.33,-974.61 1420.17,-945.71 1476.13,-932.54"/>
<polygon fill="black" stroke="black" points="1477.14,-935.9 1486.07,-930.2 1475.54,-929.09 1477.14,-935.9"/>
</g>
<!-- 4b8f420a&#45;c858&#45;4fe6&#45;bff3&#45;6cd7b2079bf6 -->
<g id="node3" class="node">
<title>4b8f420a&#45;c858&#45;4fe6&#45;bff3&#45;6cd7b2079bf6</title>
<ellipse fill="#ffff80" stroke="black" cx="714.62" cy="-852.62" rx="124.4" ry="21.43"/>
<text text-anchor="middle" x="714.62" y="-847.62" font-family="Times,serif" font-size="20.00">On(pen,coffeetable)</text>
</g>
<!-- 713636f4&#45;ff2a&#45;43ae&#45;85d9&#45;1f7183fae48c&#45;&gt;4b8f420a&#45;c858&#45;4fe6&#45;bff3&#45;6cd7b2079bf6 -->
<g id="edge2" class="edge">
<title>713636f4&#45;ff2a&#45;43ae&#45;85d9&#45;1f7183fae48c&#45;&gt;4b8f420a&#45;c858&#45;4fe6&#45;bff3&#45;6cd7b2079bf6</title>
<path fill="none" stroke="black" d="M1070.08,-920.36C1022.6,-911.44 894.19,-887.34 805.46,-870.68"/>
<polygon fill="black" stroke="black" points="805.86,-867.19 795.39,-868.79 804.57,-874.07 805.86,-867.19"/>
</g>
<!-- a81c617f&#45;c266&#45;4fab&#45;b197&#45;af35d153d74c -->
<g id="node4" class="node">
<title>a81c617f&#45;c266&#45;4fab&#45;b197&#45;af35d153d74c</title>
<ellipse fill="#ffff80" stroke="black" cx="960.62" cy="-852.62" rx="103.48" ry="21.43"/>
<text text-anchor="middle" x="960.62" y="-847.62" font-family="Times,serif" font-size="20.00">IsClose(cabinet)</text>
</g>
<!-- 713636f4&#45;ff2a&#45;43ae&#45;85d9&#45;1f7183fae48c&#45;&gt;a81c617f&#45;c266&#45;4fab&#45;b197&#45;af35d153d74c -->
<g id="edge3" class="edge">
<title>713636f4&#45;ff2a&#45;43ae&#45;85d9&#45;1f7183fae48c&#45;&gt;a81c617f&#45;c266&#45;4fab&#45;b197&#45;af35d153d74c</title>
<path fill="none" stroke="black" d="M1070.01,-913.63C1052.89,-904.23 1026.83,-889.94 1004.44,-877.66"/>
<polygon fill="black" stroke="black" points="1005.88,-874.46 995.43,-872.72 1002.52,-880.6 1005.88,-874.46"/>
</g>
<!-- 8ae61d0b&#45;97b5&#45;4299&#45;9018&#45;00ebaefcbc65 -->
<g id="node5" class="node">
<title>8ae61d0b&#45;97b5&#45;4299&#45;9018&#45;00ebaefcbc65</title>
<ellipse fill="#ffff80" stroke="black" cx="1216.62" cy="-852.62" rx="135.11" ry="21.43"/>
<text text-anchor="middle" x="1216.62" y="-847.62" font-family="Times,serif" font-size="20.00">On(apple,coffeetable)</text>
</g>
<!-- 713636f4&#45;ff2a&#45;43ae&#45;85d9&#45;1f7183fae48c&#45;&gt;8ae61d0b&#45;97b5&#45;4299&#45;9018&#45;00ebaefcbc65 -->
<g id="edge4" class="edge">
<title>713636f4&#45;ff2a&#45;43ae&#45;85d9&#45;1f7183fae48c&#45;&gt;8ae61d0b&#45;97b5&#45;4299&#45;9018&#45;00ebaefcbc65</title>
<path fill="none" stroke="black" d="M1107.23,-913.63C1124.18,-904.33 1149.86,-890.25 1172.08,-878.06"/>
<polygon fill="black" stroke="black" points="1173.96,-881.02 1181.04,-873.14 1170.59,-874.88 1173.96,-881.02"/>
</g>
<!-- 35b00d61&#45;8fa6&#45;41f9&#45;bd59&#45;d9cff98ce80a -->
<g id="node7" class="node">
<title>35b00d61&#45;8fa6&#45;41f9&#45;bd59&#45;d9cff98ce80a</title>
<ellipse fill="#ffff80" stroke="black" cx="1504.62" cy="-852.62" rx="135.11" ry="21.43"/>
<text text-anchor="middle" x="1504.62" y="-847.62" font-family="Times,serif" font-size="20.00">On(apple,coffeetable)</text>
</g>
<!-- 1b252770&#45;267d&#45;4b94&#45;bf85&#45;15c9a2eebea0&#45;&gt;35b00d61&#45;8fa6&#45;41f9&#45;bd59&#45;d9cff98ce80a -->
<g id="edge6" class="edge">
<title>1b252770&#45;267d&#45;4b94&#45;bf85&#45;15c9a2eebea0&#45;&gt;35b00d61&#45;8fa6&#45;41f9&#45;bd59&#45;d9cff98ce80a</title>
<path fill="none" stroke="black" d="M1504.62,-909.63C1504.62,-902.26 1504.62,-892.95 1504.62,-884.05"/>
<polygon fill="black" stroke="black" points="1508.12,-883.93 1504.62,-873.93 1501.12,-883.93 1508.12,-883.93"/>
</g>
<!-- 172340b5&#45;3139&#45;4611&#45;9bfc&#45;cda3a84a34f2 -->
<g id="node8" class="node">
<title>172340b5&#45;3139&#45;4611&#45;9bfc&#45;cda3a84a34f2</title>
<polygon fill="#b0ffff" stroke="black" points="1693.62,-867.62 1657.62,-867.62 1657.62,-837.62 1693.62,-837.62 1693.62,-867.62"/>
<text text-anchor="middle" x="1675.62" y="-847.62" font-family="Times,serif" font-size="20.00"> ? </text>
</g>
<!-- 1b252770&#45;267d&#45;4b94&#45;bf85&#45;15c9a2eebea0&#45;&gt;172340b5&#45;3139&#45;4611&#45;9bfc&#45;cda3a84a34f2 -->
<g id="edge7" class="edge">
<title>1b252770&#45;267d&#45;4b94&#45;bf85&#45;15c9a2eebea0&#45;&gt;172340b5&#45;3139&#45;4611&#45;9bfc&#45;cda3a84a34f2</title>
<path fill="none" stroke="black" d="M1523.57,-919.27C1551.85,-912 1606.32,-896.31 1648.62,-873.84 1649.04,-873.62 1649.45,-873.39 1649.86,-873.16"/>
<polygon fill="black" stroke="black" points="1651.87,-876.03 1658.43,-867.71 1648.11,-870.13 1651.87,-876.03"/>
</g>
<!-- 26364bb6&#45;5f4c&#45;4075&#45;809a&#45;f946dddb49e2 -->
<g id="node9" class="node">
<title>26364bb6&#45;5f4c&#45;4075&#45;809a&#45;f946dddb49e2</title>
<polygon fill="#b0ffff" stroke="black" points="1622.62,-795.41 1586.62,-795.41 1586.62,-765.41 1622.62,-765.41 1622.62,-795.41"/>
<text text-anchor="middle" x="1604.62" y="-775.41" font-family="Times,serif" font-size="20.00"> ? </text>
</g>
<!-- 172340b5&#45;3139&#45;4611&#45;9bfc&#45;cda3a84a34f2&#45;&gt;26364bb6&#45;5f4c&#45;4075&#45;809a&#45;f946dddb49e2 -->
<g id="edge8" class="edge">
<title>172340b5&#45;3139&#45;4611&#45;9bfc&#45;cda3a84a34f2&#45;&gt;26364bb6&#45;5f4c&#45;4075&#45;809a&#45;f946dddb49e2</title>
<path fill="none" stroke="black" d="M1661.25,-837.42C1651.25,-827.52 1637.71,-814.14 1626.39,-802.94"/>
<polygon fill="black" stroke="black" points="1628.54,-800.14 1618.97,-795.6 1623.62,-805.12 1628.54,-800.14"/>
</g>
<!-- 3f717d7f&#45;332c&#45;4929&#45;b22e&#45;b5a03d8d56fd -->
<g id="node47" class="node">
<title>3f717d7f&#45;332c&#45;4929&#45;b22e&#45;b5a03d8d56fd</title>
<polygon fill="#ff8080" stroke="black" points="1766.12,-795.41 1729.12,-795.41 1729.12,-765.41 1766.12,-765.41 1766.12,-795.41"/>
<text text-anchor="middle" x="1747.62" y="-775.41" font-family="Times,serif" font-size="20.00">→</text>
</g>
<!-- 172340b5&#45;3139&#45;4611&#45;9bfc&#45;cda3a84a34f2&#45;&gt;3f717d7f&#45;332c&#45;4929&#45;b22e&#45;b5a03d8d56fd -->
<g id="edge46" class="edge">
<title>172340b5&#45;3139&#45;4611&#45;9bfc&#45;cda3a84a34f2&#45;&gt;3f717d7f&#45;332c&#45;4929&#45;b22e&#45;b5a03d8d56fd</title>
<path fill="none" stroke="black" d="M1690.19,-837.42C1700.44,-827.42 1714.33,-813.88 1725.88,-802.61"/>
<polygon fill="black" stroke="black" points="1728.36,-805.09 1733.07,-795.6 1723.47,-800.07 1728.36,-805.09"/>
</g>
<!-- b72355a3&#45;fb0d&#45;476b&#45;83ec&#45;fe6ffdb93782 -->
<g id="node10" class="node">
<title>b72355a3&#45;fb0d&#45;476b&#45;83ec&#45;fe6ffdb93782</title>
<polygon fill="#b0ffff" stroke="black" points="1375.62,-723.2 1339.62,-723.2 1339.62,-693.2 1375.62,-693.2 1375.62,-723.2"/>
<text text-anchor="middle" x="1357.62" y="-703.2" font-family="Times,serif" font-size="20.00"> ? </text>
</g>
<!-- 26364bb6&#45;5f4c&#45;4075&#45;809a&#45;f946dddb49e2&#45;&gt;b72355a3&#45;fb0d&#45;476b&#45;83ec&#45;fe6ffdb93782 -->
<g id="edge9" class="edge">
<title>26364bb6&#45;5f4c&#45;4075&#45;809a&#45;f946dddb49e2&#45;&gt;b72355a3&#45;fb0d&#45;476b&#45;83ec&#45;fe6ffdb93782</title>
<path fill="none" stroke="black" d="M1586.46,-774.25C1543.73,-762.1 1436.59,-731.64 1385.53,-717.13"/>
<polygon fill="black" stroke="black" points="1386.39,-713.74 1375.81,-714.37 1384.47,-720.47 1386.39,-713.74"/>
</g>
<!-- 7e9ea370&#45;ce43&#45;4ff9&#45;ae36&#45;55b608988433 -->
<g id="node43" class="node">
<title>7e9ea370&#45;ce43&#45;4ff9&#45;ae36&#45;55b608988433</title>
<polygon fill="#ff8080" stroke="black" points="1623.12,-723.2 1586.12,-723.2 1586.12,-693.2 1623.12,-693.2 1623.12,-723.2"/>
<text text-anchor="middle" x="1604.62" y="-703.2" font-family="Times,serif" font-size="20.00">→</text>
</g>
<!-- 26364bb6&#45;5f4c&#45;4075&#45;809a&#45;f946dddb49e2&#45;&gt;7e9ea370&#45;ce43&#45;4ff9&#45;ae36&#45;55b608988433 -->
<g id="edge42" class="edge">
<title>26364bb6&#45;5f4c&#45;4075&#45;809a&#45;f946dddb49e2&#45;&gt;7e9ea370&#45;ce43&#45;4ff9&#45;ae36&#45;55b608988433</title>
<path fill="none" stroke="black" d="M1604.62,-765.2C1604.62,-756.16 1604.62,-744.21 1604.62,-733.68"/>
<polygon fill="black" stroke="black" points="1608.12,-733.39 1604.62,-723.39 1601.12,-733.39 1608.12,-733.39"/>
</g>
<!-- 68d801f8&#45;91cb&#45;433a&#45;b4a1&#45;a07371cb0db0 -->
<g id="node11" class="node">
<title>68d801f8&#45;91cb&#45;433a&#45;b4a1&#45;a07371cb0db0</title>
<polygon fill="#ff8080" stroke="black" points="1017.12,-644.77 980.12,-644.77 980.12,-614.77 1017.12,-614.77 1017.12,-644.77"/>
<text text-anchor="middle" x="998.62" y="-624.77" font-family="Times,serif" font-size="20.00">→</text>
</g>
<!-- b72355a3&#45;fb0d&#45;476b&#45;83ec&#45;fe6ffdb93782&#45;&gt;68d801f8&#45;91cb&#45;433a&#45;b4a1&#45;a07371cb0db0 -->
<g id="edge10" class="edge">
<title>b72355a3&#45;fb0d&#45;476b&#45;83ec&#45;fe6ffdb93782&#45;&gt;68d801f8&#45;91cb&#45;433a&#45;b4a1&#45;a07371cb0db0</title>
<path fill="none" stroke="black" d="M1339.33,-703.3C1280.89,-690.86 1098.4,-652.01 1027.34,-636.89"/>
<polygon fill="black" stroke="black" points="1027.82,-633.41 1017.31,-634.75 1026.36,-640.26 1027.82,-633.41"/>
</g>
<!-- e5d49fca&#45;9096&#45;457d&#45;9dfc&#45;fb6ce489870e -->
<g id="node38" class="node">
<title>e5d49fca&#45;9096&#45;457d&#45;9dfc&#45;fb6ce489870e</title>
<polygon fill="#ff8080" stroke="black" points="1376.12,-644.77 1339.12,-644.77 1339.12,-614.77 1376.12,-614.77 1376.12,-644.77"/>
<text text-anchor="middle" x="1357.62" y="-624.77" font-family="Times,serif" font-size="20.00">→</text>
</g>
<!-- b72355a3&#45;fb0d&#45;476b&#45;83ec&#45;fe6ffdb93782&#45;&gt;e5d49fca&#45;9096&#45;457d&#45;9dfc&#45;fb6ce489870e -->
<g id="edge37" class="edge">
<title>b72355a3&#45;fb0d&#45;476b&#45;83ec&#45;fe6ffdb93782&#45;&gt;e5d49fca&#45;9096&#45;457d&#45;9dfc&#45;fb6ce489870e</title>
<path fill="none" stroke="black" d="M1357.62,-693.18C1357.62,-682.58 1357.62,-667.76 1357.62,-655.23"/>
<polygon fill="black" stroke="black" points="1361.12,-654.96 1357.62,-644.96 1354.12,-654.96 1361.12,-654.96"/>
</g>
<!-- 780f0eff&#45;9a36&#45;41a6&#45;97b5&#45;45eedd043a86 -->
<g id="node12" class="node">
<title>780f0eff&#45;9a36&#45;41a6&#45;97b5&#45;45eedd043a86</title>
<ellipse fill="#ffff80" stroke="black" cx="859.62" cy="-551.35" rx="103.48" ry="21.43"/>
<text text-anchor="middle" x="859.62" y="-546.35" font-family="Times,serif" font-size="20.00">IsClose(cabinet)</text>
</g>
<!-- 68d801f8&#45;91cb&#45;433a&#45;b4a1&#45;a07371cb0db0&#45;&gt;780f0eff&#45;9a36&#45;41a6&#45;97b5&#45;45eedd043a86 -->
<g id="edge11" class="edge">
<title>68d801f8&#45;91cb&#45;433a&#45;b4a1&#45;a07371cb0db0&#45;&gt;780f0eff&#45;9a36&#45;41a6&#45;97b5&#45;45eedd043a86</title>
<path fill="none" stroke="black" d="M979.88,-618.46C960.32,-607.71 928.98,-590.48 903.2,-576.3"/>
<polygon fill="black" stroke="black" points="904.78,-573.18 894.34,-571.43 901.41,-579.32 904.78,-573.18"/>
</g>
<!-- ab1c8b6c&#45;cc8a&#45;4e16&#45;96f1&#45;ae83f3f4bfca -->
<g id="node13" class="node">
<title>ab1c8b6c&#45;cc8a&#45;4e16&#45;96f1&#45;ae83f3f4bfca</title>
<polygon fill="#b0ffff" stroke="black" points="1016.62,-566.35 980.62,-566.35 980.62,-536.35 1016.62,-536.35 1016.62,-566.35"/>
<text text-anchor="middle" x="998.62" y="-546.35" font-family="Times,serif" font-size="20.00"> ? </text>
</g>
<!-- 68d801f8&#45;91cb&#45;433a&#45;b4a1&#45;a07371cb0db0&#45;&gt;ab1c8b6c&#45;cc8a&#45;4e16&#45;96f1&#45;ae83f3f4bfca -->
<g id="edge12" class="edge">
<title>68d801f8&#45;91cb&#45;433a&#45;b4a1&#45;a07371cb0db0&#45;&gt;ab1c8b6c&#45;cc8a&#45;4e16&#45;96f1&#45;ae83f3f4bfca</title>
<path fill="none" stroke="black" d="M998.62,-614.75C998.62,-604.15 998.62,-589.34 998.62,-576.8"/>
<polygon fill="black" stroke="black" points="1002.12,-576.53 998.62,-566.53 995.12,-576.53 1002.12,-576.53"/>
</g>
<!-- 6e018b79&#45;cd9d&#45;4899&#45;a33e&#45;9e72605373e8 -->
<g id="node14" class="node">
<title>6e018b79&#45;cd9d&#45;4899&#45;a33e&#45;9e72605373e8</title>
<polygon fill="#b0ffff" stroke="black" points="944.62,-494.13 908.62,-494.13 908.62,-464.13 944.62,-464.13 944.62,-494.13"/>
<text text-anchor="middle" x="926.62" y="-474.13" font-family="Times,serif" font-size="20.00"> ? </text>
</g>
<!-- ab1c8b6c&#45;cc8a&#45;4e16&#45;96f1&#45;ae83f3f4bfca&#45;&gt;6e018b79&#45;cd9d&#45;4899&#45;a33e&#45;9e72605373e8 -->
<g id="edge13" class="edge">
<title>ab1c8b6c&#45;cc8a&#45;4e16&#45;96f1&#45;ae83f3f4bfca&#45;&gt;6e018b79&#45;cd9d&#45;4899&#45;a33e&#45;9e72605373e8</title>
<path fill="none" stroke="black" d="M984.05,-536.14C973.81,-526.14 959.92,-512.6 948.36,-501.33"/>
<polygon fill="black" stroke="black" points="950.77,-498.8 941.17,-494.32 945.89,-503.81 950.77,-498.8"/>
</g>
<!-- c78666f6&#45;b520&#45;4d09&#45;ab87&#45;98bd852423d5 -->
<g id="node35" class="node">
<title>c78666f6&#45;b520&#45;4d09&#45;ab87&#45;98bd852423d5</title>
<polygon fill="#ff8080" stroke="black" points="1088.12,-494.13 1051.12,-494.13 1051.12,-464.13 1088.12,-464.13 1088.12,-494.13"/>
<text text-anchor="middle" x="1069.62" y="-474.13" font-family="Times,serif" font-size="20.00">→</text>
</g>
<!-- ab1c8b6c&#45;cc8a&#45;4e16&#45;96f1&#45;ae83f3f4bfca&#45;&gt;c78666f6&#45;b520&#45;4d09&#45;ab87&#45;98bd852423d5 -->
<g id="edge34" class="edge">
<title>ab1c8b6c&#45;cc8a&#45;4e16&#45;96f1&#45;ae83f3f4bfca&#45;&gt;c78666f6&#45;b520&#45;4d09&#45;ab87&#45;98bd852423d5</title>
<path fill="none" stroke="black" d="M1012.99,-536.14C1023,-526.24 1036.53,-512.86 1047.86,-501.66"/>
<polygon fill="black" stroke="black" points="1050.63,-503.84 1055.28,-494.32 1045.7,-498.86 1050.63,-503.84"/>
</g>
<!-- 4244ff0d&#45;d9d5&#45;4fb9&#45;99b4&#45;0e23ac0a6634 -->
<g id="node15" class="node">
<title>4244ff0d&#45;d9d5&#45;4fb9&#45;99b4&#45;0e23ac0a6634</title>
<polygon fill="#b0ffff" stroke="black" points="697.62,-421.92 661.62,-421.92 661.62,-391.92 697.62,-391.92 697.62,-421.92"/>
<text text-anchor="middle" x="679.62" y="-401.92" font-family="Times,serif" font-size="20.00"> ? </text>
</g>
<!-- 6e018b79&#45;cd9d&#45;4899&#45;a33e&#45;9e72605373e8&#45;&gt;4244ff0d&#45;d9d5&#45;4fb9&#45;99b4&#45;0e23ac0a6634 -->
<g id="edge14" class="edge">
<title>6e018b79&#45;cd9d&#45;4899&#45;a33e&#45;9e72605373e8&#45;&gt;4244ff0d&#45;d9d5&#45;4fb9&#45;99b4&#45;0e23ac0a6634</title>
<path fill="none" stroke="black" d="M908.46,-472.97C865.73,-460.82 758.59,-430.37 707.53,-415.85"/>
<polygon fill="black" stroke="black" points="708.39,-412.46 697.81,-413.09 706.47,-419.19 708.39,-412.46"/>
</g>
<!-- 0821e83c&#45;8fcd&#45;451a&#45;ac9a&#45;ff9fed0772c3 -->
<g id="node31" class="node">
<title>0821e83c&#45;8fcd&#45;451a&#45;ac9a&#45;ff9fed0772c3</title>
<polygon fill="#ff8080" stroke="black" points="945.12,-421.92 908.12,-421.92 908.12,-391.92 945.12,-391.92 945.12,-421.92"/>
<text text-anchor="middle" x="926.62" y="-401.92" font-family="Times,serif" font-size="20.00">→</text>
</g>
<!-- 6e018b79&#45;cd9d&#45;4899&#45;a33e&#45;9e72605373e8&#45;&gt;0821e83c&#45;8fcd&#45;451a&#45;ac9a&#45;ff9fed0772c3 -->
<g id="edge30" class="edge">
<title>6e018b79&#45;cd9d&#45;4899&#45;a33e&#45;9e72605373e8&#45;&gt;0821e83c&#45;8fcd&#45;451a&#45;ac9a&#45;ff9fed0772c3</title>
<path fill="none" stroke="black" d="M926.62,-463.92C926.62,-454.88 926.62,-442.93 926.62,-432.4"/>
<polygon fill="black" stroke="black" points="930.12,-432.11 926.62,-422.11 923.12,-432.11 930.12,-432.11"/>
</g>
<!-- b2f4f9bd&#45;cf87&#45;4027&#45;a37e&#45;989970818246 -->
<g id="node16" class="node">
<title>b2f4f9bd&#45;cf87&#45;4027&#45;a37e&#45;989970818246</title>
<polygon fill="#b0ffff" stroke="black" points="562.62,-343.49 526.62,-343.49 526.62,-313.49 562.62,-313.49 562.62,-343.49"/>
<text text-anchor="middle" x="544.62" y="-323.49" font-family="Times,serif" font-size="20.00"> ? </text>
</g>
<!-- 4244ff0d&#45;d9d5&#45;4fb9&#45;99b4&#45;0e23ac0a6634&#45;&gt;b2f4f9bd&#45;cf87&#45;4027&#45;a37e&#45;989970818246 -->
<g id="edge15" class="edge">
<title>4244ff0d&#45;d9d5&#45;4fb9&#45;99b4&#45;0e23ac0a6634&#45;&gt;b2f4f9bd&#45;cf87&#45;4027&#45;a37e&#45;989970818246</title>
<path fill="none" stroke="black" d="M661.42,-395.61C638.37,-382.56 598.46,-359.97 571.8,-344.88"/>
<polygon fill="black" stroke="black" points="573.4,-341.76 562.97,-339.88 569.95,-347.85 573.4,-341.76"/>
</g>
<!-- 69e40ea8&#45;21d1&#45;4894&#45;9882&#45;5e38e5533fdd -->
<g id="node28" class="node">
<title>69e40ea8&#45;21d1&#45;4894&#45;9882&#45;5e38e5533fdd</title>
<polygon fill="#ff8080" stroke="black" points="698.12,-343.49 661.12,-343.49 661.12,-313.49 698.12,-313.49 698.12,-343.49"/>
<text text-anchor="middle" x="679.62" y="-323.49" font-family="Times,serif" font-size="20.00">→</text>
</g>
<!-- 4244ff0d&#45;d9d5&#45;4fb9&#45;99b4&#45;0e23ac0a6634&#45;&gt;69e40ea8&#45;21d1&#45;4894&#45;9882&#45;5e38e5533fdd -->
<g id="edge27" class="edge">
<title>4244ff0d&#45;d9d5&#45;4fb9&#45;99b4&#45;0e23ac0a6634&#45;&gt;69e40ea8&#45;21d1&#45;4894&#45;9882&#45;5e38e5533fdd</title>
<path fill="none" stroke="black" d="M679.62,-391.9C679.62,-381.3 679.62,-366.48 679.62,-353.95"/>
<polygon fill="black" stroke="black" points="683.12,-353.68 679.62,-343.68 676.12,-353.68 683.12,-353.68"/>
</g>
<!-- 17fc9f3f&#45;3960&#45;4510&#45;bb0f&#45;82804d64e1e9 -->
<g id="node17" class="node">
<title>17fc9f3f&#45;3960&#45;4510&#45;bb0f&#45;82804d64e1e9</title>
<polygon fill="#ff8080" stroke="black" points="330.12,-265.07 293.12,-265.07 293.12,-235.07 330.12,-235.07 330.12,-265.07"/>
<text text-anchor="middle" x="311.62" y="-245.07" font-family="Times,serif" font-size="20.00">→</text>
</g>
<!-- b2f4f9bd&#45;cf87&#45;4027&#45;a37e&#45;989970818246&#45;&gt;17fc9f3f&#45;3960&#45;4510&#45;bb0f&#45;82804d64e1e9 -->
<g id="edge16" class="edge">
<title>b2f4f9bd&#45;cf87&#45;4027&#45;a37e&#45;989970818246&#45;&gt;17fc9f3f&#45;3960&#45;4510&#45;bb0f&#45;82804d64e1e9</title>
<path fill="none" stroke="black" d="M526.34,-321.5C485.78,-308.19 388.02,-276.13 339.67,-260.27"/>
<polygon fill="black" stroke="black" points="340.74,-256.93 330.14,-257.14 338.55,-263.58 340.74,-256.93"/>
</g>
<!-- 09edd986&#45;9abb&#45;49a9&#45;8c01&#45;8c7d152ea708 -->
<g id="node24" class="node">
<title>09edd986&#45;9abb&#45;49a9&#45;8c01&#45;8c7d152ea708</title>
<polygon fill="#ff8080" stroke="black" points="563.12,-265.07 526.12,-265.07 526.12,-235.07 563.12,-235.07 563.12,-265.07"/>
<text text-anchor="middle" x="544.62" y="-245.07" font-family="Times,serif" font-size="20.00">→</text>
</g>
<!-- b2f4f9bd&#45;cf87&#45;4027&#45;a37e&#45;989970818246&#45;&gt;09edd986&#45;9abb&#45;49a9&#45;8c01&#45;8c7d152ea708 -->
<g id="edge23" class="edge">
<title>b2f4f9bd&#45;cf87&#45;4027&#45;a37e&#45;989970818246&#45;&gt;09edd986&#45;9abb&#45;49a9&#45;8c01&#45;8c7d152ea708</title>
<path fill="none" stroke="black" d="M544.62,-313.47C544.62,-302.88 544.62,-288.06 544.62,-275.52"/>
<polygon fill="black" stroke="black" points="548.12,-275.25 544.62,-265.25 541.12,-275.25 548.12,-275.25"/>
</g>
<!-- 4cade879&#45;84ce&#45;44c4&#45;9cd2&#45;cebe2d67dbc8 -->
<g id="node18" class="node">
<title>4cade879&#45;84ce&#45;44c4&#45;9cd2&#45;cebe2d67dbc8</title>
<ellipse fill="#ffff80" stroke="black" cx="178.62" cy="-171.64" rx="96.75" ry="21.43"/>
<text text-anchor="middle" x="178.62" y="-166.64" font-family="Times,serif" font-size="20.00">IsHolding(pen)</text>
</g>
<!-- 17fc9f3f&#45;3960&#45;4510&#45;bb0f&#45;82804d64e1e9&#45;&gt;4cade879&#45;84ce&#45;44c4&#45;9cd2&#45;cebe2d67dbc8 -->
<g id="edge17" class="edge">
<title>17fc9f3f&#45;3960&#45;4510&#45;bb0f&#45;82804d64e1e9&#45;&gt;4cade879&#45;84ce&#45;44c4&#45;9cd2&#45;cebe2d67dbc8</title>
<path fill="none" stroke="black" d="M292.85,-238.28C274.1,-227.5 244.65,-210.58 220.35,-196.62"/>
<polygon fill="black" stroke="black" points="222.08,-193.57 211.66,-191.63 218.59,-199.64 222.08,-193.57"/>
</g>
<!-- 00094df4&#45;cde1&#45;4aa9&#45;9cdc&#45;ee6e9e2f1fe2 -->
<g id="node19" class="node">
<title>00094df4&#45;cde1&#45;4aa9&#45;9cdc&#45;ee6e9e2f1fe2</title>
<polygon fill="#b0ffff" stroke="black" points="329.62,-186.64 293.62,-186.64 293.62,-156.64 329.62,-156.64 329.62,-186.64"/>
<text text-anchor="middle" x="311.62" y="-166.64" font-family="Times,serif" font-size="20.00"> ? </text>
</g>
<!-- 17fc9f3f&#45;3960&#45;4510&#45;bb0f&#45;82804d64e1e9&#45;&gt;00094df4&#45;cde1&#45;4aa9&#45;9cdc&#45;ee6e9e2f1fe2 -->
<g id="edge18" class="edge">
<title>17fc9f3f&#45;3960&#45;4510&#45;bb0f&#45;82804d64e1e9&#45;&gt;00094df4&#45;cde1&#45;4aa9&#45;9cdc&#45;ee6e9e2f1fe2</title>
<path fill="none" stroke="black" d="M311.62,-235.05C311.62,-224.45 311.62,-209.63 311.62,-197.09"/>
<polygon fill="black" stroke="black" points="315.12,-196.83 311.62,-186.83 308.12,-196.83 315.12,-196.83"/>
</g>
<!-- 3a277b5d&#45;3949&#45;49e7&#45;80e1&#45;ccd953b37e61 -->
<g id="node20" class="node">
<title>3a277b5d&#45;3949&#45;49e7&#45;80e1&#45;ccd953b37e61</title>
<polygon fill="#ff8080" stroke="black" points="265.12,-111.43 228.12,-111.43 228.12,-81.43 265.12,-81.43 265.12,-111.43"/>
<text text-anchor="middle" x="246.62" y="-91.43" font-family="Times,serif" font-size="20.00">→</text>
</g>
<!-- 00094df4&#45;cde1&#45;4aa9&#45;9cdc&#45;ee6e9e2f1fe2&#45;&gt;3a277b5d&#45;3949&#45;49e7&#45;80e1&#45;ccd953b37e61 -->
<g id="edge19" class="edge">
<title>00094df4&#45;cde1&#45;4aa9&#45;9cdc&#45;ee6e9e2f1fe2&#45;&gt;3a277b5d&#45;3949&#45;49e7&#45;80e1&#45;ccd953b37e61</title>
<path fill="none" stroke="black" d="M299.09,-156.52C289.65,-145.89 276.54,-131.12 265.78,-119.01"/>
<polygon fill="black" stroke="black" points="268.37,-116.65 259.12,-111.5 263.14,-121.3 268.37,-116.65"/>
</g>
<!-- 4d10652d&#45;0e23&#45;4bed&#45;af8d&#45;73d09a8b3f31 -->
<g id="node23" class="node">
<title>4d10652d&#45;0e23&#45;4bed&#45;af8d&#45;73d09a8b3f31</title>
<polygon fill="lightgreen" stroke="black" points="468.12,-114.43 283.12,-114.43 283.12,-78.43 468.12,-78.43 468.12,-114.43"/>
<text text-anchor="middle" x="375.62" y="-91.43" font-family="Times,serif" font-size="20.00">MoveTo(coffeetable)</text>
</g>
<!-- 00094df4&#45;cde1&#45;4aa9&#45;9cdc&#45;ee6e9e2f1fe2&#45;&gt;4d10652d&#45;0e23&#45;4bed&#45;af8d&#45;73d09a8b3f31 -->
<g id="edge22" class="edge">
<title>00094df4&#45;cde1&#45;4aa9&#45;9cdc&#45;ee6e9e2f1fe2&#45;&gt;4d10652d&#45;0e23&#45;4bed&#45;af8d&#45;73d09a8b3f31</title>
<path fill="none" stroke="black" d="M323.96,-156.52C332.46,-146.8 343.98,-133.62 353.99,-122.17"/>
<polygon fill="black" stroke="black" points="356.67,-124.42 360.62,-114.59 351.4,-119.82 356.67,-124.42"/>
</g>
<!-- 20918c30&#45;85cf&#45;474f&#45;b9c2&#45;03156a11be2e -->
<g id="node21" class="node">
<title>20918c30&#45;85cf&#45;474f&#45;b9c2&#45;03156a11be2e</title>
<ellipse fill="#ffff80" stroke="black" cx="121.62" cy="-21.21" rx="121.74" ry="21.43"/>
<text text-anchor="middle" x="121.62" y="-16.21" font-family="Times,serif" font-size="20.00">IsNear(coffeetable)</text>
</g>
<!-- 3a277b5d&#45;3949&#45;49e7&#45;80e1&#45;ccd953b37e61&#45;&gt;20918c30&#45;85cf&#45;474f&#45;b9c2&#45;03156a11be2e -->
<g id="edge20" class="edge">
<title>3a277b5d&#45;3949&#45;49e7&#45;80e1&#45;ccd953b37e61&#45;&gt;20918c30&#45;85cf&#45;474f&#45;b9c2&#45;03156a11be2e</title>
<path fill="none" stroke="black" d="M227.91,-84.47C211.03,-74.58 185.58,-59.68 163.82,-46.93"/>
<polygon fill="black" stroke="black" points="165.47,-43.84 155.07,-41.8 161.93,-49.88 165.47,-43.84"/>
</g>
<!-- fb8f185d&#45;76b9&#45;464c&#45;a34d&#45;4134dc92d49e -->
<g id="node22" class="node">
<title>fb8f185d&#45;76b9&#45;464c&#45;a34d&#45;4134dc92d49e</title>
<polygon fill="lightgreen" stroke="black" points="481.62,-39.21 261.62,-39.21 261.62,-3.21 481.62,-3.21 481.62,-39.21"/>
<text text-anchor="middle" x="371.62" y="-16.21" font-family="Times,serif" font-size="20.00">PlaceOn(pen,coffeetable)</text>
</g>
<!-- 3a277b5d&#45;3949&#45;49e7&#45;80e1&#45;ccd953b37e61&#45;&gt;fb8f185d&#45;76b9&#45;464c&#45;a34d&#45;4134dc92d49e -->
<g id="edge21" class="edge">
<title>3a277b5d&#45;3949&#45;49e7&#45;80e1&#45;ccd953b37e61&#45;&gt;fb8f185d&#45;76b9&#45;464c&#45;a34d&#45;4134dc92d49e</title>
<path fill="none" stroke="black" d="M265.15,-83.62C267.98,-81.86 270.87,-80.08 273.62,-78.43 292.66,-66.98 314.03,-54.66 331.95,-44.48"/>
<polygon fill="black" stroke="black" points="334,-47.34 340.98,-39.36 330.55,-41.25 334,-47.34"/>
</g>
<!-- c0453774&#45;2629&#45;4102&#45;8bfa&#45;347145cecacc -->
<g id="node25" class="node">
<title>c0453774&#45;2629&#45;4102&#45;8bfa&#45;347145cecacc</title>
<ellipse fill="#ffff80" stroke="black" cx="446.62" cy="-171.64" rx="98.99" ry="21.43"/>
<text text-anchor="middle" x="446.62" y="-166.64" font-family="Times,serif" font-size="20.00">IsHandEmpty()</text>
</g>
<!-- 09edd986&#45;9abb&#45;49a9&#45;8c01&#45;8c7d152ea708&#45;&gt;c0453774&#45;2629&#45;4102&#45;8bfa&#45;347145cecacc -->
<g id="edge24" class="edge">
<title>09edd986&#45;9abb&#45;49a9&#45;8c01&#45;8c7d152ea708&#45;&gt;c0453774&#45;2629&#45;4102&#45;8bfa&#45;347145cecacc</title>
<path fill="none" stroke="black" d="M526.65,-235.05C513.57,-224.85 495.47,-210.74 479.8,-198.51"/>
<polygon fill="black" stroke="black" points="481.9,-195.71 471.86,-192.32 477.6,-201.23 481.9,-195.71"/>
</g>
<!-- bf75173b&#45;5d7f&#45;4445&#45;910d&#45;8490c0faebec -->
<g id="node26" class="node">
<title>bf75173b&#45;5d7f&#45;4445&#45;910d&#45;8490c0faebec</title>
<ellipse fill="#ffff80" stroke="black" cx="642.62" cy="-171.64" rx="79.39" ry="21.43"/>
<text text-anchor="middle" x="642.62" y="-166.64" font-family="Times,serif" font-size="20.00">IsNear(pen)</text>
</g>
<!-- 09edd986&#45;9abb&#45;49a9&#45;8c01&#45;8c7d152ea708&#45;&gt;bf75173b&#45;5d7f&#45;4445&#45;910d&#45;8490c0faebec -->
<g id="edge25" class="edge">
<title>09edd986&#45;9abb&#45;49a9&#45;8c01&#45;8c7d152ea708&#45;&gt;bf75173b&#45;5d7f&#45;4445&#45;910d&#45;8490c0faebec</title>
<path fill="none" stroke="black" d="M562.6,-235.05C575.77,-224.77 594.03,-210.53 609.78,-198.25"/>
<polygon fill="black" stroke="black" points="612.02,-200.95 617.75,-192.04 607.71,-195.43 612.02,-200.95"/>
</g>
<!-- 5c27b477&#45;a51b&#45;4685&#45;8e7f&#45;0a4143b0ad5b -->
<g id="node27" class="node">
<title>5c27b477&#45;a51b&#45;4685&#45;8e7f&#45;0a4143b0ad5b</title>
<polygon fill="lightgreen" stroke="black" points="845.62,-189.64 739.62,-189.64 739.62,-153.64 845.62,-153.64 845.62,-189.64"/>
<text text-anchor="middle" x="792.62" y="-166.64" font-family="Times,serif" font-size="20.00">Grasp(pen)</text>
</g>
<!-- 09edd986&#45;9abb&#45;49a9&#45;8c01&#45;8c7d152ea708&#45;&gt;5c27b477&#45;a51b&#45;4685&#45;8e7f&#45;0a4143b0ad5b -->
<g id="edge26" class="edge">
<title>09edd986&#45;9abb&#45;49a9&#45;8c01&#45;8c7d152ea708&#45;&gt;5c27b477&#45;a51b&#45;4685&#45;8e7f&#45;0a4143b0ad5b</title>
<path fill="none" stroke="black" d="M561.37,-234.87C564.62,-232.6 568.11,-230.47 571.62,-228.85 637.4,-198.47 660.77,-212.1 730.62,-192.85 731.07,-192.73 731.52,-192.6 731.98,-192.48"/>
<polygon fill="black" stroke="black" points="733.02,-195.82 741.65,-189.67 731.07,-189.1 733.02,-195.82"/>
</g>
<!-- faac7ef4&#45;779f&#45;4f50&#45;ab5c&#45;e3bd79479c93 -->
<g id="node29" class="node">
<title>faac7ef4&#45;779f&#45;4f50&#45;ab5c&#45;e3bd79479c93</title>
<ellipse fill="#ffff80" stroke="black" cx="679.62" cy="-250.07" rx="98.99" ry="21.43"/>
<text text-anchor="middle" x="679.62" y="-245.07" font-family="Times,serif" font-size="20.00">IsHandEmpty()</text>
</g>
<!-- 69e40ea8&#45;21d1&#45;4894&#45;9882&#45;5e38e5533fdd&#45;&gt;faac7ef4&#45;779f&#45;4f50&#45;ab5c&#45;e3bd79479c93 -->
<g id="edge28" class="edge">
<title>69e40ea8&#45;21d1&#45;4894&#45;9882&#45;5e38e5533fdd&#45;&gt;faac7ef4&#45;779f&#45;4f50&#45;ab5c&#45;e3bd79479c93</title>
<path fill="none" stroke="black" d="M679.62,-313.47C679.62,-304.53 679.62,-292.57 679.62,-281.52"/>
<polygon fill="black" stroke="black" points="683.12,-281.33 679.62,-271.33 676.12,-281.33 683.12,-281.33"/>
</g>
<!-- 80e42553&#45;124f&#45;440c&#45;8ebc&#45;e099bcdc8cc9 -->
<g id="node30" class="node">
<title>80e42553&#45;124f&#45;440c&#45;8ebc&#45;e099bcdc8cc9</title>
<polygon fill="lightgreen" stroke="black" points="921.12,-268.07 796.12,-268.07 796.12,-232.07 921.12,-232.07 921.12,-268.07"/>
<text text-anchor="middle" x="858.62" y="-245.07" font-family="Times,serif" font-size="20.00">MoveTo(pen)</text>
</g>
<!-- 69e40ea8&#45;21d1&#45;4894&#45;9882&#45;5e38e5533fdd&#45;&gt;80e42553&#45;124f&#45;440c&#45;8ebc&#45;e099bcdc8cc9 -->
<g id="edge29" class="edge">
<title>69e40ea8&#45;21d1&#45;4894&#45;9882&#45;5e38e5533fdd&#45;&gt;80e42553&#45;124f&#45;440c&#45;8ebc&#45;e099bcdc8cc9</title>
<path fill="none" stroke="black" d="M696.85,-313.46C700,-311.23 703.33,-309.07 706.62,-307.28 733.03,-292.9 763.88,-280.73 790.87,-271.43"/>
<polygon fill="black" stroke="black" points="792.26,-274.66 800.62,-268.14 790.02,-268.03 792.26,-274.66"/>
</g>
<!-- 14e03bfc&#45;c2e5&#45;4785&#45;a0ef&#45;7f4d46e8c7a4 -->
<g id="node32" class="node">
<title>14e03bfc&#45;c2e5&#45;4785&#45;a0ef&#45;7f4d46e8c7a4</title>
<ellipse fill="#ffff80" stroke="black" cx="822.62" cy="-328.49" rx="106.55" ry="21.43"/>
<text text-anchor="middle" x="822.62" y="-323.49" font-family="Times,serif" font-size="20.00">IsHolding(apple)</text>
</g>
<!-- 0821e83c&#45;8fcd&#45;451a&#45;ac9a&#45;ff9fed0772c3&#45;&gt;14e03bfc&#45;c2e5&#45;4785&#45;a0ef&#45;7f4d46e8c7a4 -->
<g id="edge31" class="edge">
<title>0821e83c&#45;8fcd&#45;451a&#45;ac9a&#45;ff9fed0772c3&#45;&gt;14e03bfc&#45;c2e5&#45;4785&#45;a0ef&#45;7f4d46e8c7a4</title>
<path fill="none" stroke="black" d="M908.03,-392.26C893.97,-381.92 874.26,-367.44 857.32,-354.99"/>
<polygon fill="black" stroke="black" points="859.39,-352.17 849.26,-349.07 855.25,-357.81 859.39,-352.17"/>
</g>
<!-- 716838b6&#45;4dbc&#45;4f51&#45;9b81&#45;2a45e0753436 -->
<g id="node33" class="node">
<title>716838b6&#45;4dbc&#45;4f51&#45;9b81&#45;2a45e0753436</title>
<ellipse fill="#ffff80" stroke="black" cx="1030.62" cy="-328.49" rx="82.96" ry="21.43"/>
<text text-anchor="middle" x="1030.62" y="-323.49" font-family="Times,serif" font-size="20.00">IsNear(chip)</text>
</g>
<!-- 0821e83c&#45;8fcd&#45;451a&#45;ac9a&#45;ff9fed0772c3&#45;&gt;716838b6&#45;4dbc&#45;4f51&#45;9b81&#45;2a45e0753436 -->
<g id="edge32" class="edge">
<title>0821e83c&#45;8fcd&#45;451a&#45;ac9a&#45;ff9fed0772c3&#45;&gt;716838b6&#45;4dbc&#45;4f51&#45;9b81&#45;2a45e0753436</title>
<path fill="none" stroke="black" d="M945.19,-391.97C948.01,-389.87 950.89,-387.72 953.62,-385.71 967.38,-375.54 982.58,-364.41 995.81,-354.77"/>
<polygon fill="black" stroke="black" points="998.17,-357.38 1004.19,-348.67 994.05,-351.72 998.17,-357.38"/>
</g>
<!-- 6f504543&#45;37fb&#45;4066&#45;8f9c&#45;d0d2a6977887 -->
<g id="node34" class="node">
<title>6f504543&#45;37fb&#45;4066&#45;8f9c&#45;d0d2a6977887</title>
<polygon fill="lightgreen" stroke="black" points="1320.12,-346.49 1131.12,-346.49 1131.12,-310.49 1320.12,-310.49 1320.12,-346.49"/>
<text text-anchor="middle" x="1225.62" y="-323.49" font-family="Times,serif" font-size="20.00">PlaceOn1(apple,chip)</text>
</g>
<!-- 0821e83c&#45;8fcd&#45;451a&#45;ac9a&#45;ff9fed0772c3&#45;&gt;6f504543&#45;37fb&#45;4066&#45;8f9c&#45;d0d2a6977887 -->
<g id="edge33" class="edge">
<title>0821e83c&#45;8fcd&#45;451a&#45;ac9a&#45;ff9fed0772c3&#45;&gt;6f504543&#45;37fb&#45;4066&#45;8f9c&#45;d0d2a6977887</title>
<path fill="none" stroke="black" d="M943.05,-391.87C946.39,-389.53 949.99,-387.34 953.62,-385.71 957.82,-383.81 1054.02,-364.13 1130.83,-348.58"/>
<polygon fill="black" stroke="black" points="1131.94,-351.93 1141.05,-346.52 1130.55,-345.07 1131.94,-351.93"/>
</g>
<!-- c2a570d8&#45;2aa0&#45;45d9&#45;af04&#45;6d73ea7e8dca -->
<g id="node36" class="node">
<title>c2a570d8&#45;2aa0&#45;45d9&#45;af04&#45;6d73ea7e8dca</title>
<ellipse fill="#ffff80" stroke="black" cx="1069.62" cy="-406.92" rx="106.55" ry="21.43"/>
<text text-anchor="middle" x="1069.62" y="-401.92" font-family="Times,serif" font-size="20.00">IsHolding(apple)</text>
</g>
<!-- c78666f6&#45;b520&#45;4d09&#45;ab87&#45;98bd852423d5&#45;&gt;c2a570d8&#45;2aa0&#45;45d9&#45;af04&#45;6d73ea7e8dca -->
<g id="edge35" class="edge">
<title>c78666f6&#45;b520&#45;4d09&#45;ab87&#45;98bd852423d5&#45;&gt;c2a570d8&#45;2aa0&#45;45d9&#45;af04&#45;6d73ea7e8dca</title>
<path fill="none" stroke="black" d="M1069.62,-463.92C1069.62,-456.55 1069.62,-447.24 1069.62,-438.35"/>
<polygon fill="black" stroke="black" points="1073.12,-438.23 1069.62,-428.23 1066.12,-438.23 1073.12,-438.23"/>
</g>
<!-- e9fa2050&#45;fd68&#45;4118&#45;93e9&#45;cf380c120bd8 -->
<g id="node37" class="node">
<title>e9fa2050&#45;fd68&#45;4118&#45;93e9&#45;cf380c120bd8</title>
<polygon fill="lightgreen" stroke="black" points="1325.12,-424.92 1194.12,-424.92 1194.12,-388.92 1325.12,-388.92 1325.12,-424.92"/>
<text text-anchor="middle" x="1259.62" y="-401.92" font-family="Times,serif" font-size="20.00">MoveTo(chip)</text>
</g>
<!-- c78666f6&#45;b520&#45;4d09&#45;ab87&#45;98bd852423d5&#45;&gt;e9fa2050&#45;fd68&#45;4118&#45;93e9&#45;cf380c120bd8 -->
<g id="edge36" class="edge">
<title>c78666f6&#45;b520&#45;4d09&#45;ab87&#45;98bd852423d5&#45;&gt;e9fa2050&#45;fd68&#45;4118&#45;93e9&#45;cf380c120bd8</title>
<path fill="none" stroke="black" d="M1088.19,-471.27C1114.7,-461.47 1164.53,-443.06 1203.66,-428.6"/>
<polygon fill="black" stroke="black" points="1205.19,-431.76 1213.36,-425.01 1202.77,-425.2 1205.19,-431.76"/>
</g>
<!-- 270af1e4&#45;65b3&#45;4478&#45;820b&#45;17fb2c3a5977 -->
<g id="node39" class="node">
<title>270af1e4&#45;65b3&#45;4478&#45;820b&#45;17fb2c3a5977</title>
<ellipse fill="#ffff80" stroke="black" cx="1133.62" cy="-551.35" rx="98.99" ry="21.43"/>
<text text-anchor="middle" x="1133.62" y="-546.35" font-family="Times,serif" font-size="20.00">IsNear(cabinet)</text>
</g>
<!-- e5d49fca&#45;9096&#45;457d&#45;9dfc&#45;fb6ce489870e&#45;&gt;270af1e4&#45;65b3&#45;4478&#45;820b&#45;17fb2c3a5977 -->
<g id="edge38" class="edge">
<title>e5d49fca&#45;9096&#45;457d&#45;9dfc&#45;fb6ce489870e&#45;&gt;270af1e4&#45;65b3&#45;4478&#45;820b&#45;17fb2c3a5977</title>
<path fill="none" stroke="black" d="M1338.91,-622.39C1307.43,-611.65 1242.58,-589.52 1194.14,-572.99"/>
<polygon fill="black" stroke="black" points="1194.98,-569.58 1184.38,-569.66 1192.72,-576.21 1194.98,-569.58"/>
</g>
<!-- c9ae9a11&#45;0767&#45;4552&#45;b56d&#45;875eb8f63ee0 -->
<g id="node40" class="node">
<title>c9ae9a11&#45;0767&#45;4552&#45;b56d&#45;875eb8f63ee0</title>
<ellipse fill="#ffff80" stroke="black" cx="1357.62" cy="-551.35" rx="106.55" ry="21.43"/>
<text text-anchor="middle" x="1357.62" y="-546.35" font-family="Times,serif" font-size="20.00">IsHolding(apple)</text>
</g>
<!-- e5d49fca&#45;9096&#45;457d&#45;9dfc&#45;fb6ce489870e&#45;&gt;c9ae9a11&#45;0767&#45;4552&#45;b56d&#45;875eb8f63ee0 -->
<g id="edge39" class="edge">
<title>e5d49fca&#45;9096&#45;457d&#45;9dfc&#45;fb6ce489870e&#45;&gt;c9ae9a11&#45;0767&#45;4552&#45;b56d&#45;875eb8f63ee0</title>
<path fill="none" stroke="black" d="M1357.62,-614.75C1357.62,-605.81 1357.62,-593.85 1357.62,-582.8"/>
<polygon fill="black" stroke="black" points="1361.12,-582.61 1357.62,-572.61 1354.12,-582.61 1361.12,-582.61"/>
</g>
<!-- 4bffa9d7&#45;b4ed&#45;4d7a&#45;9416&#45;d76db298265c -->
<g id="node41" class="node">
<title>4bffa9d7&#45;b4ed&#45;4d7a&#45;9416&#45;d76db298265c</title>
<ellipse fill="#ffff80" stroke="black" cx="1584.62" cy="-551.35" rx="101.65" ry="21.43"/>
<text text-anchor="middle" x="1584.62" y="-546.35" font-family="Times,serif" font-size="20.00">IsOpen(cabinet)</text>
</g>
<!-- e5d49fca&#45;9096&#45;457d&#45;9dfc&#45;fb6ce489870e&#45;&gt;4bffa9d7&#45;b4ed&#45;4d7a&#45;9416&#45;d76db298265c -->
<g id="edge40" class="edge">
<title>e5d49fca&#45;9096&#45;457d&#45;9dfc&#45;fb6ce489870e&#45;&gt;4bffa9d7&#45;b4ed&#45;4d7a&#45;9416&#45;d76db298265c</title>
<path fill="none" stroke="black" d="M1374.44,-614.72C1377.68,-612.44 1381.16,-610.27 1384.62,-608.56 1421.14,-590.54 1464.36,-577.48 1501.25,-568.51"/>
<polygon fill="black" stroke="black" points="1502.06,-571.92 1510.98,-566.2 1500.44,-565.11 1502.06,-571.92"/>
</g>
<!-- 7ac6e6d2&#45;24db&#45;4d69&#45;838c&#45;983d7b656dcb -->
<g id="node42" class="node">
<title>7ac6e6d2&#45;24db&#45;4d69&#45;838c&#45;983d7b656dcb</title>
<polygon fill="lightgreen" stroke="black" points="1907.12,-569.35 1704.12,-569.35 1704.12,-533.35 1907.12,-533.35 1907.12,-569.35"/>
<text text-anchor="middle" x="1805.62" y="-546.35" font-family="Times,serif" font-size="20.00">CloseCabinet1(cabinet)</text>
</g>
<!-- e5d49fca&#45;9096&#45;457d&#45;9dfc&#45;fb6ce489870e&#45;&gt;7ac6e6d2&#45;24db&#45;4d69&#45;838c&#45;983d7b656dcb -->
<g id="edge41" class="edge">
<title>e5d49fca&#45;9096&#45;457d&#45;9dfc&#45;fb6ce489870e&#45;&gt;7ac6e6d2&#45;24db&#45;4d69&#45;838c&#45;983d7b656dcb</title>
<path fill="none" stroke="black" d="M1373.64,-614.67C1377.07,-612.27 1380.81,-610.07 1384.62,-608.56 1513.9,-557.08 1558.01,-593.14 1695.62,-572.56 1698.89,-572.07 1702.2,-571.56 1705.55,-571.03"/>
<polygon fill="black" stroke="black" points="1706.35,-574.44 1715.66,-569.38 1705.23,-567.53 1706.35,-574.44"/>
</g>
<!-- f158a700&#45;7002&#45;4303&#45;a879&#45;470ff69fa8a9 -->
<g id="node44" class="node">
<title>f158a700&#45;7002&#45;4303&#45;a879&#45;470ff69fa8a9</title>
<ellipse fill="#ffff80" stroke="black" cx="1492.62" cy="-629.77" rx="98.99" ry="21.43"/>
<text text-anchor="middle" x="1492.62" y="-624.77" font-family="Times,serif" font-size="20.00">IsNear(cabinet)</text>
</g>
<!-- 7e9ea370&#45;ce43&#45;4ff9&#45;ae36&#45;55b608988433&#45;&gt;f158a700&#45;7002&#45;4303&#45;a879&#45;470ff69fa8a9 -->
<g id="edge43" class="edge">
<title>7e9ea370&#45;ce43&#45;4ff9&#45;ae36&#45;55b608988433&#45;&gt;f158a700&#45;7002&#45;4303&#45;a879&#45;470ff69fa8a9</title>
<path fill="none" stroke="black" d="M1585.88,-694.41C1570.54,-683.94 1548.38,-668.82 1529.51,-655.94"/>
<polygon fill="black" stroke="black" points="1531.34,-652.96 1521.11,-650.21 1527.4,-658.74 1531.34,-652.96"/>
</g>
<!-- ab2c7272&#45;1db3&#45;475d&#45;ba9a&#45;c5f6aac2d80c -->
<g id="node45" class="node">
<title>ab2c7272&#45;1db3&#45;475d&#45;ba9a&#45;c5f6aac2d80c</title>
<ellipse fill="#ffff80" stroke="black" cx="1716.62" cy="-629.77" rx="106.55" ry="21.43"/>
<text text-anchor="middle" x="1716.62" y="-624.77" font-family="Times,serif" font-size="20.00">IsHolding(apple)</text>
</g>
<!-- 7e9ea370&#45;ce43&#45;4ff9&#45;ae36&#45;55b608988433&#45;&gt;ab2c7272&#45;1db3&#45;475d&#45;ba9a&#45;c5f6aac2d80c -->
<g id="edge44" class="edge">
<title>7e9ea370&#45;ce43&#45;4ff9&#45;ae36&#45;55b608988433&#45;&gt;ab2c7272&#45;1db3&#45;475d&#45;ba9a&#45;c5f6aac2d80c</title>
<path fill="none" stroke="black" d="M1623.11,-693.14C1625.94,-691.05 1628.85,-688.94 1631.62,-686.98 1646.48,-676.53 1663.09,-665.41 1677.66,-655.85"/>
<polygon fill="black" stroke="black" points="1679.98,-658.52 1686.44,-650.12 1676.15,-652.66 1679.98,-658.52"/>
</g>
<!-- 234ba924&#45;5a67&#45;43a2&#45;acf2&#45;e9e0d6b2cdc0 -->
<g id="node46" class="node">
<title>234ba924&#45;5a67&#45;43a2&#45;acf2&#45;e9e0d6b2cdc0</title>
<polygon fill="lightgreen" stroke="black" points="2042.12,-647.77 1841.12,-647.77 1841.12,-611.77 2042.12,-611.77 2042.12,-647.77"/>
<text text-anchor="middle" x="1941.62" y="-624.77" font-family="Times,serif" font-size="20.00">OpenCabinet1(cabinet)</text>
</g>
<!-- 7e9ea370&#45;ce43&#45;4ff9&#45;ae36&#45;55b608988433&#45;&gt;234ba924&#45;5a67&#45;43a2&#45;acf2&#45;e9e0d6b2cdc0 -->
<g id="edge45" class="edge">
<title>7e9ea370&#45;ce43&#45;4ff9&#45;ae36&#45;55b608988433&#45;&gt;234ba924&#45;5a67&#45;43a2&#45;acf2&#45;e9e0d6b2cdc0</title>
<path fill="none" stroke="black" d="M1621.01,-693.07C1624.35,-690.74 1627.97,-688.57 1631.62,-686.98 1714.86,-650.82 1743.34,-667.26 1832.62,-650.98 1835.11,-650.53 1837.62,-650.07 1840.16,-649.61"/>
<polygon fill="black" stroke="black" points="1840.84,-653.04 1850.04,-647.8 1839.58,-646.16 1840.84,-653.04"/>
</g>
<!-- 1df8c6ba&#45;01d6&#45;41c1&#45;8335&#45;ee6adb140944 -->
<g id="node48" class="node">
<title>1df8c6ba&#45;01d6&#45;41c1&#45;8335&#45;ee6adb140944</title>
<ellipse fill="#ffff80" stroke="black" cx="1747.62" cy="-708.2" rx="106.55" ry="21.43"/>
<text text-anchor="middle" x="1747.62" y="-703.2" font-family="Times,serif" font-size="20.00">IsHolding(apple)</text>
</g>
<!-- 3f717d7f&#45;332c&#45;4929&#45;b22e&#45;b5a03d8d56fd&#45;&gt;1df8c6ba&#45;01d6&#45;41c1&#45;8335&#45;ee6adb140944 -->
<g id="edge47" class="edge">
<title>3f717d7f&#45;332c&#45;4929&#45;b22e&#45;b5a03d8d56fd&#45;&gt;1df8c6ba&#45;01d6&#45;41c1&#45;8335&#45;ee6adb140944</title>
<path fill="none" stroke="black" d="M1747.62,-765.2C1747.62,-757.83 1747.62,-748.52 1747.62,-739.62"/>
<polygon fill="black" stroke="black" points="1751.12,-739.51 1747.62,-729.51 1744.12,-739.51 1751.12,-739.51"/>
</g>
<!-- 2cf80332&#45;2543&#45;467e&#45;9879&#45;55dd65f1aa2b -->
<g id="node49" class="node">
<title>2cf80332&#45;2543&#45;467e&#45;9879&#45;55dd65f1aa2b</title>
<polygon fill="lightgreen" stroke="black" points="2026.62,-726.2 1872.62,-726.2 1872.62,-690.2 2026.62,-690.2 2026.62,-726.2"/>
<text text-anchor="middle" x="1949.62" y="-703.2" font-family="Times,serif" font-size="20.00">MoveTo(cabinet)</text>
</g>
<!-- 3f717d7f&#45;332c&#45;4929&#45;b22e&#45;b5a03d8d56fd&#45;&gt;2cf80332&#45;2543&#45;467e&#45;9879&#45;55dd65f1aa2b -->
<g id="edge48" class="edge">
<title>3f717d7f&#45;332c&#45;4929&#45;b22e&#45;b5a03d8d56fd&#45;&gt;2cf80332&#45;2543&#45;467e&#45;9879&#45;55dd65f1aa2b</title>
<path fill="none" stroke="black" d="M1766.26,-772.93C1794.35,-763.17 1848.74,-744.26 1891.02,-729.57"/>
<polygon fill="black" stroke="black" points="1892.36,-732.81 1900.66,-726.22 1890.06,-726.19 1892.36,-732.81"/>
</g>
</g>
</svg>
