<?xml version="1.0" encoding="UTF-8" standalone="no"?>
<!DOCTYPE svg PUBLIC "-//W3C//DTD SVG 1.1//EN"
 "http://www.w3.org/Graphics/SVG/1.1/DTD/svg11.dtd">
<!-- Generated by graphviz version 2.43.0 (0)
 -->
<!-- Title: pastafarianism Pages: 1 -->
<svg width="2131pt" height="713pt"
 viewBox="0.00 0.00 2131.41 712.56" xmlns="http://www.w3.org/2000/svg" xmlns:xlink="http://www.w3.org/1999/xlink">
<g id="graph0" class="graph" transform="scale(1 1) rotate(0) translate(4 708.56)">
<title>pastafarianism</title>
<polygon fill="white" stroke="transparent" points="-4,4 -4,-708.56 2127.41,-708.56 2127.41,4 -4,4"/>
<!-- d6bc6f2c&#45;30b6&#45;46df&#45;a67d&#45;b3f712e785e1 -->
<g id="node1" class="node">
<title>d6bc6f2c&#45;30b6&#45;46df&#45;a67d&#45;b3f712e785e1</title>
<polygon fill="#b0ffff" stroke="black" points="1048.41,-704.56 1012.41,-704.56 1012.41,-674.56 1048.41,-674.56 1048.41,-704.56"/>
<text text-anchor="middle" x="1030.41" y="-684.56" font-family="Times,serif" font-size="20.00"> ? </text>
</g>
<!-- 405a3121&#45;0532&#45;45b7&#45;80f3&#45;1031de09ffca -->
<g id="node2" class="node">
<title>405a3121&#45;0532&#45;45b7&#45;80f3&#45;1031de09ffca</title>
<polygon fill="#ff8080" stroke="black" points="524.91,-638.56 487.91,-638.56 487.91,-608.56 524.91,-608.56 524.91,-638.56"/>
<text text-anchor="middle" x="506.41" y="-618.56" font-family="Times,serif" font-size="20.00">→</text>
</g>
<!-- d6bc6f2c&#45;30b6&#45;46df&#45;a67d&#45;b3f712e785e1&#45;&gt;405a3121&#45;0532&#45;45b7&#45;80f3&#45;1031de09ffca -->
<g id="edge1" class="edge">
<title>d6bc6f2c&#45;30b6&#45;46df&#45;a67d&#45;b3f712e785e1&#45;&gt;405a3121&#45;0532&#45;45b7&#45;80f3&#45;1031de09ffca</title>
<path fill="none" stroke="black" d="M1012.37,-686.36C934.91,-676.89 630.13,-639.67 534.96,-628.05"/>
<polygon fill="black" stroke="black" points="535.26,-624.56 524.91,-626.82 534.41,-631.51 535.26,-624.56"/>
</g>
<!-- c6c266fd&#45;cd75&#45;40ac&#45;8a54&#45;1c5a13c404ca -->
<g id="node6" class="node">
<title>c6c266fd&#45;cd75&#45;40ac&#45;8a54&#45;1c5a13c404ca</title>
<polygon fill="#ff8080" stroke="black" points="1048.91,-638.56 1011.91,-638.56 1011.91,-608.56 1048.91,-608.56 1048.91,-638.56"/>
<text text-anchor="middle" x="1030.41" y="-618.56" font-family="Times,serif" font-size="20.00">→</text>
</g>
<!-- d6bc6f2c&#45;30b6&#45;46df&#45;a67d&#45;b3f712e785e1&#45;&gt;c6c266fd&#45;cd75&#45;40ac&#45;8a54&#45;1c5a13c404ca -->
<g id="edge5" class="edge">
<title>d6bc6f2c&#45;30b6&#45;46df&#45;a67d&#45;b3f712e785e1&#45;&gt;c6c266fd&#45;cd75&#45;40ac&#45;8a54&#45;1c5a13c404ca</title>
<path fill="none" stroke="black" d="M1030.41,-674.35C1030.41,-666.9 1030.41,-657.55 1030.41,-648.97"/>
<polygon fill="black" stroke="black" points="1033.91,-648.72 1030.41,-638.72 1026.91,-648.72 1033.91,-648.72"/>
</g>
<!-- 65812986&#45;7acf&#45;4f44&#45;8de0&#45;796729c02943 -->
<g id="node33" class="node">
<title>65812986&#45;7acf&#45;4f44&#45;8de0&#45;796729c02943</title>
<polygon fill="#ff8080" stroke="black" points="1504.91,-638.56 1467.91,-638.56 1467.91,-608.56 1504.91,-608.56 1504.91,-638.56"/>
<text text-anchor="middle" x="1486.41" y="-618.56" font-family="Times,serif" font-size="20.00">→</text>
</g>
<!-- d6bc6f2c&#45;30b6&#45;46df&#45;a67d&#45;b3f712e785e1&#45;&gt;65812986&#45;7acf&#45;4f44&#45;8de0&#45;796729c02943 -->
<g id="edge32" class="edge">
<title>d6bc6f2c&#45;30b6&#45;46df&#45;a67d&#45;b3f712e785e1&#45;&gt;65812986&#45;7acf&#45;4f44&#45;8de0&#45;796729c02943</title>
<path fill="none" stroke="black" d="M1048.57,-686.01C1118.62,-676.18 1371.67,-640.66 1457.62,-628.6"/>
<polygon fill="black" stroke="black" points="1458.28,-632.04 1467.7,-627.18 1457.31,-625.11 1458.28,-632.04"/>
</g>
<!-- 5a0eab35&#45;4ef5&#45;4b1d&#45;9895&#45;64951c5d42da -->
<g id="node3" class="node">
<title>5a0eab35&#45;4ef5&#45;4b1d&#45;9895&#45;64951c5d42da</title>
<ellipse fill="#ffff80" stroke="black" cx="100.41" cy="-551.35" rx="100.32" ry="21.43"/>
<text text-anchor="middle" x="100.41" y="-546.35" font-family="Times,serif" font-size="20.00">Closed(cabinet)</text>
</g>
<!-- 405a3121&#45;0532&#45;45b7&#45;80f3&#45;1031de09ffca&#45;&gt;5a0eab35&#45;4ef5&#45;4b1d&#45;9895&#45;64951c5d42da -->
<g id="edge2" class="edge">
<title>405a3121&#45;0532&#45;45b7&#45;80f3&#45;1031de09ffca&#45;&gt;5a0eab35&#45;4ef5&#45;4b1d&#45;9895&#45;64951c5d42da</title>
<path fill="none" stroke="black" d="M487.69,-619.49C440.91,-611.81 315.11,-591.02 210.41,-572.56 201.63,-571.01 192.47,-569.37 183.33,-567.71"/>
<polygon fill="black" stroke="black" points="183.92,-564.26 173.46,-565.92 182.67,-571.15 183.92,-564.26"/>
</g>
<!-- 0d27341f&#45;8e0b&#45;44a9&#45;886b&#45;e4d76a94543d -->
<g id="node4" class="node">
<title>0d27341f&#45;8e0b&#45;44a9&#45;886b&#45;e4d76a94543d</title>
<ellipse fill="#ffff80" stroke="black" cx="360.41" cy="-551.35" rx="141.34" ry="21.43"/>
<text text-anchor="middle" x="360.41" y="-546.35" font-family="Times,serif" font-size="20.00">On(apple,coffee_table)</text>
</g>
<!-- 405a3121&#45;0532&#45;45b7&#45;80f3&#45;1031de09ffca&#45;&gt;0d27341f&#45;8e0b&#45;44a9&#45;886b&#45;e4d76a94543d -->
<g id="edge3" class="edge">
<title>405a3121&#45;0532&#45;45b7&#45;80f3&#45;1031de09ffca&#45;&gt;0d27341f&#45;8e0b&#45;44a9&#45;886b&#45;e4d76a94543d</title>
<path fill="none" stroke="black" d="M487.62,-613.52C468.12,-604.15 436.81,-589.09 410.13,-576.25"/>
<polygon fill="black" stroke="black" points="411.44,-573 400.91,-571.82 408.4,-579.31 411.44,-573"/>
</g>
<!-- 95fb287f&#45;cf2a&#45;47d6&#45;b1e5&#45;98809212cc17 -->
<g id="node5" class="node">
<title>95fb287f&#45;cf2a&#45;47d6&#45;b1e5&#45;98809212cc17</title>
<ellipse fill="#ffff80" stroke="black" cx="651.41" cy="-551.35" rx="131.54" ry="21.43"/>
<text text-anchor="middle" x="651.41" y="-546.35" font-family="Times,serif" font-size="20.00">On(pen,coffee_table)</text>
</g>
<!-- 405a3121&#45;0532&#45;45b7&#45;80f3&#45;1031de09ffca&#45;&gt;95fb287f&#45;cf2a&#45;47d6&#45;b1e5&#45;98809212cc17 -->
<g id="edge4" class="edge">
<title>405a3121&#45;0532&#45;45b7&#45;80f3&#45;1031de09ffca&#45;&gt;95fb287f&#45;cf2a&#45;47d6&#45;b1e5&#45;98809212cc17</title>
<path fill="none" stroke="black" d="M525.07,-613.52C544.5,-604.11 575.75,-588.98 602.31,-576.12"/>
<polygon fill="black" stroke="black" points="604.01,-579.19 611.48,-571.68 600.96,-572.89 604.01,-579.19"/>
</g>
<!-- 1526df52&#45;a874&#45;46ef&#45;9df9&#45;cb5f4448d5ab -->
<g id="node7" class="node">
<title>1526df52&#45;a874&#45;46ef&#45;9df9&#45;cb5f4448d5ab</title>
<ellipse fill="#ffff80" stroke="black" cx="942.41" cy="-551.35" rx="141.34" ry="21.43"/>
<text text-anchor="middle" x="942.41" y="-546.35" font-family="Times,serif" font-size="20.00">On(apple,coffee_table)</text>
</g>
<!-- c6c266fd&#45;cd75&#45;40ac&#45;8a54&#45;1c5a13c404ca&#45;&gt;1526df52&#45;a874&#45;46ef&#45;9df9&#45;cb5f4448d5ab -->
<g id="edge6" class="edge">
<title>c6c266fd&#45;cd75&#45;40ac&#45;8a54&#45;1c5a13c404ca&#45;&gt;1526df52&#45;a874&#45;46ef&#45;9df9&#45;cb5f4448d5ab</title>
<path fill="none" stroke="black" d="M1012.6,-608.35C1001.97,-599.87 988.14,-588.83 975.56,-578.8"/>
<polygon fill="black" stroke="black" points="977.53,-575.89 967.53,-572.39 973.16,-581.36 977.53,-575.89"/>
</g>
<!-- d5ba4c99&#45;39bb&#45;4ede&#45;9ae0&#45;de02f89a91f4 -->
<g id="node8" class="node">
<title>d5ba4c99&#45;39bb&#45;4ede&#45;9ae0&#45;de02f89a91f4</title>
<polygon fill="#b0ffff" stroke="black" points="1137.41,-566.35 1101.41,-566.35 1101.41,-536.35 1137.41,-536.35 1137.41,-566.35"/>
<text text-anchor="middle" x="1119.41" y="-546.35" font-family="Times,serif" font-size="20.00"> ? </text>
</g>
<!-- c6c266fd&#45;cd75&#45;40ac&#45;8a54&#45;1c5a13c404ca&#45;&gt;d5ba4c99&#45;39bb&#45;4ede&#45;9ae0&#45;de02f89a91f4 -->
<g id="edge7" class="edge">
<title>c6c266fd&#45;cd75&#45;40ac&#45;8a54&#45;1c5a13c404ca&#45;&gt;d5ba4c99&#45;39bb&#45;4ede&#45;9ae0&#45;de02f89a91f4</title>
<path fill="none" stroke="black" d="M1048.42,-608.35C1061.33,-598.17 1078.91,-584.3 1093.35,-572.91"/>
<polygon fill="black" stroke="black" points="1095.74,-575.47 1101.43,-566.53 1091.41,-569.98 1095.74,-575.47"/>
</g>
<!-- 0587a570&#45;13e8&#45;4609&#45;8dd4&#45;029a7b65a15b -->
<g id="node9" class="node">
<title>0587a570&#45;13e8&#45;4609&#45;8dd4&#45;029a7b65a15b</title>
<polygon fill="#b0ffff" stroke="black" points="1069.41,-494.13 1033.41,-494.13 1033.41,-464.13 1069.41,-464.13 1069.41,-494.13"/>
<text text-anchor="middle" x="1051.41" y="-474.13" font-family="Times,serif" font-size="20.00"> ? </text>
</g>
<!-- d5ba4c99&#45;39bb&#45;4ede&#45;9ae0&#45;de02f89a91f4&#45;&gt;0587a570&#45;13e8&#45;4609&#45;8dd4&#45;029a7b65a15b -->
<g id="edge8" class="edge">
<title>d5ba4c99&#45;39bb&#45;4ede&#45;9ae0&#45;de02f89a91f4&#45;&gt;0587a570&#45;13e8&#45;4609&#45;8dd4&#45;029a7b65a15b</title>
<path fill="none" stroke="black" d="M1105.65,-536.14C1096.06,-526.24 1083.1,-512.86 1072.25,-501.66"/>
<polygon fill="black" stroke="black" points="1074.62,-499.07 1065.15,-494.32 1069.59,-503.94 1074.62,-499.07"/>
</g>
<!-- 9ad68ac6&#45;3f09&#45;4cd2&#45;ab8e&#45;dc57fd4ffaeb -->
<g id="node30" class="node">
<title>9ad68ac6&#45;3f09&#45;4cd2&#45;ab8e&#45;dc57fd4ffaeb</title>
<polygon fill="#ff8080" stroke="black" points="1204.91,-494.13 1167.91,-494.13 1167.91,-464.13 1204.91,-464.13 1204.91,-494.13"/>
<text text-anchor="middle" x="1186.41" y="-474.13" font-family="Times,serif" font-size="20.00">→</text>
</g>
<!-- d5ba4c99&#45;39bb&#45;4ede&#45;9ae0&#45;de02f89a91f4&#45;&gt;9ad68ac6&#45;3f09&#45;4cd2&#45;ab8e&#45;dc57fd4ffaeb -->
<g id="edge29" class="edge">
<title>d5ba4c99&#45;39bb&#45;4ede&#45;9ae0&#45;de02f89a91f4&#45;&gt;9ad68ac6&#45;3f09&#45;4cd2&#45;ab8e&#45;dc57fd4ffaeb</title>
<path fill="none" stroke="black" d="M1132.97,-536.14C1142.41,-526.24 1155.18,-512.86 1165.87,-501.66"/>
<polygon fill="black" stroke="black" points="1168.5,-503.97 1172.87,-494.32 1163.44,-499.14 1168.5,-503.97"/>
</g>
<!-- 94826727&#45;a9a9&#45;47fb&#45;ad1c&#45;21909588203b -->
<g id="node10" class="node">
<title>94826727&#45;a9a9&#45;47fb&#45;ad1c&#45;21909588203b</title>
<polygon fill="#b0ffff" stroke="black" points="836.41,-421.92 800.41,-421.92 800.41,-391.92 836.41,-391.92 836.41,-421.92"/>
<text text-anchor="middle" x="818.41" y="-401.92" font-family="Times,serif" font-size="20.00"> ? </text>
</g>
<!-- 0587a570&#45;13e8&#45;4609&#45;8dd4&#45;029a7b65a15b&#45;&gt;94826727&#45;a9a9&#45;47fb&#45;ad1c&#45;21909588203b -->
<g id="edge9" class="edge">
<title>0587a570&#45;13e8&#45;4609&#45;8dd4&#45;029a7b65a15b&#45;&gt;94826727&#45;a9a9&#45;47fb&#45;ad1c&#45;21909588203b</title>
<path fill="none" stroke="black" d="M1033.13,-472.62C992.55,-460.39 894.74,-430.92 846.41,-416.36"/>
<polygon fill="black" stroke="black" points="847.19,-412.94 836.61,-413.4 845.17,-419.64 847.19,-412.94"/>
</g>
<!-- 5ca2ccc6&#45;fa85&#45;47ed&#45;922e&#45;de5ca8cc65ce -->
<g id="node26" class="node">
<title>5ca2ccc6&#45;fa85&#45;47ed&#45;922e&#45;de5ca8cc65ce</title>
<polygon fill="#ff8080" stroke="black" points="1069.91,-421.92 1032.91,-421.92 1032.91,-391.92 1069.91,-391.92 1069.91,-421.92"/>
<text text-anchor="middle" x="1051.41" y="-401.92" font-family="Times,serif" font-size="20.00">→</text>
</g>
<!-- 0587a570&#45;13e8&#45;4609&#45;8dd4&#45;029a7b65a15b&#45;&gt;5ca2ccc6&#45;fa85&#45;47ed&#45;922e&#45;de5ca8cc65ce -->
<g id="edge25" class="edge">
<title>0587a570&#45;13e8&#45;4609&#45;8dd4&#45;029a7b65a15b&#45;&gt;5ca2ccc6&#45;fa85&#45;47ed&#45;922e&#45;de5ca8cc65ce</title>
<path fill="none" stroke="black" d="M1051.41,-463.92C1051.41,-454.88 1051.41,-442.93 1051.41,-432.4"/>
<polygon fill="black" stroke="black" points="1054.91,-432.11 1051.41,-422.11 1047.91,-432.11 1054.91,-432.11"/>
</g>
<!-- e56078ec&#45;d1c2&#45;4af3&#45;9aa4&#45;23a3d14c3190 -->
<g id="node11" class="node">
<title>e56078ec&#45;d1c2&#45;4af3&#45;9aa4&#45;23a3d14c3190</title>
<polygon fill="#b0ffff" stroke="black" points="703.41,-343.49 667.41,-343.49 667.41,-313.49 703.41,-313.49 703.41,-343.49"/>
<text text-anchor="middle" x="685.41" y="-323.49" font-family="Times,serif" font-size="20.00"> ? </text>
</g>
<!-- 94826727&#45;a9a9&#45;47fb&#45;ad1c&#45;21909588203b&#45;&gt;e56078ec&#45;d1c2&#45;4af3&#45;9aa4&#45;23a3d14c3190 -->
<g id="edge10" class="edge">
<title>94826727&#45;a9a9&#45;47fb&#45;ad1c&#45;21909588203b&#45;&gt;e56078ec&#45;d1c2&#45;4af3&#45;9aa4&#45;23a3d14c3190</title>
<path fill="none" stroke="black" d="M800.19,-395.45C777.54,-382.43 738.66,-360.09 712.5,-345.06"/>
<polygon fill="black" stroke="black" points="714.24,-342.03 703.83,-340.08 710.76,-348.09 714.24,-342.03"/>
</g>
<!-- 976129e4&#45;320f&#45;4833&#45;bca1&#45;1a5e9d42e8d4 -->
<g id="node23" class="node">
<title>976129e4&#45;320f&#45;4833&#45;bca1&#45;1a5e9d42e8d4</title>
<polygon fill="#ff8080" stroke="black" points="836.91,-343.49 799.91,-343.49 799.91,-313.49 836.91,-313.49 836.91,-343.49"/>
<text text-anchor="middle" x="818.41" y="-323.49" font-family="Times,serif" font-size="20.00">→</text>
</g>
<!-- 94826727&#45;a9a9&#45;47fb&#45;ad1c&#45;21909588203b&#45;&gt;976129e4&#45;320f&#45;4833&#45;bca1&#45;1a5e9d42e8d4 -->
<g id="edge22" class="edge">
<title>94826727&#45;a9a9&#45;47fb&#45;ad1c&#45;21909588203b&#45;&gt;976129e4&#45;320f&#45;4833&#45;bca1&#45;1a5e9d42e8d4</title>
<path fill="none" stroke="black" d="M818.41,-391.9C818.41,-381.3 818.41,-366.48 818.41,-353.95"/>
<polygon fill="black" stroke="black" points="821.91,-353.68 818.41,-343.68 814.91,-353.68 821.91,-353.68"/>
</g>
<!-- 7c8e3918&#45;6ada&#45;461d&#45;9d3e&#45;9d86b043213f -->
<g id="node12" class="node">
<title>7c8e3918&#45;6ada&#45;461d&#45;9d3e&#45;9d86b043213f</title>
<polygon fill="#ff8080" stroke="black" points="416.91,-265.07 379.91,-265.07 379.91,-235.07 416.91,-235.07 416.91,-265.07"/>
<text text-anchor="middle" x="398.41" y="-245.07" font-family="Times,serif" font-size="20.00">→</text>
</g>
<!-- e56078ec&#45;d1c2&#45;4af3&#45;9aa4&#45;23a3d14c3190&#45;&gt;7c8e3918&#45;6ada&#45;461d&#45;9d3e&#45;9d86b043213f -->
<g id="edge11" class="edge">
<title>e56078ec&#45;d1c2&#45;4af3&#45;9aa4&#45;23a3d14c3190&#45;&gt;7c8e3918&#45;6ada&#45;461d&#45;9d3e&#45;9d86b043213f</title>
<path fill="none" stroke="black" d="M667.02,-322.6C618.23,-309.6 485.27,-274.2 426.72,-258.61"/>
<polygon fill="black" stroke="black" points="427.58,-255.21 417.02,-256.02 425.78,-261.98 427.58,-255.21"/>
</g>
<!-- a90d51a1&#45;5d25&#45;4e5b&#45;ab05&#45;2fa29939ae46 -->
<g id="node19" class="node">
<title>a90d51a1&#45;5d25&#45;4e5b&#45;ab05&#45;2fa29939ae46</title>
<polygon fill="#ff8080" stroke="black" points="703.91,-265.07 666.91,-265.07 666.91,-235.07 703.91,-235.07 703.91,-265.07"/>
<text text-anchor="middle" x="685.41" y="-245.07" font-family="Times,serif" font-size="20.00">→</text>
</g>
<!-- e56078ec&#45;d1c2&#45;4af3&#45;9aa4&#45;23a3d14c3190&#45;&gt;a90d51a1&#45;5d25&#45;4e5b&#45;ab05&#45;2fa29939ae46 -->
<g id="edge18" class="edge">
<title>e56078ec&#45;d1c2&#45;4af3&#45;9aa4&#45;23a3d14c3190&#45;&gt;a90d51a1&#45;5d25&#45;4e5b&#45;ab05&#45;2fa29939ae46</title>
<path fill="none" stroke="black" d="M685.41,-313.47C685.41,-302.88 685.41,-288.06 685.41,-275.52"/>
<polygon fill="black" stroke="black" points="688.91,-275.25 685.41,-265.25 681.91,-275.25 688.91,-275.25"/>
</g>
<!-- e860d793&#45;6e92&#45;4047&#45;9617&#45;48314e1dd9c1 -->
<g id="node13" class="node">
<title>e860d793&#45;6e92&#45;4047&#45;9617&#45;48314e1dd9c1</title>
<ellipse fill="#ffff80" stroke="black" cx="230.41" cy="-171.64" rx="131.54" ry="21.43"/>
<text text-anchor="middle" x="230.41" y="-166.64" font-family="Times,serif" font-size="20.00">On(pen,coffee_table)</text>
</g>
<!-- 7c8e3918&#45;6ada&#45;461d&#45;9d3e&#45;9d86b043213f&#45;&gt;e860d793&#45;6e92&#45;4047&#45;9617&#45;48314e1dd9c1 -->
<g id="edge12" class="edge">
<title>7c8e3918&#45;6ada&#45;461d&#45;9d3e&#45;9d86b043213f&#45;&gt;e860d793&#45;6e92&#45;4047&#45;9617&#45;48314e1dd9c1</title>
<path fill="none" stroke="black" d="M379.79,-240.6C356.28,-229.9 314.9,-211.08 281.65,-195.95"/>
<polygon fill="black" stroke="black" points="283.06,-192.75 272.51,-191.79 280.16,-199.12 283.06,-192.75"/>
</g>
<!-- 511c18bb&#45;68db&#45;4368&#45;8975&#45;151d9059732c -->
<g id="node14" class="node">
<title>511c18bb&#45;68db&#45;4368&#45;8975&#45;151d9059732c</title>
<polygon fill="#b0ffff" stroke="black" points="416.41,-186.64 380.41,-186.64 380.41,-156.64 416.41,-156.64 416.41,-186.64"/>
<text text-anchor="middle" x="398.41" y="-166.64" font-family="Times,serif" font-size="20.00"> ? </text>
</g>
<!-- 7c8e3918&#45;6ada&#45;461d&#45;9d3e&#45;9d86b043213f&#45;&gt;511c18bb&#45;68db&#45;4368&#45;8975&#45;151d9059732c -->
<g id="edge13" class="edge">
<title>7c8e3918&#45;6ada&#45;461d&#45;9d3e&#45;9d86b043213f&#45;&gt;511c18bb&#45;68db&#45;4368&#45;8975&#45;151d9059732c</title>
<path fill="none" stroke="black" d="M398.41,-235.05C398.41,-224.45 398.41,-209.63 398.41,-197.09"/>
<polygon fill="black" stroke="black" points="401.91,-196.83 398.41,-186.83 394.91,-196.83 401.91,-196.83"/>
</g>
<!-- 8e1b7659&#45;332c&#45;4359&#45;8b6c&#45;f5e179fafac7 -->
<g id="node15" class="node">
<title>8e1b7659&#45;332c&#45;4359&#45;8b6c&#45;f5e179fafac7</title>
<polygon fill="#ff8080" stroke="black" points="365.91,-111.43 328.91,-111.43 328.91,-81.43 365.91,-81.43 365.91,-111.43"/>
<text text-anchor="middle" x="347.41" y="-91.43" font-family="Times,serif" font-size="20.00">→</text>
</g>
<!-- 511c18bb&#45;68db&#45;4368&#45;8975&#45;151d9059732c&#45;&gt;8e1b7659&#45;332c&#45;4359&#45;8b6c&#45;f5e179fafac7 -->
<g id="edge14" class="edge">
<title>511c18bb&#45;68db&#45;4368&#45;8975&#45;151d9059732c&#45;&gt;8e1b7659&#45;332c&#45;4359&#45;8b6c&#45;f5e179fafac7</title>
<path fill="none" stroke="black" d="M388.58,-156.52C381.38,-146.19 371.46,-131.96 363.17,-120.05"/>
<polygon fill="black" stroke="black" points="365.8,-117.7 357.21,-111.5 360.06,-121.71 365.8,-117.7"/>
</g>
<!-- d7ea5add&#45;2624&#45;4e74&#45;94f7&#45;812a8efae742 -->
<g id="node18" class="node">
<title>d7ea5add&#45;2624&#45;4e74&#45;94f7&#45;812a8efae742</title>
<polygon fill="lightgreen" stroke="black" points="512.41,-114.43 384.41,-114.43 384.41,-78.43 512.41,-78.43 512.41,-114.43"/>
<text text-anchor="middle" x="448.41" y="-91.43" font-family="Times,serif" font-size="20.00">Walk(cabinet)</text>
</g>
<!-- 511c18bb&#45;68db&#45;4368&#45;8975&#45;151d9059732c&#45;&gt;d7ea5add&#45;2624&#45;4e74&#45;94f7&#45;812a8efae742 -->
<g id="edge17" class="edge">
<title>511c18bb&#45;68db&#45;4368&#45;8975&#45;151d9059732c&#45;&gt;d7ea5add&#45;2624&#45;4e74&#45;94f7&#45;812a8efae742</title>
<path fill="none" stroke="black" d="M408.05,-156.52C414.5,-147.08 423.17,-134.38 430.83,-123.17"/>
<polygon fill="black" stroke="black" points="433.94,-124.82 436.69,-114.59 428.16,-120.88 433.94,-124.82"/>
</g>
<!-- b7596d08&#45;6d2b&#45;4900&#45;976d&#45;4afcfddb17c3 -->
<g id="node16" class="node">
<title>b7596d08&#45;6d2b&#45;4900&#45;976d&#45;4afcfddb17c3</title>
<ellipse fill="#ffff80" stroke="black" cx="256.41" cy="-21.21" rx="98.99" ry="21.43"/>
<text text-anchor="middle" x="256.41" y="-16.21" font-family="Times,serif" font-size="20.00">IsNear(cabinet)</text>
</g>
<!-- 8e1b7659&#45;332c&#45;4359&#45;8b6c&#45;f5e179fafac7&#45;&gt;b7596d08&#45;6d2b&#45;4900&#45;976d&#45;4afcfddb17c3 -->
<g id="edge15" class="edge">
<title>8e1b7659&#45;332c&#45;4359&#45;8b6c&#45;f5e179fafac7&#45;&gt;b7596d08&#45;6d2b&#45;4900&#45;976d&#45;4afcfddb17c3</title>
<path fill="none" stroke="black" d="M329.86,-81.31C318.21,-71.93 302.55,-59.34 288.69,-48.19"/>
<polygon fill="black" stroke="black" points="290.77,-45.36 280.78,-41.82 286.38,-50.82 290.77,-45.36"/>
</g>
<!-- 454f1990&#45;6feb&#45;4f63&#45;b6fb&#45;346db7d0d57a -->
<g id="node17" class="node">
<title>454f1990&#45;6feb&#45;4f63&#45;b6fb&#45;346db7d0d57a</title>
<polygon fill="lightgreen" stroke="black" points="505.41,-39.21 373.41,-39.21 373.41,-3.21 505.41,-3.21 505.41,-39.21"/>
<text text-anchor="middle" x="439.41" y="-16.21" font-family="Times,serif" font-size="20.00">Close(cabinet)</text>
</g>
<!-- 8e1b7659&#45;332c&#45;4359&#45;8b6c&#45;f5e179fafac7&#45;&gt;454f1990&#45;6feb&#45;4f63&#45;b6fb&#45;346db7d0d57a -->
<g id="edge16" class="edge">
<title>8e1b7659&#45;332c&#45;4359&#45;8b6c&#45;f5e179fafac7&#45;&gt;454f1990&#45;6feb&#45;4f63&#45;b6fb&#45;346db7d0d57a</title>
<path fill="none" stroke="black" d="M365.15,-81.31C377.84,-71.21 395.21,-57.39 409.96,-45.65"/>
<polygon fill="black" stroke="black" points="412.19,-48.34 417.84,-39.38 407.84,-42.87 412.19,-48.34"/>
</g>
<!-- f2ac7d85&#45;bd85&#45;4991&#45;9a10&#45;26be4c48060d -->
<g id="node20" class="node">
<title>f2ac7d85&#45;bd85&#45;4991&#45;9a10&#45;26be4c48060d</title>
<ellipse fill="#ffff80" stroke="black" cx="563.41" cy="-171.64" rx="128.89" ry="21.43"/>
<text text-anchor="middle" x="563.41" y="-166.64" font-family="Times,serif" font-size="20.00">IsNear(coffee_table)</text>
</g>
<!-- a90d51a1&#45;5d25&#45;4e5b&#45;ab05&#45;2fa29939ae46&#45;&gt;f2ac7d85&#45;bd85&#45;4991&#45;9a10&#45;26be4c48060d -->
<g id="edge19" class="edge">
<title>a90d51a1&#45;5d25&#45;4e5b&#45;ab05&#45;2fa29939ae46&#45;&gt;f2ac7d85&#45;bd85&#45;4991&#45;9a10&#45;26be4c48060d</title>
<path fill="none" stroke="black" d="M666.88,-237.46C650.12,-226.96 624.88,-211.15 603.52,-197.77"/>
<polygon fill="black" stroke="black" points="605.28,-194.74 594.95,-192.4 601.57,-200.67 605.28,-194.74"/>
</g>
<!-- 3535b5f2&#45;ccb9&#45;4861&#45;bfaf&#45;5722ec2b4c30 -->
<g id="node21" class="node">
<title>3535b5f2&#45;ccb9&#45;4861&#45;bfaf&#45;5722ec2b4c30</title>
<ellipse fill="#ffff80" stroke="black" cx="807.41" cy="-171.64" rx="96.75" ry="21.43"/>
<text text-anchor="middle" x="807.41" y="-166.64" font-family="Times,serif" font-size="20.00">IsHolding(pen)</text>
</g>
<!-- a90d51a1&#45;5d25&#45;4e5b&#45;ab05&#45;2fa29939ae46&#45;&gt;3535b5f2&#45;ccb9&#45;4861&#45;bfaf&#45;5722ec2b4c30 -->
<g id="edge20" class="edge">
<title>a90d51a1&#45;5d25&#45;4e5b&#45;ab05&#45;2fa29939ae46&#45;&gt;3535b5f2&#45;ccb9&#45;4861&#45;bfaf&#45;5722ec2b4c30</title>
<path fill="none" stroke="black" d="M703.81,-234.88C706.65,-232.81 709.58,-230.74 712.41,-228.85 729.09,-217.72 748,-206.3 764.54,-196.69"/>
<polygon fill="black" stroke="black" points="766.54,-199.57 773.45,-191.54 763.04,-193.51 766.54,-199.57"/>
</g>
<!-- eb8047cc&#45;339a&#45;4cef&#45;9c29&#45;ca167e065b04 -->
<g id="node22" class="node">
<title>eb8047cc&#45;339a&#45;4cef&#45;9c29&#45;ca167e065b04</title>
<polygon fill="lightgreen" stroke="black" points="1152.41,-189.64 922.41,-189.64 922.41,-153.64 1152.41,-153.64 1152.41,-189.64"/>
<text text-anchor="middle" x="1037.41" y="-166.64" font-family="Times,serif" font-size="20.00">PlaceOn(pen,coffee_table)</text>
</g>
<!-- a90d51a1&#45;5d25&#45;4e5b&#45;ab05&#45;2fa29939ae46&#45;&gt;eb8047cc&#45;339a&#45;4cef&#45;9c29&#45;ca167e065b04 -->
<g id="edge21" class="edge">
<title>a90d51a1&#45;5d25&#45;4e5b&#45;ab05&#45;2fa29939ae46&#45;&gt;eb8047cc&#45;339a&#45;4cef&#45;9c29&#45;ca167e065b04</title>
<path fill="none" stroke="black" d="M701.79,-234.92C705.13,-232.59 708.75,-230.43 712.41,-228.85 717.46,-226.68 833.53,-206.86 925.52,-191.37"/>
<polygon fill="black" stroke="black" points="926.2,-194.8 935.48,-189.69 925.04,-187.9 926.2,-194.8"/>
</g>
<!-- 54716508&#45;1fc2&#45;4880&#45;abf8&#45;5c2615805631 -->
<g id="node24" class="node">
<title>54716508&#45;1fc2&#45;4880&#45;abf8&#45;5c2615805631</title>
<ellipse fill="#ffff80" stroke="black" cx="818.41" cy="-250.07" rx="96.75" ry="21.43"/>
<text text-anchor="middle" x="818.41" y="-245.07" font-family="Times,serif" font-size="20.00">IsHolding(pen)</text>
</g>
<!-- 976129e4&#45;320f&#45;4833&#45;bca1&#45;1a5e9d42e8d4&#45;&gt;54716508&#45;1fc2&#45;4880&#45;abf8&#45;5c2615805631 -->
<g id="edge23" class="edge">
<title>976129e4&#45;320f&#45;4833&#45;bca1&#45;1a5e9d42e8d4&#45;&gt;54716508&#45;1fc2&#45;4880&#45;abf8&#45;5c2615805631</title>
<path fill="none" stroke="black" d="M818.41,-313.47C818.41,-304.53 818.41,-292.57 818.41,-281.52"/>
<polygon fill="black" stroke="black" points="821.91,-281.33 818.41,-271.33 814.91,-281.33 821.91,-281.33"/>
</g>
<!-- 083b711b&#45;87d7&#45;4fb8&#45;ad66&#45;555f3b4790e6 -->
<g id="node25" class="node">
<title>083b711b&#45;87d7&#45;4fb8&#45;ad66&#45;555f3b4790e6</title>
<polygon fill="lightgreen" stroke="black" points="1103.41,-268.07 933.41,-268.07 933.41,-232.07 1103.41,-232.07 1103.41,-268.07"/>
<text text-anchor="middle" x="1018.41" y="-245.07" font-family="Times,serif" font-size="20.00">Walk(coffee_table)</text>
</g>
<!-- 976129e4&#45;320f&#45;4833&#45;bca1&#45;1a5e9d42e8d4&#45;&gt;083b711b&#45;87d7&#45;4fb8&#45;ad66&#45;555f3b4790e6 -->
<g id="edge24" class="edge">
<title>976129e4&#45;320f&#45;4833&#45;bca1&#45;1a5e9d42e8d4&#45;&gt;083b711b&#45;87d7&#45;4fb8&#45;ad66&#45;555f3b4790e6</title>
<path fill="none" stroke="black" d="M835.58,-313.35C838.73,-311.13 842.08,-309 845.41,-307.28 874.63,-292.13 908.73,-280 938.89,-270.94"/>
<polygon fill="black" stroke="black" points="939.93,-274.28 948.54,-268.1 937.96,-267.56 939.93,-274.28"/>
</g>
<!-- 7fb8a554&#45;f801&#45;44aa&#45;a4f8&#45;a422824482a5 -->
<g id="node27" class="node">
<title>7fb8a554&#45;f801&#45;44aa&#45;a4f8&#45;a422824482a5</title>
<ellipse fill="#ffff80" stroke="black" cx="953.41" cy="-328.49" rx="98.99" ry="21.43"/>
<text text-anchor="middle" x="953.41" y="-323.49" font-family="Times,serif" font-size="20.00">IsHandEmpty()</text>
</g>
<!-- 5ca2ccc6&#45;fa85&#45;47ed&#45;922e&#45;de5ca8cc65ce&#45;&gt;7fb8a554&#45;f801&#45;44aa&#45;a4f8&#45;a422824482a5 -->
<g id="edge26" class="edge">
<title>5ca2ccc6&#45;fa85&#45;47ed&#45;922e&#45;de5ca8cc65ce&#45;&gt;7fb8a554&#45;f801&#45;44aa&#45;a4f8&#45;a422824482a5</title>
<path fill="none" stroke="black" d="M1033.43,-391.9C1020.35,-381.7 1002.26,-367.59 986.59,-355.37"/>
<polygon fill="black" stroke="black" points="988.69,-352.57 978.65,-349.18 984.38,-358.09 988.69,-352.57"/>
</g>
<!-- ed894485&#45;cacd&#45;4391&#45;9004&#45;88b91ea48f9f -->
<g id="node28" class="node">
<title>ed894485&#45;cacd&#45;4391&#45;9004&#45;88b91ea48f9f</title>
<ellipse fill="#ffff80" stroke="black" cx="1149.41" cy="-328.49" rx="79.39" ry="21.43"/>
<text text-anchor="middle" x="1149.41" y="-323.49" font-family="Times,serif" font-size="20.00">IsNear(pen)</text>
</g>
<!-- 5ca2ccc6&#45;fa85&#45;47ed&#45;922e&#45;de5ca8cc65ce&#45;&gt;ed894485&#45;cacd&#45;4391&#45;9004&#45;88b91ea48f9f -->
<g id="edge27" class="edge">
<title>5ca2ccc6&#45;fa85&#45;47ed&#45;922e&#45;de5ca8cc65ce&#45;&gt;ed894485&#45;cacd&#45;4391&#45;9004&#45;88b91ea48f9f</title>
<path fill="none" stroke="black" d="M1069.38,-391.9C1082.56,-381.63 1100.82,-367.39 1116.57,-355.1"/>
<polygon fill="black" stroke="black" points="1118.8,-357.8 1124.54,-348.89 1114.5,-352.28 1118.8,-357.8"/>
</g>
<!-- 4178ce58&#45;d9ff&#45;497c&#45;a820&#45;a4e0e121a4d2 -->
<g id="node29" class="node">
<title>4178ce58&#45;d9ff&#45;497c&#45;a820&#45;a4e0e121a4d2</title>
<polygon fill="lightgreen" stroke="black" points="1352.41,-346.49 1246.41,-346.49 1246.41,-310.49 1352.41,-310.49 1352.41,-346.49"/>
<text text-anchor="middle" x="1299.41" y="-323.49" font-family="Times,serif" font-size="20.00">Grasp(pen)</text>
</g>
<!-- 5ca2ccc6&#45;fa85&#45;47ed&#45;922e&#45;de5ca8cc65ce&#45;&gt;4178ce58&#45;d9ff&#45;497c&#45;a820&#45;a4e0e121a4d2 -->
<g id="edge28" class="edge">
<title>5ca2ccc6&#45;fa85&#45;47ed&#45;922e&#45;de5ca8cc65ce&#45;&gt;4178ce58&#45;d9ff&#45;497c&#45;a820&#45;a4e0e121a4d2</title>
<path fill="none" stroke="black" d="M1068.15,-391.72C1071.41,-389.45 1074.9,-387.33 1078.41,-385.71 1144.19,-355.33 1167.56,-368.96 1237.41,-349.71 1237.86,-349.58 1238.31,-349.46 1238.76,-349.33"/>
<polygon fill="black" stroke="black" points="1239.8,-352.67 1248.43,-346.53 1237.85,-345.95 1239.8,-352.67"/>
</g>
<!-- 97744e8d&#45;a01c&#45;45b5&#45;a577&#45;c69dd07c63dd -->
<g id="node31" class="node">
<title>97744e8d&#45;a01c&#45;45b5&#45;a577&#45;c69dd07c63dd</title>
<ellipse fill="#ffff80" stroke="black" cx="1186.41" cy="-406.92" rx="98.99" ry="21.43"/>
<text text-anchor="middle" x="1186.41" y="-401.92" font-family="Times,serif" font-size="20.00">IsHandEmpty()</text>
</g>
<!-- 9ad68ac6&#45;3f09&#45;4cd2&#45;ab8e&#45;dc57fd4ffaeb&#45;&gt;97744e8d&#45;a01c&#45;45b5&#45;a577&#45;c69dd07c63dd -->
<g id="edge30" class="edge">
<title>9ad68ac6&#45;3f09&#45;4cd2&#45;ab8e&#45;dc57fd4ffaeb&#45;&gt;97744e8d&#45;a01c&#45;45b5&#45;a577&#45;c69dd07c63dd</title>
<path fill="none" stroke="black" d="M1186.41,-463.92C1186.41,-456.55 1186.41,-447.24 1186.41,-438.35"/>
<polygon fill="black" stroke="black" points="1189.91,-438.23 1186.41,-428.23 1182.91,-438.23 1189.91,-438.23"/>
</g>
<!-- 85773cfe&#45;2d57&#45;456c&#45;afc7&#45;28b553c9d221 -->
<g id="node32" class="node">
<title>85773cfe&#45;2d57&#45;456c&#45;afc7&#45;28b553c9d221</title>
<polygon fill="lightgreen" stroke="black" points="1403.41,-424.92 1303.41,-424.92 1303.41,-388.92 1403.41,-388.92 1403.41,-424.92"/>
<text text-anchor="middle" x="1353.41" y="-401.92" font-family="Times,serif" font-size="20.00">Walk(pen)</text>
</g>
<!-- 9ad68ac6&#45;3f09&#45;4cd2&#45;ab8e&#45;dc57fd4ffaeb&#45;&gt;85773cfe&#45;2d57&#45;456c&#45;afc7&#45;28b553c9d221 -->
<g id="edge31" class="edge">
<title>9ad68ac6&#45;3f09&#45;4cd2&#45;ab8e&#45;dc57fd4ffaeb&#45;&gt;85773cfe&#45;2d57&#45;456c&#45;afc7&#45;28b553c9d221</title>
<path fill="none" stroke="black" d="M1204.92,-470.35C1228.49,-460.44 1270.16,-442.92 1303.36,-428.96"/>
<polygon fill="black" stroke="black" points="1305.06,-432.04 1312.92,-424.94 1302.35,-425.59 1305.06,-432.04"/>
</g>
<!-- a2202add&#45;cfc5&#45;408c&#45;8a0f&#45;945b88e87ce0 -->
<g id="node34" class="node">
<title>a2202add&#45;cfc5&#45;408c&#45;8a0f&#45;945b88e87ce0</title>
<ellipse fill="#ffff80" stroke="black" cx="1262.41" cy="-551.35" rx="106.55" ry="21.43"/>
<text text-anchor="middle" x="1262.41" y="-546.35" font-family="Times,serif" font-size="20.00">IsHolding(apple)</text>
</g>
<!-- 65812986&#45;7acf&#45;4f44&#45;8de0&#45;796729c02943&#45;&gt;a2202add&#45;cfc5&#45;408c&#45;8a0f&#45;945b88e87ce0 -->
<g id="edge33" class="edge">
<title>65812986&#45;7acf&#45;4f44&#45;8de0&#45;796729c02943&#45;&gt;a2202add&#45;cfc5&#45;408c&#45;8a0f&#45;945b88e87ce0</title>
<path fill="none" stroke="black" d="M1467.7,-616.69C1437.1,-607.1 1374.99,-587.63 1327.05,-572.61"/>
<polygon fill="black" stroke="black" points="1327.95,-569.22 1317.36,-569.57 1325.86,-575.9 1327.95,-569.22"/>
</g>
<!-- 622d4f1d&#45;04fc&#45;4ae9&#45;a5a1&#45;27e11fc70bf3 -->
<g id="node35" class="node">
<title>622d4f1d&#45;04fc&#45;4ae9&#45;a5a1&#45;27e11fc70bf3</title>
<ellipse fill="#ffff80" stroke="black" cx="1486.41" cy="-551.35" rx="98.99" ry="21.43"/>
<text text-anchor="middle" x="1486.41" y="-546.35" font-family="Times,serif" font-size="20.00">IsHandEmpty()</text>
</g>
<!-- 65812986&#45;7acf&#45;4f44&#45;8de0&#45;796729c02943&#45;&gt;622d4f1d&#45;04fc&#45;4ae9&#45;a5a1&#45;27e11fc70bf3 -->
<g id="edge34" class="edge">
<title>65812986&#45;7acf&#45;4f44&#45;8de0&#45;796729c02943&#45;&gt;622d4f1d&#45;04fc&#45;4ae9&#45;a5a1&#45;27e11fc70bf3</title>
<path fill="none" stroke="black" d="M1486.41,-608.35C1486.41,-600.98 1486.41,-591.67 1486.41,-582.77"/>
<polygon fill="black" stroke="black" points="1489.91,-582.65 1486.41,-572.65 1482.91,-582.65 1489.91,-582.65"/>
</g>
<!-- 516db7f6&#45;775c&#45;4ba1&#45;8689&#45;8e5d8126e2ff -->
<g id="node36" class="node">
<title>516db7f6&#45;775c&#45;4ba1&#45;8689&#45;8e5d8126e2ff</title>
<ellipse fill="#ffff80" stroke="black" cx="1732.41" cy="-551.35" rx="128.89" ry="21.43"/>
<text text-anchor="middle" x="1732.41" y="-546.35" font-family="Times,serif" font-size="20.00">IsNear(coffee_table)</text>
</g>
<!-- 65812986&#45;7acf&#45;4f44&#45;8de0&#45;796729c02943&#45;&gt;516db7f6&#45;775c&#45;4ba1&#45;8689&#45;8e5d8126e2ff -->
<g id="edge35" class="edge">
<title>65812986&#45;7acf&#45;4f44&#45;8de0&#45;796729c02943&#45;&gt;516db7f6&#45;775c&#45;4ba1&#45;8689&#45;8e5d8126e2ff</title>
<path fill="none" stroke="black" d="M1505.3,-617.17C1538.14,-607.79 1607.33,-588.05 1660.76,-572.8"/>
<polygon fill="black" stroke="black" points="1661.88,-576.11 1670.54,-570 1659.96,-569.38 1661.88,-576.11"/>
</g>
<!-- 666af887&#45;02dc&#45;4a6e&#45;9e1c&#45;242cc47dfe87 -->
<g id="node37" class="node">
<title>666af887&#45;02dc&#45;4a6e&#45;9e1c&#45;242cc47dfe87</title>
<polygon fill="lightgreen" stroke="black" points="2123.41,-569.35 1879.41,-569.35 1879.41,-533.35 2123.41,-533.35 2123.41,-569.35"/>
<text text-anchor="middle" x="2001.41" y="-546.35" font-family="Times,serif" font-size="20.00">PlaceOn(apple,coffee_table)</text>
</g>
<!-- 65812986&#45;7acf&#45;4f44&#45;8de0&#45;796729c02943&#45;&gt;666af887&#45;02dc&#45;4a6e&#45;9e1c&#45;242cc47dfe87 -->
<g id="edge36" class="edge">
<title>65812986&#45;7acf&#45;4f44&#45;8de0&#45;796729c02943&#45;&gt;666af887&#45;02dc&#45;4a6e&#45;9e1c&#45;242cc47dfe87</title>
<path fill="none" stroke="black" d="M1505.21,-620.27C1560.97,-613.45 1730.3,-592.49 1870.41,-572.56 1874.33,-572 1878.32,-571.43 1882.35,-570.84"/>
<polygon fill="black" stroke="black" points="1883.04,-574.28 1892.43,-569.36 1882.03,-567.35 1883.04,-574.28"/>
</g>
</g>
</svg>
