<?xml version="1.0" encoding="UTF-8" standalone="no"?>
<!DOCTYPE svg PUBLIC "-//W3C//DTD SVG 1.1//EN"
 "http://www.w3.org/Graphics/SVG/1.1/DTD/svg11.dtd">
<!-- Generated by graphviz version 2.43.0 (0)
 -->
<!-- Title: pastafarianism Pages: 1 -->
<svg width="1745pt" height="935pt"
 viewBox="0.00 0.00 1744.69 935.41" xmlns="http://www.w3.org/2000/svg" xmlns:xlink="http://www.w3.org/1999/xlink">
<g id="graph0" class="graph" transform="scale(1 1) rotate(0) translate(4 931.41)">
<title>pastafarianism</title>
<polygon fill="white" stroke="transparent" points="-4,4 -4,-931.41 1740.69,-931.41 1740.69,4 -4,4"/>
<!-- 618c8458&#45;c541&#45;4f20&#45;b253&#45;8f48cec11c5c -->
<g id="node1" class="node">
<title>618c8458&#45;c541&#45;4f20&#45;b253&#45;8f48cec11c5c</title>
<polygon fill="#b0ffff" stroke="black" points="916.69,-927.41 880.69,-927.41 880.69,-897.41 916.69,-897.41 916.69,-927.41"/>
<text text-anchor="middle" x="898.69" y="-907.41" font-family="Times,serif" font-size="20.00"> ? </text>
</g>
<!-- 34d43591&#45;005f&#45;4a2e&#45;b19e&#45;2f3071a309b4 -->
<g id="node2" class="node">
<title>34d43591&#45;005f&#45;4a2e&#45;b19e&#45;2f3071a309b4</title>
<polygon fill="#ff8080" stroke="black" points="767.19,-861.41 730.19,-861.41 730.19,-831.41 767.19,-831.41 767.19,-861.41"/>
<text text-anchor="middle" x="748.69" y="-841.41" font-family="Times,serif" font-size="20.00">→</text>
</g>
<!-- 618c8458&#45;c541&#45;4f20&#45;b253&#45;8f48cec11c5c&#45;&gt;34d43591&#45;005f&#45;4a2e&#45;b19e&#45;2f3071a309b4 -->
<g id="edge1" class="edge">
<title>618c8458&#45;c541&#45;4f20&#45;b253&#45;8f48cec11c5c&#45;&gt;34d43591&#45;005f&#45;4a2e&#45;b19e&#45;2f3071a309b4</title>
<path fill="none" stroke="black" d="M880.6,-903.69C854.73,-892.65 806.93,-872.26 776.53,-859.29"/>
<polygon fill="black" stroke="black" points="777.89,-856.06 767.32,-855.36 775.15,-862.5 777.89,-856.06"/>
</g>
<!-- bce780d1&#45;0f1d&#45;48a5&#45;b1e3&#45;53b6aee1c2e6 -->
<g id="node6" class="node">
<title>bce780d1&#45;0f1d&#45;48a5&#45;b1e3&#45;53b6aee1c2e6</title>
<polygon fill="#ff8080" stroke="black" points="1213.19,-861.41 1176.19,-861.41 1176.19,-831.41 1213.19,-831.41 1213.19,-861.41"/>
<text text-anchor="middle" x="1194.69" y="-841.41" font-family="Times,serif" font-size="20.00">→</text>
</g>
<!-- 618c8458&#45;c541&#45;4f20&#45;b253&#45;8f48cec11c5c&#45;&gt;bce780d1&#45;0f1d&#45;48a5&#45;b1e3&#45;53b6aee1c2e6 -->
<g id="edge5" class="edge">
<title>618c8458&#45;c541&#45;4f20&#45;b253&#45;8f48cec11c5c&#45;&gt;bce780d1&#45;0f1d&#45;48a5&#45;b1e3&#45;53b6aee1c2e6</title>
<path fill="none" stroke="black" d="M916.76,-907.5C966.5,-896.75 1105.69,-866.65 1166.11,-853.59"/>
<polygon fill="black" stroke="black" points="1167.07,-856.97 1176.1,-851.43 1165.59,-850.12 1167.07,-856.97"/>
</g>
<!-- 37ff4837&#45;d98e&#45;4b59&#45;9fe9&#45;9eb1c7129c61 -->
<g id="node3" class="node">
<title>37ff4837&#45;d98e&#45;4b59&#45;9fe9&#45;9eb1c7129c61</title>
<ellipse fill="#ffff80" stroke="black" cx="352.69" cy="-774.2" rx="100.32" ry="21.43"/>
<text text-anchor="middle" x="352.69" y="-769.2" font-family="Times,serif" font-size="20.00">Closed(cabinet)</text>
</g>
<!-- 34d43591&#45;005f&#45;4a2e&#45;b19e&#45;2f3071a309b4&#45;&gt;37ff4837&#45;d98e&#45;4b59&#45;9fe9&#45;9eb1c7129c61 -->
<g id="edge2" class="edge">
<title>34d43591&#45;005f&#45;4a2e&#45;b19e&#45;2f3071a309b4&#45;&gt;37ff4837&#45;d98e&#45;4b59&#45;9fe9&#45;9eb1c7129c61</title>
<path fill="none" stroke="black" d="M729.88,-842.21C684,-834.38 562.74,-813.58 461.69,-795.41 453.23,-793.89 444.4,-792.28 435.59,-790.67"/>
<polygon fill="black" stroke="black" points="436.14,-787.21 425.67,-788.84 434.87,-794.09 436.14,-787.21"/>
</g>
<!-- bbc3d501&#45;0da0&#45;4302&#45;8f9c&#45;a77c057243f3 -->
<g id="node4" class="node">
<title>bbc3d501&#45;0da0&#45;4302&#45;8f9c&#45;a77c057243f3</title>
<ellipse fill="#ffff80" stroke="black" cx="602.69" cy="-774.2" rx="131.54" ry="21.43"/>
<text text-anchor="middle" x="602.69" y="-769.2" font-family="Times,serif" font-size="20.00">On(pen,coffee_table)</text>
</g>
<!-- 34d43591&#45;005f&#45;4a2e&#45;b19e&#45;2f3071a309b4&#45;&gt;bbc3d501&#45;0da0&#45;4302&#45;8f9c&#45;a77c057243f3 -->
<g id="edge3" class="edge">
<title>34d43591&#45;005f&#45;4a2e&#45;b19e&#45;2f3071a309b4&#45;&gt;bbc3d501&#45;0da0&#45;4302&#45;8f9c&#45;a77c057243f3</title>
<path fill="none" stroke="black" d="M729.91,-836.38C710.34,-826.97 678.87,-811.83 652.13,-798.97"/>
<polygon fill="black" stroke="black" points="653.42,-795.71 642.89,-794.53 650.39,-802.02 653.42,-795.71"/>
</g>
<!-- 61334c7e&#45;2f20&#45;4cf0&#45;8062&#45;18574540095a -->
<g id="node5" class="node">
<title>61334c7e&#45;2f20&#45;4cf0&#45;8062&#45;18574540095a</title>
<ellipse fill="#ffff80" stroke="black" cx="893.69" cy="-774.2" rx="141.34" ry="21.43"/>
<text text-anchor="middle" x="893.69" y="-769.2" font-family="Times,serif" font-size="20.00">On(apple,coffee_table)</text>
</g>
<!-- 34d43591&#45;005f&#45;4a2e&#45;b19e&#45;2f3071a309b4&#45;&gt;61334c7e&#45;2f20&#45;4cf0&#45;8062&#45;18574540095a -->
<g id="edge4" class="edge">
<title>34d43591&#45;005f&#45;4a2e&#45;b19e&#45;2f3071a309b4&#45;&gt;61334c7e&#45;2f20&#45;4cf0&#45;8062&#45;18574540095a</title>
<path fill="none" stroke="black" d="M767.35,-836.38C786.72,-827 817.82,-811.94 844.32,-799.11"/>
<polygon fill="black" stroke="black" points="846,-802.18 853.47,-794.68 842.94,-795.88 846,-802.18"/>
</g>
<!-- e7dcf433&#45;2a40&#45;40a9&#45;bc15&#45;b2c57d439f81 -->
<g id="node7" class="node">
<title>e7dcf433&#45;2a40&#45;40a9&#45;bc15&#45;b2c57d439f81</title>
<ellipse fill="#ffff80" stroke="black" cx="1194.69" cy="-774.2" rx="141.34" ry="21.43"/>
<text text-anchor="middle" x="1194.69" y="-769.2" font-family="Times,serif" font-size="20.00">On(apple,coffee_table)</text>
</g>
<!-- bce780d1&#45;0f1d&#45;48a5&#45;b1e3&#45;53b6aee1c2e6&#45;&gt;e7dcf433&#45;2a40&#45;40a9&#45;bc15&#45;b2c57d439f81 -->
<g id="edge6" class="edge">
<title>bce780d1&#45;0f1d&#45;48a5&#45;b1e3&#45;53b6aee1c2e6&#45;&gt;e7dcf433&#45;2a40&#45;40a9&#45;bc15&#45;b2c57d439f81</title>
<path fill="none" stroke="black" d="M1194.69,-831.2C1194.69,-823.83 1194.69,-814.52 1194.69,-805.62"/>
<polygon fill="black" stroke="black" points="1198.19,-805.51 1194.69,-795.51 1191.19,-805.51 1198.19,-805.51"/>
</g>
<!-- d419ddba&#45;5a01&#45;4d1f&#45;8288&#45;1ad3ce493a2b -->
<g id="node8" class="node">
<title>d419ddba&#45;5a01&#45;4d1f&#45;8288&#45;1ad3ce493a2b</title>
<polygon fill="#b0ffff" stroke="black" points="1389.69,-789.2 1353.69,-789.2 1353.69,-759.2 1389.69,-759.2 1389.69,-789.2"/>
<text text-anchor="middle" x="1371.69" y="-769.2" font-family="Times,serif" font-size="20.00"> ? </text>
</g>
<!-- bce780d1&#45;0f1d&#45;48a5&#45;b1e3&#45;53b6aee1c2e6&#45;&gt;d419ddba&#45;5a01&#45;4d1f&#45;8288&#45;1ad3ce493a2b -->
<g id="edge7" class="edge">
<title>bce780d1&#45;0f1d&#45;48a5&#45;b1e3&#45;53b6aee1c2e6&#45;&gt;d419ddba&#45;5a01&#45;4d1f&#45;8288&#45;1ad3ce493a2b</title>
<path fill="none" stroke="black" d="M1213.47,-841.22C1242.66,-834.25 1300.19,-818.71 1344.69,-795.41 1345.11,-795.19 1345.52,-794.97 1345.94,-794.74"/>
<polygon fill="black" stroke="black" points="1347.93,-797.62 1354.52,-789.32 1344.19,-791.71 1347.93,-797.62"/>
</g>
<!-- 4cf2c036&#45;a824&#45;436d&#45;a3d4&#45;4c3020d00a2c -->
<g id="node9" class="node">
<title>4cf2c036&#45;a824&#45;436d&#45;a3d4&#45;4c3020d00a2c</title>
<polygon fill="#b0ffff" stroke="black" points="1298.69,-716.98 1262.69,-716.98 1262.69,-686.98 1298.69,-686.98 1298.69,-716.98"/>
<text text-anchor="middle" x="1280.69" y="-696.98" font-family="Times,serif" font-size="20.00"> ? </text>
</g>
<!-- d419ddba&#45;5a01&#45;4d1f&#45;8288&#45;1ad3ce493a2b&#45;&gt;4cf2c036&#45;a824&#45;436d&#45;a3d4&#45;4c3020d00a2c -->
<g id="edge8" class="edge">
<title>d419ddba&#45;5a01&#45;4d1f&#45;8288&#45;1ad3ce493a2b&#45;&gt;4cf2c036&#45;a824&#45;436d&#45;a3d4&#45;4c3020d00a2c</title>
<path fill="none" stroke="black" d="M1353.28,-758.99C1339.99,-748.74 1321.87,-734.75 1307.05,-723.32"/>
<polygon fill="black" stroke="black" points="1308.83,-720.27 1298.77,-716.93 1304.55,-725.81 1308.83,-720.27"/>
</g>
<!-- 96795ffa&#45;7c2c&#45;4be3&#45;bd89&#45;cfbe8b0ef3d0 -->
<g id="node41" class="node">
<title>96795ffa&#45;7c2c&#45;4be3&#45;bd89&#45;cfbe8b0ef3d0</title>
<polygon fill="#ff8080" stroke="black" points="1481.19,-716.98 1444.19,-716.98 1444.19,-686.98 1481.19,-686.98 1481.19,-716.98"/>
<text text-anchor="middle" x="1462.69" y="-696.98" font-family="Times,serif" font-size="20.00">→</text>
</g>
<!-- d419ddba&#45;5a01&#45;4d1f&#45;8288&#45;1ad3ce493a2b&#45;&gt;96795ffa&#45;7c2c&#45;4be3&#45;bd89&#45;cfbe8b0ef3d0 -->
<g id="edge40" class="edge">
<title>d419ddba&#45;5a01&#45;4d1f&#45;8288&#45;1ad3ce493a2b&#45;&gt;96795ffa&#45;7c2c&#45;4be3&#45;bd89&#45;cfbe8b0ef3d0</title>
<path fill="none" stroke="black" d="M1390.11,-758.99C1403.31,-748.81 1421.28,-734.93 1436.05,-723.55"/>
<polygon fill="black" stroke="black" points="1438.53,-726.05 1444.31,-717.17 1434.25,-720.51 1438.53,-726.05"/>
</g>
<!-- 23ce3e23&#45;3fa0&#45;4228&#45;b762&#45;df9f24c5ba71 -->
<g id="node10" class="node">
<title>23ce3e23&#45;3fa0&#45;4228&#45;b762&#45;df9f24c5ba71</title>
<polygon fill="#b0ffff" stroke="black" points="991.69,-644.77 955.69,-644.77 955.69,-614.77 991.69,-614.77 991.69,-644.77"/>
<text text-anchor="middle" x="973.69" y="-624.77" font-family="Times,serif" font-size="20.00"> ? </text>
</g>
<!-- 4cf2c036&#45;a824&#45;436d&#45;a3d4&#45;4c3020d00a2c&#45;&gt;23ce3e23&#45;3fa0&#45;4228&#45;b762&#45;df9f24c5ba71 -->
<g id="edge9" class="edge">
<title>4cf2c036&#45;a824&#45;436d&#45;a3d4&#45;4c3020d00a2c&#45;&gt;23ce3e23&#45;3fa0&#45;4228&#45;b762&#45;df9f24c5ba71</title>
<path fill="none" stroke="black" d="M1262.41,-696.8C1210.79,-685 1063.7,-651.36 1001.74,-637.19"/>
<polygon fill="black" stroke="black" points="1002.41,-633.75 991.88,-634.93 1000.85,-640.57 1002.41,-633.75"/>
</g>
<!-- 4da09c4f&#45;db36&#45;4413&#45;8c6c&#45;e08440b735a4 -->
<g id="node37" class="node">
<title>4da09c4f&#45;db36&#45;4413&#45;8c6c&#45;e08440b735a4</title>
<polygon fill="#ff8080" stroke="black" points="1299.19,-644.77 1262.19,-644.77 1262.19,-614.77 1299.19,-614.77 1299.19,-644.77"/>
<text text-anchor="middle" x="1280.69" y="-624.77" font-family="Times,serif" font-size="20.00">→</text>
</g>
<!-- 4cf2c036&#45;a824&#45;436d&#45;a3d4&#45;4c3020d00a2c&#45;&gt;4da09c4f&#45;db36&#45;4413&#45;8c6c&#45;e08440b735a4 -->
<g id="edge36" class="edge">
<title>4cf2c036&#45;a824&#45;436d&#45;a3d4&#45;4c3020d00a2c&#45;&gt;4da09c4f&#45;db36&#45;4413&#45;8c6c&#45;e08440b735a4</title>
<path fill="none" stroke="black" d="M1280.69,-686.78C1280.69,-677.74 1280.69,-665.79 1280.69,-655.25"/>
<polygon fill="black" stroke="black" points="1284.19,-654.96 1280.69,-644.96 1277.19,-654.96 1284.19,-654.96"/>
</g>
<!-- ba3a807d&#45;d1c4&#45;4996&#45;bdf7&#45;0641b73a1604 -->
<g id="node11" class="node">
<title>ba3a807d&#45;d1c4&#45;4996&#45;bdf7&#45;0641b73a1604</title>
<polygon fill="#b0ffff" stroke="black" points="856.69,-566.35 820.69,-566.35 820.69,-536.35 856.69,-536.35 856.69,-566.35"/>
<text text-anchor="middle" x="838.69" y="-546.35" font-family="Times,serif" font-size="20.00"> ? </text>
</g>
<!-- 23ce3e23&#45;3fa0&#45;4228&#45;b762&#45;df9f24c5ba71&#45;&gt;ba3a807d&#45;d1c4&#45;4996&#45;bdf7&#45;0641b73a1604 -->
<g id="edge10" class="edge">
<title>23ce3e23&#45;3fa0&#45;4228&#45;b762&#45;df9f24c5ba71&#45;&gt;ba3a807d&#45;d1c4&#45;4996&#45;bdf7&#45;0641b73a1604</title>
<path fill="none" stroke="black" d="M955.49,-618.46C932.44,-605.42 892.53,-582.82 865.87,-567.73"/>
<polygon fill="black" stroke="black" points="867.47,-564.61 857.04,-562.73 864.02,-570.71 867.47,-564.61"/>
</g>
<!-- a3ed302f&#45;150c&#45;4923&#45;9bbe&#45;65376ff24052 -->
<g id="node34" class="node">
<title>a3ed302f&#45;150c&#45;4923&#45;9bbe&#45;65376ff24052</title>
<polygon fill="#ff8080" stroke="black" points="992.19,-566.35 955.19,-566.35 955.19,-536.35 992.19,-536.35 992.19,-566.35"/>
<text text-anchor="middle" x="973.69" y="-546.35" font-family="Times,serif" font-size="20.00">→</text>
</g>
<!-- 23ce3e23&#45;3fa0&#45;4228&#45;b762&#45;df9f24c5ba71&#45;&gt;a3ed302f&#45;150c&#45;4923&#45;9bbe&#45;65376ff24052 -->
<g id="edge33" class="edge">
<title>23ce3e23&#45;3fa0&#45;4228&#45;b762&#45;df9f24c5ba71&#45;&gt;a3ed302f&#45;150c&#45;4923&#45;9bbe&#45;65376ff24052</title>
<path fill="none" stroke="black" d="M973.69,-614.75C973.69,-604.15 973.69,-589.34 973.69,-576.8"/>
<polygon fill="black" stroke="black" points="977.19,-576.53 973.69,-566.53 970.19,-576.53 977.19,-576.53"/>
</g>
<!-- aee84037&#45;88c6&#45;4799&#45;99b0&#45;dc32e370a5bc -->
<g id="node12" class="node">
<title>aee84037&#45;88c6&#45;4799&#45;99b0&#45;dc32e370a5bc</title>
<polygon fill="#ff8080" stroke="black" points="614.19,-487.92 577.19,-487.92 577.19,-457.92 614.19,-457.92 614.19,-487.92"/>
<text text-anchor="middle" x="595.69" y="-467.92" font-family="Times,serif" font-size="20.00">→</text>
</g>
<!-- ba3a807d&#45;d1c4&#45;4996&#45;bdf7&#45;0641b73a1604&#45;&gt;aee84037&#45;88c6&#45;4799&#45;99b0&#45;dc32e370a5bc -->
<g id="edge11" class="edge">
<title>ba3a807d&#45;d1c4&#45;4996&#45;bdf7&#45;0641b73a1604&#45;&gt;aee84037&#45;88c6&#45;4799&#45;99b0&#45;dc32e370a5bc</title>
<path fill="none" stroke="black" d="M820.43,-544.6C778.4,-531.38 674.59,-498.73 624.13,-482.86"/>
<polygon fill="black" stroke="black" points="625.09,-479.5 614.5,-479.83 622.99,-486.17 625.09,-479.5"/>
</g>
<!-- 9e57f71a&#45;bd3a&#45;4e32&#45;a21f&#45;c5843526e771 -->
<g id="node30" class="node">
<title>9e57f71a&#45;bd3a&#45;4e32&#45;a21f&#45;c5843526e771</title>
<polygon fill="#ff8080" stroke="black" points="857.19,-487.92 820.19,-487.92 820.19,-457.92 857.19,-457.92 857.19,-487.92"/>
<text text-anchor="middle" x="838.69" y="-467.92" font-family="Times,serif" font-size="20.00">→</text>
</g>
<!-- ba3a807d&#45;d1c4&#45;4996&#45;bdf7&#45;0641b73a1604&#45;&gt;9e57f71a&#45;bd3a&#45;4e32&#45;a21f&#45;c5843526e771 -->
<g id="edge29" class="edge">
<title>ba3a807d&#45;d1c4&#45;4996&#45;bdf7&#45;0641b73a1604&#45;&gt;9e57f71a&#45;bd3a&#45;4e32&#45;a21f&#45;c5843526e771</title>
<path fill="none" stroke="black" d="M838.69,-536.33C838.69,-525.73 838.69,-510.91 838.69,-498.37"/>
<polygon fill="black" stroke="black" points="842.19,-498.11 838.69,-488.11 835.19,-498.11 842.19,-498.11"/>
</g>
<!-- 482b3005&#45;6b88&#45;44fa&#45;b3fd&#45;446790deaa4d -->
<g id="node13" class="node">
<title>482b3005&#45;6b88&#45;44fa&#45;b3fd&#45;446790deaa4d</title>
<ellipse fill="#ffff80" stroke="black" cx="459.69" cy="-394.49" rx="100.32" ry="21.43"/>
<text text-anchor="middle" x="459.69" y="-389.49" font-family="Times,serif" font-size="20.00">Closed(cabinet)</text>
</g>
<!-- aee84037&#45;88c6&#45;4799&#45;99b0&#45;dc32e370a5bc&#45;&gt;482b3005&#45;6b88&#45;44fa&#45;b3fd&#45;446790deaa4d -->
<g id="edge12" class="edge">
<title>aee84037&#45;88c6&#45;4799&#45;99b0&#45;dc32e370a5bc&#45;&gt;482b3005&#45;6b88&#45;44fa&#45;b3fd&#45;446790deaa4d</title>
<path fill="none" stroke="black" d="M577.07,-461.45C557.95,-450.71 527.55,-433.62 502.47,-419.53"/>
<polygon fill="black" stroke="black" points="503.94,-416.34 493.51,-414.5 500.51,-422.45 503.94,-416.34"/>
</g>
<!-- a7b75132&#45;384a&#45;4553&#45;9fe5&#45;fc0e98692ee4 -->
<g id="node14" class="node">
<title>a7b75132&#45;384a&#45;4553&#45;9fe5&#45;fc0e98692ee4</title>
<polygon fill="#b0ffff" stroke="black" points="613.69,-409.49 577.69,-409.49 577.69,-379.49 613.69,-379.49 613.69,-409.49"/>
<text text-anchor="middle" x="595.69" y="-389.49" font-family="Times,serif" font-size="20.00"> ? </text>
</g>
<!-- aee84037&#45;88c6&#45;4799&#45;99b0&#45;dc32e370a5bc&#45;&gt;a7b75132&#45;384a&#45;4553&#45;9fe5&#45;fc0e98692ee4 -->
<g id="edge13" class="edge">
<title>aee84037&#45;88c6&#45;4799&#45;99b0&#45;dc32e370a5bc&#45;&gt;a7b75132&#45;384a&#45;4553&#45;9fe5&#45;fc0e98692ee4</title>
<path fill="none" stroke="black" d="M595.69,-457.9C595.69,-447.3 595.69,-432.48 595.69,-419.95"/>
<polygon fill="black" stroke="black" points="599.19,-419.68 595.69,-409.68 592.19,-419.68 599.19,-419.68"/>
</g>
<!-- 0fe9b90a&#45;1147&#45;4a98&#45;bdde&#45;94a2c5005f4d -->
<g id="node15" class="node">
<title>0fe9b90a&#45;1147&#45;4a98&#45;bdde&#45;94a2c5005f4d</title>
<polygon fill="#b0ffff" stroke="black" points="545.69,-337.28 509.69,-337.28 509.69,-307.28 545.69,-307.28 545.69,-337.28"/>
<text text-anchor="middle" x="527.69" y="-317.28" font-family="Times,serif" font-size="20.00"> ? </text>
</g>
<!-- a7b75132&#45;384a&#45;4553&#45;9fe5&#45;fc0e98692ee4&#45;&gt;0fe9b90a&#45;1147&#45;4a98&#45;bdde&#45;94a2c5005f4d -->
<g id="edge14" class="edge">
<title>a7b75132&#45;384a&#45;4553&#45;9fe5&#45;fc0e98692ee4&#45;&gt;0fe9b90a&#45;1147&#45;4a98&#45;bdde&#45;94a2c5005f4d</title>
<path fill="none" stroke="black" d="M581.93,-379.28C572.35,-369.39 559.39,-356 548.54,-344.8"/>
<polygon fill="black" stroke="black" points="550.9,-342.22 541.43,-337.47 545.88,-347.09 550.9,-342.22"/>
</g>
<!-- ae676b2e&#45;1c33&#45;428d&#45;8edc&#45;9f54d8747390 -->
<g id="node27" class="node">
<title>ae676b2e&#45;1c33&#45;428d&#45;8edc&#45;9f54d8747390</title>
<polygon fill="#ff8080" stroke="black" points="681.19,-337.28 644.19,-337.28 644.19,-307.28 681.19,-307.28 681.19,-337.28"/>
<text text-anchor="middle" x="662.69" y="-317.28" font-family="Times,serif" font-size="20.00">→</text>
</g>
<!-- a7b75132&#45;384a&#45;4553&#45;9fe5&#45;fc0e98692ee4&#45;&gt;ae676b2e&#45;1c33&#45;428d&#45;8edc&#45;9f54d8747390 -->
<g id="edge26" class="edge">
<title>a7b75132&#45;384a&#45;4553&#45;9fe5&#45;fc0e98692ee4&#45;&gt;ae676b2e&#45;1c33&#45;428d&#45;8edc&#45;9f54d8747390</title>
<path fill="none" stroke="black" d="M609.25,-379.28C618.7,-369.39 631.47,-356 642.15,-344.8"/>
<polygon fill="black" stroke="black" points="644.78,-347.12 649.16,-337.47 639.72,-342.29 644.78,-347.12"/>
</g>
<!-- 335cd537&#45;9981&#45;4645&#45;ae8f&#45;d919fbd74ea0 -->
<g id="node16" class="node">
<title>335cd537&#45;9981&#45;4645&#45;ae8f&#45;d919fbd74ea0</title>
<polygon fill="#ff8080" stroke="black" points="333.19,-265.07 296.19,-265.07 296.19,-235.07 333.19,-235.07 333.19,-265.07"/>
<text text-anchor="middle" x="314.69" y="-245.07" font-family="Times,serif" font-size="20.00">→</text>
</g>
<!-- 0fe9b90a&#45;1147&#45;4a98&#45;bdde&#45;94a2c5005f4d&#45;&gt;335cd537&#45;9981&#45;4645&#45;ae8f&#45;d919fbd74ea0 -->
<g id="edge15" class="edge">
<title>0fe9b90a&#45;1147&#45;4a98&#45;bdde&#45;94a2c5005f4d&#45;&gt;335cd537&#45;9981&#45;4645&#45;ae8f&#45;d919fbd74ea0</title>
<path fill="none" stroke="black" d="M509.53,-315.29C472.39,-303.05 387.48,-275.06 343.03,-260.41"/>
<polygon fill="black" stroke="black" points="344.01,-257.04 333.41,-257.24 341.82,-263.69 344.01,-257.04"/>
</g>
<!-- c3862dea&#45;face&#45;4d57&#45;a611&#45;3f4c6e985056 -->
<g id="node23" class="node">
<title>c3862dea&#45;face&#45;4d57&#45;a611&#45;3f4c6e985056</title>
<polygon fill="#ff8080" stroke="black" points="546.19,-265.07 509.19,-265.07 509.19,-235.07 546.19,-235.07 546.19,-265.07"/>
<text text-anchor="middle" x="527.69" y="-245.07" font-family="Times,serif" font-size="20.00">→</text>
</g>
<!-- 0fe9b90a&#45;1147&#45;4a98&#45;bdde&#45;94a2c5005f4d&#45;&gt;c3862dea&#45;face&#45;4d57&#45;a611&#45;3f4c6e985056 -->
<g id="edge22" class="edge">
<title>0fe9b90a&#45;1147&#45;4a98&#45;bdde&#45;94a2c5005f4d&#45;&gt;c3862dea&#45;face&#45;4d57&#45;a611&#45;3f4c6e985056</title>
<path fill="none" stroke="black" d="M527.69,-307.07C527.69,-298.03 527.69,-286.08 527.69,-275.54"/>
<polygon fill="black" stroke="black" points="531.19,-275.25 527.69,-265.25 524.19,-275.25 531.19,-275.25"/>
</g>
<!-- b907559c&#45;9f8e&#45;42f1&#45;bff2&#45;225038e864aa -->
<g id="node17" class="node">
<title>b907559c&#45;9f8e&#45;42f1&#45;bff2&#45;225038e864aa</title>
<ellipse fill="#ffff80" stroke="black" cx="181.69" cy="-171.64" rx="96.75" ry="21.43"/>
<text text-anchor="middle" x="181.69" y="-166.64" font-family="Times,serif" font-size="20.00">IsHolding(pen)</text>
</g>
<!-- 335cd537&#45;9981&#45;4645&#45;ae8f&#45;d919fbd74ea0&#45;&gt;b907559c&#45;9f8e&#45;42f1&#45;bff2&#45;225038e864aa -->
<g id="edge16" class="edge">
<title>335cd537&#45;9981&#45;4645&#45;ae8f&#45;d919fbd74ea0&#45;&gt;b907559c&#45;9f8e&#45;42f1&#45;bff2&#45;225038e864aa</title>
<path fill="none" stroke="black" d="M295.92,-238.28C277.17,-227.5 247.72,-210.58 223.42,-196.62"/>
<polygon fill="black" stroke="black" points="225.15,-193.57 214.73,-191.63 221.66,-199.64 225.15,-193.57"/>
</g>
<!-- 23c8a2d3&#45;dcc7&#45;4e39&#45;bc20&#45;4f9984d5ede4 -->
<g id="node18" class="node">
<title>23c8a2d3&#45;dcc7&#45;4e39&#45;bc20&#45;4f9984d5ede4</title>
<polygon fill="#b0ffff" stroke="black" points="332.69,-186.64 296.69,-186.64 296.69,-156.64 332.69,-156.64 332.69,-186.64"/>
<text text-anchor="middle" x="314.69" y="-166.64" font-family="Times,serif" font-size="20.00"> ? </text>
</g>
<!-- 335cd537&#45;9981&#45;4645&#45;ae8f&#45;d919fbd74ea0&#45;&gt;23c8a2d3&#45;dcc7&#45;4e39&#45;bc20&#45;4f9984d5ede4 -->
<g id="edge17" class="edge">
<title>335cd537&#45;9981&#45;4645&#45;ae8f&#45;d919fbd74ea0&#45;&gt;23c8a2d3&#45;dcc7&#45;4e39&#45;bc20&#45;4f9984d5ede4</title>
<path fill="none" stroke="black" d="M314.69,-235.05C314.69,-224.45 314.69,-209.63 314.69,-197.09"/>
<polygon fill="black" stroke="black" points="318.19,-196.83 314.69,-186.83 311.19,-196.83 318.19,-196.83"/>
</g>
<!-- e7cdeee9&#45;4424&#45;41ee&#45;9ba4&#45;7be5cb559f5e -->
<g id="node19" class="node">
<title>e7cdeee9&#45;4424&#45;41ee&#45;9ba4&#45;7be5cb559f5e</title>
<polygon fill="#ff8080" stroke="black" points="272.19,-111.43 235.19,-111.43 235.19,-81.43 272.19,-81.43 272.19,-111.43"/>
<text text-anchor="middle" x="253.69" y="-91.43" font-family="Times,serif" font-size="20.00">→</text>
</g>
<!-- 23c8a2d3&#45;dcc7&#45;4e39&#45;bc20&#45;4f9984d5ede4&#45;&gt;e7cdeee9&#45;4424&#45;41ee&#45;9ba4&#45;7be5cb559f5e -->
<g id="edge18" class="edge">
<title>23c8a2d3&#45;dcc7&#45;4e39&#45;bc20&#45;4f9984d5ede4&#45;&gt;e7cdeee9&#45;4424&#45;41ee&#45;9ba4&#45;7be5cb559f5e</title>
<path fill="none" stroke="black" d="M302.93,-156.52C294.16,-145.99 282,-131.4 271.96,-119.35"/>
<polygon fill="black" stroke="black" points="274.51,-116.94 265.42,-111.5 269.13,-121.42 274.51,-116.94"/>
</g>
<!-- 1dd70d22&#45;55d0&#45;4891&#45;a68e&#45;3dc2420a71eb -->
<g id="node22" class="node">
<title>1dd70d22&#45;55d0&#45;4891&#45;a68e&#45;3dc2420a71eb</title>
<polygon fill="lightgreen" stroke="black" points="460.69,-114.43 290.69,-114.43 290.69,-78.43 460.69,-78.43 460.69,-114.43"/>
<text text-anchor="middle" x="375.69" y="-91.43" font-family="Times,serif" font-size="20.00">Walk(coffee_table)</text>
</g>
<!-- 23c8a2d3&#45;dcc7&#45;4e39&#45;bc20&#45;4f9984d5ede4&#45;&gt;1dd70d22&#45;55d0&#45;4891&#45;a68e&#45;3dc2420a71eb -->
<g id="edge21" class="edge">
<title>23c8a2d3&#45;dcc7&#45;4e39&#45;bc20&#45;4f9984d5ede4&#45;&gt;1dd70d22&#45;55d0&#45;4891&#45;a68e&#45;3dc2420a71eb</title>
<path fill="none" stroke="black" d="M326.45,-156.52C334.48,-146.89 345.33,-133.87 354.8,-122.51"/>
<polygon fill="black" stroke="black" points="357.68,-124.51 361.39,-114.59 352.3,-120.03 357.68,-124.51"/>
</g>
<!-- 0f20f7a1&#45;e455&#45;4a0f&#45;bf02&#45;2089cc3405b9 -->
<g id="node20" class="node">
<title>0f20f7a1&#45;e455&#45;4a0f&#45;bf02&#45;2089cc3405b9</title>
<ellipse fill="#ffff80" stroke="black" cx="128.69" cy="-21.21" rx="128.89" ry="21.43"/>
<text text-anchor="middle" x="128.69" y="-16.21" font-family="Times,serif" font-size="20.00">IsNear(coffee_table)</text>
</g>
<!-- e7cdeee9&#45;4424&#45;41ee&#45;9ba4&#45;7be5cb559f5e&#45;&gt;0f20f7a1&#45;e455&#45;4a0f&#45;bf02&#45;2089cc3405b9 -->
<g id="edge19" class="edge">
<title>e7cdeee9&#45;4424&#45;41ee&#45;9ba4&#45;7be5cb559f5e&#45;&gt;0f20f7a1&#45;e455&#45;4a0f&#45;bf02&#45;2089cc3405b9</title>
<path fill="none" stroke="black" d="M234.98,-84.47C218.1,-74.58 192.65,-59.68 170.89,-46.93"/>
<polygon fill="black" stroke="black" points="172.54,-43.84 162.14,-41.8 169,-49.88 172.54,-43.84"/>
</g>
<!-- ae13786e&#45;c144&#45;4fb3&#45;aeb2&#45;a9145f7d5ebf -->
<g id="node21" class="node">
<title>ae13786e&#45;c144&#45;4fb3&#45;aeb2&#45;a9145f7d5ebf</title>
<polygon fill="lightgreen" stroke="black" points="481.69,-39.21 275.69,-39.21 275.69,-3.21 481.69,-3.21 481.69,-39.21"/>
<text text-anchor="middle" x="378.69" y="-16.21" font-family="Times,serif" font-size="20.00">Place(pen,coffee_table)</text>
</g>
<!-- e7cdeee9&#45;4424&#45;41ee&#45;9ba4&#45;7be5cb559f5e&#45;&gt;ae13786e&#45;c144&#45;4fb3&#45;aeb2&#45;a9145f7d5ebf -->
<g id="edge20" class="edge">
<title>e7cdeee9&#45;4424&#45;41ee&#45;9ba4&#45;7be5cb559f5e&#45;&gt;ae13786e&#45;c144&#45;4fb3&#45;aeb2&#45;a9145f7d5ebf</title>
<path fill="none" stroke="black" d="M272.34,-84.03C275.46,-82.15 278.66,-80.23 281.69,-78.43 300.79,-67.09 322.14,-54.7 339.93,-44.43"/>
<polygon fill="black" stroke="black" points="341.97,-47.3 348.88,-39.28 338.47,-41.24 341.97,-47.3"/>
</g>
<!-- 983ab69f&#45;0533&#45;4c4e&#45;a224&#45;7e3916e89364 -->
<g id="node24" class="node">
<title>983ab69f&#45;0533&#45;4c4e&#45;a224&#45;7e3916e89364</title>
<ellipse fill="#ffff80" stroke="black" cx="429.69" cy="-171.64" rx="79.39" ry="21.43"/>
<text text-anchor="middle" x="429.69" y="-166.64" font-family="Times,serif" font-size="20.00">IsNear(pen)</text>
</g>
<!-- c3862dea&#45;face&#45;4d57&#45;a611&#45;3f4c6e985056&#45;&gt;983ab69f&#45;0533&#45;4c4e&#45;a224&#45;7e3916e89364 -->
<g id="edge23" class="edge">
<title>c3862dea&#45;face&#45;4d57&#45;a611&#45;3f4c6e985056&#45;&gt;983ab69f&#45;0533&#45;4c4e&#45;a224&#45;7e3916e89364</title>
<path fill="none" stroke="black" d="M509.72,-235.05C496.54,-224.77 478.28,-210.53 462.53,-198.25"/>
<polygon fill="black" stroke="black" points="464.6,-195.43 454.57,-192.04 460.3,-200.95 464.6,-195.43"/>
</g>
<!-- f4e897e2&#45;1126&#45;4448&#45;a650&#45;931255e448ed -->
<g id="node25" class="node">
<title>f4e897e2&#45;1126&#45;4448&#45;a650&#45;931255e448ed</title>
<ellipse fill="#ffff80" stroke="black" cx="625.69" cy="-171.64" rx="98.99" ry="21.43"/>
<text text-anchor="middle" x="625.69" y="-166.64" font-family="Times,serif" font-size="20.00">IsHandEmpty()</text>
</g>
<!-- c3862dea&#45;face&#45;4d57&#45;a611&#45;3f4c6e985056&#45;&gt;f4e897e2&#45;1126&#45;4448&#45;a650&#45;931255e448ed -->
<g id="edge24" class="edge">
<title>c3862dea&#45;face&#45;4d57&#45;a611&#45;3f4c6e985056&#45;&gt;f4e897e2&#45;1126&#45;4448&#45;a650&#45;931255e448ed</title>
<path fill="none" stroke="black" d="M545.67,-235.05C558.75,-224.85 576.84,-210.74 592.52,-198.51"/>
<polygon fill="black" stroke="black" points="594.72,-201.23 600.45,-192.32 590.41,-195.71 594.72,-201.23"/>
</g>
<!-- f2387581&#45;7226&#45;46db&#45;b312&#45;3bab5b43b59e -->
<g id="node26" class="node">
<title>f2387581&#45;7226&#45;46db&#45;b312&#45;3bab5b43b59e</title>
<polygon fill="lightgreen" stroke="black" points="848.69,-189.64 742.69,-189.64 742.69,-153.64 848.69,-153.64 848.69,-189.64"/>
<text text-anchor="middle" x="795.69" y="-166.64" font-family="Times,serif" font-size="20.00">Grasp(pen)</text>
</g>
<!-- c3862dea&#45;face&#45;4d57&#45;a611&#45;3f4c6e985056&#45;&gt;f2387581&#45;7226&#45;46db&#45;b312&#45;3bab5b43b59e -->
<g id="edge25" class="edge">
<title>c3862dea&#45;face&#45;4d57&#45;a611&#45;3f4c6e985056&#45;&gt;f2387581&#45;7226&#45;46db&#45;b312&#45;3bab5b43b59e</title>
<path fill="none" stroke="black" d="M544.11,-235C547.45,-232.67 551.06,-230.48 554.69,-228.85 628.77,-195.72 655.21,-213.46 733.69,-192.85 734.28,-192.7 734.86,-192.54 735.45,-192.39"/>
<polygon fill="black" stroke="black" points="736.41,-195.75 745.08,-189.67 734.51,-189.02 736.41,-195.75"/>
</g>
<!-- 8e25aaeb&#45;f102&#45;4118&#45;ad89&#45;15a61918e80b -->
<g id="node28" class="node">
<title>8e25aaeb&#45;f102&#45;4118&#45;ad89&#45;15a61918e80b</title>
<ellipse fill="#ffff80" stroke="black" cx="662.69" cy="-250.07" rx="98.99" ry="21.43"/>
<text text-anchor="middle" x="662.69" y="-245.07" font-family="Times,serif" font-size="20.00">IsHandEmpty()</text>
</g>
<!-- ae676b2e&#45;1c33&#45;428d&#45;8edc&#45;9f54d8747390&#45;&gt;8e25aaeb&#45;f102&#45;4118&#45;ad89&#45;15a61918e80b -->
<g id="edge27" class="edge">
<title>ae676b2e&#45;1c33&#45;428d&#45;8edc&#45;9f54d8747390&#45;&gt;8e25aaeb&#45;f102&#45;4118&#45;ad89&#45;15a61918e80b</title>
<path fill="none" stroke="black" d="M662.69,-307.07C662.69,-299.7 662.69,-290.39 662.69,-281.49"/>
<polygon fill="black" stroke="black" points="666.19,-281.37 662.69,-271.37 659.19,-281.37 666.19,-281.37"/>
</g>
<!-- 867f3136&#45;7673&#45;4aaf&#45;9bcf&#45;440d3d3a117c -->
<g id="node29" class="node">
<title>867f3136&#45;7673&#45;4aaf&#45;9bcf&#45;440d3d3a117c</title>
<polygon fill="lightgreen" stroke="black" points="879.69,-268.07 779.69,-268.07 779.69,-232.07 879.69,-232.07 879.69,-268.07"/>
<text text-anchor="middle" x="829.69" y="-245.07" font-family="Times,serif" font-size="20.00">Walk(pen)</text>
</g>
<!-- ae676b2e&#45;1c33&#45;428d&#45;8edc&#45;9f54d8747390&#45;&gt;867f3136&#45;7673&#45;4aaf&#45;9bcf&#45;440d3d3a117c -->
<g id="edge28" class="edge">
<title>ae676b2e&#45;1c33&#45;428d&#45;8edc&#45;9f54d8747390&#45;&gt;867f3136&#45;7673&#45;4aaf&#45;9bcf&#45;440d3d3a117c</title>
<path fill="none" stroke="black" d="M681.2,-313.5C704.78,-303.59 746.44,-286.07 779.65,-272.11"/>
<polygon fill="black" stroke="black" points="781.34,-275.19 789.21,-268.09 778.63,-268.74 781.34,-275.19"/>
</g>
<!-- c20b0997&#45;8318&#45;4dac&#45;ae62&#45;f220b19af47b -->
<g id="node31" class="node">
<title>c20b0997&#45;8318&#45;4dac&#45;ae62&#45;f220b19af47b</title>
<ellipse fill="#ffff80" stroke="black" cx="730.69" cy="-394.49" rx="98.99" ry="21.43"/>
<text text-anchor="middle" x="730.69" y="-389.49" font-family="Times,serif" font-size="20.00">IsNear(cabinet)</text>
</g>
<!-- 9e57f71a&#45;bd3a&#45;4e32&#45;a21f&#45;c5843526e771&#45;&gt;c20b0997&#45;8318&#45;4dac&#45;ae62&#45;f220b19af47b -->
<g id="edge30" class="edge">
<title>9e57f71a&#45;bd3a&#45;4e32&#45;a21f&#45;c5843526e771&#45;&gt;c20b0997&#45;8318&#45;4dac&#45;ae62&#45;f220b19af47b</title>
<path fill="none" stroke="black" d="M819.88,-458.61C805.24,-448.24 784.47,-433.55 766.66,-420.95"/>
<polygon fill="black" stroke="black" points="768.38,-417.88 758.2,-414.96 764.34,-423.59 768.38,-417.88"/>
</g>
<!-- e2781523&#45;c6b7&#45;479a&#45;85ea&#45;091ea9e656d2 -->
<g id="node32" class="node">
<title>e2781523&#45;c6b7&#45;479a&#45;85ea&#45;091ea9e656d2</title>
<ellipse fill="#ffff80" stroke="black" cx="946.69" cy="-394.49" rx="98.99" ry="21.43"/>
<text text-anchor="middle" x="946.69" y="-389.49" font-family="Times,serif" font-size="20.00">IsHandEmpty()</text>
</g>
<!-- 9e57f71a&#45;bd3a&#45;4e32&#45;a21f&#45;c5843526e771&#45;&gt;e2781523&#45;c6b7&#45;479a&#45;85ea&#45;091ea9e656d2 -->
<g id="edge31" class="edge">
<title>9e57f71a&#45;bd3a&#45;4e32&#45;a21f&#45;c5843526e771&#45;&gt;e2781523&#45;c6b7&#45;479a&#45;85ea&#45;091ea9e656d2</title>
<path fill="none" stroke="black" d="M857.22,-457.91C860.05,-455.82 862.94,-453.69 865.69,-451.71 879.95,-441.43 895.8,-430.35 909.68,-420.77"/>
<polygon fill="black" stroke="black" points="911.78,-423.57 918.03,-415.02 907.81,-417.81 911.78,-423.57"/>
</g>
<!-- 706d1391&#45;ac4b&#45;48e2&#45;8a93&#45;462a67ad6287 -->
<g id="node33" class="node">
<title>706d1391&#45;ac4b&#45;48e2&#45;8a93&#45;462a67ad6287</title>
<polygon fill="lightgreen" stroke="black" points="1195.69,-412.49 1063.69,-412.49 1063.69,-376.49 1195.69,-376.49 1195.69,-412.49"/>
<text text-anchor="middle" x="1129.69" y="-389.49" font-family="Times,serif" font-size="20.00">Close(cabinet)</text>
</g>
<!-- 9e57f71a&#45;bd3a&#45;4e32&#45;a21f&#45;c5843526e771&#45;&gt;706d1391&#45;ac4b&#45;48e2&#45;8a93&#45;462a67ad6287 -->
<g id="edge32" class="edge">
<title>9e57f71a&#45;bd3a&#45;4e32&#45;a21f&#45;c5843526e771&#45;&gt;706d1391&#45;ac4b&#45;48e2&#45;8a93&#45;462a67ad6287</title>
<path fill="none" stroke="black" d="M855.1,-457.83C858.44,-455.49 862.05,-453.31 865.69,-451.71 943.93,-417.2 971.35,-434.85 1054.69,-415.71 1055.78,-415.46 1056.87,-415.2 1057.97,-414.94"/>
<polygon fill="black" stroke="black" points="1059.09,-418.27 1067.98,-412.52 1057.44,-411.47 1059.09,-418.27"/>
</g>
<!-- b0b08a55&#45;12ed&#45;4e4d&#45;a2b0&#45;36e952859800 -->
<g id="node35" class="node">
<title>b0b08a55&#45;12ed&#45;4e4d&#45;a2b0&#45;36e952859800</title>
<ellipse fill="#ffff80" stroke="black" cx="973.69" cy="-472.92" rx="98.99" ry="21.43"/>
<text text-anchor="middle" x="973.69" y="-467.92" font-family="Times,serif" font-size="20.00">IsHandEmpty()</text>
</g>
<!-- a3ed302f&#45;150c&#45;4923&#45;9bbe&#45;65376ff24052&#45;&gt;b0b08a55&#45;12ed&#45;4e4d&#45;a2b0&#45;36e952859800 -->
<g id="edge34" class="edge">
<title>a3ed302f&#45;150c&#45;4923&#45;9bbe&#45;65376ff24052&#45;&gt;b0b08a55&#45;12ed&#45;4e4d&#45;a2b0&#45;36e952859800</title>
<path fill="none" stroke="black" d="M973.69,-536.33C973.69,-527.38 973.69,-515.42 973.69,-504.37"/>
<polygon fill="black" stroke="black" points="977.19,-504.18 973.69,-494.18 970.19,-504.18 977.19,-504.18"/>
</g>
<!-- 2db989c8&#45;b5b3&#45;4891&#45;bdea&#45;803a633e4d5b -->
<g id="node36" class="node">
<title>2db989c8&#45;b5b3&#45;4891&#45;bdea&#45;803a633e4d5b</title>
<polygon fill="lightgreen" stroke="black" points="1218.69,-490.92 1090.69,-490.92 1090.69,-454.92 1218.69,-454.92 1218.69,-490.92"/>
<text text-anchor="middle" x="1154.69" y="-467.92" font-family="Times,serif" font-size="20.00">Walk(cabinet)</text>
</g>
<!-- a3ed302f&#45;150c&#45;4923&#45;9bbe&#45;65376ff24052&#45;&gt;2db989c8&#45;b5b3&#45;4891&#45;bdea&#45;803a633e4d5b -->
<g id="edge35" class="edge">
<title>a3ed302f&#45;150c&#45;4923&#45;9bbe&#45;65376ff24052&#45;&gt;2db989c8&#45;b5b3&#45;4891&#45;bdea&#45;803a633e4d5b</title>
<path fill="none" stroke="black" d="M990.91,-536.3C994.06,-534.07 997.4,-531.92 1000.69,-530.13 1027.45,-515.64 1058.71,-503.45 1086.05,-494.17"/>
<polygon fill="black" stroke="black" points="1087.16,-497.49 1095.54,-491.01 1084.95,-490.85 1087.16,-497.49"/>
</g>
<!-- f97c126b&#45;ecf0&#45;447a&#45;9d75&#45;c44f41cc83c2 -->
<g id="node38" class="node">
<title>f97c126b&#45;ecf0&#45;447a&#45;9d75&#45;c44f41cc83c2</title>
<ellipse fill="#ffff80" stroke="black" cx="1155.69" cy="-551.35" rx="145.83" ry="21.43"/>
<text text-anchor="middle" x="1155.69" y="-546.35" font-family="Times,serif" font-size="20.00">IsHolding(coffee_table)</text>
</g>
<!-- 4da09c4f&#45;db36&#45;4413&#45;8c6c&#45;e08440b735a4&#45;&gt;f97c126b&#45;ecf0&#45;447a&#45;9d75&#45;c44f41cc83c2 -->
<g id="edge37" class="edge">
<title>4da09c4f&#45;db36&#45;4413&#45;8c6c&#45;e08440b735a4&#45;&gt;f97c126b&#45;ecf0&#45;447a&#45;9d75&#45;c44f41cc83c2</title>
<path fill="none" stroke="black" d="M1261.98,-617.33C1244.86,-606.86 1218.93,-591.01 1196.97,-577.58"/>
<polygon fill="black" stroke="black" points="1198.51,-574.42 1188.15,-572.19 1194.86,-580.39 1198.51,-574.42"/>
</g>
<!-- abf62c4f&#45;1e3e&#45;4b9d&#45;8345&#45;e30bdfa6a577 -->
<g id="node39" class="node">
<title>abf62c4f&#45;1e3e&#45;4b9d&#45;8345&#45;e30bdfa6a577</title>
<ellipse fill="#ffff80" stroke="black" cx="1405.69" cy="-551.35" rx="86.03" ry="21.43"/>
<text text-anchor="middle" x="1405.69" y="-546.35" font-family="Times,serif" font-size="20.00">IsNear(table)</text>
</g>
<!-- 4da09c4f&#45;db36&#45;4413&#45;8c6c&#45;e08440b735a4&#45;&gt;abf62c4f&#45;1e3e&#45;4b9d&#45;8345&#45;e30bdfa6a577 -->
<g id="edge38" class="edge">
<title>4da09c4f&#45;db36&#45;4413&#45;8c6c&#45;e08440b735a4&#45;&gt;abf62c4f&#45;1e3e&#45;4b9d&#45;8345&#45;e30bdfa6a577</title>
<path fill="none" stroke="black" d="M1298.78,-614.76C1301.72,-612.62 1304.76,-610.49 1307.69,-608.56 1325.14,-597.09 1345.02,-585.44 1362.29,-575.74"/>
<polygon fill="black" stroke="black" points="1364.03,-578.78 1371.06,-570.86 1360.62,-572.66 1364.03,-578.78"/>
</g>
<!-- 81324e8b&#45;c06b&#45;4311&#45;bdfd&#45;a1049b4d8ef7 -->
<g id="node40" class="node">
<title>81324e8b&#45;c06b&#45;4311&#45;bdfd&#45;a1049b4d8ef7</title>
<polygon fill="lightgreen" stroke="black" points="1725.19,-569.35 1510.19,-569.35 1510.19,-533.35 1725.19,-533.35 1725.19,-569.35"/>
<text text-anchor="middle" x="1617.69" y="-546.35" font-family="Times,serif" font-size="20.00">Place(coffee_table,table)</text>
</g>
<!-- 4da09c4f&#45;db36&#45;4413&#45;8c6c&#45;e08440b735a4&#45;&gt;81324e8b&#45;c06b&#45;4311&#45;bdfd&#45;a1049b4d8ef7 -->
<g id="edge39" class="edge">
<title>4da09c4f&#45;db36&#45;4413&#45;8c6c&#45;e08440b735a4&#45;&gt;81324e8b&#45;c06b&#45;4311&#45;bdfd&#45;a1049b4d8ef7</title>
<path fill="none" stroke="black" d="M1297.08,-614.65C1300.43,-612.32 1304.04,-610.15 1307.69,-608.56 1312.51,-606.46 1423.12,-586.65 1510.85,-571.13"/>
<polygon fill="black" stroke="black" points="1511.65,-574.54 1520.89,-569.36 1510.43,-567.65 1511.65,-574.54"/>
</g>
<!-- 49c78cf3&#45;3127&#45;4a21&#45;bbd6&#45;0414dcc9e7e4 -->
<g id="node42" class="node">
<title>49c78cf3&#45;3127&#45;4a21&#45;bbd6&#45;0414dcc9e7e4</title>
<ellipse fill="#ffff80" stroke="black" cx="1462.69" cy="-629.77" rx="145.83" ry="21.43"/>
<text text-anchor="middle" x="1462.69" y="-624.77" font-family="Times,serif" font-size="20.00">IsHolding(coffee_table)</text>
</g>
<!-- 96795ffa&#45;7c2c&#45;4be3&#45;bd89&#45;cfbe8b0ef3d0&#45;&gt;49c78cf3&#45;3127&#45;4a21&#45;bbd6&#45;0414dcc9e7e4 -->
<g id="edge41" class="edge">
<title>96795ffa&#45;7c2c&#45;4be3&#45;bd89&#45;cfbe8b0ef3d0&#45;&gt;49c78cf3&#45;3127&#45;4a21&#45;bbd6&#45;0414dcc9e7e4</title>
<path fill="none" stroke="black" d="M1462.69,-686.78C1462.69,-679.4 1462.69,-670.1 1462.69,-661.2"/>
<polygon fill="black" stroke="black" points="1466.19,-661.08 1462.69,-651.08 1459.19,-661.08 1466.19,-661.08"/>
</g>
<!-- 1099b91a&#45;1d92&#45;4995&#45;8abd&#45;b6d81b284231 -->
<g id="node43" class="node">
<title>1099b91a&#45;1d92&#45;4995&#45;8abd&#45;b6d81b284231</title>
<polygon fill="lightgreen" stroke="black" points="1736.69,-647.77 1626.69,-647.77 1626.69,-611.77 1736.69,-611.77 1736.69,-647.77"/>
<text text-anchor="middle" x="1681.69" y="-624.77" font-family="Times,serif" font-size="20.00">Walk(table)</text>
</g>
<!-- 96795ffa&#45;7c2c&#45;4be3&#45;bd89&#45;cfbe8b0ef3d0&#45;&gt;1099b91a&#45;1d92&#45;4995&#45;8abd&#45;b6d81b284231 -->
<g id="edge42" class="edge">
<title>96795ffa&#45;7c2c&#45;4be3&#45;bd89&#45;cfbe8b0ef3d0&#45;&gt;1099b91a&#45;1d92&#45;4995&#45;8abd&#45;b6d81b284231</title>
<path fill="none" stroke="black" d="M1481.37,-695C1511.49,-685.34 1572.18,-665.88 1618.9,-650.9"/>
<polygon fill="black" stroke="black" points="1620.19,-654.17 1628.64,-647.78 1618.05,-647.5 1620.19,-654.17"/>
</g>
</g>
</svg>
