<?xml version="1.0" encoding="UTF-8" standalone="no"?>
<!DOCTYPE svg PUBLIC "-//W3C//DTD SVG 1.1//EN"
 "http://www.w3.org/Graphics/SVG/1.1/DTD/svg11.dtd">
<!-- Generated by graphviz version 2.43.0 (0)
 -->
<!-- Title: pastafarianism Pages: 1 -->
<svg width="791pt" height="182pt"
 viewBox="0.00 0.00 790.93 182.43" xmlns="http://www.w3.org/2000/svg" xmlns:xlink="http://www.w3.org/1999/xlink">
<g id="graph0" class="graph" transform="scale(1 1) rotate(0) translate(4 178.43)">
<title>pastafarianism</title>
<polygon fill="white" stroke="transparent" points="-4,4 -4,-178.43 786.93,-178.43 786.93,4 -4,4"/>
<!-- cefbabbe&#45;0179&#45;4cc6&#45;a286&#45;aa3a896993e8 -->
<g id="node1" class="node">
<title>cefbabbe&#45;0179&#45;4cc6&#45;a286&#45;aa3a896993e8</title>
<polygon fill="#b0ffff" stroke="black" points="440.52,-174.43 404.52,-174.43 404.52,-144.43 440.52,-144.43 440.52,-174.43"/>
<text text-anchor="middle" x="422.52" y="-154.43" font-family="Times,serif" font-size="20.00"> ? </text>
</g>
<!-- 44678086&#45;5dd4&#45;4940&#45;8a52&#45;3993d7686192 -->
<g id="node2" class="node">
<title>44678086&#45;5dd4&#45;4940&#45;8a52&#45;3993d7686192</title>
<polygon fill="#ff8080" stroke="black" points="441.02,-108.43 404.02,-108.43 404.02,-78.43 441.02,-78.43 441.02,-108.43"/>
<text text-anchor="middle" x="422.52" y="-88.43" font-family="Times,serif" font-size="20.00">→</text>
</g>
<!-- cefbabbe&#45;0179&#45;4cc6&#45;a286&#45;aa3a896993e8&#45;&gt;44678086&#45;5dd4&#45;4940&#45;8a52&#45;3993d7686192 -->
<g id="edge1" class="edge">
<title>cefbabbe&#45;0179&#45;4cc6&#45;a286&#45;aa3a896993e8&#45;&gt;44678086&#45;5dd4&#45;4940&#45;8a52&#45;3993d7686192</title>
<path fill="none" stroke="black" d="M422.52,-144.22C422.52,-136.77 422.52,-127.42 422.52,-118.84"/>
<polygon fill="black" stroke="black" points="426.02,-118.59 422.52,-108.59 419.02,-118.59 426.02,-118.59"/>
</g>
<!-- 70bb0a6c&#45;882d&#45;4931&#45;aa40&#45;e1f8e1da93d6 -->
<g id="node3" class="node">
<title>70bb0a6c&#45;882d&#45;4931&#45;aa40&#45;e1f8e1da93d6</title>
<ellipse fill="#ffff80" stroke="black" cx="131.52" cy="-21.21" rx="131.54" ry="21.43"/>
<text text-anchor="middle" x="131.52" y="-16.21" font-family="Times,serif" font-size="20.00">On(pen,coffee_table)</text>
</g>
<!-- 44678086&#45;5dd4&#45;4940&#45;8a52&#45;3993d7686192&#45;&gt;70bb0a6c&#45;882d&#45;4931&#45;aa40&#45;e1f8e1da93d6 -->
<g id="edge2" class="edge">
<title>44678086&#45;5dd4&#45;4940&#45;8a52&#45;3993d7686192&#45;&gt;70bb0a6c&#45;882d&#45;4931&#45;aa40&#45;e1f8e1da93d6</title>
<path fill="none" stroke="black" d="M403.88,-87.93C365.93,-78.77 277.77,-57.5 211.96,-41.62"/>
<polygon fill="black" stroke="black" points="212.56,-38.16 202.01,-39.22 210.91,-44.97 212.56,-38.16"/>
</g>
<!-- 5611ff6e&#45;474c&#45;4179&#45;ab99&#45;65d0458e300d -->
<g id="node4" class="node">
<title>5611ff6e&#45;474c&#45;4179&#45;ab99&#45;65d0458e300d</title>
<ellipse fill="#ffff80" stroke="black" cx="422.52" cy="-21.21" rx="141.34" ry="21.43"/>
<text text-anchor="middle" x="422.52" y="-16.21" font-family="Times,serif" font-size="20.00">On(apple,coffee_table)</text>
</g>
<!-- 44678086&#45;5dd4&#45;4940&#45;8a52&#45;3993d7686192&#45;&gt;5611ff6e&#45;474c&#45;4179&#45;ab99&#45;65d0458e300d -->
<g id="edge3" class="edge">
<title>44678086&#45;5dd4&#45;4940&#45;8a52&#45;3993d7686192&#45;&gt;5611ff6e&#45;474c&#45;4179&#45;ab99&#45;65d0458e300d</title>
<path fill="none" stroke="black" d="M422.52,-78.22C422.52,-70.84 422.52,-61.54 422.52,-52.64"/>
<polygon fill="black" stroke="black" points="426.02,-52.52 422.52,-42.52 419.02,-52.52 426.02,-52.52"/>
</g>
<!-- c78a538f&#45;0e43&#45;484d&#45;b221&#45;36d9d51b5aaf -->
<g id="node5" class="node">
<title>c78a538f&#45;0e43&#45;484d&#45;b221&#45;36d9d51b5aaf</title>
<ellipse fill="#ffff80" stroke="black" cx="682.52" cy="-21.21" rx="100.32" ry="21.43"/>
<text text-anchor="middle" x="682.52" y="-16.21" font-family="Times,serif" font-size="20.00">Closed(cabinet)</text>
</g>
<!-- 44678086&#45;5dd4&#45;4940&#45;8a52&#45;3993d7686192&#45;&gt;c78a538f&#45;0e43&#45;484d&#45;b221&#45;36d9d51b5aaf -->
<g id="edge4" class="edge">
<title>44678086&#45;5dd4&#45;4940&#45;8a52&#45;3993d7686192&#45;&gt;c78a538f&#45;0e43&#45;484d&#45;b221&#45;36d9d51b5aaf</title>
<path fill="none" stroke="black" d="M441.22,-87.38C476.61,-77.82 555.01,-56.65 612.89,-41.02"/>
<polygon fill="black" stroke="black" points="613.97,-44.35 622.71,-38.36 612.15,-37.59 613.97,-44.35"/>
</g>
</g>
</svg>
