<?xml version="1.0" encoding="UTF-8" standalone="no"?>
<!DOCTYPE svg PUBLIC "-//W3C//DTD SVG 1.1//EN"
 "http://www.w3.org/Graphics/SVG/1.1/DTD/svg11.dtd">
<!-- Generated by graphviz version 2.43.0 (0)
 -->
<!-- Title: pastafarianism Pages: 1 -->
<svg width="791pt" height="182pt"
 viewBox="0.00 0.00 790.83 182.43" xmlns="http://www.w3.org/2000/svg" xmlns:xlink="http://www.w3.org/1999/xlink">
<g id="graph0" class="graph" transform="scale(1 1) rotate(0) translate(4 178.43)">
<title>pastafarianism</title>
<polygon fill="white" stroke="transparent" points="-4,4 -4,-178.43 786.83,-178.43 786.83,4 -4,4"/>
<!-- e8780ef2&#45;94e6&#45;48f4&#45;a024&#45;0ce28c202879 -->
<g id="node1" class="node">
<title>e8780ef2&#45;94e6&#45;48f4&#45;a024&#45;0ce28c202879</title>
<polygon fill="#b0ffff" stroke="black" points="368.41,-174.43 332.41,-174.43 332.41,-144.43 368.41,-144.43 368.41,-174.43"/>
<text text-anchor="middle" x="350.41" y="-154.43" font-family="Times,serif" font-size="20.00"> ? </text>
</g>
<!-- 25ef69ee&#45;0ef6&#45;4c4e&#45;8087&#45;da58501606e6 -->
<g id="node2" class="node">
<title>25ef69ee&#45;0ef6&#45;4c4e&#45;8087&#45;da58501606e6</title>
<polygon fill="#ff8080" stroke="black" points="368.91,-108.43 331.91,-108.43 331.91,-78.43 368.91,-78.43 368.91,-108.43"/>
<text text-anchor="middle" x="350.41" y="-88.43" font-family="Times,serif" font-size="20.00">→</text>
</g>
<!-- e8780ef2&#45;94e6&#45;48f4&#45;a024&#45;0ce28c202879&#45;&gt;25ef69ee&#45;0ef6&#45;4c4e&#45;8087&#45;da58501606e6 -->
<g id="edge1" class="edge">
<title>e8780ef2&#45;94e6&#45;48f4&#45;a024&#45;0ce28c202879&#45;&gt;25ef69ee&#45;0ef6&#45;4c4e&#45;8087&#45;da58501606e6</title>
<path fill="none" stroke="black" d="M350.41,-144.22C350.41,-136.77 350.41,-127.42 350.41,-118.84"/>
<polygon fill="black" stroke="black" points="353.91,-118.59 350.41,-108.59 346.91,-118.59 353.91,-118.59"/>
</g>
<!-- 2083a4bb&#45;07b9&#45;4788&#45;b2e9&#45;53f21d9ddb76 -->
<g id="node3" class="node">
<title>2083a4bb&#45;07b9&#45;4788&#45;b2e9&#45;53f21d9ddb76</title>
<ellipse fill="#ffff80" stroke="black" cx="100.41" cy="-21.21" rx="100.32" ry="21.43"/>
<text text-anchor="middle" x="100.41" y="-16.21" font-family="Times,serif" font-size="20.00">Closed(cabinet)</text>
</g>
<!-- 25ef69ee&#45;0ef6&#45;4c4e&#45;8087&#45;da58501606e6&#45;&gt;2083a4bb&#45;07b9&#45;4788&#45;b2e9&#45;53f21d9ddb76 -->
<g id="edge2" class="edge">
<title>25ef69ee&#45;0ef6&#45;4c4e&#45;8087&#45;da58501606e6&#45;&gt;2083a4bb&#45;07b9&#45;4788&#45;b2e9&#45;53f21d9ddb76</title>
<path fill="none" stroke="black" d="M331.62,-87.15C297.39,-77.54 223.34,-56.74 168.21,-41.26"/>
<polygon fill="black" stroke="black" points="169.07,-37.86 158.5,-38.53 167.18,-44.6 169.07,-37.86"/>
</g>
<!-- 8af30eba&#45;7f89&#45;4c6e&#45;83f4&#45;9e839517f05b -->
<g id="node4" class="node">
<title>8af30eba&#45;7f89&#45;4c6e&#45;83f4&#45;9e839517f05b</title>
<ellipse fill="#ffff80" stroke="black" cx="350.41" cy="-21.21" rx="131.54" ry="21.43"/>
<text text-anchor="middle" x="350.41" y="-16.21" font-family="Times,serif" font-size="20.00">On(pen,coffee_table)</text>
</g>
<!-- 25ef69ee&#45;0ef6&#45;4c4e&#45;8087&#45;da58501606e6&#45;&gt;8af30eba&#45;7f89&#45;4c6e&#45;83f4&#45;9e839517f05b -->
<g id="edge3" class="edge">
<title>25ef69ee&#45;0ef6&#45;4c4e&#45;8087&#45;da58501606e6&#45;&gt;8af30eba&#45;7f89&#45;4c6e&#45;83f4&#45;9e839517f05b</title>
<path fill="none" stroke="black" d="M350.41,-78.22C350.41,-70.84 350.41,-61.54 350.41,-52.64"/>
<polygon fill="black" stroke="black" points="353.91,-52.52 350.41,-42.52 346.91,-52.52 353.91,-52.52"/>
</g>
<!-- 156bc215&#45;ef71&#45;4581&#45;94d9&#45;159d9df50f55 -->
<g id="node5" class="node">
<title>156bc215&#45;ef71&#45;4581&#45;94d9&#45;159d9df50f55</title>
<ellipse fill="#ffff80" stroke="black" cx="641.41" cy="-21.21" rx="141.34" ry="21.43"/>
<text text-anchor="middle" x="641.41" y="-16.21" font-family="Times,serif" font-size="20.00">On(apple,coffee_table)</text>
</g>
<!-- 25ef69ee&#45;0ef6&#45;4c4e&#45;8087&#45;da58501606e6&#45;&gt;156bc215&#45;ef71&#45;4581&#45;94d9&#45;159d9df50f55 -->
<g id="edge4" class="edge">
<title>25ef69ee&#45;0ef6&#45;4c4e&#45;8087&#45;da58501606e6&#45;&gt;156bc215&#45;ef71&#45;4581&#45;94d9&#45;159d9df50f55</title>
<path fill="none" stroke="black" d="M369.06,-87.93C406.76,-78.83 494.06,-57.77 559.72,-41.92"/>
<polygon fill="black" stroke="black" points="560.76,-45.27 569.66,-39.53 559.12,-38.47 560.76,-45.27"/>
</g>
</g>
</svg>
