<?xml version="1.0" encoding="UTF-8" standalone="no"?>
<!DOCTYPE svg PUBLIC "-//W3C//DTD SVG 1.1//EN"
 "http://www.w3.org/Graphics/SVG/1.1/DTD/svg11.dtd">
<!-- Generated by graphviz version 2.43.0 (0)
 -->
<!-- Title: pastafarianism Pages: 1 -->
<svg width="1000pt" height="182pt"
 viewBox="0.00 0.00 1000.40 182.43" xmlns="http://www.w3.org/2000/svg" xmlns:xlink="http://www.w3.org/1999/xlink">
<g id="graph0" class="graph" transform="scale(1 1) rotate(0) translate(4 178.43)">
<title>pastafarianism</title>
<polygon fill="white" stroke="transparent" points="-4,4 -4,-178.43 996.4,-178.43 996.4,4 -4,4"/>
<!-- df035293&#45;9e86&#45;4ea2&#45;994e&#45;4bec4d2c2195 -->
<g id="node1" class="node">
<title>df035293&#45;9e86&#45;4ea2&#45;994e&#45;4bec4d2c2195</title>
<polygon fill="#b0ffff" stroke="black" points="448.97,-174.43 412.97,-174.43 412.97,-144.43 448.97,-144.43 448.97,-174.43"/>
<text text-anchor="middle" x="430.97" y="-154.43" font-family="Times,serif" font-size="20.00"> ? </text>
</g>
<!-- 75103457&#45;2bbf&#45;419c&#45;ac1b&#45;24f1a86c83af -->
<g id="node2" class="node">
<title>75103457&#45;2bbf&#45;419c&#45;ac1b&#45;24f1a86c83af</title>
<polygon fill="#ff8080" stroke="black" points="449.47,-108.43 412.47,-108.43 412.47,-78.43 449.47,-78.43 449.47,-108.43"/>
<text text-anchor="middle" x="430.97" y="-88.43" font-family="Times,serif" font-size="20.00">→</text>
</g>
<!-- df035293&#45;9e86&#45;4ea2&#45;994e&#45;4bec4d2c2195&#45;&gt;75103457&#45;2bbf&#45;419c&#45;ac1b&#45;24f1a86c83af -->
<g id="edge1" class="edge">
<title>df035293&#45;9e86&#45;4ea2&#45;994e&#45;4bec4d2c2195&#45;&gt;75103457&#45;2bbf&#45;419c&#45;ac1b&#45;24f1a86c83af</title>
<path fill="none" stroke="black" d="M430.97,-144.22C430.97,-136.77 430.97,-127.42 430.97,-118.84"/>
<polygon fill="black" stroke="black" points="434.47,-118.59 430.97,-108.59 427.47,-118.59 434.47,-118.59"/>
</g>
<!-- 81e33ce6&#45;df4d&#45;4b5e&#45;ad4f&#45;0ad892806f0b -->
<g id="node3" class="node">
<title>81e33ce6&#45;df4d&#45;4b5e&#45;ad4f&#45;0ad892806f0b</title>
<ellipse fill="#ffff80" stroke="black" cx="86.97" cy="-21.21" rx="86.95" ry="21.43"/>
<text text-anchor="middle" x="86.97" y="-16.21" font-family="Times,serif" font-size="20.00">Closed(oven)</text>
</g>
<!-- 75103457&#45;2bbf&#45;419c&#45;ac1b&#45;24f1a86c83af&#45;&gt;81e33ce6&#45;df4d&#45;4b5e&#45;ad4f&#45;0ad892806f0b -->
<g id="edge2" class="edge">
<title>75103457&#45;2bbf&#45;419c&#45;ac1b&#45;24f1a86c83af&#45;&gt;81e33ce6&#45;df4d&#45;4b5e&#45;ad4f&#45;0ad892806f0b</title>
<path fill="none" stroke="black" d="M412.3,-88.72C370.95,-80.5 268.58,-60.07 182.97,-42.43 175.72,-40.93 168.17,-39.36 160.62,-37.79"/>
<polygon fill="black" stroke="black" points="161.24,-34.34 150.73,-35.72 159.8,-41.19 161.24,-34.34"/>
</g>
<!-- 8350c97a&#45;b70f&#45;4918&#45;9288&#45;91f88866b771 -->
<g id="node4" class="node">
<title>8350c97a&#45;b70f&#45;4918&#45;9288&#45;91f88866b771</title>
<ellipse fill="#ffff80" stroke="black" cx="301.97" cy="-21.21" rx="110.12" ry="21.43"/>
<text text-anchor="middle" x="301.97" y="-16.21" font-family="Times,serif" font-size="20.00">ToggledOn(oven)</text>
</g>
<!-- 75103457&#45;2bbf&#45;419c&#45;ac1b&#45;24f1a86c83af&#45;&gt;8350c97a&#45;b70f&#45;4918&#45;9288&#45;91f88866b771 -->
<g id="edge3" class="edge">
<title>75103457&#45;2bbf&#45;419c&#45;ac1b&#45;24f1a86c83af&#45;&gt;8350c97a&#45;b70f&#45;4918&#45;9288&#45;91f88866b771</title>
<path fill="none" stroke="black" d="M412.22,-82.22C395.02,-72.86 368.89,-58.63 346.38,-46.38"/>
<polygon fill="black" stroke="black" points="347.77,-43.16 337.31,-41.45 344.42,-49.3 347.77,-43.16"/>
</g>
<!-- 31d5e81b&#45;49ad&#45;48d6&#45;b633&#45;e71392769fce -->
<g id="node5" class="node">
<title>31d5e81b&#45;49ad&#45;48d6&#45;b633&#45;e71392769fce</title>
<ellipse fill="#ffff80" stroke="black" cx="560.97" cy="-21.21" rx="130.63" ry="21.43"/>
<text text-anchor="middle" x="560.97" y="-16.21" font-family="Times,serif" font-size="20.00">In(chicken_leg,oven)</text>
</g>
<!-- 75103457&#45;2bbf&#45;419c&#45;ac1b&#45;24f1a86c83af&#45;&gt;31d5e81b&#45;49ad&#45;48d6&#45;b633&#45;e71392769fce -->
<g id="edge4" class="edge">
<title>75103457&#45;2bbf&#45;419c&#45;ac1b&#45;24f1a86c83af&#45;&gt;31d5e81b&#45;49ad&#45;48d6&#45;b633&#45;e71392769fce</title>
<path fill="none" stroke="black" d="M449.6,-82.37C466.89,-73.03 493.32,-58.75 516.1,-46.45"/>
<polygon fill="black" stroke="black" points="517.81,-49.51 524.94,-41.67 514.48,-43.35 517.81,-49.51"/>
</g>
<!-- 835c0a71&#45;4d9c&#45;4cd6&#45;a7da&#45;b183d53ddb4f -->
<g id="node6" class="node">
<title>835c0a71&#45;4d9c&#45;4cd6&#45;a7da&#45;b183d53ddb4f</title>
<ellipse fill="#ffff80" stroke="black" cx="850.97" cy="-21.21" rx="141.34" ry="21.43"/>
<text text-anchor="middle" x="850.97" y="-16.21" font-family="Times,serif" font-size="20.00">On(apple,coffee_table)</text>
</g>
<!-- 75103457&#45;2bbf&#45;419c&#45;ac1b&#45;24f1a86c83af&#45;&gt;835c0a71&#45;4d9c&#45;4cd6&#45;a7da&#45;b183d53ddb4f -->
<g id="edge5" class="edge">
<title>75103457&#45;2bbf&#45;419c&#45;ac1b&#45;24f1a86c83af&#45;&gt;835c0a71&#45;4d9c&#45;4cd6&#45;a7da&#45;b183d53ddb4f</title>
<path fill="none" stroke="black" d="M449.56,-89.32C501.11,-80.7 648.71,-56.03 749.8,-39.13"/>
<polygon fill="black" stroke="black" points="750.46,-42.57 759.74,-37.46 749.3,-35.66 750.46,-42.57"/>
</g>
</g>
</svg>
