<?xml version="1.0" encoding="UTF-8" standalone="no"?>
<!DOCTYPE svg PUBLIC "-//W3C//DTD SVG 1.1//EN"
 "http://www.w3.org/Graphics/SVG/1.1/DTD/svg11.dtd">
<!-- Generated by graphviz version 2.43.0 (0)
 -->
<!-- Title: pastafarianism Pages: 1 -->
<svg width="1000pt" height="182pt"
 viewBox="0.00 0.00 1000.28 182.43" xmlns="http://www.w3.org/2000/svg" xmlns:xlink="http://www.w3.org/1999/xlink">
<g id="graph0" class="graph" transform="scale(1 1) rotate(0) translate(4 178.43)">
<title>pastafarianism</title>
<polygon fill="white" stroke="transparent" points="-4,4 -4,-178.43 996.28,-178.43 996.28,4 -4,4"/>
<!-- 97d5dad0&#45;57b6&#45;4d0e&#45;b3b5&#45;2272317fa229 -->
<g id="node1" class="node">
<title>97d5dad0&#45;57b6&#45;4d0e&#45;b3b5&#45;2272317fa229</title>
<polygon fill="#b0ffff" stroke="black" points="532.31,-174.43 496.31,-174.43 496.31,-144.43 532.31,-144.43 532.31,-174.43"/>
<text text-anchor="middle" x="514.31" y="-154.43" font-family="Times,serif" font-size="20.00"> ? </text>
</g>
<!-- 65fab826&#45;d838&#45;42d9&#45;9b7c&#45;0700e3bb77bf -->
<g id="node2" class="node">
<title>65fab826&#45;d838&#45;42d9&#45;9b7c&#45;0700e3bb77bf</title>
<polygon fill="#ff8080" stroke="black" points="532.81,-108.43 495.81,-108.43 495.81,-78.43 532.81,-78.43 532.81,-108.43"/>
<text text-anchor="middle" x="514.31" y="-88.43" font-family="Times,serif" font-size="20.00">→</text>
</g>
<!-- 97d5dad0&#45;57b6&#45;4d0e&#45;b3b5&#45;2272317fa229&#45;&gt;65fab826&#45;d838&#45;42d9&#45;9b7c&#45;0700e3bb77bf -->
<g id="edge1" class="edge">
<title>97d5dad0&#45;57b6&#45;4d0e&#45;b3b5&#45;2272317fa229&#45;&gt;65fab826&#45;d838&#45;42d9&#45;9b7c&#45;0700e3bb77bf</title>
<path fill="none" stroke="black" d="M514.31,-144.22C514.31,-136.77 514.31,-127.42 514.31,-118.84"/>
<polygon fill="black" stroke="black" points="517.81,-118.59 514.31,-108.59 510.81,-118.59 517.81,-118.59"/>
</g>
<!-- e57e76ac&#45;d3b9&#45;4a22&#45;8103&#45;af5b6b68de45 -->
<g id="node3" class="node">
<title>e57e76ac&#45;d3b9&#45;4a22&#45;8103&#45;af5b6b68de45</title>
<ellipse fill="#ffff80" stroke="black" cx="110.31" cy="-21.21" rx="110.12" ry="21.43"/>
<text text-anchor="middle" x="110.31" y="-16.21" font-family="Times,serif" font-size="20.00">ToggledOn(oven)</text>
</g>
<!-- 65fab826&#45;d838&#45;42d9&#45;9b7c&#45;0700e3bb77bf&#45;&gt;e57e76ac&#45;d3b9&#45;4a22&#45;8103&#45;af5b6b68de45 -->
<g id="edge2" class="edge">
<title>65fab826&#45;d838&#45;42d9&#45;9b7c&#45;0700e3bb77bf&#45;&gt;e57e76ac&#45;d3b9&#45;4a22&#45;8103&#45;af5b6b68de45</title>
<path fill="none" stroke="black" d="M495.63,-89.18C444,-80.21 296.75,-54.62 199.96,-37.79"/>
<polygon fill="black" stroke="black" points="200.33,-34.31 189.88,-36.04 199.13,-41.2 200.33,-34.31"/>
</g>
<!-- c67a3a91&#45;758d&#45;4d61&#45;ab28&#45;258b6fe04373 -->
<g id="node4" class="node">
<title>c67a3a91&#45;758d&#45;4d61&#45;ab28&#45;258b6fe04373</title>
<ellipse fill="#ffff80" stroke="black" cx="369.31" cy="-21.21" rx="130.63" ry="21.43"/>
<text text-anchor="middle" x="369.31" y="-16.21" font-family="Times,serif" font-size="20.00">In(chicken_leg,oven)</text>
</g>
<!-- 65fab826&#45;d838&#45;42d9&#45;9b7c&#45;0700e3bb77bf&#45;&gt;c67a3a91&#45;758d&#45;4d61&#45;ab28&#45;258b6fe04373 -->
<g id="edge3" class="edge">
<title>65fab826&#45;d838&#45;42d9&#45;9b7c&#45;0700e3bb77bf&#45;&gt;c67a3a91&#45;758d&#45;4d61&#45;ab28&#45;258b6fe04373</title>
<path fill="none" stroke="black" d="M495.65,-83.39C476.22,-73.98 444.96,-58.85 418.4,-45.99"/>
<polygon fill="black" stroke="black" points="419.76,-42.75 409.23,-41.55 416.71,-49.05 419.76,-42.75"/>
</g>
<!-- 059611e8&#45;8639&#45;49b5&#45;9dd9&#45;667ded9ab014 -->
<g id="node5" class="node">
<title>059611e8&#45;8639&#45;49b5&#45;9dd9&#45;667ded9ab014</title>
<ellipse fill="#ffff80" stroke="black" cx="659.31" cy="-21.21" rx="141.34" ry="21.43"/>
<text text-anchor="middle" x="659.31" y="-16.21" font-family="Times,serif" font-size="20.00">On(apple,coffee_table)</text>
</g>
<!-- 65fab826&#45;d838&#45;42d9&#45;9b7c&#45;0700e3bb77bf&#45;&gt;059611e8&#45;8639&#45;49b5&#45;9dd9&#45;667ded9ab014 -->
<g id="edge4" class="edge">
<title>65fab826&#45;d838&#45;42d9&#45;9b7c&#45;0700e3bb77bf&#45;&gt;059611e8&#45;8639&#45;49b5&#45;9dd9&#45;667ded9ab014</title>
<path fill="none" stroke="black" d="M532.97,-83.39C552.33,-74.01 583.43,-58.95 609.93,-46.12"/>
<polygon fill="black" stroke="black" points="611.61,-49.2 619.09,-41.69 608.56,-42.9 611.61,-49.2"/>
</g>
<!-- 4776e1f3&#45;b8e6&#45;4713&#45;bf20&#45;a7b1dc4d1750 -->
<g id="node6" class="node">
<title>4776e1f3&#45;b8e6&#45;4713&#45;bf20&#45;a7b1dc4d1750</title>
<ellipse fill="#ffff80" stroke="black" cx="905.31" cy="-21.21" rx="86.95" ry="21.43"/>
<text text-anchor="middle" x="905.31" y="-16.21" font-family="Times,serif" font-size="20.00">Closed(oven)</text>
</g>
<!-- 65fab826&#45;d838&#45;42d9&#45;9b7c&#45;0700e3bb77bf&#45;&gt;4776e1f3&#45;b8e6&#45;4713&#45;bf20&#45;a7b1dc4d1750 -->
<g id="edge5" class="edge">
<title>65fab826&#45;d838&#45;42d9&#45;9b7c&#45;0700e3bb77bf&#45;&gt;4776e1f3&#45;b8e6&#45;4713&#45;bf20&#45;a7b1dc4d1750</title>
<path fill="none" stroke="black" d="M532.99,-89.52C579.69,-82.21 705.2,-62.2 809.31,-42.43 816.7,-41.02 824.39,-39.5 832.07,-37.95"/>
<polygon fill="black" stroke="black" points="833.03,-41.32 842.12,-35.89 831.62,-34.47 833.03,-41.32"/>
</g>
</g>
</svg>
