<?xml version="1.0" encoding="UTF-8" standalone="no"?>
<!DOCTYPE svg PUBLIC "-//W3C//DTD SVG 1.1//EN"
 "http://www.w3.org/Graphics/SVG/1.1/DTD/svg11.dtd">
<!-- Generated by graphviz version 2.43.0 (0)
 -->
<!-- Title: pastafarianism Pages: 1 -->
<svg width="984pt" height="182pt"
 viewBox="0.00 0.00 983.76 182.43" xmlns="http://www.w3.org/2000/svg" xmlns:xlink="http://www.w3.org/1999/xlink">
<g id="graph0" class="graph" transform="scale(1 1) rotate(0) translate(4 178.43)">
<title>pastafarianism</title>
<polygon fill="white" stroke="transparent" points="-4,4 -4,-178.43 979.76,-178.43 979.76,4 -4,4"/>
<!-- c19ae72f&#45;c1b9&#45;49e7&#45;80f7&#45;ad09d004485f -->
<g id="node1" class="node">
<title>c19ae72f&#45;c1b9&#45;49e7&#45;80f7&#45;ad09d004485f</title>
<polygon fill="#b0ffff" stroke="black" points="469.31,-174.43 433.31,-174.43 433.31,-144.43 469.31,-144.43 469.31,-174.43"/>
<text text-anchor="middle" x="451.31" y="-154.43" font-family="Times,serif" font-size="20.00"> ? </text>
</g>
<!-- 7a27b8db&#45;5cf3&#45;4e82&#45;b19b&#45;a375bc67efa5 -->
<g id="node2" class="node">
<title>7a27b8db&#45;5cf3&#45;4e82&#45;b19b&#45;a375bc67efa5</title>
<polygon fill="#ff8080" stroke="black" points="469.81,-108.43 432.81,-108.43 432.81,-78.43 469.81,-78.43 469.81,-108.43"/>
<text text-anchor="middle" x="451.31" y="-88.43" font-family="Times,serif" font-size="20.00">→</text>
</g>
<!-- c19ae72f&#45;c1b9&#45;49e7&#45;80f7&#45;ad09d004485f&#45;&gt;7a27b8db&#45;5cf3&#45;4e82&#45;b19b&#45;a375bc67efa5 -->
<g id="edge1" class="edge">
<title>c19ae72f&#45;c1b9&#45;49e7&#45;80f7&#45;ad09d004485f&#45;&gt;7a27b8db&#45;5cf3&#45;4e82&#45;b19b&#45;a375bc67efa5</title>
<path fill="none" stroke="black" d="M451.31,-144.22C451.31,-136.77 451.31,-127.42 451.31,-118.84"/>
<polygon fill="black" stroke="black" points="454.81,-118.59 451.31,-108.59 447.81,-118.59 454.81,-118.59"/>
</g>
<!-- 6fdf6070&#45;e16f&#45;4d22&#45;855f&#45;53e0cd6dd7e9 -->
<g id="node3" class="node">
<title>6fdf6070&#45;e16f&#45;4d22&#45;855f&#45;53e0cd6dd7e9</title>
<ellipse fill="#ffff80" stroke="black" cx="110.31" cy="-21.21" rx="110.12" ry="21.43"/>
<text text-anchor="middle" x="110.31" y="-16.21" font-family="Times,serif" font-size="20.00">ToggledOn(oven)</text>
</g>
<!-- 7a27b8db&#45;5cf3&#45;4e82&#45;b19b&#45;a375bc67efa5&#45;&gt;6fdf6070&#45;e16f&#45;4d22&#45;855f&#45;53e0cd6dd7e9 -->
<g id="edge2" class="edge">
<title>7a27b8db&#45;5cf3&#45;4e82&#45;b19b&#45;a375bc67efa5&#45;&gt;6fdf6070&#45;e16f&#45;4d22&#45;855f&#45;53e0cd6dd7e9</title>
<path fill="none" stroke="black" d="M432.49,-88.55C387.77,-79.34 272.91,-55.69 193.17,-39.28"/>
<polygon fill="black" stroke="black" points="193.65,-35.8 183.14,-37.21 192.23,-42.66 193.65,-35.8"/>
</g>
<!-- eba38155&#45;75f2&#45;4e83&#45;ab6e&#45;4f40d277188e -->
<g id="node4" class="node">
<title>eba38155&#45;75f2&#45;4e83&#45;ab6e&#45;4f40d277188e</title>
<ellipse fill="#ffff80" stroke="black" cx="329.31" cy="-21.21" rx="90.52" ry="21.43"/>
<text text-anchor="middle" x="329.31" y="-16.21" font-family="Times,serif" font-size="20.00">IsClose(oven)</text>
</g>
<!-- 7a27b8db&#45;5cf3&#45;4e82&#45;b19b&#45;a375bc67efa5&#45;&gt;eba38155&#45;75f2&#45;4e83&#45;ab6e&#45;4f40d277188e -->
<g id="edge3" class="edge">
<title>7a27b8db&#45;5cf3&#45;4e82&#45;b19b&#45;a375bc67efa5&#45;&gt;eba38155&#45;75f2&#45;4e83&#45;ab6e&#45;4f40d277188e</title>
<path fill="none" stroke="black" d="M432.78,-81.76C416.45,-72.36 392.05,-58.32 371.05,-46.24"/>
<polygon fill="black" stroke="black" points="372.71,-43.15 362.29,-41.2 369.21,-49.22 372.71,-43.15"/>
</g>
<!-- 9479753b&#45;68c5&#45;49c2&#45;8876&#45;805a1fd61cb9 -->
<g id="node5" class="node">
<title>9479753b&#45;68c5&#45;49c2&#45;8876&#45;805a1fd61cb9</title>
<ellipse fill="#ffff80" stroke="black" cx="573.31" cy="-21.21" rx="135.11" ry="21.43"/>
<text text-anchor="middle" x="573.31" y="-16.21" font-family="Times,serif" font-size="20.00">On(apple,coffeetable)</text>
</g>
<!-- 7a27b8db&#45;5cf3&#45;4e82&#45;b19b&#45;a375bc67efa5&#45;&gt;9479753b&#45;68c5&#45;49c2&#45;8876&#45;805a1fd61cb9 -->
<g id="edge4" class="edge">
<title>7a27b8db&#45;5cf3&#45;4e82&#45;b19b&#45;a375bc67efa5&#45;&gt;9479753b&#45;68c5&#45;49c2&#45;8876&#45;805a1fd61cb9</title>
<path fill="none" stroke="black" d="M469.84,-81.76C485.94,-72.5 509.87,-58.72 530.66,-46.76"/>
<polygon fill="black" stroke="black" points="532.43,-49.78 539.35,-41.76 528.94,-43.71 532.43,-49.78"/>
</g>
<!-- 2d4d6e1d&#45;5291&#45;4924&#45;9c7e&#45;f78508826a67 -->
<g id="node6" class="node">
<title>2d4d6e1d&#45;5291&#45;4924&#45;9c7e&#45;f78508826a67</title>
<ellipse fill="#ffff80" stroke="black" cx="851.31" cy="-21.21" rx="124.4" ry="21.43"/>
<text text-anchor="middle" x="851.31" y="-16.21" font-family="Times,serif" font-size="20.00">In(chickenleg,oven)</text>
</g>
<!-- 7a27b8db&#45;5cf3&#45;4e82&#45;b19b&#45;a375bc67efa5&#45;&gt;2d4d6e1d&#45;5291&#45;4924&#45;9c7e&#45;f78508826a67 -->
<g id="edge5" class="edge">
<title>7a27b8db&#45;5cf3&#45;4e82&#45;b19b&#45;a375bc67efa5&#45;&gt;2d4d6e1d&#45;5291&#45;4924&#45;9c7e&#45;f78508826a67</title>
<path fill="none" stroke="black" d="M470.06,-89.13C520.49,-80.28 661.6,-55.51 757.25,-38.72"/>
<polygon fill="black" stroke="black" points="757.99,-42.15 767.23,-36.97 756.78,-35.25 757.99,-42.15"/>
</g>
</g>
</svg>
