<?xml version="1.0" encoding="UTF-8" standalone="no"?>
<!DOCTYPE svg PUBLIC "-//W3C//DTD SVG 1.1//EN"
 "http://www.w3.org/Graphics/SVG/1.1/DTD/svg11.dtd">
<!-- Generated by graphviz version 2.43.0 (0)
 -->
<!-- Title: pastafarianism Pages: 1 -->
<svg width="1972pt" height="839pt"
 viewBox="0.00 0.00 1971.97 838.56" xmlns="http://www.w3.org/2000/svg" xmlns:xlink="http://www.w3.org/1999/xlink">
<g id="graph0" class="graph" transform="scale(1 1) rotate(0) translate(4 834.56)">
<title>pastafarianism</title>
<polygon fill="white" stroke="transparent" points="-4,4 -4,-834.56 1967.97,-834.56 1967.97,4 -4,4"/>
<!-- 0e5e1d31&#45;1145&#45;4b01&#45;a511&#45;ac9bf8cd44cb -->
<g id="node1" class="node">
<title>0e5e1d31&#45;1145&#45;4b01&#45;a511&#45;ac9bf8cd44cb</title>
<polygon fill="#b0ffff" stroke="black" points="948.97,-830.56 912.97,-830.56 912.97,-800.56 948.97,-800.56 948.97,-830.56"/>
<text text-anchor="middle" x="930.97" y="-810.56" font-family="Times,serif" font-size="20.00"> ? </text>
</g>
<!-- 19016f29&#45;34f2&#45;4286&#45;8125&#45;be7b0974f610 -->
<g id="node2" class="node">
<title>19016f29&#45;34f2&#45;4286&#45;8125&#45;be7b0974f610</title>
<polygon fill="#ff8080" stroke="black" points="725.47,-764.56 688.47,-764.56 688.47,-734.56 725.47,-734.56 725.47,-764.56"/>
<text text-anchor="middle" x="706.97" y="-744.56" font-family="Times,serif" font-size="20.00">→</text>
</g>
<!-- 0e5e1d31&#45;1145&#45;4b01&#45;a511&#45;ac9bf8cd44cb&#45;&gt;19016f29&#45;34f2&#45;4286&#45;8125&#45;be7b0974f610 -->
<g id="edge1" class="edge">
<title>0e5e1d31&#45;1145&#45;4b01&#45;a511&#45;ac9bf8cd44cb&#45;&gt;19016f29&#45;34f2&#45;4286&#45;8125&#45;be7b0974f610</title>
<path fill="none" stroke="black" d="M912.64,-809.32C873.59,-798.16 781.97,-771.98 735.33,-758.66"/>
<polygon fill="black" stroke="black" points="736.14,-755.25 725.56,-755.87 734.21,-761.98 736.14,-755.25"/>
</g>
<!-- 9846ee6e&#45;192e&#45;42cb&#45;ae22&#45;75f3e5ee28f6 -->
<g id="node7" class="node">
<title>9846ee6e&#45;192e&#45;42cb&#45;ae22&#45;75f3e5ee28f6</title>
<polygon fill="#ff8080" stroke="black" points="1173.47,-764.56 1136.47,-764.56 1136.47,-734.56 1173.47,-734.56 1173.47,-764.56"/>
<text text-anchor="middle" x="1154.97" y="-744.56" font-family="Times,serif" font-size="20.00">→</text>
</g>
<!-- 0e5e1d31&#45;1145&#45;4b01&#45;a511&#45;ac9bf8cd44cb&#45;&gt;9846ee6e&#45;192e&#45;42cb&#45;ae22&#45;75f3e5ee28f6 -->
<g id="edge6" class="edge">
<title>0e5e1d31&#45;1145&#45;4b01&#45;a511&#45;ac9bf8cd44cb&#45;&gt;9846ee6e&#45;192e&#45;42cb&#45;ae22&#45;75f3e5ee28f6</title>
<path fill="none" stroke="black" d="M949.3,-809.32C988.36,-798.16 1079.98,-771.98 1126.62,-758.66"/>
<polygon fill="black" stroke="black" points="1127.74,-761.98 1136.39,-755.87 1125.81,-755.25 1127.74,-761.98"/>
</g>
<!-- f062f07d&#45;93d7&#45;4e4b&#45;9c42&#45;58693a53d356 -->
<g id="node3" class="node">
<title>f062f07d&#45;93d7&#45;4e4b&#45;9c42&#45;58693a53d356</title>
<ellipse fill="#ffff80" stroke="black" cx="146.97" cy="-677.35" rx="110.12" ry="21.43"/>
<text text-anchor="middle" x="146.97" y="-672.35" font-family="Times,serif" font-size="20.00">ToggledOn(oven)</text>
</g>
<!-- 19016f29&#45;34f2&#45;4286&#45;8125&#45;be7b0974f610&#45;&gt;f062f07d&#45;93d7&#45;4e4b&#45;9c42&#45;58693a53d356 -->
<g id="edge2" class="edge">
<title>19016f29&#45;34f2&#45;4286&#45;8125&#45;be7b0974f610&#45;&gt;f062f07d&#45;93d7&#45;4e4b&#45;9c42&#45;58693a53d356</title>
<path fill="none" stroke="black" d="M688.06,-746.78C626.97,-740.94 429.51,-721.47 266.97,-698.56 256.91,-697.14 246.38,-695.54 235.93,-693.88"/>
<polygon fill="black" stroke="black" points="236.38,-690.4 225.95,-692.27 235.27,-697.32 236.38,-690.4"/>
</g>
<!-- c38c3c9d&#45;a253&#45;4efd&#45;b14c&#45;933a05f85c2a -->
<g id="node4" class="node">
<title>c38c3c9d&#45;a253&#45;4efd&#45;b14c&#45;933a05f85c2a</title>
<ellipse fill="#ffff80" stroke="black" cx="416.97" cy="-677.35" rx="141.34" ry="21.43"/>
<text text-anchor="middle" x="416.97" y="-672.35" font-family="Times,serif" font-size="20.00">On(apple,coffee_table)</text>
</g>
<!-- 19016f29&#45;34f2&#45;4286&#45;8125&#45;be7b0974f610&#45;&gt;c38c3c9d&#45;a253&#45;4efd&#45;b14c&#45;933a05f85c2a -->
<g id="edge3" class="edge">
<title>19016f29&#45;34f2&#45;4286&#45;8125&#45;be7b0974f610&#45;&gt;c38c3c9d&#45;a253&#45;4efd&#45;b14c&#45;933a05f85c2a</title>
<path fill="none" stroke="black" d="M688.39,-744.06C650.82,-734.96 563.82,-713.9 498.38,-698.05"/>
<polygon fill="black" stroke="black" points="499.02,-694.61 488.48,-695.66 497.37,-701.41 499.02,-694.61"/>
</g>
<!-- 73edd568&#45;2b4d&#45;425f&#45;b050&#45;e32babbe2aa6 -->
<g id="node5" class="node">
<title>73edd568&#45;2b4d&#45;425f&#45;b050&#45;e32babbe2aa6</title>
<ellipse fill="#ffff80" stroke="black" cx="706.97" cy="-677.35" rx="130.63" ry="21.43"/>
<text text-anchor="middle" x="706.97" y="-672.35" font-family="Times,serif" font-size="20.00">In(chicken_leg,oven)</text>
</g>
<!-- 19016f29&#45;34f2&#45;4286&#45;8125&#45;be7b0974f610&#45;&gt;73edd568&#45;2b4d&#45;425f&#45;b050&#45;e32babbe2aa6 -->
<g id="edge4" class="edge">
<title>19016f29&#45;34f2&#45;4286&#45;8125&#45;be7b0974f610&#45;&gt;73edd568&#45;2b4d&#45;425f&#45;b050&#45;e32babbe2aa6</title>
<path fill="none" stroke="black" d="M706.97,-734.35C706.97,-726.98 706.97,-717.67 706.97,-708.77"/>
<polygon fill="black" stroke="black" points="710.47,-708.65 706.97,-698.65 703.47,-708.65 710.47,-708.65"/>
</g>
<!-- 1d22d27a&#45;948d&#45;4ca2&#45;81d3&#45;ca82004ccab2 -->
<g id="node6" class="node">
<title>1d22d27a&#45;948d&#45;4ca2&#45;81d3&#45;ca82004ccab2</title>
<ellipse fill="#ffff80" stroke="black" cx="942.97" cy="-677.35" rx="86.95" ry="21.43"/>
<text text-anchor="middle" x="942.97" y="-672.35" font-family="Times,serif" font-size="20.00">Closed(oven)</text>
</g>
<!-- 19016f29&#45;34f2&#45;4286&#45;8125&#45;be7b0974f610&#45;&gt;1d22d27a&#45;948d&#45;4ca2&#45;81d3&#45;ca82004ccab2 -->
<g id="edge5" class="edge">
<title>19016f29&#45;34f2&#45;4286&#45;8125&#45;be7b0974f610&#45;&gt;1d22d27a&#45;948d&#45;4ca2&#45;81d3&#45;ca82004ccab2</title>
<path fill="none" stroke="black" d="M725.49,-743.05C758.36,-733.27 828.31,-712.46 880.05,-697.07"/>
<polygon fill="black" stroke="black" points="881.22,-700.37 889.81,-694.16 879.23,-693.66 881.22,-700.37"/>
</g>
<!-- f7418a6a&#45;a2a2&#45;4320&#45;9e3a&#45;a7d097655774 -->
<g id="node8" class="node">
<title>f7418a6a&#45;a2a2&#45;4320&#45;9e3a&#45;a7d097655774</title>
<ellipse fill="#ffff80" stroke="black" cx="1154.97" cy="-677.35" rx="106.55" ry="21.43"/>
<text text-anchor="middle" x="1154.97" y="-672.35" font-family="Times,serif" font-size="20.00">IsHolding(apple)</text>
</g>
<!-- 9846ee6e&#45;192e&#45;42cb&#45;ae22&#45;75f3e5ee28f6&#45;&gt;f7418a6a&#45;a2a2&#45;4320&#45;9e3a&#45;a7d097655774 -->
<g id="edge7" class="edge">
<title>9846ee6e&#45;192e&#45;42cb&#45;ae22&#45;75f3e5ee28f6&#45;&gt;f7418a6a&#45;a2a2&#45;4320&#45;9e3a&#45;a7d097655774</title>
<path fill="none" stroke="black" d="M1154.97,-734.35C1154.97,-726.98 1154.97,-717.67 1154.97,-708.77"/>
<polygon fill="black" stroke="black" points="1158.47,-708.65 1154.97,-698.65 1151.47,-708.65 1158.47,-708.65"/>
</g>
<!-- b7035f99&#45;eecf&#45;4020&#45;80f4&#45;1c36a8e56b7f -->
<g id="node9" class="node">
<title>b7035f99&#45;eecf&#45;4020&#45;80f4&#45;1c36a8e56b7f</title>
<polygon fill="#b0ffff" stroke="black" points="1315.97,-692.35 1279.97,-692.35 1279.97,-662.35 1315.97,-662.35 1315.97,-692.35"/>
<text text-anchor="middle" x="1297.97" y="-672.35" font-family="Times,serif" font-size="20.00"> ? </text>
</g>
<!-- 9846ee6e&#45;192e&#45;42cb&#45;ae22&#45;75f3e5ee28f6&#45;&gt;b7035f99&#45;eecf&#45;4020&#45;80f4&#45;1c36a8e56b7f -->
<g id="edge8" class="edge">
<title>9846ee6e&#45;192e&#45;42cb&#45;ae22&#45;75f3e5ee28f6&#45;&gt;b7035f99&#45;eecf&#45;4020&#45;80f4&#45;1c36a8e56b7f</title>
<path fill="none" stroke="black" d="M1173.7,-742.05C1197.19,-733.53 1238.33,-717.46 1270.97,-698.56 1271.27,-698.39 1271.56,-698.21 1271.86,-698.04"/>
<polygon fill="black" stroke="black" points="1273.94,-700.86 1280.37,-692.44 1270.09,-695.01 1273.94,-700.86"/>
</g>
<!-- a389878b&#45;b8ed&#45;4fc7&#45;b23a&#45;7ca1897e45d1 -->
<g id="node10" class="node">
<title>a389878b&#45;b8ed&#45;4fc7&#45;b23a&#45;7ca1897e45d1</title>
<polygon fill="#b0ffff" stroke="black" points="1161.97,-620.13 1125.97,-620.13 1125.97,-590.13 1161.97,-590.13 1161.97,-620.13"/>
<text text-anchor="middle" x="1143.97" y="-600.13" font-family="Times,serif" font-size="20.00"> ? </text>
</g>
<!-- b7035f99&#45;eecf&#45;4020&#45;80f4&#45;1c36a8e56b7f&#45;&gt;a389878b&#45;b8ed&#45;4fc7&#45;b23a&#45;7ca1897e45d1 -->
<g id="edge9" class="edge">
<title>b7035f99&#45;eecf&#45;4020&#45;80f4&#45;1c36a8e56b7f&#45;&gt;a389878b&#45;b8ed&#45;4fc7&#45;b23a&#45;7ca1897e45d1</title>
<path fill="none" stroke="black" d="M1280.42,-662.16C1277.36,-660 1274.14,-657.9 1270.97,-656.13 1238.64,-638.09 1198.46,-623.45 1172.06,-614.77"/>
<polygon fill="black" stroke="black" points="1172.92,-611.37 1162.33,-611.64 1170.78,-618.04 1172.92,-611.37"/>
</g>
<!-- 7b57494f&#45;683e&#45;411c&#45;a74a&#45;acd7bd87d024 -->
<g id="node40" class="node">
<title>7b57494f&#45;683e&#45;411c&#45;a74a&#45;acd7bd87d024</title>
<polygon fill="#ff8080" stroke="black" points="1471.47,-620.13 1434.47,-620.13 1434.47,-590.13 1471.47,-590.13 1471.47,-620.13"/>
<text text-anchor="middle" x="1452.97" y="-600.13" font-family="Times,serif" font-size="20.00">→</text>
</g>
<!-- b7035f99&#45;eecf&#45;4020&#45;80f4&#45;1c36a8e56b7f&#45;&gt;7b57494f&#45;683e&#45;411c&#45;a74a&#45;acd7bd87d024 -->
<g id="edge39" class="edge">
<title>b7035f99&#45;eecf&#45;4020&#45;80f4&#45;1c36a8e56b7f&#45;&gt;7b57494f&#45;683e&#45;411c&#45;a74a&#45;acd7bd87d024</title>
<path fill="none" stroke="black" d="M1316.06,-668.15C1342.84,-656.02 1393.26,-633.18 1424.88,-618.86"/>
<polygon fill="black" stroke="black" points="1426.37,-622.02 1434.04,-614.71 1423.49,-615.65 1426.37,-622.02"/>
</g>
<!-- 56f063a4&#45;68b6&#45;4c28&#45;9dc7&#45;f32723bea77e -->
<g id="node11" class="node">
<title>56f063a4&#45;68b6&#45;4c28&#45;9dc7&#45;f32723bea77e</title>
<polygon fill="#ff8080" stroke="black" points="754.47,-547.92 717.47,-547.92 717.47,-517.92 754.47,-517.92 754.47,-547.92"/>
<text text-anchor="middle" x="735.97" y="-527.92" font-family="Times,serif" font-size="20.00">→</text>
</g>
<!-- a389878b&#45;b8ed&#45;4fc7&#45;b23a&#45;7ca1897e45d1&#45;&gt;56f063a4&#45;68b6&#45;4c28&#45;9dc7&#45;f32723bea77e -->
<g id="edge10" class="edge">
<title>a389878b&#45;b8ed&#45;4fc7&#45;b23a&#45;7ca1897e45d1&#45;&gt;56f063a4&#45;68b6&#45;4c28&#45;9dc7&#45;f32723bea77e</title>
<path fill="none" stroke="black" d="M1125.92,-601.02C1061.7,-589.97 844,-552.51 764.96,-538.91"/>
<polygon fill="black" stroke="black" points="765.2,-535.4 754.75,-537.15 764.02,-542.3 765.2,-535.4"/>
</g>
<!-- 9f672d36&#45;67aa&#45;4337&#45;9903&#45;4ce4089ae77f -->
<g id="node34" class="node">
<title>9f672d36&#45;67aa&#45;4337&#45;9903&#45;4ce4089ae77f</title>
<polygon fill="#ff8080" stroke="black" points="1162.47,-547.92 1125.47,-547.92 1125.47,-517.92 1162.47,-517.92 1162.47,-547.92"/>
<text text-anchor="middle" x="1143.97" y="-527.92" font-family="Times,serif" font-size="20.00">→</text>
</g>
<!-- a389878b&#45;b8ed&#45;4fc7&#45;b23a&#45;7ca1897e45d1&#45;&gt;9f672d36&#45;67aa&#45;4337&#45;9903&#45;4ce4089ae77f -->
<g id="edge33" class="edge">
<title>a389878b&#45;b8ed&#45;4fc7&#45;b23a&#45;7ca1897e45d1&#45;&gt;9f672d36&#45;67aa&#45;4337&#45;9903&#45;4ce4089ae77f</title>
<path fill="none" stroke="black" d="M1143.97,-589.92C1143.97,-580.88 1143.97,-568.93 1143.97,-558.4"/>
<polygon fill="black" stroke="black" points="1147.47,-558.11 1143.97,-548.11 1140.47,-558.11 1147.47,-558.11"/>
</g>
<!-- 68009e86&#45;ecd5&#45;434a&#45;8eb5&#45;33af195396c7 -->
<g id="node12" class="node">
<title>68009e86&#45;ecd5&#45;434a&#45;8eb5&#45;33af195396c7</title>
<ellipse fill="#ffff80" stroke="black" cx="568.97" cy="-454.49" rx="130.63" ry="21.43"/>
<text text-anchor="middle" x="568.97" y="-449.49" font-family="Times,serif" font-size="20.00">In(chicken_leg,oven)</text>
</g>
<!-- 56f063a4&#45;68b6&#45;4c28&#45;9dc7&#45;f32723bea77e&#45;&gt;68009e86&#45;ecd5&#45;434a&#45;8eb5&#45;33af195396c7 -->
<g id="edge11" class="edge">
<title>56f063a4&#45;68b6&#45;4c28&#45;9dc7&#45;f32723bea77e&#45;&gt;68009e86&#45;ecd5&#45;434a&#45;8eb5&#45;33af195396c7</title>
<path fill="none" stroke="black" d="M717.46,-523.45C694.2,-512.8 653.32,-494.09 620.33,-479"/>
<polygon fill="black" stroke="black" points="621.37,-475.62 610.82,-474.64 618.46,-481.99 621.37,-475.62"/>
</g>
<!-- 74f32462&#45;6f61&#45;4312&#45;a93f&#45;5c8be7e982d7 -->
<g id="node13" class="node">
<title>74f32462&#45;6f61&#45;4312&#45;a93f&#45;5c8be7e982d7</title>
<polygon fill="#b0ffff" stroke="black" points="753.97,-469.49 717.97,-469.49 717.97,-439.49 753.97,-439.49 753.97,-469.49"/>
<text text-anchor="middle" x="735.97" y="-449.49" font-family="Times,serif" font-size="20.00"> ? </text>
</g>
<!-- 56f063a4&#45;68b6&#45;4c28&#45;9dc7&#45;f32723bea77e&#45;&gt;74f32462&#45;6f61&#45;4312&#45;a93f&#45;5c8be7e982d7 -->
<g id="edge12" class="edge">
<title>56f063a4&#45;68b6&#45;4c28&#45;9dc7&#45;f32723bea77e&#45;&gt;74f32462&#45;6f61&#45;4312&#45;a93f&#45;5c8be7e982d7</title>
<path fill="none" stroke="black" d="M735.97,-517.9C735.97,-507.3 735.97,-492.48 735.97,-479.95"/>
<polygon fill="black" stroke="black" points="739.47,-479.68 735.97,-469.68 732.47,-479.68 739.47,-479.68"/>
</g>
<!-- ca0bdc8b&#45;0ffb&#45;4deb&#45;b222&#45;176b64980c99 -->
<g id="node14" class="node">
<title>ca0bdc8b&#45;0ffb&#45;4deb&#45;b222&#45;176b64980c99</title>
<polygon fill="#ff8080" stroke="black" points="600.47,-397.28 563.47,-397.28 563.47,-367.28 600.47,-367.28 600.47,-397.28"/>
<text text-anchor="middle" x="581.97" y="-377.28" font-family="Times,serif" font-size="20.00">→</text>
</g>
<!-- 74f32462&#45;6f61&#45;4312&#45;a93f&#45;5c8be7e982d7&#45;&gt;ca0bdc8b&#45;0ffb&#45;4deb&#45;b222&#45;176b64980c99 -->
<g id="edge13" class="edge">
<title>74f32462&#45;6f61&#45;4312&#45;a93f&#45;5c8be7e982d7&#45;&gt;ca0bdc8b&#45;0ffb&#45;4deb&#45;b222&#45;176b64980c99</title>
<path fill="none" stroke="black" d="M718.42,-439.31C715.36,-437.15 712.14,-435.05 708.97,-433.28 676.82,-415.34 636.91,-400.76 610.51,-392.07"/>
<polygon fill="black" stroke="black" points="611.35,-388.66 600.76,-388.92 609.2,-395.32 611.35,-388.66"/>
</g>
<!-- 7ca9fd4d&#45;f533&#45;424c&#45;9a74&#45;854bfaad2598 -->
<g id="node30" class="node">
<title>7ca9fd4d&#45;f533&#45;424c&#45;9a74&#45;854bfaad2598</title>
<polygon fill="#ff8080" stroke="black" points="816.47,-397.28 779.47,-397.28 779.47,-367.28 816.47,-367.28 816.47,-397.28"/>
<text text-anchor="middle" x="797.97" y="-377.28" font-family="Times,serif" font-size="20.00">→</text>
</g>
<!-- 74f32462&#45;6f61&#45;4312&#45;a93f&#45;5c8be7e982d7&#45;&gt;7ca9fd4d&#45;f533&#45;424c&#45;9a74&#45;854bfaad2598 -->
<g id="edge29" class="edge">
<title>74f32462&#45;6f61&#45;4312&#45;a93f&#45;5c8be7e982d7&#45;&gt;7ca9fd4d&#45;f533&#45;424c&#45;9a74&#45;854bfaad2598</title>
<path fill="none" stroke="black" d="M748.52,-439.28C757.18,-429.48 768.85,-416.26 778.68,-405.13"/>
<polygon fill="black" stroke="black" points="781.45,-407.28 785.45,-397.47 776.2,-402.65 781.45,-407.28"/>
</g>
<!-- 65843f8e&#45;1c79&#45;4a34&#45;b919&#45;1467c6b515e9 -->
<g id="node15" class="node">
<title>65843f8e&#45;1c79&#45;4a34&#45;b919&#45;1467c6b515e9</title>
<ellipse fill="#ffff80" stroke="black" cx="416.97" cy="-310.07" rx="128.89" ry="21.43"/>
<text text-anchor="middle" x="416.97" y="-305.07" font-family="Times,serif" font-size="20.00">IsNear(coffee_table)</text>
</g>
<!-- ca0bdc8b&#45;0ffb&#45;4deb&#45;b222&#45;176b64980c99&#45;&gt;65843f8e&#45;1c79&#45;4a34&#45;b919&#45;1467c6b515e9 -->
<g id="edge14" class="edge">
<title>ca0bdc8b&#45;0ffb&#45;4deb&#45;b222&#45;176b64980c99&#45;&gt;65843f8e&#45;1c79&#45;4a34&#45;b919&#45;1467c6b515e9</title>
<path fill="none" stroke="black" d="M563.37,-373.36C541.05,-363.86 502.64,-347.52 470.77,-333.96"/>
<polygon fill="black" stroke="black" points="472.12,-330.73 461.54,-330.03 469.38,-337.17 472.12,-330.73"/>
</g>
<!-- 163a91b8&#45;66c6&#45;4c95&#45;a14e&#45;5b2c5d445052 -->
<g id="node16" class="node">
<title>163a91b8&#45;66c6&#45;4c95&#45;a14e&#45;5b2c5d445052</title>
<polygon fill="#b0ffff" stroke="black" points="599.97,-325.07 563.97,-325.07 563.97,-295.07 599.97,-295.07 599.97,-325.07"/>
<text text-anchor="middle" x="581.97" y="-305.07" font-family="Times,serif" font-size="20.00"> ? </text>
</g>
<!-- ca0bdc8b&#45;0ffb&#45;4deb&#45;b222&#45;176b64980c99&#45;&gt;163a91b8&#45;66c6&#45;4c95&#45;a14e&#45;5b2c5d445052 -->
<g id="edge15" class="edge">
<title>ca0bdc8b&#45;0ffb&#45;4deb&#45;b222&#45;176b64980c99&#45;&gt;163a91b8&#45;66c6&#45;4c95&#45;a14e&#45;5b2c5d445052</title>
<path fill="none" stroke="black" d="M581.97,-367.07C581.97,-358.03 581.97,-346.08 581.97,-335.54"/>
<polygon fill="black" stroke="black" points="585.47,-335.25 581.97,-325.25 578.47,-335.25 585.47,-335.25"/>
</g>
<!-- 6def4d3e&#45;8ec7&#45;4e0a&#45;bfb3&#45;547cda87824e -->
<g id="node17" class="node">
<title>6def4d3e&#45;8ec7&#45;4e0a&#45;bfb3&#45;547cda87824e</title>
<polygon fill="#ff8080" stroke="black" points="446.47,-252.85 409.47,-252.85 409.47,-222.85 446.47,-222.85 446.47,-252.85"/>
<text text-anchor="middle" x="427.97" y="-232.85" font-family="Times,serif" font-size="20.00">→</text>
</g>
<!-- 163a91b8&#45;66c6&#45;4c95&#45;a14e&#45;5b2c5d445052&#45;&gt;6def4d3e&#45;8ec7&#45;4e0a&#45;bfb3&#45;547cda87824e -->
<g id="edge16" class="edge">
<title>163a91b8&#45;66c6&#45;4c95&#45;a14e&#45;5b2c5d445052&#45;&gt;6def4d3e&#45;8ec7&#45;4e0a&#45;bfb3&#45;547cda87824e</title>
<path fill="none" stroke="black" d="M564.42,-294.88C561.36,-292.72 558.14,-290.62 554.97,-288.85 522.82,-270.92 482.91,-256.33 456.51,-247.64"/>
<polygon fill="black" stroke="black" points="457.35,-244.24 446.76,-244.5 455.2,-250.9 457.35,-244.24"/>
</g>
<!-- dfdc4df9&#45;164e&#45;4b78&#45;a5a7&#45;431910212f77 -->
<g id="node26" class="node">
<title>dfdc4df9&#45;164e&#45;4b78&#45;a5a7&#45;431910212f77</title>
<polygon fill="#ff8080" stroke="black" points="662.47,-252.85 625.47,-252.85 625.47,-222.85 662.47,-222.85 662.47,-252.85"/>
<text text-anchor="middle" x="643.97" y="-232.85" font-family="Times,serif" font-size="20.00">→</text>
</g>
<!-- 163a91b8&#45;66c6&#45;4c95&#45;a14e&#45;5b2c5d445052&#45;&gt;dfdc4df9&#45;164e&#45;4b78&#45;a5a7&#45;431910212f77 -->
<g id="edge25" class="edge">
<title>163a91b8&#45;66c6&#45;4c95&#45;a14e&#45;5b2c5d445052&#45;&gt;dfdc4df9&#45;164e&#45;4b78&#45;a5a7&#45;431910212f77</title>
<path fill="none" stroke="black" d="M594.52,-294.86C603.18,-285.05 614.85,-271.83 624.68,-260.7"/>
<polygon fill="black" stroke="black" points="627.45,-262.85 631.45,-253.04 622.2,-258.22 627.45,-262.85"/>
</g>
<!-- 2cdfb4e0&#45;27d4&#45;422c&#45;bf86&#45;341ae42c81f6 -->
<g id="node18" class="node">
<title>2cdfb4e0&#45;27d4&#45;422c&#45;bf86&#45;341ae42c81f6</title>
<ellipse fill="#ffff80" stroke="black" cx="281.97" cy="-165.64" rx="110.12" ry="21.43"/>
<text text-anchor="middle" x="281.97" y="-160.64" font-family="Times,serif" font-size="20.00">ToggledOn(oven)</text>
</g>
<!-- 6def4d3e&#45;8ec7&#45;4e0a&#45;bfb3&#45;547cda87824e&#45;&gt;2cdfb4e0&#45;27d4&#45;422c&#45;bf86&#45;341ae42c81f6 -->
<g id="edge17" class="edge">
<title>6def4d3e&#45;8ec7&#45;4e0a&#45;bfb3&#45;547cda87824e&#45;&gt;2cdfb4e0&#45;27d4&#45;422c&#45;bf86&#45;341ae42c81f6</title>
<path fill="none" stroke="black" d="M409.19,-227.82C389.41,-218.31 357.49,-202.95 330.56,-190.01"/>
<polygon fill="black" stroke="black" points="331.81,-186.72 321.28,-185.54 328.77,-193.03 331.81,-186.72"/>
</g>
<!-- aa15937c&#45;fc2e&#45;4ac1&#45;b1bf&#45;07cdb22cea70 -->
<g id="node19" class="node">
<title>aa15937c&#45;fc2e&#45;4ac1&#45;b1bf&#45;07cdb22cea70</title>
<polygon fill="#b0ffff" stroke="black" points="445.97,-180.64 409.97,-180.64 409.97,-150.64 445.97,-150.64 445.97,-180.64"/>
<text text-anchor="middle" x="427.97" y="-160.64" font-family="Times,serif" font-size="20.00"> ? </text>
</g>
<!-- 6def4d3e&#45;8ec7&#45;4e0a&#45;bfb3&#45;547cda87824e&#45;&gt;aa15937c&#45;fc2e&#45;4ac1&#45;b1bf&#45;07cdb22cea70 -->
<g id="edge18" class="edge">
<title>6def4d3e&#45;8ec7&#45;4e0a&#45;bfb3&#45;547cda87824e&#45;&gt;aa15937c&#45;fc2e&#45;4ac1&#45;b1bf&#45;07cdb22cea70</title>
<path fill="none" stroke="black" d="M427.97,-222.64C427.97,-213.6 427.97,-201.65 427.97,-191.12"/>
<polygon fill="black" stroke="black" points="431.47,-190.83 427.97,-180.83 424.47,-190.83 431.47,-190.83"/>
</g>
<!-- c4aa811e&#45;d761&#45;4c48&#45;a1d7&#45;8823447d1b11 -->
<g id="node20" class="node">
<title>c4aa811e&#45;d761&#45;4c48&#45;a1d7&#45;8823447d1b11</title>
<polygon fill="#ff8080" stroke="black" points="332.47,-108.43 295.47,-108.43 295.47,-78.43 332.47,-78.43 332.47,-108.43"/>
<text text-anchor="middle" x="313.97" y="-88.43" font-family="Times,serif" font-size="20.00">→</text>
</g>
<!-- aa15937c&#45;fc2e&#45;4ac1&#45;b1bf&#45;07cdb22cea70&#45;&gt;c4aa811e&#45;d761&#45;4c48&#45;a1d7&#45;8823447d1b11 -->
<g id="edge19" class="edge">
<title>aa15937c&#45;fc2e&#45;4ac1&#45;b1bf&#45;07cdb22cea70&#45;&gt;c4aa811e&#45;d761&#45;4c48&#45;a1d7&#45;8823447d1b11</title>
<path fill="none" stroke="black" d="M409.89,-150.63C406.95,-148.49 403.91,-146.36 400.97,-144.43 381.7,-131.74 359.08,-118.79 341.73,-109.25"/>
<polygon fill="black" stroke="black" points="343.15,-106.04 332.69,-104.33 339.8,-112.19 343.15,-106.04"/>
</g>
<!-- 797c9286&#45;58d2&#45;48ea&#45;b78b&#45;3595d93b7c69 -->
<g id="node23" class="node">
<title>797c9286&#45;58d2&#45;48ea&#45;b78b&#45;3595d93b7c69</title>
<polygon fill="#ff8080" stroke="black" points="560.47,-108.43 523.47,-108.43 523.47,-78.43 560.47,-78.43 560.47,-108.43"/>
<text text-anchor="middle" x="541.97" y="-88.43" font-family="Times,serif" font-size="20.00">→</text>
</g>
<!-- aa15937c&#45;fc2e&#45;4ac1&#45;b1bf&#45;07cdb22cea70&#45;&gt;797c9286&#45;58d2&#45;48ea&#45;b78b&#45;3595d93b7c69 -->
<g id="edge22" class="edge">
<title>aa15937c&#45;fc2e&#45;4ac1&#45;b1bf&#45;07cdb22cea70&#45;&gt;797c9286&#45;58d2&#45;48ea&#45;b78b&#45;3595d93b7c69</title>
<path fill="none" stroke="black" d="M446.06,-150.63C449,-148.49 452.04,-146.36 454.97,-144.43 474.25,-131.74 496.87,-118.79 514.22,-109.25"/>
<polygon fill="black" stroke="black" points="516.15,-112.19 523.25,-104.33 512.8,-106.04 516.15,-112.19"/>
</g>
<!-- ae058eba&#45;09f4&#45;4d10&#45;b1fa&#45;cd97530ca083 -->
<g id="node21" class="node">
<title>ae058eba&#45;09f4&#45;4d10&#45;b1fa&#45;cd97530ca083</title>
<ellipse fill="#ffff80" stroke="black" cx="86.97" cy="-21.21" rx="86.95" ry="21.43"/>
<text text-anchor="middle" x="86.97" y="-16.21" font-family="Times,serif" font-size="20.00">Closed(oven)</text>
</g>
<!-- c4aa811e&#45;d761&#45;4c48&#45;a1d7&#45;8823447d1b11&#45;&gt;ae058eba&#45;09f4&#45;4d10&#45;b1fa&#45;cd97530ca083 -->
<g id="edge20" class="edge">
<title>c4aa811e&#45;d761&#45;4c48&#45;a1d7&#45;8823447d1b11&#45;&gt;ae058eba&#45;09f4&#45;4d10&#45;b1fa&#45;cd97530ca083</title>
<path fill="none" stroke="black" d="M295.4,-86.68C263.73,-76.89 197.95,-56.54 148.71,-41.31"/>
<polygon fill="black" stroke="black" points="149.68,-37.95 139.09,-38.33 147.61,-44.63 149.68,-37.95"/>
</g>
<!-- 062adbba&#45;eac9&#45;46ee&#45;96f6&#45;f46458dad81d -->
<g id="node22" class="node">
<title>062adbba&#45;eac9&#45;46ee&#45;96f6&#45;f46458dad81d</title>
<polygon fill="lightgreen" stroke="black" points="435.97,-39.21 191.97,-39.21 191.97,-3.21 435.97,-3.21 435.97,-39.21"/>
<text text-anchor="middle" x="313.97" y="-16.21" font-family="Times,serif" font-size="20.00">PlaceOn(apple,coffee_table)</text>
</g>
<!-- c4aa811e&#45;d761&#45;4c48&#45;a1d7&#45;8823447d1b11&#45;&gt;062adbba&#45;eac9&#45;46ee&#45;96f6&#45;f46458dad81d -->
<g id="edge21" class="edge">
<title>c4aa811e&#45;d761&#45;4c48&#45;a1d7&#45;8823447d1b11&#45;&gt;062adbba&#45;eac9&#45;46ee&#45;96f6&#45;f46458dad81d</title>
<path fill="none" stroke="black" d="M313.97,-78.22C313.97,-69.98 313.97,-59.32 313.97,-49.52"/>
<polygon fill="black" stroke="black" points="317.47,-49.38 313.97,-39.38 310.47,-49.38 317.47,-49.38"/>
</g>
<!-- e084d983&#45;a38c&#45;4e04&#45;9ca0&#45;dd021f889536 -->
<g id="node24" class="node">
<title>e084d983&#45;a38c&#45;4e04&#45;9ca0&#45;dd021f889536</title>
<ellipse fill="#ffff80" stroke="black" cx="541.97" cy="-21.21" rx="88.28" ry="21.43"/>
<text text-anchor="middle" x="541.97" y="-16.21" font-family="Times,serif" font-size="20.00">IsOpen(oven)</text>
</g>
<!-- 797c9286&#45;58d2&#45;48ea&#45;b78b&#45;3595d93b7c69&#45;&gt;e084d983&#45;a38c&#45;4e04&#45;9ca0&#45;dd021f889536 -->
<g id="edge23" class="edge">
<title>797c9286&#45;58d2&#45;48ea&#45;b78b&#45;3595d93b7c69&#45;&gt;e084d983&#45;a38c&#45;4e04&#45;9ca0&#45;dd021f889536</title>
<path fill="none" stroke="black" d="M541.97,-78.22C541.97,-70.84 541.97,-61.54 541.97,-52.64"/>
<polygon fill="black" stroke="black" points="545.47,-52.52 541.97,-42.52 538.47,-52.52 545.47,-52.52"/>
</g>
<!-- 9e2334a9&#45;5329&#45;4289&#45;b408&#45;255a9aab9791 -->
<g id="node25" class="node">
<title>9e2334a9&#45;5329&#45;4289&#45;b408&#45;255a9aab9791</title>
<polygon fill="lightgreen" stroke="black" points="761.47,-39.21 648.47,-39.21 648.47,-3.21 761.47,-3.21 761.47,-39.21"/>
<text text-anchor="middle" x="704.97" y="-16.21" font-family="Times,serif" font-size="20.00">Close(oven)</text>
</g>
<!-- 797c9286&#45;58d2&#45;48ea&#45;b78b&#45;3595d93b7c69&#45;&gt;9e2334a9&#45;5329&#45;4289&#45;b408&#45;255a9aab9791 -->
<g id="edge24" class="edge">
<title>797c9286&#45;58d2&#45;48ea&#45;b78b&#45;3595d93b7c69&#45;&gt;9e2334a9&#45;5329&#45;4289&#45;b408&#45;255a9aab9791</title>
<path fill="none" stroke="black" d="M560.67,-84.37C583.81,-74.41 624.08,-57.06 656.21,-43.22"/>
<polygon fill="black" stroke="black" points="657.66,-46.4 665.46,-39.23 654.9,-39.97 657.66,-46.4"/>
</g>
<!-- ae8a985a&#45;9222&#45;44ee&#45;8292&#45;1c6d81191e47 -->
<g id="node27" class="node">
<title>ae8a985a&#45;9222&#45;44ee&#45;8292&#45;1c6d81191e47</title>
<ellipse fill="#ffff80" stroke="black" cx="551.97" cy="-165.64" rx="88.28" ry="21.43"/>
<text text-anchor="middle" x="551.97" y="-160.64" font-family="Times,serif" font-size="20.00">IsOpen(oven)</text>
</g>
<!-- dfdc4df9&#45;164e&#45;4b78&#45;a5a7&#45;431910212f77&#45;&gt;ae8a985a&#45;9222&#45;44ee&#45;8292&#45;1c6d81191e47 -->
<g id="edge26" class="edge">
<title>dfdc4df9&#45;164e&#45;4b78&#45;a5a7&#45;431910212f77&#45;&gt;ae8a985a&#45;9222&#45;44ee&#45;8292&#45;1c6d81191e47</title>
<path fill="none" stroke="black" d="M625.36,-222.64C613.96,-213.95 599.05,-202.57 585.64,-192.34"/>
<polygon fill="black" stroke="black" points="587.61,-189.43 577.54,-186.15 583.36,-195 587.61,-189.43"/>
</g>
<!-- fc419740&#45;1050&#45;4337&#45;8bb4&#45;d6c80fb29973 -->
<g id="node28" class="node">
<title>fc419740&#45;1050&#45;4337&#45;8bb4&#45;d6c80fb29973</title>
<ellipse fill="#ffff80" stroke="black" cx="735.97" cy="-165.64" rx="77.56" ry="21.43"/>
<text text-anchor="middle" x="735.97" y="-160.64" font-family="Times,serif" font-size="20.00">IsOff(oven)</text>
</g>
<!-- dfdc4df9&#45;164e&#45;4b78&#45;a5a7&#45;431910212f77&#45;&gt;fc419740&#45;1050&#45;4337&#45;8bb4&#45;d6c80fb29973 -->
<g id="edge27" class="edge">
<title>dfdc4df9&#45;164e&#45;4b78&#45;a5a7&#45;431910212f77&#45;&gt;fc419740&#45;1050&#45;4337&#45;8bb4&#45;d6c80fb29973</title>
<path fill="none" stroke="black" d="M662.59,-222.64C674.07,-213.88 689.13,-202.39 702.61,-192.1"/>
<polygon fill="black" stroke="black" points="704.93,-194.73 710.76,-185.88 700.69,-189.17 704.93,-194.73"/>
</g>
<!-- f00bd1db&#45;182c&#45;4156&#45;96bb&#45;6dc5b001b969 -->
<g id="node29" class="node">
<title>f00bd1db&#45;182c&#45;4156&#45;96bb&#45;6dc5b001b969</title>
<polygon fill="lightgreen" stroke="black" points="977.97,-183.64 831.97,-183.64 831.97,-147.64 977.97,-147.64 977.97,-183.64"/>
<text text-anchor="middle" x="904.97" y="-160.64" font-family="Times,serif" font-size="20.00">ToggleOn(oven)</text>
</g>
<!-- dfdc4df9&#45;164e&#45;4b78&#45;a5a7&#45;431910212f77&#45;&gt;f00bd1db&#45;182c&#45;4156&#45;96bb&#45;6dc5b001b969 -->
<g id="edge28" class="edge">
<title>dfdc4df9&#45;164e&#45;4b78&#45;a5a7&#45;431910212f77&#45;&gt;f00bd1db&#45;182c&#45;4156&#45;96bb&#45;6dc5b001b969</title>
<path fill="none" stroke="black" d="M662.74,-231.8C697.61,-222.43 774.05,-201.86 831.8,-186.33"/>
<polygon fill="black" stroke="black" points="832.87,-189.66 841.62,-183.68 831.05,-182.9 832.87,-189.66"/>
</g>
<!-- f833cbb1&#45;fbd7&#45;4baf&#45;9e01&#45;93e052fc893b -->
<g id="node31" class="node">
<title>f833cbb1&#45;fbd7&#45;4baf&#45;9e01&#45;93e052fc893b</title>
<ellipse fill="#ffff80" stroke="black" cx="705.97" cy="-310.07" rx="88.28" ry="21.43"/>
<text text-anchor="middle" x="705.97" y="-305.07" font-family="Times,serif" font-size="20.00">IsOpen(oven)</text>
</g>
<!-- 7ca9fd4d&#45;f533&#45;424c&#45;9a74&#45;854bfaad2598&#45;&gt;f833cbb1&#45;fbd7&#45;4baf&#45;9e01&#45;93e052fc893b -->
<g id="edge30" class="edge">
<title>7ca9fd4d&#45;f533&#45;424c&#45;9a74&#45;854bfaad2598&#45;&gt;f833cbb1&#45;fbd7&#45;4baf&#45;9e01&#45;93e052fc893b</title>
<path fill="none" stroke="black" d="M779.36,-367.07C767.96,-358.38 753.05,-346.99 739.64,-336.76"/>
<polygon fill="black" stroke="black" points="741.61,-333.86 731.54,-330.57 737.36,-339.42 741.61,-333.86"/>
</g>
<!-- 5c653736&#45;02b0&#45;4741&#45;a6a3&#45;39a1902932cd -->
<g id="node32" class="node">
<title>5c653736&#45;02b0&#45;4741&#45;a6a3&#45;39a1902932cd</title>
<ellipse fill="#ffff80" stroke="black" cx="889.97" cy="-310.07" rx="77.56" ry="21.43"/>
<text text-anchor="middle" x="889.97" y="-305.07" font-family="Times,serif" font-size="20.00">IsOff(oven)</text>
</g>
<!-- 7ca9fd4d&#45;f533&#45;424c&#45;9a74&#45;854bfaad2598&#45;&gt;5c653736&#45;02b0&#45;4741&#45;a6a3&#45;39a1902932cd -->
<g id="edge31" class="edge">
<title>7ca9fd4d&#45;f533&#45;424c&#45;9a74&#45;854bfaad2598&#45;&gt;5c653736&#45;02b0&#45;4741&#45;a6a3&#45;39a1902932cd</title>
<path fill="none" stroke="black" d="M816.59,-367.07C828.07,-358.31 843.13,-346.82 856.61,-336.53"/>
<polygon fill="black" stroke="black" points="858.93,-339.16 864.76,-330.31 854.69,-333.59 858.93,-339.16"/>
</g>
<!-- f2078fbe&#45;bc1d&#45;4d6a&#45;a07f&#45;cc48a88022f1 -->
<g id="node33" class="node">
<title>f2078fbe&#45;bc1d&#45;4d6a&#45;a07f&#45;cc48a88022f1</title>
<polygon fill="lightgreen" stroke="black" points="1155.97,-328.07 985.97,-328.07 985.97,-292.07 1155.97,-292.07 1155.97,-328.07"/>
<text text-anchor="middle" x="1070.97" y="-305.07" font-family="Times,serif" font-size="20.00">Walk(coffee_table)</text>
</g>
<!-- 7ca9fd4d&#45;f533&#45;424c&#45;9a74&#45;854bfaad2598&#45;&gt;f2078fbe&#45;bc1d&#45;4d6a&#45;a07f&#45;cc48a88022f1 -->
<g id="edge32" class="edge">
<title>7ca9fd4d&#45;f533&#45;424c&#45;9a74&#45;854bfaad2598&#45;&gt;f2078fbe&#45;bc1d&#45;4d6a&#45;a07f&#45;cc48a88022f1</title>
<path fill="none" stroke="black" d="M816.74,-376.45C852.86,-367.16 933.85,-346.33 994.78,-330.66"/>
<polygon fill="black" stroke="black" points="995.94,-333.98 1004.76,-328.1 994.2,-327.2 995.94,-333.98"/>
</g>
<!-- 449eff0c&#45;200d&#45;4757&#45;8caa&#45;d3e2c71b7e91 -->
<g id="node35" class="node">
<title>449eff0c&#45;200d&#45;4757&#45;8caa&#45;d3e2c71b7e91</title>
<ellipse fill="#ffff80" stroke="black" cx="859.97" cy="-454.49" rx="88.28" ry="21.43"/>
<text text-anchor="middle" x="859.97" y="-449.49" font-family="Times,serif" font-size="20.00">IsOpen(oven)</text>
</g>
<!-- 9f672d36&#45;67aa&#45;4337&#45;9903&#45;4ce4089ae77f&#45;&gt;449eff0c&#45;200d&#45;4757&#45;8caa&#45;d3e2c71b7e91 -->
<g id="edge34" class="edge">
<title>9f672d36&#45;67aa&#45;4337&#45;9903&#45;4ce4089ae77f&#45;&gt;449eff0c&#45;200d&#45;4757&#45;8caa&#45;d3e2c71b7e91</title>
<path fill="none" stroke="black" d="M1125.34,-526.9C1085.73,-516.24 991.47,-490.88 926.66,-473.44"/>
<polygon fill="black" stroke="black" points="927.49,-470.04 916.92,-470.82 925.67,-476.8 927.49,-470.04"/>
</g>
<!-- 6c86195b&#45;0412&#45;4525&#45;9b8a&#45;15ff7cc4c574 -->
<g id="node36" class="node">
<title>6c86195b&#45;0412&#45;4525&#45;9b8a&#45;15ff7cc4c574</title>
<ellipse fill="#ffff80" stroke="black" cx="1052.97" cy="-454.49" rx="86.03" ry="21.43"/>
<text text-anchor="middle" x="1052.97" y="-449.49" font-family="Times,serif" font-size="20.00">IsNear(oven)</text>
</g>
<!-- 9f672d36&#45;67aa&#45;4337&#45;9903&#45;4ce4089ae77f&#45;&gt;6c86195b&#45;0412&#45;4525&#45;9b8a&#45;15ff7cc4c574 -->
<g id="edge35" class="edge">
<title>9f672d36&#45;67aa&#45;4337&#45;9903&#45;4ce4089ae77f&#45;&gt;6c86195b&#45;0412&#45;4525&#45;9b8a&#45;15ff7cc4c574</title>
<path fill="none" stroke="black" d="M1127.28,-517.9C1115.25,-507.79 1098.64,-493.85 1084.18,-481.7"/>
<polygon fill="black" stroke="black" points="1086.32,-478.93 1076.41,-475.18 1081.82,-484.29 1086.32,-478.93"/>
</g>
<!-- 5c875007&#45;fff8&#45;45b2&#45;abf9&#45;702a60b038f5 -->
<g id="node37" class="node">
<title>5c875007&#45;fff8&#45;45b2&#45;abf9&#45;702a60b038f5</title>
<ellipse fill="#ffff80" stroke="black" cx="1234.97" cy="-454.49" rx="77.56" ry="21.43"/>
<text text-anchor="middle" x="1234.97" y="-449.49" font-family="Times,serif" font-size="20.00">IsOff(oven)</text>
</g>
<!-- 9f672d36&#45;67aa&#45;4337&#45;9903&#45;4ce4089ae77f&#45;&gt;5c875007&#45;fff8&#45;45b2&#45;abf9&#45;702a60b038f5 -->
<g id="edge36" class="edge">
<title>9f672d36&#45;67aa&#45;4337&#45;9903&#45;4ce4089ae77f&#45;&gt;5c875007&#45;fff8&#45;45b2&#45;abf9&#45;702a60b038f5</title>
<path fill="none" stroke="black" d="M1160.66,-517.9C1172.79,-507.72 1189.54,-493.65 1204.08,-481.44"/>
<polygon fill="black" stroke="black" points="1206.47,-484 1211.88,-474.89 1201.97,-478.64 1206.47,-484"/>
</g>
<!-- d5fe6b0e&#45;b5dd&#45;45fa&#45;910d&#45;1a7c7a739cff -->
<g id="node38" class="node">
<title>d5fe6b0e&#45;b5dd&#45;45fa&#45;910d&#45;1a7c7a739cff</title>
<ellipse fill="#ffff80" stroke="black" cx="1473.97" cy="-454.49" rx="143.59" ry="21.43"/>
<text text-anchor="middle" x="1473.97" y="-449.49" font-family="Times,serif" font-size="20.00">IsHolding(chicken_leg)</text>
</g>
<!-- 9f672d36&#45;67aa&#45;4337&#45;9903&#45;4ce4089ae77f&#45;&gt;d5fe6b0e&#45;b5dd&#45;45fa&#45;910d&#45;1a7c7a739cff -->
<g id="edge37" class="edge">
<title>9f672d36&#45;67aa&#45;4337&#45;9903&#45;4ce4089ae77f&#45;&gt;d5fe6b0e&#45;b5dd&#45;45fa&#45;910d&#45;1a7c7a739cff</title>
<path fill="none" stroke="black" d="M1161.03,-517.82C1164.49,-515.49 1168.23,-513.31 1171.97,-511.71 1205.86,-497.19 1291.22,-481.96 1362.58,-471.02"/>
<polygon fill="black" stroke="black" points="1363.19,-474.47 1372.55,-469.5 1362.13,-467.55 1363.19,-474.47"/>
</g>
<!-- d7aeefff&#45;f1b1&#45;46c1&#45;8483&#45;a0497136ab13 -->
<g id="node39" class="node">
<title>d7aeefff&#45;f1b1&#45;46c1&#45;8483&#45;a0497136ab13</title>
<polygon fill="lightgreen" stroke="black" points="1847.97,-472.49 1635.97,-472.49 1635.97,-436.49 1847.97,-436.49 1847.97,-472.49"/>
<text text-anchor="middle" x="1741.97" y="-449.49" font-family="Times,serif" font-size="20.00">PutIn(chicken_leg,oven)</text>
</g>
<!-- 9f672d36&#45;67aa&#45;4337&#45;9903&#45;4ce4089ae77f&#45;&gt;d7aeefff&#45;f1b1&#45;46c1&#45;8483&#45;a0497136ab13 -->
<g id="edge38" class="edge">
<title>9f672d36&#45;67aa&#45;4337&#45;9903&#45;4ce4089ae77f&#45;&gt;d7aeefff&#45;f1b1&#45;46c1&#45;8483&#45;a0497136ab13</title>
<path fill="none" stroke="black" d="M1160.3,-517.91C1163.93,-515.44 1167.92,-513.19 1171.97,-511.71 1362.38,-441.74 1425.74,-501.29 1626.97,-475.71 1631.1,-475.18 1635.31,-474.61 1639.55,-474"/>
<polygon fill="black" stroke="black" points="1640.13,-477.46 1649.51,-472.53 1639.1,-470.53 1640.13,-477.46"/>
</g>
<!-- d51e811e&#45;925c&#45;4f63&#45;a2b2&#45;7495519037b0 -->
<g id="node41" class="node">
<title>d51e811e&#45;925c&#45;4f63&#45;a2b2&#45;7495519037b0</title>
<ellipse fill="#ffff80" stroke="black" cx="1268.97" cy="-532.92" rx="88.28" ry="21.43"/>
<text text-anchor="middle" x="1268.97" y="-527.92" font-family="Times,serif" font-size="20.00">IsOpen(oven)</text>
</g>
<!-- 7b57494f&#45;683e&#45;411c&#45;a74a&#45;acd7bd87d024&#45;&gt;d51e811e&#45;925c&#45;4f63&#45;a2b2&#45;7495519037b0 -->
<g id="edge40" class="edge">
<title>7b57494f&#45;683e&#45;411c&#45;a74a&#45;acd7bd87d024&#45;&gt;d51e811e&#45;925c&#45;4f63&#45;a2b2&#45;7495519037b0</title>
<path fill="none" stroke="black" d="M1434.32,-597.01C1408.65,-587.22 1361.38,-569.18 1323.94,-554.89"/>
<polygon fill="black" stroke="black" points="1324.75,-551.46 1314.16,-551.16 1322.25,-558 1324.75,-551.46"/>
</g>
<!-- 436839bf&#45;fcf1&#45;4c20&#45;9938&#45;3621a6f2f600 -->
<g id="node42" class="node">
<title>436839bf&#45;fcf1&#45;4c20&#45;9938&#45;3621a6f2f600</title>
<ellipse fill="#ffff80" stroke="black" cx="1452.97" cy="-532.92" rx="77.56" ry="21.43"/>
<text text-anchor="middle" x="1452.97" y="-527.92" font-family="Times,serif" font-size="20.00">IsOff(oven)</text>
</g>
<!-- 7b57494f&#45;683e&#45;411c&#45;a74a&#45;acd7bd87d024&#45;&gt;436839bf&#45;fcf1&#45;4c20&#45;9938&#45;3621a6f2f600 -->
<g id="edge41" class="edge">
<title>7b57494f&#45;683e&#45;411c&#45;a74a&#45;acd7bd87d024&#45;&gt;436839bf&#45;fcf1&#45;4c20&#45;9938&#45;3621a6f2f600</title>
<path fill="none" stroke="black" d="M1452.97,-589.92C1452.97,-582.55 1452.97,-573.24 1452.97,-564.35"/>
<polygon fill="black" stroke="black" points="1456.47,-564.23 1452.97,-554.23 1449.47,-564.23 1456.47,-564.23"/>
</g>
<!-- 79f73f00&#45;29a1&#45;42d0&#45;8417&#45;7efbb53dfeaa -->
<g id="node43" class="node">
<title>79f73f00&#45;29a1&#45;42d0&#45;8417&#45;7efbb53dfeaa</title>
<ellipse fill="#ffff80" stroke="black" cx="1691.97" cy="-532.92" rx="143.59" ry="21.43"/>
<text text-anchor="middle" x="1691.97" y="-527.92" font-family="Times,serif" font-size="20.00">IsHolding(chicken_leg)</text>
</g>
<!-- 7b57494f&#45;683e&#45;411c&#45;a74a&#45;acd7bd87d024&#45;&gt;79f73f00&#45;29a1&#45;42d0&#45;8417&#45;7efbb53dfeaa -->
<g id="edge42" class="edge">
<title>7b57494f&#45;683e&#45;411c&#45;a74a&#45;acd7bd87d024&#45;&gt;79f73f00&#45;29a1&#45;42d0&#45;8417&#45;7efbb53dfeaa</title>
<path fill="none" stroke="black" d="M1471.73,-598.62C1503.36,-589.33 1568.91,-570.07 1620.31,-554.97"/>
<polygon fill="black" stroke="black" points="1621.45,-558.29 1630.06,-552.11 1619.48,-551.57 1621.45,-558.29"/>
</g>
<!-- 0b8fff4c&#45;59c4&#45;45d9&#45;a6d6&#45;4adb57ffed08 -->
<g id="node44" class="node">
<title>0b8fff4c&#45;59c4&#45;45d9&#45;a6d6&#45;4adb57ffed08</title>
<polygon fill="lightgreen" stroke="black" points="1963.97,-550.92 1853.97,-550.92 1853.97,-514.92 1963.97,-514.92 1963.97,-550.92"/>
<text text-anchor="middle" x="1908.97" y="-527.92" font-family="Times,serif" font-size="20.00">Walk(oven)</text>
</g>
<!-- 7b57494f&#45;683e&#45;411c&#45;a74a&#45;acd7bd87d024&#45;&gt;0b8fff4c&#45;59c4&#45;45d9&#45;a6d6&#45;4adb57ffed08 -->
<g id="edge43" class="edge">
<title>7b57494f&#45;683e&#45;411c&#45;a74a&#45;acd7bd87d024&#45;&gt;0b8fff4c&#45;59c4&#45;45d9&#45;a6d6&#45;4adb57ffed08</title>
<path fill="none" stroke="black" d="M1471.54,-602.95C1528.14,-599.09 1703.25,-585.29 1844.97,-554.13 1845.9,-553.93 1846.82,-553.72 1847.75,-553.5"/>
<polygon fill="black" stroke="black" points="1849,-556.8 1857.84,-550.96 1847.29,-550.01 1849,-556.8"/>
</g>
</g>
</svg>
